<?xml version="1.0" standalone="no"?>
<!DOCTYPE svg PUBLIC "-//W3C//DTD SVG 1.1//EN" "http://www.w3.org/Graphics/SVG/1.1/DTD/svg11.dtd" >
<svg xmlns="http://www.w3.org/2000/svg">
<metadata>
This is a custom SVG webfont generated by Font Squirrel.
</metadata>
<defs>
<font id="TF2Regular" horiz-adv-x="1126" >
<font-face units-per-em="2048" ascent="1536" descent="-512" />
<missing-glyph horiz-adv-x="716" />
<glyph unicode=" "  horiz-adv-x="716" />
<glyph unicode="&#x09;" horiz-adv-x="716" />
<glyph unicode="&#xa0;" horiz-adv-x="716" />
<glyph unicode="!" horiz-adv-x="368" d="M78 123q-6 33 10 59.5t45 32.5q29 4 54.5 -14.5t31.5 -53.5q6 -33 -10 -59.5t-45 -32.5q-29 -4 -54.5 14.5t-31.5 53.5zM102 332l23 1102l184 -17l-129 -1098z" />
<glyph unicode="&#x22;" horiz-adv-x="266" d="M2 1479l82 2l-4 -191h-43zM111 1497l79 -14l-24 -154h-43z" />
<glyph unicode="#" horiz-adv-x="655" d="M0 805v74l145 4l-8 153l66 -6v-149l172 2l8 114l78 -10l-17 -104l105 2l-8 -43l-103 -8l-14 -84l88 -5l-8 -55l-92 -4l-15 -164l-55 2l16 160l-145 -8v-164l-49 -4l-8 166l-127 -6l4 73h119l-5 78zM213 748l152 2l6 79l-158 -12v-69z" />
<glyph unicode="$" horiz-adv-x="1566" d="M0 760q0 162 62.5 305t169 249.5t250 169t304.5 62.5q158 0 298.5 -62.5t247 -169t168 -249.5t61.5 -305q0 -158 -61.5 -298t-168 -246.5t-247 -168t-298.5 -61.5q-33 0 -54 1t-44 5l244 592q94 29 169 94t105 170q39 96 20.5 193.5t-77.5 170.5l-111 -305l-245 -49 l-166 184l98 308q-90 -23 -164 -86.5t-102 -167.5q-37 -96 -16.5 -199.5t85.5 -175.5l-186 -600q-156 104 -249 272t-93 367z" />
<glyph unicode="%" horiz-adv-x="778" d="M2 209l510 1067l92 -37l-485 -1087zM8 1066q8 36 34 67.5t68 51t95 19.5q51 0 74.5 -42t16.5 -92t-43 -92t-108 -44q-55 -2 -88.5 17.5t-45 49t-3.5 65.5zM73.5 1019.5q10.5 -20.5 57.5 -20.5q33 -4 61.5 13.5t41 40t4 42t-44.5 25.5q-37 4 -69 -14.5t-46.5 -42t-4 -44z M425 539.5q9 60.5 48 109.5t102 49q59 0 85 -50t21 -109.5t-43 -110.5t-106 -51t-92 51t-15 111.5zM485.5 541.5q-8.5 -33.5 4 -62t51.5 -30.5q37 0 57 29.5t25.5 65.5t-7 63.5t-41.5 25.5q-35 -4 -58 -31t-31.5 -60.5z" />
<glyph unicode="&#x26;" horiz-adv-x="952" d="M49 434q0 31 19.5 79t49 103.5t64.5 112.5t63.5 109.5t48 93.5t19.5 63q0 33 -14 58.5t-31.5 39t-40 13.5t-41.5 -19q-33 -33 -22.5 -101t54.5 -150t114.5 -169t151.5 -159t167 -120t158 -50l-102 -127q-178 115 -318 250q-59 57 -115.5 126.5t-99.5 144.5t-69.5 157 t-24.5 168q0 61 14.5 93t33.5 45t35.5 15t20.5 2q2 0 29 -5t63.5 -24.5t71.5 -48t58 -75.5q14 -33 2.5 -76t-37 -91t-60.5 -101.5t-67.5 -111.5t-57 -118.5t-28.5 -126.5q10 -94 63 -128t117 -34q35 0 78 11.5t79.5 49.5t54 110.5t3.5 197.5l-162 -4l-8 92l266 -2 q10 -147 -18 -264q-12 -49 -32.5 -97.5t-56.5 -85t-85 -57t-119 -20.5q-82 0 -137.5 17.5t-89 47t-48 70.5t-14.5 96z" />
<glyph unicode="'" horiz-adv-x="264" d="M5 1425.5q-5 32.5 15 55.5t50 22.5t57 -20.5q33 -29 43 -64q10 -33 -1 -76t-67 -100l-39 25q41 31 52.5 52t9.5 36q-20 -10 -44 -6t-44 20q-27 23 -32 55.5z" />
<glyph unicode="(" horiz-adv-x="604" d="M25.5 630.5q15.5 106.5 63.5 216t112.5 215t122 182.5t107.5 132.5t54 55.5l33 -68q-100 -127 -180 -254q-61 -104 -117.5 -231t-60.5 -273q2 -123 46 -212t93 -154q57 -76 129 -131l-92 -107q-55 43 -113 109q-45 55 -95 137t-91 198q-27 78 -11.5 184.5z" />
<glyph unicode=")" horiz-adv-x="593" d="M0 70q100 127 180 254q61 104 117.5 231t60.5 272q-2 123 -46 212t-93 155q-57 76 -129 131l92 107q55 -43 113 -109q45 -55 95 -137t91 -199q27 -78 11.5 -184.5t-63.5 -216t-112.5 -215t-122 -182t-107.5 -132t-54 -55.5z" />
<glyph unicode="*" horiz-adv-x="542" d="M0 1221l195 69l-113 162l31 23l112 -125l56 176l63 -25l-63 -176l131 45l10 -37l-133 -57l151 -168l-69 -59l-131 178l-68 -183l-37 17l60 178l-179 -76z" />
<glyph unicode="+" horiz-adv-x="614" d="M-2 809l242 4l-4 234h83l-4 -234l193 4l4 -76l-197 -4l-2 -293l-69 -2l-4 295l-240 -4z" />
<glyph unicode="," horiz-adv-x="276" d="M22.5 84q-8.5 29 8.5 55q20 23 49 26t57 -15q23 -16 31 -44q25 -51 2 -100t-74 -108l-43 30q29 27 56.5 55.5t27.5 43.5q-39 -18 -80 10q-26 18 -34.5 47z" />
<glyph unicode="-" horiz-adv-x="573" d="M0 713l463 41l-8 -136l-449 17z" />
<glyph unicode="." horiz-adv-x="288" d="M39 150.5q-8 29.5 8 56.5q20 25 51 27t60 -19q27 -18 35 -49t-11 -55q-18 -25 -48 -27t-60 18q-27 19 -35 48.5z" />
<glyph unicode="/" horiz-adv-x="704" d="M0 154l461 1208l149 -25l-528 -1210z" />
<glyph unicode="0" horiz-adv-x="1083" d="M-2 770q4 117 27.5 200t59.5 145.5t78 100t89 58.5q102 57 233 49q12 0 49 -4t89.5 -22.5t114 -57.5t113.5 -108.5t88 -176t38 -258.5q0 -147 -28.5 -243.5t-70.5 -159t-97.5 -98t-107.5 -52t-85 -18.5t-70 0q-12 0 -55 7t-97.5 29.5t-117 63.5t-114.5 114t-92 177 t-44 254zM176 836q-14 -166 27 -287t103.5 -201t125 -116.5t113.5 -36.5q37 -2 82 18t84 67.5t69.5 130.5t44.5 210q10 125 -10 236.5t-64 194.5t-113 132t-153 53q-80 6 -143 -29q-55 -35 -105.5 -120.5t-60.5 -251.5z" />
<glyph unicode="1" horiz-adv-x="512" d="M0 1153q49 12 84 31.5t59 50.5q27 37 47 76l123 -2q-14 -1069 -8 -1076q4 -12 103 -110h-355l92 78l25 929q-37 -31 -61 -38q-31 -14 -72 -27z" />
<glyph unicode="2" horiz-adv-x="1044" d="M0 1219q41 27 118 54t168 42.5t189 15.5t182 -25.5t146.5 -81t85.5 -153.5q14 -70 3 -142.5t-40 -144t-73 -141.5t-89 -131q-113 -143 -262 -281q84 2 160 7q63 6 122.5 8t84.5 6q20 6 45.5 25.5t48.5 37.5q27 25 49 54v-240h-391h-146h-126h-89h-34q68 55 145.5 140 t149 171t127 162t77.5 113q14 25 34 66.5t31 93t8 105.5t-27.5 99t-75 76t-140.5 37q-90 4 -156.5 -12.5t-114.5 -39t-79 -46t-49 -35.5q-2 0 -14.5 24.5t-26.5 55.5q-16 35 -41 80z" />
<glyph unicode="3" horiz-adv-x="958" d="M0 1272q90 31 188.5 44t193.5 11t184 -20.5t157 -50t106.5 -74.5t40.5 -101q4 -106 -45 -173.5t-109.5 -107.5t-112.5 -57.5t-52 -19.5l37 -14q37 -14 84 -48t90 -89.5t49 -135.5q2 -74 -28.5 -123t-82 -83.5t-118 -55t-136.5 -31.5q-164 -27 -370 -10v105q156 -14 278 2 q53 8 103.5 22t90.5 40t63.5 61.5t23.5 89.5q0 45 -19.5 76.5t-48 53t-67.5 34t-78 20.5q-94 14 -211 2v119q2 2 39 1t91 3t117.5 17.5t118 44t89 79.5t32.5 127q0 68 -46 107t-113.5 54t-148.5 11t-153.5 -18.5t-124 -37t-69.5 -36.5z" />
<glyph unicode="4" horiz-adv-x="989" d="M0 616l602 713l94 -2l9 -596l204 17l2 -127l-206 -5q2 -389 11 -406t19 -34q14 -23 35 -49l-305 -2l51 39q47 39 53 49q4 2 4 403h-573zM248 707l323 14l11 407z" />
<glyph unicode="5" horiz-adv-x="841" d="M0 692l4 592l707 59v-180l-594 -2l2 -338q33 0 90 1t122.5 -3t134.5 -18.5t127 -43t97 -74.5t47 -118q4 -53 -16.5 -99t-58 -88t-89 -77t-106.5 -63q-125 -66 -291 -115l-49 121q121 37 215 82q53 25 91 46t66.5 51t47 61.5t16.5 74.5q-2 41 -26.5 65.5t-64.5 41 t-95 25.5t-107 12q-116 3 -270 -13z" />
<glyph unicode="6" horiz-adv-x="860" d="M8 553q-4 57 14.5 159.5t76 221.5t173 239.5t308.5 219.5q29 -41 45 -72q14 -29 28.5 -50.5t12.5 -21.5q-123 -51 -213.5 -114.5t-153.5 -135t-98 -145.5t-49 -137q174 66 294 59q33 0 84.5 -12t101.5 -46t88 -96.5t38 -164.5q0 -106 -52.5 -172t-119 -97.5t-133 -40 t-97.5 -8.5q-31 2 -88 18.5t-115.5 59.5t-101.5 125t-43 215q4 -29 4 -39t0 -7t-4 42zM176 388q8 -42 30.5 -75.5t57.5 -56.5t74 -25q76 -8 128 22t82 79t37 107.5t-6.5 111.5t-49 90t-89.5 43q-82 6 -131 -18.5t-76.5 -59.5t-40 -74.5t-16.5 -66.5q-8 -35 0 -77z" />
<glyph unicode="7" horiz-adv-x="882" d="M2 1305l780 16l-110 -1200l-148 4l146 1061l-656 -33z" />
<glyph unicode="8" horiz-adv-x="1001" d="M32.5 497.5q18.5 71.5 82 136t182.5 114.5q-74 23 -121 74.5t-64.5 115t-5 134.5t53.5 128t109.5 98t164.5 48q119 6 200 -50.5t114.5 -141.5t15 -178t-93.5 -159q115 -8 174 -63.5t72.5 -130t-16.5 -160.5t-94.5 -161t-164.5 -125t-225 -52q-90 -2 -170 29.5t-133.5 84 t-76 120t-4 139zM192.5 455.5q-10.5 -62.5 17.5 -116.5t90 -87t169 -27q90 0 156.5 39t100.5 98.5t38 128t-20.5 123t-83 89t-148.5 24.5q-94 -8 -161.5 -50t-107.5 -100.5t-50.5 -121zM262 1025q0 -58 20.5 -109.5t61.5 -81t107 -23.5q55 2 95 37t57.5 85t16 106.5 t-20.5 104.5t-57 80.5t-89 32.5q-63 0 -106.5 -34.5t-64 -87t-20.5 -110.5z" />
<glyph unicode="9" horiz-adv-x="772" d="M0 936q0 72 17.5 141.5t56.5 127t105.5 95t154.5 39.5q4 0 33.5 -4t68.5 -15t81 -40t78 -80t61.5 -125t27.5 -192q0 -78 -18.5 -158t-53 -150.5t-76.5 -133t-85 -113.5q-106 -123 -242 -226l-111 131q111 72 197 156q76 70 137.5 154t67.5 166q-119 -53 -212 -42 t-155.5 55t-97.5 102.5t-35 111.5zM134 974.5q11 -61.5 44 -109.5t86 -77.5t127 -19.5q47 6 80 46t42 94.5t0 111.5t-39 108.5t-79 80t-114 22.5q-61 -8 -96 -47t-48.5 -93.5t-2.5 -116z" />
<glyph unicode=":" horiz-adv-x="317" d="M9 366q-7 40 18 78q25 35 65.5 41.5t75.5 -16.5q39 -29 45 -69t-16 -76q-25 -35 -67 -42.5t-77 17.5q-37 27 -44 67zM41 944q-6 37 14 68q23 29 59 36t66 -16q31 -20 38 -57t-15 -66q-20 -31 -58.5 -38t-66.5 14q-31 22 -37 59z" />
<glyph unicode=";" horiz-adv-x="305" d="M4 395q-4 35 16 58t55.5 28.5t78.5 -16.5q12 -6 27.5 -31.5t15.5 -65.5t-22.5 -88.5t-86.5 -101.5l-55 29q41 31 60.5 70.5t17.5 52.5q-20 -10 -43 0t-31 14q-29 16 -33 51zM8 918.5q-6 39.5 17 72.5t62.5 39t72.5 -16q35 -23 41 -63t-17 -72q-23 -35 -61.5 -41.5 t-71.5 18.5q-37 23 -43 62.5z" />
<glyph unicode="&#x3c;" horiz-adv-x="407" d="M2 688l258 270l45 -63l-221 -186l213 -166l-57 -82z" />
<glyph unicode="=" horiz-adv-x="628" d="M6 664l502 24v-82l-498 -2zM18 748l9 81l493 -38l4 -58z" />
<glyph unicode="&#x3e;" horiz-adv-x="409" d="M2 526l223 187l-219 170l62 82l241 -232l-260 -270z" />
<glyph unicode="?" horiz-adv-x="1087" d="M-2 1178q37 31 108.5 68.5t161.5 72.5t190.5 45t196 0t173 -52t126.5 -126q35 -63 34 -122.5t-26.5 -110t-69.5 -95.5t-97 -82q-121 -86 -297 -153l102 -304l-123 -28l-94 395q150 41 252 109q47 27 85 60.5t61.5 75.5t25.5 92t-25 105q-33 72 -92 100.5t-137 34 t-188.5 -31.5t-245.5 -174zM502 115q10 37 37.5 58.5t56.5 14.5q27 -8 41 -40.5t4 -71.5q-10 -37 -38 -58.5t-56 -13.5q-27 6 -41 39t-4 72z" />
<glyph unicode="@" horiz-adv-x="972" d="M4 582q2 154 64.5 242.5t143.5 134t156.5 55.5t106.5 6q6 0 38 -2t75 -13.5t93 -34t90 -64.5t67.5 -105.5t27.5 -153.5q-6 -76 -31.5 -118t-53 -63.5t-53.5 -25.5t-30 -4q8 0 -2 -1t-28.5 3t-41 15.5t-42.5 35.5q-2 -12 -18.5 -28.5t-39 -28.5t-47 -20.5t-45.5 -8.5 q-29 0 -61.5 18.5t-58 50.5t-37 76t3.5 99q6 27 22 60.5t43 64.5t67 50.5t91 19.5q47 -6 72.5 -33t36 -63.5t13.5 -82t9 -80t19.5 -56t43.5 -17.5q31 6 50.5 40t24.5 80t-7 99t-48 98t-94.5 74t-146.5 29q-125 -2 -194.5 -50.5t-103.5 -107.5t-43 -113.5t-9 -70.5 q-2 -35 8 -81t32.5 -92t60.5 -86t96.5 -61.5t136.5 -19.5t180 43q2 0 6 -12l10 -31q8 -20 17 -45q-20 -14 -76.5 -27.5t-131.5 -15.5t-156 13t-148.5 62.5t-111.5 131.5t-46 215zM374 643q-9 -53 5 -101t63 -61q31 -4 53.5 16.5t36 53.5t18.5 74t-1 74.5t-21.5 57 t-46.5 23.5q-41 2 -69.5 -41t-37.5 -96z" />
<glyph unicode="A" horiz-adv-x="1015" d="M0 0l422 1444l561 -1424l-235 -16l47 64l-385 1017l-123 -483l334 25l22 -109l-379 -22l-131 -441l51 -55l-182 2z" />
<glyph unicode="B" horiz-adv-x="1013" d="M0 1309l2 123q45 0 116 1h36q54 0 112 -2q78 -3 159 -18.5t145.5 -45.5t106.5 -82t46 -132v-14q0 -91 -48 -159q-52 -73 -118 -118q-78 -49 -154 -67q41 5 81 4q94 0 182 -27q53 -20 103 -52t93 -91.5t62 -115.5q17 -51 16 -112v-14q-2 -92 -43 -158.5t-107.5 -111.5 t-153.5 -71t-185 -36q-82 -9 -166 -8h-33q-100 2 -197 12q0 39 -1 59.5t-1 31.5v15v7l52 -11q52 -11 133 -17q36 -2 75 -2q47 0 100 3q95 6 176 37t138 97.5t64 183.5q0 84 -39 137t-101.5 86t-138.5 43t-139 12q-25 1 -48 1q-33 0 -59 -2l-43 -3v22q0 19 2 42q0 27 2 73 q106 18 191 56q35 16 69.5 37.5t60 54.5t39.5 75q12 36 11 81v14q-2 57 -29.5 91t-69.5 52.5t-89.5 24.5t-89 6t-97.5 -2l45 -1270l-151 8l6 1258h-21q-18 0 -43 -2z" />
<glyph unicode="C" horiz-adv-x="1064" d="M20 729q8 172 86 308.5t207 227.5t299 129q107 24 220 23q67 0 137 -8l-68 -164q-126 32 -235 32q-71 0 -136 -13q-70 -16 -134 -52t-112 -103t-75 -169q-20 -78 -20 -183q0 -32 1 -67q6 -158 38 -262t78 -168.5t104.5 -96.5t117.5 -40q29 -4 60 -4q116 0 252 61l69 -157 q-108 -17 -204 -18q-136 0 -252 34q-86 23 -165 72t-140.5 128.5t-97.5 200.5q-31 103 -30 241q-1 23 0 48z" />
<glyph unicode="D" horiz-adv-x="1171" d="M4 1391q140 26 269 25q106 0 204 -17q92 -16 184.5 -52t172 -101.5t140 -165t91.5 -240.5q18 -105 18 -193q0 -69 -11 -127q-26 -133 -90 -227t-157.5 -150.5t-193.5 -87.5q-164 -50 -366 -50q-95 0 -199 11l-5 115q118 -20 223 -19q115 0 214 23q82 18 158.5 58t140 110 t95.5 174q24 79 24 184q0 34 -3 70q-6 123 -40.5 210t-85 151.5t-108.5 102.5t-122 60q-114 41 -244 42q-31 0 -63 -3l26 -1212l-135 20v1186l-125 -18z" />
<glyph unicode="E" horiz-adv-x="1019" d="M0 1317v117l948 -15l-2 -241q-43 35 -80 65.5t-78 63.5l-555 6l5 -492l387 19v-131h-385l14 -592q461 8 463 10q6 2 170 111v-234h-838v113l60 -4v1204h-109z" />
<glyph unicode="F" horiz-adv-x="1026" d="M0 1430l965 -5l-7 -272q-25 37 -47 70q-18 27 -37.5 52t-33.5 30q-6 2 -39 3h-20q-93 0 -572 -5l10 -488l365 12l-4 -129l-359 2q18 -584 21 -589q4 -10 137 -109h-359q78 74 80 82q0 4 -8 619q-5 352 -5 500q0 111 3 106h-86z" />
<glyph unicode="G" horiz-adv-x="1114" d="M31 731q6 121 57 222.5t128 188.5t174 144t200.5 92t204.5 43q45 4 85 4q51 0 97 -6l6 -239l-47 59q-18 25 -35.5 44.5t-28.5 21.5q-33 3 -65 3q-87 0 -171 -24q-116 -33 -213 -106.5t-157.5 -187t-68.5 -263.5q-2 -32 -3 -63q0 -108 28 -201q36 -121 123 -205t212 -124 q73 -23 162 -23q64 0 137 12l-53 571l-373 -16l-6 121l485 8l99 -772q-149 -29 -283 -29q-119 0 -225 23q-96 20 -187.5 66t-158 128t-102.5 206q-26 89 -25 205q0 46 4 97z" />
<glyph unicode="H" horiz-adv-x="1069" d="M2 1425l223 9q-4 4 -63 -109q-10 -35 -17 -778l639 16l-39 848l148 8l57 -1415l-207 2q29 35 56 82v56q0 144 -8 323l-646 -27l-4 -438h-137z" />
<glyph unicode="I" horiz-adv-x="442" d="M4 1432h279q-18 -16 -33 -31q-10 -12 -22.5 -24.5t-14.5 -20.5q0 -2 4 -620.5t6 -620.5q4 -6 123 -111l-338 -4q57 55 68 76q4 8 9 631.5t5 629.5q-6 10 -18.5 26t-67.5 69z" />
<glyph unicode="J" horiz-adv-x="729" d="M0 522l135 -6q0 -29 4 -96.5t21.5 -132t69.5 -115.5q45 -44 93 -44q8 0 15 1q80 10 117 73.5t44 148.5q4 50 4 107q0 41 -2 85q-5 106 -18 213q-31 260 -102 671l147 5q27 -205 40.5 -301.5t25.5 -218t20 -247.5q4 -67 5 -134q0 -58 -4 -115q-7 -123 -45 -215t-100 -148 q-58 -51 -144 -51h-13q-59 2 -101 26.5t-76 61.5t-56.5 84t-38.5 94q-35 113 -41 254z" />
<glyph unicode="K" horiz-adv-x="1044" d="M0 1432l289 -5l-60 -41q-61 -43 -61 -47l10 -376l610 401l93 -84l-514 -303l632 -766l-129 -107l-598 814l-98 -60l21 -770q2 -6 55 -43l55 -37l-299 -8q49 84 49 86l-4 642q-4 642 -4 644q-2 1 -47 60z" />
<glyph unicode="L" horiz-adv-x="997" d="M0 1434h311q-76 -49 -89 -64.5t-15 -19.5q-2 -2 -4 -58.5t-4 -1178.5q610 14 616 20q10 2 103 119l-3 -250l-849 -4l-9 1384q-26 23 -57 52z" />
<glyph unicode="M" horiz-adv-x="1245" d="M2 2l49 37q18 16 34.5 31.5t18.5 23.5q0 6 -5 621.5t-7 617.5l-15 22.5t-24 35.5q-14 20 -33 41l263 -7l368 -815l357 733l129 9l-2 -1289l-242 -2q23 10 43 21q16 8 57 35q2 2 6 999l-389 -784l-415 909q20 -1169 24 -1171q4 -6 33 -18.5t119 -49.5h-369z" />
<glyph unicode="N" horiz-adv-x="1085" d="M0 2l57 66l-45 1284l152 6l702 -950q-12 938 -14 944l-21 20q-14 14 -30 29l-43 29l207 2l12 -1428l-848 1129q39 -1034 41 -1045q6 -10 22.5 -26.5t34.5 -28.5q23 -16 49 -31h-276z" />
<glyph unicode="O" horiz-adv-x="1308" d="M18 764q8 188 62.5 311t126.5 197t169 118t232 46q166 -2 301 -64q59 -25 114.5 -67.5t101.5 -109.5t75 -160t35 -214v-15q0 -193 -49 -339q-51 -152 -137 -254t-196 -155.5t-224 -55.5h-11q-109 0 -218 41q-114 43 -202.5 136t-140.5 239q-41 117 -41 270q0 37 2 76z M190 899q-9 -74 -8 -142q0 -106 21 -199q35 -153 102.5 -260.5t157.5 -163.5q84 -53 166 -52h12q45 0 110.5 17.5t129 79t115 185t67.5 341.5q3 42 3 79q0 96 -18 170q-26 104 -72 178t-101.5 120t-119 72t-141.5 28q-10 0 -41.5 -1t-73.5 -10.5t-86 -33t-91.5 -67.5 t-82.5 -130t-49 -211z" />
<glyph unicode="P" horiz-adv-x="991" d="M2 1411q164 17 306 17q77 0 147 -5q86 -8 166.5 -27.5t145 -51t104.5 -81t40 -118.5q0 -92 -35.5 -153.5t-95 -100.5t-133.5 -57.5t-149.5 -26.5t-255.5 -16q-68 0 -78 10t8 24q18 16 68 47q20 -1 38 0q134 0 238 25q51 12 99.5 30.5t84 45t53.5 62.5q13 26 13 61 q0 12 -2 24q-16 92 -82 137.5t-148 61.5q-63 12 -128 12q-20 0 -40 -1q-85 -5 -139 -11q43 -1186 43 -1188q4 -4 21.5 -22.5t38.5 -36.5q25 -25 53 -52l-322 -14q16 14 29 25l22 21q9 9 11 14q0 4 -10 1241l-105 -13z" />
<glyph unicode="Q" horiz-adv-x="1277" d="M6 614v31q0 180 45 321q49 153 132 254t191.5 154t221.5 58h11q107 0 215 -39q114 -41 202 -133.5t140 -234.5q44 -119 44 -274q0 -30 -2 -63q-10 -217 -74.5 -346t-150.5 -201l158 -157l-123 -101l-154 185q-43 -18 -81 -29.5t-68.5 -16t-51 -5.5t-28.5 -1 q-10 0 -60.5 1t-117 16.5t-142 50.5t-141.5 100.5t-112 169.5t-54 260zM174 733q-1 -27 -1 -52q0 -110 22 -195q27 -103 71.5 -174.5t101 -116.5t107.5 -69t92 -33t51 -9q9 -2 28 -2t46 2q55 4 123 39l-217 258l82 63l238 -239q43 53 74.5 136t45.5 208q7 67 8 128 q0 111 -24 208q-37 150 -104.5 256t-157.5 162q-84 51 -163 51h-11q-45 -2 -99.5 -20.5t-127 -80t-122 -183.5t-63.5 -337z" />
<glyph unicode="R" horiz-adv-x="1228" d="M0 1427q100 4 214 7q38 1 76 0q76 0 152 -2q115 -4 220.5 -21.5t187.5 -60.5t132 -114t54 -181q0 -109 -48 -174.5t-105 -102.5q-68 -41 -154 -67l451 -539l-129 -104q-115 174 -203 311q-43 61 -81 116.5t-69 100.5q-31 51 -61 88q-16 -4 -71.5 -14.5t-127.5 -20.5 q-86 -12 -180 -18q27 -477 27 -481q0 -6 18.5 -28t42.5 -48q25 -29 57 -60l-309 -12q16 23 29 45q12 18 20.5 31.5t8.5 17.5t-48 1219l-92 -8zM217 1323l33 -606q174 4 313 35q57 14 123 39.5t107 63.5t67 88q23 43 23 102v18q-8 68 -42 116t-80 78.5t-105.5 47t-133.5 26.5 q-53 5 -109 5q-94 0 -196 -13z" />
<glyph unicode="S" horiz-adv-x="778" d="M6 936v16q0 105 49 192q53 93 146.5 157.5t215.5 98.5q109 30 231 30h30v-136q-25 8 -61.5 16.5t-68.5 9.5h-6q-31 0 -86 -10q-60 -11 -120 -50t-116 -101.5t-60 -181.5q0 -80 49 -143.5t105.5 -103.5t122 -78t123.5 -84t98 -106.5t42 -148.5q0 -5 1 -10q0 -63 -23 -110 q-25 -51 -66 -87t-94 -56.5t-108 -31.5q-83 -16 -181 -15q-57 0 -120 5l45 238q12 -31 20 -58q10 -23 19.5 -43t17.5 -30q6 -6 41 -11q15 -2 33 -1q22 0 47 2q45 5 94 22.5t82 52.5t39 92q1 8 1 17q0 53 -34 127q-43 70 -93 113.5t-105.5 76.5t-108.5 60.5t-96 62.5t-73 83 t-32 124z" />
<glyph unicode="T" d="M2 1188l2 201l1047 41l4 -234q-14 23 -29 47q-10 18 -23.5 35.5t-23.5 24.5q-5 4 -91 3q-106 0 -337 -6q39 -1171 39 -1175q2 -12 45 -62l51 -63l-387 2q86 53 107 70l30 24q2 2 2 70q0 220 -20 1132q-311 -2 -320 -4l-43 -45q-24 -28 -53 -61z" />
<glyph unicode="U" horiz-adv-x="1105" d="M2 1432l266 -7q-20 -29 -39 -53q-16 -25 -29.5 -47t-15.5 -39q0 -127 3 -257t15.5 -254t37 -237.5t65.5 -201.5t109.5 -144.5t160.5 -70.5q10 -1 21 -1q75 0 127 68q59 78 92 204t38 278q4 108 4 208q0 40 -1 78q-2 135 -17.5 235.5t-35.5 123.5q-2 4 -16.5 17.5 t-30.5 27.5l-41 37h143l141 2q2 -143 8 -308q3 -82 2.5 -164t-2.5 -163q-5 -162 -24.5 -309.5t-70 -254t-134.5 -159.5q-59 -37 -140 -37q-34 0 -73 6q-152 29 -248 121t-154.5 218t-85 274.5t-35.5 288t-9 258t-6 184.5l-15 47q-6 15 -10 31z" />
<glyph unicode="V" horiz-adv-x="1099" d="M6 1409l303 23q-29 -33 -47 -58q-23 -25 -47 -67q0 -4 377 -959l299 1069h135l-430 -1415z" />
<glyph unicode="W" horiz-adv-x="1382" d="M0 1409h238l-68 -55q-12 -16 -14 -25l213 -1120l321 756l299 -709q139 899 142.5 942t-1.5 47q-4 10 -22 26.5t-39 33.5q-27 18 -57 36l315 9q-10 -18 -22 -45q-12 -25 -21 -64l-213 -1227l-139 -2l-252 672l-272 -676l-142 -4z" />
<glyph unicode="X" horiz-adv-x="1148" d="M2 119l459 637l-402 598l150 80l350 -560l326 498l116 -41l-372 -557l473 -678l-137 -92l-437 645l-415 -596z" />
<glyph unicode="Y" d="M0 1432l240 -11l-29 -22q-10 -8 -18.5 -18.5t-10.5 -14.5q0 -4 348 -541q326 501 326 508q0 4 -16 21l-27 26q-16 16 -37 35l322 -12l-94 -86l-396 -606l37 -639l88 -70h-368q84 49 104 65.5t25 26.5q2 6 2 37v78q0 47 -2 104.5t-5 116.5q-8 139 -14 293 q-182 289 -238.5 372t-106.5 153.5t-87 122t-43 61.5z" />
<glyph unicode="Z" horiz-adv-x="1046" d="M2 39l721 1251l-518 -33q-33 -18 -66 -59q-37 -35 -73 -78l-7 264l861 37l-711 -1253q537 -11 617 -11q13 0 14 1q53 41 78 61q27 25 53 55l2 -266z" />
<glyph unicode="[" horiz-adv-x="370" d="M2 1372l260 55v-145h-135l20 -1188l158 17v-99l-233 -10z" />
<glyph unicode="\" horiz-adv-x="595" d="M18 1126l123 21l381 -997l-67 -23z" />
<glyph unicode="]" horiz-adv-x="389" d="M2 1411l217 21l90 -1371l-246 -61l-2 147l129 3l-32 1189l-152 -22z" />
<glyph unicode="^" horiz-adv-x="440" d="M4 1038l139 299l197 -225l-37 -25l-151 185l-80 -262z" />
<glyph unicode="_" horiz-adv-x="737" d="M6 -31l631 33l-6 -108l-617 12z" />
<glyph unicode="`" horiz-adv-x="305" d="M90 1577l35 33l102 -133l-20 -17zM90 1577l35 33l102 -133l-20 -17z" />
<glyph unicode="a" horiz-adv-x="1015" d="M0 0l422 1444l561 -1424l-235 -16l47 64l-385 1017l-123 -483l334 25l22 -109l-379 -22l-131 -441l51 -55l-182 2z" />
<glyph unicode="b" horiz-adv-x="1009" d="M0 1309l2 123q45 0 116 1h36q54 0 112 -2q78 -3 159 -18.5t145.5 -45.5t106.5 -82t46 -132v-14q0 -91 -48 -159q-52 -73 -118 -118q-78 -49 -154 -67q41 5 81 4q94 0 182 -27q53 -20 103 -52t93 -91.5t62 -115.5q17 -51 16 -112v-14q-2 -92 -43 -158.5t-107.5 -111.5 t-153.5 -71t-185 -36q-82 -9 -166 -8h-33q-100 2 -197 12q0 39 -1 59.5t-1 31.5v15v7l52 -11q52 -11 133 -17q36 -2 75 -2q47 0 100 3q95 6 176 37t138 97.5t64 183.5q0 84 -39 137t-101.5 86t-138.5 43t-139 12q-25 1 -48 1q-33 0 -59 -2l-43 -3v22q0 19 2 42q0 27 2 73 q106 18 191 56q35 16 69.5 37.5t60 54.5t39.5 75q12 36 11 81v14q-2 57 -29.5 91t-69.5 52.5t-89.5 24.5t-89 6t-97.5 -2l45 -1270l-151 8l6 1258h-21q-18 0 -43 -2z" />
<glyph unicode="c" horiz-adv-x="1064" d="M20 729q8 172 86 308.5t207 227.5t299 129q107 24 220 23q67 0 137 -8l-68 -164q-126 32 -235 32q-71 0 -136 -13q-70 -16 -134 -52t-112 -103t-75 -169q-20 -78 -20 -183q0 -32 1 -67q6 -158 38 -262t78 -168.5t104.5 -96.5t117.5 -40q29 -4 60 -4q116 0 252 61l69 -157 q-108 -17 -204 -18q-136 0 -252 34q-86 23 -165 72t-140.5 128.5t-97.5 200.5q-31 103 -30 241q-1 23 0 48z" />
<glyph unicode="d" horiz-adv-x="1171" d="M4 1391q140 26 269 25q106 0 204 -17q92 -16 184.5 -52t172 -101.5t140 -165t91.5 -240.5q18 -105 18 -193q0 -69 -11 -127q-26 -133 -90 -227t-157.5 -150.5t-193.5 -87.5q-164 -50 -366 -50q-95 0 -199 11l-5 115q121 -20 228 -20q112 0 209 22q82 18 157.5 59t133 111 t90.5 174q28 88 27 208q0 22 -1 46q-6 123 -38.5 211t-81 151.5t-106.5 101.5t-122 60q-114 41 -249 42q-32 0 -66 -3l34 -1212l-135 20v1186l-125 -18z" />
<glyph unicode="e" horiz-adv-x="1024" d="M0 1317v117l948 -15l-2 -241q-43 35 -80 65.5t-78 63.5l-555 6l5 -492l387 19v-131h-385l14 -592q461 8 463 10q6 2 170 111v-234h-838v113l60 -4v1204h-109z" />
<glyph unicode="f" horiz-adv-x="1026" d="M0 1430l965 -5l-7 -272q-25 37 -47 70q-18 27 -37.5 52t-33.5 30q-6 2 -39 3h-20q-93 0 -572 -5l10 -488l365 12l-4 -129l-359 2q18 -584 21 -589q4 -10 137 -109h-359q78 74 80 82q0 4 -8 619q-5 352 -5 500q0 111 3 106h-86z" />
<glyph unicode="g" horiz-adv-x="1114" d="M31 731q6 121 57 222.5t128 188.5t174 144t200.5 92t204.5 43q45 4 85 4q51 0 97 -6l6 -239l-47 59q-18 25 -35.5 44.5t-28.5 21.5q-33 3 -65 3q-87 0 -171 -24q-116 -33 -213 -106.5t-157.5 -187t-68.5 -263.5q-2 -32 -3 -63q0 -108 28 -201q36 -121 123 -205t212 -124 q73 -23 162 -23q64 0 137 12l-53 571l-373 -16l-6 121l485 8l99 -772q-149 -29 -283 -29q-119 0 -225 23q-96 20 -187.5 66t-158 128t-102.5 206q-26 89 -25 205q0 46 4 97z" />
<glyph unicode="h" horiz-adv-x="1069" d="M0 2l2 1423l223 9q-4 4 -100 -109l2 -778l657 16l-39 848l148 8l57 -1415l-207 2q29 35 56 82v56q0 144 -8 323l-654 -27l6 -438h-143z" />
<glyph unicode="i" horiz-adv-x="440" d="M4 1432h279q-18 -16 -33 -31q-10 -12 -22.5 -24.5t-14.5 -20.5q0 -2 4 -620.5t6 -620.5q4 -6 123 -111l-338 -4q57 55 68 76q4 8 9 631.5t5 629.5q-6 10 -18.5 26t-67.5 69z" />
<glyph unicode="j" horiz-adv-x="729" d="M0 522l135 -6q0 -29 4 -96.5t21.5 -132t69.5 -115.5q45 -44 93 -44q8 0 15 1q80 10 117 73.5t44 148.5q4 50 4 107q0 41 -2 85q-5 106 -18 213q-31 260 -102 671l147 5q27 -205 40.5 -301.5t25.5 -218t20 -247.5q4 -67 5 -134q0 -58 -4 -115q-7 -123 -45 -215t-100 -148 q-58 -51 -144 -51h-13q-59 2 -101 26.5t-76 61.5t-56.5 84t-38.5 94q-35 113 -41 254z" />
<glyph unicode="k" horiz-adv-x="1044" d="M0 1432l289 -5l-60 -41q-61 -43 -61 -47l10 -376l610 401l93 -84l-514 -303l632 -766l-129 -107l-598 814l-98 -60l21 -770q2 -6 55 -43l55 -37l-299 -8q49 84 49 86l-4 642q-4 642 -4 644q-2 1 -47 60z" />
<glyph unicode="l" horiz-adv-x="997" d="M0 1434h311q-76 -49 -89 -64.5t-15 -19.5q-2 -2 -4 -58.5t-4 -1178.5q610 14 616 20q10 2 103 119l-3 -250l-849 -4l-9 1384q-26 23 -57 52z" />
<glyph unicode="m" horiz-adv-x="1249" d="M2 2l49 37q18 16 34.5 31.5t18.5 23.5q0 6 -5 621.5t-7 617.5l-15 22.5t-24 35.5q-14 20 -33 41l263 -7l368 -815l357 733l129 9l-2 -1289l-242 -2q23 10 43 21q16 8 57 35q2 2 6 999l-389 -784l-415 909q20 -1169 24 -1171q4 -6 33 -18.5t119 -49.5h-369z" />
<glyph unicode="n" horiz-adv-x="1085" d="M0 2l57 66l-45 1284h156l698 -944q-12 938 -14 944l-21 20q-14 14 -30 29l-43 29l207 2l12 -1428l-848 1129q39 -1034 41 -1045q6 -10 22.5 -26.5t34.5 -28.5q23 -16 49 -31h-276z" />
<glyph unicode="o" horiz-adv-x="1308" d="M18 764q8 188 62.5 311t126.5 197t169 118t232 46q166 -2 301 -64q59 -25 114.5 -67.5t101.5 -109.5t75 -160t35 -214v-15q0 -193 -49 -339q-51 -152 -137 -254t-196 -155.5t-224 -55.5h-11q-109 0 -218 41q-114 43 -202.5 136t-140.5 239q-41 117 -41 270q0 37 2 76z M190 899q-9 -74 -8 -142q0 -106 21 -199q35 -153 102.5 -260.5t157.5 -163.5q84 -53 166 -52h12q45 0 110.5 17.5t129 79t115 185t67.5 341.5q3 42 3 79q0 96 -18 170q-26 104 -72 178t-101.5 120t-119 72t-141.5 28q-10 0 -41.5 -1t-73.5 -10.5t-86 -33t-91.5 -67.5 t-82.5 -130t-49 -211z" />
<glyph unicode="p" horiz-adv-x="991" d="M2 1411q164 17 306 17q77 0 147 -5q86 -8 166.5 -27.5t145 -51t104.5 -81t40 -118.5q0 -92 -35.5 -153.5t-95 -100.5t-133.5 -57.5t-149.5 -26.5t-255.5 -16q-68 0 -78 10t8 24q18 16 68 47q20 -1 38 0q134 0 238 25q51 12 99.5 30.5t84 45t53.5 62.5q13 26 13 61 q0 12 -2 24q-16 92 -82 137.5t-148 61.5q-63 12 -128 12q-20 0 -40 -1q-85 -5 -139 -11q43 -1186 43 -1188q4 -4 21.5 -22.5t38.5 -36.5q25 -25 53 -52l-322 -14q16 14 29 25l22 21q9 9 11 14q0 4 -10 1241l-105 -13z" />
<glyph unicode="q" horiz-adv-x="1277" d="M6 614v31q0 180 45 321q49 153 132 254t191.5 154t221.5 58h11q107 0 215 -39q114 -41 202 -133.5t140 -234.5q44 -119 44 -274q0 -30 -2 -63q-10 -217 -74.5 -346t-150.5 -201l158 -157l-123 -101l-154 185q-43 -18 -81 -29.5t-68.5 -16t-51 -5.5t-28.5 -1 q-10 0 -60.5 1t-117 16.5t-142 50.5t-141.5 100.5t-112 169.5t-54 260zM174 733q-1 -27 -1 -52q0 -110 22 -195q27 -103 71.5 -174.5t101 -116.5t107.5 -69t92 -33t51 -9q9 -2 28 -2t46 2q55 4 123 39l-217 258l82 63l238 -239q43 53 74.5 136t45.5 208q7 67 8 128 q0 111 -24 208q-37 150 -104.5 256t-157.5 162q-84 51 -163 51h-11q-45 -2 -99.5 -20.5t-127 -80t-122 -183.5t-63.5 -337z" />
<glyph unicode="r" horiz-adv-x="1228" d="M0 1427q100 4 214 7q38 1 76 0q76 0 152 -2q115 -4 220.5 -21.5t187.5 -60.5t132 -114t54 -181q0 -109 -48 -174.5t-105 -102.5q-68 -41 -154 -67l451 -539l-129 -104q-115 174 -203 311q-43 61 -81 116.5t-69 100.5q-31 51 -61 88q-16 -4 -71.5 -14.5t-127.5 -20.5 q-86 -12 -180 -18q27 -477 27 -481q0 -6 18.5 -28t42.5 -48q25 -29 57 -60l-309 -12q16 23 29 45q12 18 20.5 31.5t8.5 17.5t-48 1219l-92 -8zM217 1323l33 -606q174 4 313 35q57 14 123 39.5t107 63.5t67 88q23 43 23 102v18q-8 68 -42 116t-80 78.5t-105.5 47t-133.5 26.5 q-53 5 -109 5q-94 0 -196 -13z" />
<glyph unicode="s" horiz-adv-x="778" d="M6 936v16q0 105 49 192q53 93 146.5 157.5t215.5 98.5q109 30 231 30h30v-136q-25 8 -61.5 16.5t-68.5 9.5h-6q-31 0 -86 -10q-60 -11 -120 -50t-116 -101.5t-60 -181.5q0 -80 49 -143.5t105.5 -103.5t122 -78t123.5 -84t98 -106.5t42 -148.5q0 -5 1 -10q0 -63 -23 -110 q-25 -51 -66 -87t-94 -56.5t-108 -31.5q-83 -16 -181 -15q-57 0 -120 5l45 238q12 -31 20 -58q10 -23 19.5 -43t17.5 -30q6 -6 41 -11q15 -2 33 -1q22 0 47 2q45 5 94 22.5t82 52.5t39 92q1 8 1 17q0 53 -34 127q-43 70 -93 113.5t-105.5 76.5t-108.5 60.5t-96 62.5t-73 83 t-32 124z" />
<glyph unicode="t" d="M2 1188l2 201l1047 41l4 -234q-14 23 -29 47q-10 18 -23.5 35.5t-23.5 24.5q-5 4 -91 3q-106 0 -337 -6q39 -1171 39 -1175q2 -12 45 -62l51 -63l-387 2q86 53 107 70l30 24q2 2 2 70q0 220 -20 1132q-311 -2 -320 -4l-43 -45q-24 -28 -53 -61z" />
<glyph unicode="u" horiz-adv-x="1105" d="M2 1432l266 -7q-20 -29 -39 -53q-16 -25 -29.5 -47t-15.5 -39q0 -127 3 -257t15.5 -254t37 -237.5t65.5 -201.5t109.5 -144.5t160.5 -70.5q10 -1 21 -1q75 0 127 68q59 78 92 204t38 278q4 108 4 208q0 40 -1 78q-2 135 -17.5 235.5t-35.5 123.5q-2 4 -16.5 17.5 t-30.5 27.5l-41 37h143l141 2q2 -143 8 -308q3 -82 2.5 -164t-2.5 -163q-5 -162 -24.5 -309.5t-70 -254t-134.5 -159.5q-59 -37 -140 -37q-34 0 -73 6q-152 29 -248 121t-154.5 218t-85 274.5t-35.5 288t-9 258t-6 184.5l-15 47q-6 15 -10 31z" />
<glyph unicode="v" horiz-adv-x="1099" d="M6 1409l303 23q-29 -33 -47 -58q-23 -25 -47 -67q0 -4 377 -959l299 1069h135l-430 -1415z" />
<glyph unicode="w" horiz-adv-x="1384" d="M0 1409h238l-68 -55q-12 -16 -14 -25l213 -1120l321 756l299 -709q139 899 142.5 942t-1.5 47q-4 10 -22 26.5t-39 33.5q-27 18 -57 36l315 9q-10 -18 -22 -45q-12 -25 -21 -64l-213 -1227l-139 -2l-252 672l-272 -676l-142 -4z" />
<glyph unicode="x" horiz-adv-x="1148" d="M2 119l459 637l-402 598l150 80l350 -560l326 498l116 -41l-372 -557l473 -678l-137 -92l-437 645l-415 -596z" />
<glyph unicode="y" d="M0 1432l240 -11l-29 -22q-10 -8 -18.5 -18.5t-10.5 -14.5q0 -4 348 -541q326 501 326 508q0 4 -16 21l-27 26q-16 16 -37 35l322 -12l-94 -86l-396 -606l37 -639l88 -70h-368q84 49 104 65.5t25 26.5q2 6 2 37v78q0 47 -2 104.5t-5 116.5q-8 139 -14 293 q-182 289 -238.5 372t-106.5 153.5t-87 122t-43 61.5z" />
<glyph unicode="z" horiz-adv-x="1046" d="M2 39l721 1251l-518 -33q-39 -23 -66 -59q-37 -35 -73 -78l-7 264l861 37l-711 -1253q537 -11 617 -11q13 0 14 1q53 41 78 61q27 25 53 55l2 -266z" />
<glyph unicode="{" horiz-adv-x="509" d="M2 608q55 14 77.5 54t21.5 93.5t-17 114t-35.5 115.5t-34 103.5t-12.5 74.5q0 27 8 73t39 90t90.5 76t159.5 25q2 -4 5 -22l7 -43l8 -66q-61 0 -110 -18q-41 -16 -76 -50t-35 -102t17.5 -129t40 -113.5t40 -94t13.5 -68.5q-4 -53 -28.5 -75.5t-37.5 -31.5q4 -8 11.5 -10 t13.5 -10t12 -26.5t13 -55.5q4 -27 2 -66.5t-2 -87t7 -93.5t30.5 -79.5t69.5 -49t120 0.5l2 -123q-72 -18 -133 -6q-53 10 -103.5 51t-68.5 142q-6 72 0 131t3 107t-26.5 90t-91.5 79z" />
<glyph unicode="|" horiz-adv-x="305" d="M80 139v1209l121 -11l-54 -1198h-67z" />
<glyph unicode="}" horiz-adv-x="512" d="M2 1411q70 16 129 4q51 -10 98 -51t68 -137q6 -72 0 -131.5t-4 -108.5t24.5 -91t88.5 -77q-55 -16 -76 -55t-20 -91t16.5 -112.5t34 -117t33 -103.5t12.5 -76q0 -25 -8.5 -72t-38 -91t-86 -74.5t-152.5 -24.5q-4 4 -6 23.5t-6 44.5q-4 29 -9 63q59 0 107 19 q41 16 72.5 50t33.5 101q2 68 -15 129.5t-38.5 113.5t-39 92t-15.5 69q2 27 11 45t19.5 30.5t19.5 18.5t15 12q-4 6 -10 9t-12 11.5t-13.5 26t-13.5 53.5q-4 27 -1 68t3 88t-7 93t-29.5 79t-66.5 47.5t-116 -0.5z" />
<glyph unicode="~" horiz-adv-x="552" d="M0 559q31 41 66 74q29 29 62.5 52.5t61.5 27.5q29 2 48.5 -15.5t35 -41t30.5 -42t34 -18.5q14 0 22.5 24.5t14.5 55.5q6 37 10 82l70 -19q2 0 -8.5 -32.5t-27 -71.5t-38 -72t-41.5 -33q-33 0 -49.5 14.5t-27.5 31t-23.5 32t-38.5 15.5q-29 2 -54.5 -15.5t-44.5 -40.5 q-23 -25 -41 -59z" />
<glyph unicode="&#xa1;" horiz-adv-x="380" d="M27 55l143 1053l86 -14l-25 -1057zM127 1309q-6 37 12.5 67.5t50.5 38.5q33 4 59.5 -17.5t35.5 -62.5q6 -37 -12.5 -67.5t-49.5 -38.5q-33 -4 -61.5 17.5t-34.5 62.5z" />
<glyph unicode="&#xa2;" horiz-adv-x="612" d="M2 694v393q0 72 46 122.5t118 50.5h268q39 0 71 -14.5t54.5 -39t34.5 -55.5t12 -64v-393q0 -29 -18.5 -43t-40 -14t-38.5 14.5t-17 42.5v365h-29v-987q0 -39 -22.5 -58.5t-49 -19.5t-49.5 19.5t-23 58.5v575h-28v-575q0 -39 -23.5 -58.5t-53.5 -19.5t-53.5 19.5 t-23.5 58.5v987h-28v-365q0 -29 -16.5 -43t-37 -14t-37 14t-16.5 43zM176 1413q0 57 37 95t86 38q59 0 97 -38t38 -95q0 -51 -38 -88t-97 -37q-49 0 -86 37t-37 88z" />
<glyph unicode="&#xa3;" horiz-adv-x="839" d="M2 754l115 10q-16 182 16.5 284.5t85.5 150.5t122 53t128 -8t99 -33.5t40 -22.5l-67 -162q-8 14 -15 33q-16 25 -37 53q-88 51 -143 36t-85 -68.5t-39 -137.5t-1 -176l125 14l6 -78l-127 -2q4 -84 10.5 -162.5t12.5 -138.5q10 -72 18 -139q102 4 189 12q37 2 71.5 4.5 t63 5.5t48 5t26.5 4q8 0 22 12t25 29q12 18 28 39v-201h-630l-17 82l82 2q-4 37 -12 96q-6 55 -17.5 140t-21.5 210l-117 -4z" />
<glyph unicode="&#xa8;" horiz-adv-x="407" d="M3 1053.5q-3 25.5 11 48.5q14 18 38 22t42 -10q20 -18 23.5 -44t-6.5 -46q-16 -25 -41 -26t-45 14q-19 16 -22 41.5zM236.5 1033.5q-3.5 23.5 9.5 41.5q14 20 33.5 21.5t35.5 -11.5q16 -16 19.5 -37.5t-6.5 -41.5q-14 -18 -34 -21.5t-40 12.5q-14 13 -17.5 36.5z" />
<glyph unicode="&#xa9;" horiz-adv-x="583" d="M-4 213q4 68 32.5 110t67.5 65.5t80 31.5t72 8t70.5 -8t77.5 -31.5t64.5 -64.5t31.5 -109q-2 -59 -26 -100t-60.5 -66.5t-80.5 -37t-85 -11.5q-33 0 -77 7t-83 30.5t-63.5 65.5t-20.5 110zM25 197q0 -47 20.5 -80t52 -53.5t68.5 -29.5t72 -9q33 -2 72.5 9t73.5 36.5 t55.5 65.5t19.5 97q-2 53 -27.5 88t-58.5 55.5t-65 29t-46 8.5q-100 6 -168.5 -54.5t-68.5 -162.5zM115 268q16 47 52 65.5t73 22.5q43 4 94 -6v-35q-49 14 -88 11q-35 -4 -67 -22.5t-42 -67.5q-4 -18 -3 -44t18.5 -47.5t54.5 -34t104 -6.5q0 -6 2 -12q0 -4 1 -5t1 -3v-4 q-31 -4 -72.5 0t-75.5 23.5t-51 58t-1 106.5z" />
<glyph unicode="&#xac;" horiz-adv-x="546" d="M0 723l418 -4l24 -113l-53 -2l-2 78l-385 -10z" />
<glyph unicode="&#xad;" horiz-adv-x="573" d="M0 713l463 41l-8 -136l-449 17z" />
<glyph unicode="&#xae;" horiz-adv-x="542" d="M-4 197q4 59 29.5 98t60.5 60.5t73 28.5t64 7q27 0 64 -8t70.5 -28.5t57 -57.5t27.5 -98q-2 -53 -23.5 -91t-55 -60.5t-72.5 -33t-76 -10.5q-29 0 -69 7t-74.5 27.5t-57 59t-18.5 99.5zM20 182q0 -43 18.5 -72.5t47.5 -48t62.5 -26.5t64.5 -8q31 -2 66.5 7t66.5 32.5 t49.5 60.5t16.5 88q-2 47 -26 79t-53.5 50t-57 26.5t-39.5 8.5q-92 4 -154 -50.5t-62 -146.5zM139 330q2 0 31 2t61.5 -3t60 -19.5t25.5 -45.5q-2 -29 -20 -44t-41 -23q-27 -8 -61 -13l98 -110h-45l-82 106l-2 -108l-21 2zM164 209q33 -4 59 2q23 4 42.5 15.5t19.5 37.5 q0 23 -19.5 34t-42.5 15q-27 4 -59 0v-104z" />
<glyph unicode="&#xb1;" horiz-adv-x="1705" />
<glyph unicode="&#xb4;" horiz-adv-x="356" d="M275.687 1622.28l-52.2324 49.7256l-152.223 -200.409l29.8477 -25.6162zM275.687 1622.28l-52.2324 49.7256l-152.223 -200.409l29.8477 -25.6162z" />
<glyph unicode="&#xb8;" horiz-adv-x="276" d="M-4 -8q37 -6 67 -4q25 2 46.5 10t23.5 31q2 18 -10 22t-29 3l-33 -2q-16 -1 -24 9q-8 8 -11 22.5t-4.5 27t-1.5 20.5t0 6q-2 -4 10.5 -3t26.5 1q16 0 37 2l-12 -20q-4 -10 -6 -19.5t6 -15.5q6 -6 18 -8l25 -4q12 -2 24.5 -8.5t20.5 -20.5q16 -31 -26 -66.5t-148 -35.5v26 v27z" />
<glyph unicode="&#xbf;" horiz-adv-x="1052" d="M1 307.5q1 59.5 26.5 109.5t69.5 95t98 82q121 86 297 154l-103 303l123 28l94 -395q-150 -41 -252 -109q-47 -27 -85 -60.5t-61.5 -75.5t-25.5 -92t25 -105q33 -72 92 -100.5t137 -34t188.5 31.5t245.5 174l121 -120q-37 -31 -108.5 -69t-161.5 -73t-190.5 -45t-195.5 0 t-173 52t-127 126q-35 64 -34 123.5zM348 1294q10 37 38 58.5t56 13.5q27 -6 41.5 -39t3.5 -72q-10 -37 -37.5 -58t-56.5 -15q-27 8 -41 40.5t-4 71.5z" />
<glyph unicode="&#xc0;" horiz-adv-x="1034" d="M0 0l422 1368l561 -1350l-235 -14l47 59l-385 965l-123 -457l334 23l22 -102l-379 -23l-131 -416l51 -53l-182 2zM274 1577l54 49l153 -201l-30 -24zM274 1577l54 49l153 -201l-30 -24z" />
<glyph unicode="&#xc1;" horiz-adv-x="991" d="M0 0l399 1364l529 -1346l-221 -14l45 59l-365 963l-117 -457l316 23l22 -103l-358 -20l-125 -416l49 -53l-172 2zM309 2179l154 201l53 -49l-176 -177zM309 2179l154 201l53 -49l-176 -177zM367 1421l153 201l51 -49l-174 -176zM367 1421l153 201l51 -49l-174 -176z" />
<glyph unicode="&#xc2;" horiz-adv-x="995" d="M0 0l399 1364l529 -1346l-221 -14l45 59l-365 963l-117 -457l316 23l22 -103l-358 -20l-125 -416l49 -53l-172 2zM217 1395q-2 0 1 17.5t18.5 48t54.5 59.5q39 25 82 24.5t69.5 -9.5t49.5 -19q43 -29 60 -53.5t26 -45.5l-46 -12q-20 37 -49 63q-29 27 -66.5 35t-69.5 2 t-50 -23.5t-27 -37.5q-12 -29 -10 -45z" />
<glyph unicode="&#xc3;" horiz-adv-x="1015" d="M0 0l422 1444l561 -1424l-235 -16l47 64l-385 1017l-123 -483l334 25l22 -109l-379 -22l-131 -441l51 -55l-182 2zM182 1409q35 35 70 68q27 25 60.5 47t62.5 30q29 2 46 -16t33.5 -43t31 -42t32.5 -17q14 0 23.5 23.5t15.5 56.5q10 31 12 77l56 -12q-16 -57 -33 -98 q-12 -39 -29.5 -69t-36.5 -30q-33 -2 -49 14.5t-28.5 40t-26.5 46t-41 22.5q-29 0 -52.5 -22.5t-45.5 -48.5q-27 -27 -50 -68z" />
<glyph unicode="&#xc4;" horiz-adv-x="1034" d="M0 0l422 1368l561 -1350l-235 -14l47 59l-385 965l-123 -457l334 23l22 -102l-379 -23l-131 -416l51 -53l-182 2zM267 1502.5q-3 25.5 12 47.5q14 18 37.5 22.5t41.5 -9.5q20 -18 23.5 -44t-6.5 -46q-16 -25 -41 -26t-45 13q-19 17 -22 42.5zM501 1481.5q-3 23.5 9 42.5 q14 20 33.5 21t36.5 -11q16 -16 19 -37.5t-7 -42.5q-14 -18 -33.5 -21t-40.5 13q-14 12 -17 35.5z" />
<glyph unicode="&#xc5;" horiz-adv-x="1034" d="M0 0l422 1368l561 -1350l-235 -14l47 59l-385 965l-123 -457l334 23l22 -102l-379 -23l-131 -416l51 -53l-182 2zM301 1458q2 35 16.5 56.5t34 33t40 15.5t36.5 4t35.5 -4t39 -15.5t33 -32t15.5 -55.5q-2 -31 -13.5 -51t-38 -38.5t-78.5 -16.5t-74.5 15t-35 34.5 t-10.5 54.5zM334 1448q0 -18 9 -31.5t22.5 -23t29 -13.5t29.5 -4t30.5 4t32 15.5t23.5 28t8 40.5q-2 25 -12 38.5t-23.5 22.5t-28 12t-20.5 3q-41 2 -70.5 -22.5t-29.5 -69.5z" />
<glyph unicode="&#xc6;" horiz-adv-x="1515" d="M-2 2l668 1360l88 -57l-6 -1303h-213l57 29q20 10 38.5 20t20.5 15l1 50q1 50 5.5 130t8.5 184.5t9 209.5t9 202.5t8 170t5 107.5t1 17l-221 -428l223 12l29 -72l-278 -2l-140 -291q-27 -53 -52.5 -105t-43.5 -94t-30 -69l-11 -27q0 -6 15.5 -14t37.5 -18q25 -12 56 -27 h-285zM567 1436l850 -19q-2 -264 -2 -262t-25.5 27.5t-58.5 56.5t-60.5 55.5t-35.5 26.5q-4 0 -440 -18l14 -555l350 32v-135h-350l10 -532q385 10 389 12q4 4 29 21.5t49 35.5l72 51v-231h-703v113l54 -2l2 1185h-142z" />
<glyph unicode="&#xc7;" horiz-adv-x="1048" d="M20 729q8 172 86 308.5t207 227.5t299 129q107 24 220 23q67 0 137 -8l-68 -164q-126 32 -235 32q-71 0 -136 -13q-70 -16 -134 -52t-112 -103t-75 -169q-20 -78 -20 -183q0 -32 1 -67q6 -158 38 -262t78 -168.5t104.5 -96.5t117.5 -40q29 -4 60 -4q116 0 252 61l69 -157 q-108 -17 -204 -18q-136 0 -252 34q-86 23 -165 72t-140.5 128.5t-97.5 200.5q-31 103 -30 241q-1 23 0 48zM450.167 -128.6q44.7051 -7.19922 80.9531 -4.7998q30.2061 2.39941 56.1836 11.999t28.3936 37.1992q2.41699 21.5986 -12.082 26.3984t-35.0391 3.59961 l-39.873 -2.39941q-19.332 -1.2002 -28.998 10.7998q-9.66602 9.59961 -13.291 26.999q-3.62402 17.3994 -5.43652 32.3984t-1.8125 24.5986t0 7.2002q-2.41699 -4.7998 12.6865 -3.60059q15.1035 1.2002 32.0186 1.2002q19.332 0 44.7061 2.40039l-14.5 -23.999 q-4.83203 -12 -7.24902 -23.3994t7.24902 -18.5986q7.25 -7.2002 21.749 -9.59961l30.2061 -4.80078q14.499 -2.39941 29.6025 -10.1992q15.1025 -7.7998 24.7686 -24.5986q19.332 -37.1982 -31.4141 -79.7969t-178.821 -42.5986v31.1992v32.3984z" />
<glyph unicode="&#xc8;" horiz-adv-x="1040" d="M0 1251v111l946 -14l-2 -230q-43 33 -80 62.5t-78 60.5l-553 6l5 -467l385 19v-125h-383l14 -563q459 8 461 10q6 2 170 104v-221h-836v107l60 -5v1145h-109zM326 1573l53 49l153 -201l-30 -24zM326 1573l53 49l153 -201l-30 -24z" />
<glyph unicode="&#xc9;" horiz-adv-x="1040" d="M0 1251v111l946 -14l-2 -230q-43 33 -80 62.5t-78 60.5l-553 6l5 -467l385 19v-125h-383l14 -563q459 8 461 10q6 2 170 104v-221h-836v107l60 -5v1145h-109zM389 1432l154 200l51 -49l-174 -176zM389 1432l154 200l51 -49l-174 -176z" />
<glyph unicode="&#xca;" horiz-adv-x="1040" d="M0 1251v111l946 -14l-2 -230q-43 33 -80 62.5t-78 60.5l-553 6l5 -467l385 19v-125h-383l14 -563q459 8 461 10q6 2 170 104v-221h-836v107l60 -5v1145h-109zM272 1417l154 207l219 -156l-45 -14l-166 127l-88 -180z" />
<glyph unicode="&#xcb;" horiz-adv-x="1040" d="M0 1251v111l946 -14l-2 -230q-43 33 -80 62.5t-78 60.5l-553 6l5 -467l385 19v-125h-383l14 -563q459 8 461 10q6 2 170 104v-221h-836v107l60 -5v1145h-109zM312 1483.5q-3 25.5 12 48.5q14 18 37.5 22.5t41.5 -10.5q20 -18 23.5 -43.5t-6.5 -46.5q-16 -25 -41 -26 t-45 14q-19 16 -22 41.5zM546 1463.5q-3 23.5 9 41.5q14 20 33.5 21.5t36.5 -10.5q16 -16 19 -38t-7 -42q-14 -18 -33.5 -21.5t-40.5 12.5q-14 13 -17 36.5z" />
<glyph unicode="&#xcc;" horiz-adv-x="421" d="M1.87305 1383.05h270.18q-17.4307 -15.4531 -31.957 -29.9404q-9.68359 -11.5898 -21.7881 -23.6631q-12.1055 -12.0723 -14.042 -19.7988q0 -1.93164 3.87402 -599.291q3.87305 -597.36 5.80957 -599.292q3.87402 -5.79492 119.111 -107.206l-327.313 -3.86328 q55.1982 53.1201 65.8506 73.4023q3.87305 7.72656 8.71484 609.916q4.8418 602.188 4.8418 607.983q-5.81055 9.6582 -17.915 25.1113t-65.3662 66.6416zM40.2002 1534.77l30.8008 29.04l89.7598 -117.04l-17.5996 -14.9609zM40.2002 1534.77l30.8008 29.04 l89.7598 -117.04l-17.5996 -14.9609z" />
<glyph unicode="&#xcd;" horiz-adv-x="425" d="M1.94922 1383.05h275.476q-17.7725 -15.4531 -32.583 -29.9404q-9.87402 -11.5898 -22.2158 -23.6631q-12.3428 -12.0723 -14.3174 -19.7988q0 -1.93164 3.9502 -599.291q3.94922 -597.36 5.92383 -599.292q3.94922 -5.79492 121.446 -107.206l-333.73 -3.86328 q56.2803 53.1201 67.1416 73.4023q3.94922 7.72656 8.88574 609.916q4.9375 602.188 4.9375 607.983q-5.9248 9.6582 -18.2666 25.1113t-66.6475 66.6416zM205.821 1520.77l-30.791 29.04l-89.7363 -117.04l17.5957 -14.9609zM205.821 1520.77l-30.791 29.04 l-89.7363 -117.04l17.5957 -14.9609z" />
<glyph unicode="&#xce;" horiz-adv-x="425" d="M0 1382h274q-18 -16 -32 -28q-8 -12 -20.5 -24.5t-14.5 -20.5q0 -2 4 -599t6 -599q4 -6 121 -107l-334 -4q57 53 68 74q4 8 8 610t4 608q-6 10 -17.5 24.5t-66.5 65.5zM6 1425l119 158l168 -121l-35 -10l-127 98l-70 -139z" />
<glyph unicode="&#xcf;" horiz-adv-x="425" d="M5.94922 1383.05h275.476q-17.7725 -15.4531 -32.583 -29.9404q-9.87402 -11.5898 -22.2158 -23.6631q-12.3428 -12.0723 -14.3174 -19.7988q0 -1.93164 3.9502 -599.291q3.94922 -597.36 5.92383 -599.292q3.94922 -5.79492 121.446 -107.206l-333.73 -3.86328 q56.2803 53.1201 67.1416 73.4023q3.94922 7.72656 8.88574 609.916q4.9375 602.188 4.9375 607.983q-5.9248 9.6582 -18.2666 25.1113t-66.6475 66.6416zM4.5459 1472.68q-2.5459 20.4697 9.33301 38.9326q11.8789 14.4492 32.2441 17.6602 q20.3633 3.21094 35.6367 -8.02734q16.9707 -14.4492 19.9404 -35.3203t-5.51562 -36.9258q-13.5762 -20.0684 -34.7891 -20.8711t-38.1826 11.2383q-16.1221 12.8438 -18.667 33.3135zM202.673 1456.63q-2.96973 18.8643 8.06055 33.3135q11.8799 16.0547 28.4258 17.2588 t30.1221 -9.23145q13.5762 -12.8438 16.5459 -30.1025t-5.51562 -33.3135q-11.8789 -14.4492 -28.8496 -17.2588q-16.9697 -2.80957 -33.9404 10.0342q-11.8789 10.4355 -14.8486 29.2998z" />
<glyph unicode="&#xd0;" horiz-adv-x="1183" d="M0 766l508 39l-6 -133l-496 16zM4 1407q260 47 479 8q92 -16 186.5 -53t174.5 -103.5t142.5 -167t90.5 -241.5q33 -188 7.5 -324.5t-90 -230.5t-160 -151.5t-197.5 -88.5q-242 -74 -571 -39l-3 117q250 -41 441 2q82 18 158.5 59.5t135 112t91.5 176t26 256.5 q-10 133 -43.5 230.5t-84 164t-111 107.5t-123.5 64q-145 53 -324 30l52 -1253l-138 20l-4 1219l-123 -35z" />
<glyph unicode="&#xd1;" horiz-adv-x="1067" d="M-4 2l57 66l-45 1284l152 6l702 -950q-12 938 -14 944l-21 20q-14 14 -30 29l-43 29l207 2l12 -1428l-848 1129q39 -1034 41 -1045q6 -10 22.5 -26.5t34.5 -28.5q23 -16 49 -31h-276zM236 1453.85q32.627 34.582 63.8359 65.0146q22.6973 22.1328 53.1973 43.5742 q30.499 21.4404 57.4521 29.7412q25.5342 2.76562 41.8477 -15.9082q16.3135 -18.6748 30.5 -40.8076q14.1855 -22.1328 27.6621 -39.4238q13.4766 -17.292 30.499 -17.292q11.3486 0 20.5693 22.8252q9.22168 22.8242 14.8955 53.2568q8.51172 27.666 11.3486 74.6982 l49.6504 -12.4502q-14.1855 -53.9482 -29.79 -92.6807q-11.3486 -37.3486 -27.6621 -65.707q-16.3145 -28.3574 -33.3369 -28.3574q-28.3721 -2.7666 -43.2666 13.1416q-14.8955 15.9082 -26.2441 38.041t-24.8252 43.5732q-13.4766 21.4414 -36.1738 21.4414 q-25.5342 0 -47.5225 -21.4414q-21.9873 -21.4404 -43.2666 -46.3408q-22.6973 -24.8984 -42.5566 -65.0146z" />
<glyph unicode="&#xd2;" horiz-adv-x="1290" d="M15.9326 727.675q7.9707 179.062 62.2676 296.213t126.029 187.634q71.7314 70.4814 168.37 112.389q96.6396 41.9082 231.137 43.8135q165.382 -1.90527 299.879 -60.957q58.7812 -23.8115 114.074 -64.291t101.122 -104.294t74.7207 -152.393t34.8701 -203.824 v-14.2871q0 -183.823 -48.8184 -322.882q-50.8096 -144.773 -136.489 -241.923q-85.6797 -97.1504 -195.271 -148.107q-109.591 -50.9561 -223.166 -52.8604h-10.959q-108.595 0 -217.188 39.0498q-113.575 40.9561 -201.746 129.534t-139.977 227.637 q-40.8477 111.437 -40.8477 257.162q0 35.2412 1.99219 72.3867zM187.293 856.256q-8.9668 -70.4814 -7.9707 -135.248q0 -100.961 20.9219 -189.539q34.8701 -145.725 102.118 -248.114q67.249 -102.389 156.914 -155.726q83.6875 -50.4805 165.382 -49.5273h11.9551 q44.833 0 110.089 16.668t128.52 75.2432q63.2637 58.5762 114.572 176.204q51.3076 117.628 67.248 325.263q2.98926 40.0029 2.98926 75.2441q0 91.4355 -17.9336 161.917q-25.9023 99.0557 -71.7314 169.537t-101.122 114.294q-55.293 43.8135 -118.557 68.5771 t-140.974 26.668q-9.96289 0 -41.3457 -0.952148t-73.2256 -10.001q-41.8438 -9.04785 -85.6807 -31.4307q-43.8359 -22.3828 -91.1592 -64.29q-47.3232 -41.9082 -82.1924 -123.819q-34.8701 -81.9111 -48.8174 -200.968zM442.596 1551.61l57.3984 42.2412 l167.275 -170.244l-32.7988 -21.7607zM442.596 1551.61l57.3984 42.2412l167.275 -170.244l-32.7988 -21.7607z" />
<glyph unicode="&#xd3;" horiz-adv-x="1288" d="M15.9326 740.498q7.9707 182.217 62.2676 301.434q54.2969 119.216 126.029 190.939q71.7314 71.7236 168.37 114.37q96.6396 42.6465 231.137 44.585q165.382 -1.93848 299.879 -62.0312q58.7812 -24.2305 114.074 -65.4238q55.293 -41.1924 101.122 -106.131 q45.8291 -64.9395 74.7207 -155.078q28.8916 -90.1396 34.8701 -207.418v-14.5381q0 -187.063 -48.8184 -328.571q-50.8096 -147.324 -136.489 -246.188q-85.6797 -98.8613 -195.271 -150.716t-223.166 -53.793h-10.959q-108.595 0 -217.188 39.7393 q-113.575 41.6768 -201.746 131.816q-88.1709 90.1387 -139.977 231.647q-40.8477 113.401 -40.8477 261.694q0 35.8613 1.99219 73.6621zM187.293 871.346q-8.9668 -71.7246 -7.9707 -137.633q0 -102.738 20.9219 -192.878q34.8701 -148.294 102.118 -252.486 q67.249 -104.193 156.914 -158.471q83.6875 -51.3701 165.382 -50.4004h11.9551q44.833 0 110.089 16.9619q65.2559 16.9609 128.52 76.5693t114.572 179.31q51.3076 119.701 67.248 330.994q2.98926 40.709 2.98926 76.5703q0 93.0469 -17.9336 164.771 q-25.9023 100.801 -71.7314 172.524t-101.122 116.309t-118.557 69.7852t-140.974 27.1387q-9.96289 0 -41.3457 -0.96875q-31.3828 -0.969727 -73.2256 -10.1777q-41.8438 -9.20703 -85.6807 -31.9844q-43.8359 -22.7773 -91.1592 -65.4238t-82.1924 -126.001 q-34.8701 -83.3545 -48.8174 -204.509zM708.421 1576.61l-57.3926 42.2412l-167.256 -170.244l32.7949 -21.7607zM708.421 1576.61l-57.3926 42.2412l-167.256 -170.244l32.7949 -21.7607z" />
<glyph unicode="&#xd4;" horiz-adv-x="1290" d="M18 727q8 180 62.5 297t126.5 187.5t168 112.5t231 44q166 -2 299 -61q59 -23 114.5 -64t101.5 -104.5t75 -152.5t35 -204q2 -193 -49.5 -337t-137.5 -242.5t-194.5 -148.5t-222.5 -52q-115 -2 -227.5 39t-201.5 130t-140.5 227.5t-39.5 328.5zM190 856 q-23 -178 12.5 -323.5t102 -248t156.5 -156.5t178 -50q45 0 110.5 16.5t128 74.5t113.5 177t68 326q10 137 -15.5 236.5t-71.5 170t-100.5 114.5t-118 68.5t-141.5 26.5q-10 0 -41.5 -1t-73.5 -10t-86 -31.5t-90.5 -64.5t-81.5 -124t-49 -201zM391 1397l154 207l219 -156 l-45 -14l-166 127l-88 -181z" />
<glyph unicode="&#xd5;" horiz-adv-x="1294" d="M18.0332 740.498q8.01465 182.217 62.6143 301.434q54.5996 119.216 126.731 190.939t169.31 114.37t232.425 44.585q166.304 -1.93848 301.551 -62.0312q59.1084 -24.2305 114.71 -65.4238q55.6016 -41.1924 101.686 -106.131q46.085 -64.9395 75.1377 -155.078 q29.0527 -90.1396 35.0645 -207.418v-14.5381q0 -187.063 -49.0898 -328.571q-51.0938 -147.324 -137.251 -246.188q-86.1572 -98.8613 -196.359 -150.716q-110.201 -51.8545 -224.41 -53.793h-11.0195q-109.2 0 -218.399 39.7393q-114.209 41.6768 -202.871 131.816 q-88.6621 90.1387 -140.757 231.647q-41.0752 113.401 -41.0752 261.694q0 35.8613 2.00391 73.6621zM190.348 871.346q-9.0166 -71.7246 -8.01465 -137.633q0 -102.738 21.0391 -192.878q35.0635 -148.294 102.688 -252.486q67.623 -104.193 157.788 -158.471 q84.1543 -51.3701 166.304 -50.4004h12.0225q45.082 0 110.702 16.9619q65.6201 16.9609 129.236 76.5693t115.211 179.31q51.5938 119.701 67.623 330.994q3.00586 40.709 3.00586 76.5703q0 93.0469 -18.0332 164.771q-26.0479 100.801 -72.1318 172.524t-101.686 116.309 t-119.218 69.7852t-141.76 27.1387q-10.0186 0 -41.5762 -0.96875q-31.5576 -0.969727 -73.6338 -10.1777q-42.0771 -9.20703 -86.1582 -31.9844q-44.0801 -22.7773 -91.667 -65.4238t-82.6514 -126.001t-49.0898 -204.509zM389 1451.9q36.0156 36.249 70.4668 68.1484 q25.0547 23.1992 58.7217 45.6729q33.667 22.4746 63.4189 31.1738q28.1875 2.90039 46.1953 -16.6738q18.0078 -19.5752 33.667 -42.7744t30.5352 -41.3232t33.667 -18.124q12.5273 0 22.7061 23.9238t16.4424 55.8232q9.39551 28.999 12.5273 78.2979l54.8066 -13.0498 q-15.6582 -56.5479 -32.8838 -97.1475q-12.5273 -39.1484 -30.5352 -68.8721q-18.0088 -29.7236 -36.7998 -29.7236q-31.3184 -2.90039 -47.7598 13.7744q-16.4424 16.6738 -28.9697 39.873t-27.4033 45.6738q-14.877 22.4736 -39.9316 22.4736q-28.1855 0 -52.458 -22.4736 q-24.2715 -22.4746 -47.7607 -48.5732q-25.0547 -26.0996 -46.9766 -68.1484z" />
<glyph unicode="&#xd6;" horiz-adv-x="1290" d="M18 727q8 180 62.5 297t126.5 187.5t168 112.5t231 44q166 -2 299 -61q59 -23 114.5 -64t101.5 -104.5t75 -152.5t35 -204q2 -193 -49.5 -337t-137.5 -242.5t-194.5 -148.5t-222.5 -52q-115 -2 -227.5 39t-201.5 130t-140.5 227.5t-39.5 328.5zM190 856 q-23 -178 12.5 -323.5t102 -248t156.5 -156.5t178 -50q45 0 110.5 16.5t128 74.5t113.5 177t68 326q10 137 -15.5 236.5t-71.5 170t-100.5 114.5t-118 68.5t-141.5 26.5q-10 0 -41.5 -1t-73.5 -10t-86 -31.5t-90.5 -64.5t-81.5 -124t-49 -201zM433 1451q-3 24 9 44t34 24.5 t38 -12.5q16 -14 19.5 -37.5t-11.5 -44.5q-12 -20 -32.5 -24t-36.5 10q-17 16 -20 40zM723 1432.5q-2 21.5 8 37.5t28.5 20.5t33.5 -7.5q16 -14 18 -35t-8 -39q-10 -16 -28.5 -19.5t-35.5 9.5q-14 12 -16 33.5z" />
<glyph unicode="&#xd7;" horiz-adv-x="899" d="M8 1036l129 2l246 -256l186 232l115 -4l-227 -301l360 -377l-121 -4l-299 305l-219 -293l-155 2l301 371z" />
<glyph unicode="&#xd8;" horiz-adv-x="1271" d="M12 158l103 121q-55 88 -83 206.5t-20 270.5q10 170 54.5 283.5t108 186t134 111.5t132 55.5t155.5 24.5q14 0 53 -2t94.5 -12t120 -33.5t123.5 -69.5l121 144l74 -37l-127 -164q63 -66 107 -171t50 -259q0 -201 -50 -350.5t-134 -250.5t-192.5 -153.5t-221.5 -54.5 q-109 -2 -214 37t-193 121l-86 -109zM179.5 632q15.5 -118 53.5 -216l664 782q-43 47 -90 76t-89 46t-72 24.5t-38 7.5q-12 0 -44 1t-75 -9.5t-90 -36t-91 -75.5t-78.5 -134t-47.5 -209q-18 -139 -2.5 -257zM303 283q68 -98 153 -152.5t171 -50.5q29 2 67.5 9t81.5 27.5 t86 60.5t80 107.5t63.5 169t36.5 244.5q10 141 -15.5 243.5t-72.5 176.5z" />
<glyph unicode="&#xd9;" horiz-adv-x="1107" d="M2 1387.95l266 -6.78516q-20 -28.1074 -39 -51.3691q-16 -24.2305 -29.5 -45.5547q-13.5 -21.3223 -15.5 -37.7998q0 -123.093 3 -249.095q3 -126 15.5 -246.186t37 -230.194t65.5 -195.302t109.5 -140.055t160.5 -68.332q10 -0.96875 21 -0.96875q75 0 127 65.9082 q59 75.6006 92 197.725t38 269.448q4 104.678 4 201.602q0 38.7695 -1 75.6006q-2 130.848 -17.5 228.256t-35.5 119.701q-2 3.87695 -16.5 16.9609q-14.5 13.085 -30.5 26.6543l-41 35.8613h143l141 1.93945q2 -138.602 8 -298.525q3 -79.4785 2.5 -158.955 q-0.5 -79.4785 -2.5 -157.986q-5 -157.017 -24.5 -299.979q-19.5 -142.962 -70 -246.187q-50.5 -103.224 -134.5 -154.594q-59 -35.8613 -140 -35.8613q-34 0 -73 5.81543q-152 28.1084 -248 117.278t-154.5 211.293q-58.5 122.125 -85 266.057t-35.5 279.141t-9 250.063 t-6 178.824l-15 45.5537q-6 14.5391 -10 30.0469zM442.594 2244.9l52.7305 49.7178l153.672 -200.377l-30.1318 -25.6123zM442.594 2244.9l52.7305 49.7178l153.672 -200.377l-30.1318 -25.6123zM325.594 1615.9l52.7305 49.7178l153.672 -200.377l-30.1318 -25.6123z M325.594 1615.9l52.7305 49.7178l153.672 -200.377l-30.1318 -25.6123z" />
<glyph unicode="&#xda;" horiz-adv-x="1105" d="M2 1432l266 -7q-20 -29 -39 -53q-16 -25 -29.5 -47t-15.5 -39q0 -127 3 -257t15.5 -254t37 -237.5t65.5 -201.5t109.5 -144.5t160.5 -70.5q10 -1 21 -1q75 0 127 68q59 78 92 204t38 278q4 108 4 208q0 40 -1 78q-2 135 -17.5 235.5t-35.5 123.5q-2 4 -16.5 17.5 t-30.5 27.5l-41 37h143l141 2q2 -143 8 -308q3 -82 2.5 -164t-2.5 -163q-5 -162 -24.5 -309.5t-70 -254t-134.5 -159.5q-59 -37 -140 -37q-34 0 -73 6q-152 29 -248 121t-154.5 218t-85 274.5t-35.5 288t-9 258t-6 184.5l-15 47q-6 15 -10 31zM587.423 2291.9 l-52.7236 49.7178l-153.654 -200.377l30.1289 -25.6123zM587.423 2291.9l-52.7236 49.7178l-153.654 -200.377l30.1289 -25.6123zM678.687 1596.28l-52.2324 49.7256l-152.223 -200.409l29.8477 -25.6162zM678.687 1596.28l-52.2324 49.7256l-152.223 -200.409 l29.8477 -25.6162z" />
<glyph unicode="&#xdb;" horiz-adv-x="1105" d="M2 1432l266 -7q-20 -29 -39 -53q-16 -25 -29.5 -47t-15.5 -39q0 -127 3 -257t15.5 -254t37 -237.5t65.5 -201.5t109.5 -144.5t160.5 -70.5q88 -10 147.5 67.5t92.5 203.5t38 277.5t3 287t-17.5 235.5t-35.5 123q-2 4 -16.5 17.5t-30.5 27.5l-41 37h143l141 2 q2 -143 7.5 -308t0 -327t-24.5 -309.5t-69.5 -254t-134.5 -159.5t-213 -31q-152 29 -248 121t-154.5 218t-85 274.5t-35.5 288t-9 258t-6 184.5l-15 47q-6 15 -10 31zM338 1452l154 207l219 -156l-45 -14l-166 127l-88 -180z" />
<glyph unicode="&#xdc;" horiz-adv-x="1105" d="M2 1432l266 -7q-20 -29 -39 -53q-16 -25 -29.5 -47t-15.5 -39q0 -127 3 -257t15.5 -254t37 -237.5t65.5 -201.5t109.5 -144.5t160.5 -70.5q10 -1 21 -1q75 0 127 68q59 78 92 204t38 278q4 108 4 208q0 40 -1 78q-2 135 -17.5 235.5t-35.5 123.5q-2 4 -16.5 17.5 t-30.5 27.5l-41 37h143l141 2q2 -143 8 -308q3 -82 2.5 -164t-2.5 -163q-5 -162 -24.5 -309.5t-70 -254t-134.5 -159.5q-59 -37 -140 -37q-34 0 -73 6q-152 29 -248 121t-154.5 218t-85 274.5t-35.5 288t-9 258t-6 184.5l-15 47q-6 15 -10 31zM316 1485.5q-3 25.5 11 48.5 q14 18 38 22t42 -10q20 -18 23.5 -44t-6.5 -46q-16 -25 -41 -26t-45 14q-19 16 -22 41.5zM549.5 1465.5q-3.5 23.5 9.5 41.5q14 20 33.5 21.5t35.5 -11.5q16 -16 19.5 -37.5t-6.5 -41.5q-14 -18 -34 -21.5t-40 12.5q-14 13 -17.5 36.5z" />
<glyph unicode="&#xdd;" d="M650.42 2235.68l-48.0586 45.3184l-140.057 -182.647l27.4619 -23.3457zM650.42 2235.68l-48.0586 45.3184l-140.057 -182.647l27.4619 -23.3457zM0 1432l240 -11l-29 -22q-10 -8 -18.5 -18.5t-10.5 -14.5q0 -4 348 -541q326 501 326 508q0 4 -16 21l-27 26 q-16 16 -37 35l322 -12l-94 -86l-396 -606l37 -639l88 -70h-368q84 49 104 65.5t25 26.5q2 6 2 37v78q0 47 -2 104.5t-5 116.5q-8 139 -14 293q-182 289 -238.5 372t-106.5 153.5t-87 122t-43 61.5zM690.687 1616.28l-52.2324 49.7256l-152.223 -200.409l29.8477 -25.6162z M690.687 1616.28l-52.2324 49.7256l-152.223 -200.409l29.8477 -25.6162z" />
<glyph unicode="&#xde;" horiz-adv-x="1011" d="M0 1430h303q-18 -16 -33 -29q-10 -12 -22 -24.5t-15 -20.5q0 -2 1.5 -45t7.5 -113q145 23 265 16.5t208 -47.5t146.5 -120.5t84.5 -208.5q23 -109 -2.5 -188t-80 -134t-130.5 -88t-155.5 -53.5t-154.5 -26.5t-126 -6q10 -98 15 -158.5t7 -64.5q4 -4 27 -18.5t51 -28.5 q33 -18 72 -41l-363 -27q14 14 29 27q29 29 37 49q10 25 11 122t-3 228t-9 279.5t-14.5 279.5t-18.5 226.5t-17 121.5q-4 10 -22.5 24.5t-41.5 31.5q-24 19 -57 37zM248 1073q4 -68 9 -148.5t10 -162.5t11.5 -163t10.5 -155q43 -2 97 -3t112.5 7.5t115 29t101.5 59t70.5 100 t23.5 149.5q-14 135 -82 201t-155 89.5t-176 16t-148 -19.5z" />
<glyph unicode="&#xdf;" horiz-adv-x="1003" d="M0 8v1061q0 72 15.5 140.5t57.5 120.5t119.5 78t204.5 13q104 -12 172 -52t107 -88t53 -94t14 -71q0 -68 -21.5 -111.5t-51 -73.5t-64.5 -47.5t-64.5 -26.5t-51 -12t-21.5 -9q-2 -4 30.5 -7.5t83 -13.5t111 -33.5t113.5 -69.5t89 -118t42 -180q6 -127 -52.5 -217.5 t-145.5 -135.5t-186 -48t-177 44q-35 23 -65.5 77t-26.5 114q-2 2 17.5 1t43.5 -1q27 -2 64 -2q-2 -51 12 -90q10 -33 42 -58.5t91 -21.5q109 6 161 98t54 232q0 76 -18.5 133t-50 97t-73.5 65.5t-85 39.5q-100 37 -232 31v121q86 -2 150 20q55 18 98 61.5t41 127.5 q-6 129 -77.5 192.5t-156.5 67.5t-157 -49t-78 -158l29 -1069l92 -84z" />
<glyph unicode="&#xe0;" horiz-adv-x="1034" d="M0 0l422 1368l561 -1350l-235 -14l47 59l-385 965l-123 -457l334 23l22 -102l-379 -23l-131 -416l51 -53l-182 2zM246 1581l53 49l154 -200l-31 -25zM365 2308l53 49l153 -200l-30 -25zM365 2308l53 49l153 -200l-30 -25z" />
<glyph unicode="&#xe1;" horiz-adv-x="1034" d="M0 0l422 1368l561 -1350l-235 -14l47 59l-385 965l-123 -457l334 23l22 -102l-379 -23l-131 -416l51 -53l-182 2zM391 1419l154 201l51 -49l-174 -176zM391 1419l154 201l51 -49l-174 -176z" />
<glyph unicode="&#xe2;" horiz-adv-x="989" d="M-4 0l399 1364l529 -1346l-222 -14l46 59l-365 963l-117 -457l316 23l22 -103l-358 -20l-125 -416l49 -53l-172 2zM213 1395q-2 0 1 17.5t18.5 48t54.5 59.5q39 25 82 24.5t69.5 -9.5t48.5 -19q43 -29 60.5 -53.5t25.5 -45.5l-45 -12q-20 37 -49 63q-29 27 -66.5 35 t-69.5 2t-50.5 -23.5t-26.5 -37.5q-12 -29 -10 -45z" />
<glyph unicode="&#xe3;" horiz-adv-x="1034" d="M0 0l422 1368l561 -1350l-235 -14l47 59l-385 965l-123 -457l334 23l22 -102l-379 -23l-131 -416l51 -53l-182 2zM180 1405q35 35 70 68q27 25 60.5 47t62.5 30q29 2 46 -16t33.5 -43t31 -42t32.5 -17q14 0 23.5 23.5t15.5 55.5q10 31 12 78l56 -12q-16 -57 -33 -98 q-12 -39 -29.5 -69t-36.5 -30q-33 -2 -49 14.5t-28.5 40t-26.5 46t-41 22.5q-29 0 -52.5 -22.5t-45.5 -48.5q-27 -27 -50 -68z" />
<glyph unicode="&#xe4;" horiz-adv-x="1034" d="M0 0l422 1368l561 -1350l-235 -14l47 59l-385 965l-123 -457l334 23l22 -102l-379 -23l-131 -416l51 -53l-182 2zM267 1502.5q-3 25.5 12 47.5q14 18 37.5 22.5t41.5 -9.5q20 -18 23.5 -44t-6.5 -46q-16 -25 -41 -26t-45 13q-19 17 -22 42.5zM501 1481.5q-3 23.5 9 42.5 q14 20 33.5 21t36.5 -11q16 -16 19 -37.5t-7 -42.5q-14 -18 -33.5 -21t-40.5 13q-14 12 -17 35.5z" />
<glyph unicode="&#xe5;" horiz-adv-x="1034" d="M0 0l422 1368l561 -1350l-235 -14l47 59l-385 965l-123 -457l334 23l22 -102l-379 -23l-131 -416l51 -53l-182 2zM301 1470q2 35 16.5 56.5t34 33t40 15.5t36.5 4t35.5 -4t39 -15.5t33 -32t15.5 -54.5q-2 -31 -13.5 -51.5t-38 -39t-78.5 -16.5t-74.5 15.5t-35 34.5 t-10.5 54zM334 1460q0 -18 9 -31.5t22.5 -22.5t29 -13t29.5 -4t30.5 4t32 15t23.5 27.5t8 41.5q-2 25 -12 38t-23.5 22t-28 12t-20.5 3q-41 2 -70.5 -22.5t-29.5 -69.5z" />
<glyph unicode="&#xe6;" horiz-adv-x="1515" d="M-2 2l668 1360l88 -57l-6 -1303h-213l57 29q20 10 38.5 20t20.5 15l1 50q1 50 5.5 130t8.5 184.5t9 209.5t9 202.5t8 170t5 107.5t1 17l-221 -428l223 12l29 -72l-278 -2l-140 -291q-27 -53 -52.5 -105t-43.5 -94t-30 -69l-11 -27q0 -6 15.5 -14t37.5 -18q25 -12 56 -27 h-285zM567 1436l850 -19q-2 -264 -2 -262t-25.5 27.5t-58.5 56.5t-60.5 55.5t-35.5 26.5q-4 0 -440 -18l14 -555l350 32v-135h-350l10 -532q385 10 389 12q4 4 29 21.5t49 35.5l72 51v-231h-703v113l54 -2l2 1185h-142z" />
<glyph unicode="&#xe7;" horiz-adv-x="1048" d="M454.167 -132.6q44.7051 -7.19922 80.9531 -4.7998q30.2061 2.39941 56.1836 11.999t28.3936 37.1992q2.41699 21.5986 -12.082 26.3984t-35.0391 3.59961l-39.873 -2.39941q-19.332 -1.2002 -28.998 10.7998q-9.66602 9.59961 -13.291 26.999 q-3.62402 17.3994 -5.43652 32.3984t-1.8125 24.5986t0 7.2002q-2.41699 -4.7998 12.6865 -3.60059q15.1035 1.2002 32.0186 1.2002q19.332 0 44.7061 2.40039l-14.5 -23.999q-4.83203 -12 -7.24902 -23.3994t7.24902 -18.5986q7.25 -7.2002 21.749 -9.59961 l30.2061 -4.80078q14.499 -2.39941 29.6025 -10.1992q15.1025 -7.7998 24.7686 -24.5986q19.332 -37.1982 -31.4141 -79.7969t-178.821 -42.5986v31.1992v32.3984zM20 729q8 172 86 308.5t207 227.5t299 129q107 24 220 23q67 0 137 -8l-68 -164q-126 32 -235 32 q-71 0 -136 -13q-70 -16 -134 -52t-112 -103t-75 -169q-20 -78 -20 -183q0 -32 1 -67q6 -158 38 -262t78 -168.5t104.5 -96.5t117.5 -40q29 -4 60 -4q116 0 252 61l69 -157q-108 -17 -204 -18q-136 0 -252 34q-86 23 -165 72t-140.5 128.5t-97.5 200.5q-31 103 -30 241 q-1 23 0 48z" />
<glyph unicode="&#xe8;" horiz-adv-x="1040" d="M0 1251v111l946 -14l-2 -230q-43 33 -80 62.5t-78 60.5l-553 6l5 -467l385 19v-125h-383l14 -563q459 8 461 10q6 2 170 104v-221h-836v107l60 -5v1145h-109zM326 1573l53 49l153 -201l-30 -24zM326 1573l53 49l153 -201l-30 -24z" />
<glyph unicode="&#xe9;" horiz-adv-x="1040" d="M0 1251v111l946 -14l-2 -230q-43 33 -80 62.5t-78 60.5l-553 6l5 -467l385 19v-125h-383l14 -563q459 8 461 10q6 2 170 104v-221h-836v107l60 -5v1145h-109zM412 1419l153 201l51 -49l-174 -176zM412 1419l153 201l51 -49l-174 -176z" />
<glyph unicode="&#xea;" horiz-adv-x="1040" d="M0 1251v111l946 -14l-2 -230q-43 33 -80 62.5t-78 60.5l-553 6l5 -467l385 19v-125h-383l14 -563q459 8 461 10q6 2 170 104v-221h-836v107l60 -5v1145h-109zM272 1468l154 207l219 -155l-45 -15l-166 127l-88 -180z" />
<glyph unicode="&#xeb;" horiz-adv-x="1040" d="M0 1251v111l946 -14l-2 -230q-43 33 -80 62.5t-78 60.5l-553 6l5 -467l385 19v-125h-383l14 -563q459 8 461 10q6 2 170 104v-221h-836v107l60 -5v1145h-109zM316 1490q-3 26 12 48q14 18 37.5 22.5t42.5 -10.5q20 -18 23 -43.5t-7 -46.5q-16 -25 -41 -25.5t-45 13.5 q-19 16 -22 42zM550 1469.5q-3 23.5 9 41.5q14 20 33.5 21.5t36.5 -10.5q16 -16 19 -38t-7 -42q-14 -18 -33.5 -21.5t-40.5 13.5q-14 12 -17 35.5z" />
<glyph unicode="&#xec;" horiz-adv-x="421" d="M1.87305 1383.05h270.18q-17.4307 -15.4531 -31.957 -29.9404q-9.68359 -11.5898 -21.7881 -23.6631q-12.1055 -12.0723 -14.042 -19.7988q0 -1.93164 3.87402 -599.291q3.87305 -597.36 5.80957 -599.292q3.87402 -5.79492 119.111 -107.206l-327.313 -3.86328 q55.1982 53.1201 65.8506 73.4023q3.87305 7.72656 8.71484 609.916q4.8418 602.188 4.8418 607.983q-5.81055 9.6582 -17.915 25.1113t-65.3662 66.6416zM40.2002 1534.77l30.8008 29.04l89.7598 -117.04l-17.5996 -14.9609zM40.2002 1534.77l30.8008 29.04 l89.7598 -117.04l-17.5996 -14.9609z" />
<glyph unicode="&#xed;" horiz-adv-x="425" d="M1.94922 1383.05h275.476q-17.7725 -15.4531 -32.583 -29.9404q-9.87402 -11.5898 -22.2158 -23.6631q-12.3428 -12.0723 -14.3174 -19.7988q0 -1.93164 3.9502 -599.291q3.94922 -597.36 5.92383 -599.292q3.94922 -5.79492 121.446 -107.206l-333.73 -3.86328 q56.2803 53.1201 67.1416 73.4023q3.94922 7.72656 8.88574 609.916q4.9375 602.188 4.9375 607.983q-5.9248 9.6582 -18.2666 25.1113t-66.6475 66.6416zM205.821 1520.77l-30.791 29.04l-89.7363 -117.04l17.5957 -14.9609zM205.821 1520.77l-30.791 29.04 l-89.7363 -117.04l17.5957 -14.9609z" />
<glyph unicode="&#xee;" horiz-adv-x="425" d="M0 1382h274q-18 -16 -32 -28q-8 -12 -20.5 -24.5t-14.5 -20.5q0 -2 4 -599t6 -599q4 -6 121 -107l-334 -4q57 53 68 74q4 8 8 610t4 608q-6 10 -17.5 24.5t-66.5 65.5zM6 1425l119 158l168 -121l-35 -10l-127 98l-70 -139z" />
<glyph unicode="&#xef;" horiz-adv-x="425" d="M5.94922 1383.05h275.476q-17.7725 -15.4531 -32.583 -29.9404q-9.87402 -11.5898 -22.2158 -23.6631q-12.3428 -12.0723 -14.3174 -19.7988q0 -1.93164 3.9502 -599.291q3.94922 -597.36 5.92383 -599.292q3.94922 -5.79492 121.446 -107.206l-333.73 -3.86328 q56.2803 53.1201 67.1416 73.4023q3.94922 7.72656 8.88574 609.916q4.9375 602.188 4.9375 607.983q-5.9248 9.6582 -18.2666 25.1113t-66.6475 66.6416zM4.5459 1472.68q-2.5459 20.4697 9.33301 38.9326q11.8789 14.4492 32.2441 17.6602 q20.3633 3.21094 35.6367 -8.02734q16.9707 -14.4492 19.9404 -35.3203t-5.51562 -36.9258q-13.5762 -20.0684 -34.7891 -20.8711t-38.1826 11.2383q-16.1221 12.8438 -18.667 33.3135zM202.673 1456.63q-2.96973 18.8643 8.06055 33.3135q11.8799 16.0547 28.4258 17.2588 t30.1221 -9.23145q13.5762 -12.8438 16.5459 -30.1025t-5.51562 -33.3135q-11.8789 -14.4492 -28.8496 -17.2588q-16.9697 -2.80957 -33.9404 10.0342q-11.8789 10.4355 -14.8486 29.2998z" />
<glyph unicode="&#xf0;" horiz-adv-x="1183" d="M0 766l508 39l-6 -133l-496 16zM4 1407q260 47 479 8q92 -16 186.5 -53t174.5 -103.5t142.5 -167t90.5 -241.5q33 -188 7.5 -324.5t-90 -230.5t-160 -151.5t-197.5 -88.5q-242 -74 -571 -39l-3 117q250 -41 441 2q82 18 158.5 59.5t135 112t91.5 176t26 256.5 q-10 133 -43.5 230.5t-84 164t-111 107.5t-123.5 64q-145 53 -324 30l52 -1253l-138 20l-4 1219l-123 -35z" />
<glyph unicode="&#xf1;" horiz-adv-x="1067" d="M-4 2l57 66l-45 1284l152 6l702 -950q-12 938 -14 944l-21 20q-14 14 -30 29l-43 29l207 2l12 -1428l-848 1129q39 -1034 41 -1045q6 -10 22.5 -26.5t34.5 -28.5q23 -16 49 -31h-276zM229 1453.85q32.627 34.582 63.8359 65.0146q22.6973 22.1328 53.1973 43.5742 q30.499 21.4404 57.4521 29.7412q25.5342 2.76562 41.8477 -15.9082q16.3135 -18.6748 30.5 -40.8076q14.1855 -22.1328 27.6621 -39.4238q13.4766 -17.292 30.499 -17.292q11.3486 0 20.5693 22.8252q9.22168 22.8242 14.8955 53.2568q8.51172 27.666 11.3486 74.6982 l49.6504 -12.4502q-14.1855 -53.9482 -29.79 -92.6807q-11.3486 -37.3486 -27.6621 -65.707q-16.3145 -28.3574 -33.3369 -28.3574q-28.3721 -2.7666 -43.2666 13.1416q-14.8955 15.9082 -26.2441 38.041t-24.8252 43.5732q-13.4766 21.4414 -36.1738 21.4414 q-25.5342 0 -47.5225 -21.4414q-21.9873 -21.4404 -43.2666 -46.3408q-22.6973 -24.8984 -42.5566 -65.0146z" />
<glyph unicode="&#xf2;" horiz-adv-x="1290" d="M15.9326 727.675q7.9707 179.062 62.2676 296.213t126.029 187.634q71.7314 70.4814 168.37 112.389q96.6396 41.9082 231.137 43.8135q165.382 -1.90527 299.879 -60.957q58.7812 -23.8115 114.074 -64.291t101.122 -104.294t74.7207 -152.393t34.8701 -203.824 v-14.2871q0 -183.823 -48.8184 -322.882q-50.8096 -144.773 -136.489 -241.923q-85.6797 -97.1504 -195.271 -148.107q-109.591 -50.9561 -223.166 -52.8604h-10.959q-108.595 0 -217.188 39.0498q-113.575 40.9561 -201.746 129.534t-139.977 227.637 q-40.8477 111.437 -40.8477 257.162q0 35.2412 1.99219 72.3867zM187.293 856.256q-8.9668 -70.4814 -7.9707 -135.248q0 -100.961 20.9219 -189.539q34.8701 -145.725 102.118 -248.114q67.249 -102.389 156.914 -155.726q83.6875 -50.4805 165.382 -49.5273h11.9551 q44.833 0 110.089 16.668t128.52 75.2432q63.2637 58.5762 114.572 176.204q51.3076 117.628 67.248 325.263q2.98926 40.0029 2.98926 75.2441q0 91.4355 -17.9336 161.917q-25.9023 99.0557 -71.7314 169.537t-101.122 114.294q-55.293 43.8135 -118.557 68.5771 t-140.974 26.668q-9.96289 0 -41.3457 -0.952148t-73.2256 -10.001q-41.8438 -9.04785 -85.6807 -31.4307q-43.8359 -22.3828 -91.1592 -64.29q-47.3232 -41.9082 -82.1924 -123.819q-34.8701 -81.9111 -48.8174 -200.968zM440.596 1561.61l57.3984 42.2412 l167.275 -170.244l-32.7988 -21.7607zM440.596 1561.61l57.3984 42.2412l167.275 -170.244l-32.7988 -21.7607z" />
<glyph unicode="&#xf3;" horiz-adv-x="1288" d="M15.9326 740.498q7.9707 182.217 62.2676 301.434q54.2969 119.216 126.029 190.939q71.7314 71.7236 168.37 114.37q96.6396 42.6465 231.137 44.585q165.382 -1.93848 299.879 -62.0312q58.7812 -24.2305 114.074 -65.4238q55.293 -41.1924 101.122 -106.131 q45.8291 -64.9395 74.7207 -155.078q28.8916 -90.1396 34.8701 -207.418v-14.5381q0 -187.063 -48.8184 -328.571q-50.8096 -147.324 -136.489 -246.188q-85.6797 -98.8613 -195.271 -150.716t-223.166 -53.793h-10.959q-108.595 0 -217.188 39.7393 q-113.575 41.6768 -201.746 131.816q-88.1709 90.1387 -139.977 231.647q-40.8477 113.401 -40.8477 261.694q0 35.8613 1.99219 73.6621zM187.293 871.346q-8.9668 -71.7246 -7.9707 -137.633q0 -102.738 20.9219 -192.878q34.8701 -148.294 102.118 -252.486 q67.249 -104.193 156.914 -158.471q83.6875 -51.3701 165.382 -50.4004h11.9551q44.833 0 110.089 16.9619q65.2559 16.9609 128.52 76.5693t114.572 179.31q51.3076 119.701 67.248 330.994q2.98926 40.709 2.98926 76.5703q0 93.0469 -17.9336 164.771 q-25.9023 100.801 -71.7314 172.524t-101.122 116.309t-118.557 69.7852t-140.974 27.1387q-9.96289 0 -41.3457 -0.96875q-31.3828 -0.969727 -73.2256 -10.1777q-41.8438 -9.20703 -85.6807 -31.9844q-43.8359 -22.7773 -91.1592 -65.4238t-82.1924 -126.001 q-34.8701 -83.3545 -48.8174 -204.509zM675.421 1578.61l-57.3926 42.2412l-167.256 -170.244l32.7949 -21.7607zM675.421 1578.61l-57.3926 42.2412l-167.256 -170.244l32.7949 -21.7607z" />
<glyph unicode="&#xf4;" horiz-adv-x="1290" d="M18 727q8 180 62.5 297t126.5 187.5t168 112.5t231 44q166 -2 299 -61q59 -23 114.5 -64t101.5 -104.5t75 -152.5t35 -204q2 -193 -49.5 -337t-137.5 -242.5t-194.5 -148.5t-222.5 -52q-115 -2 -227.5 39t-201.5 130t-140.5 227.5t-39.5 328.5zM190 856 q-23 -178 12.5 -323.5t102 -248t156.5 -156.5t178 -50q45 0 110.5 16.5t128 74.5t113.5 177t68 326q10 137 -15.5 236.5t-71.5 170t-100.5 114.5t-118 68.5t-141.5 26.5q-10 0 -41.5 -1t-73.5 -10t-86 -31.5t-90.5 -64.5t-81.5 -124t-49 -201zM410 1411l153 207l219 -156 l-45 -14l-166 127l-88 -180z" />
<glyph unicode="&#xf5;" horiz-adv-x="1294" d="M18.0332 740.498q8.01465 182.217 62.6143 301.434q54.5996 119.216 126.731 190.939t169.31 114.37t232.425 44.585q166.304 -1.93848 301.551 -62.0312q59.1084 -24.2305 114.71 -65.4238q55.6016 -41.1924 101.686 -106.131q46.085 -64.9395 75.1377 -155.078 q29.0527 -90.1396 35.0645 -207.418v-14.5381q0 -187.063 -49.0898 -328.571q-51.0938 -147.324 -137.251 -246.188q-86.1572 -98.8613 -196.359 -150.716q-110.201 -51.8545 -224.41 -53.793h-11.0195q-109.2 0 -218.399 39.7393q-114.209 41.6768 -202.871 131.816 q-88.6621 90.1387 -140.757 231.647q-41.0752 113.401 -41.0752 261.694q0 35.8613 2.00391 73.6621zM190.348 871.346q-9.0166 -71.7246 -8.01465 -137.633q0 -102.738 21.0391 -192.878q35.0635 -148.294 102.688 -252.486q67.623 -104.193 157.788 -158.471 q84.1543 -51.3701 166.304 -50.4004h12.0225q45.082 0 110.702 16.9619q65.6201 16.9609 129.236 76.5693t115.211 179.31q51.5938 119.701 67.623 330.994q3.00586 40.709 3.00586 76.5703q0 93.0469 -18.0332 164.771q-26.0479 100.801 -72.1318 172.524t-101.686 116.309 t-119.218 69.7852t-141.76 27.1387q-10.0186 0 -41.5762 -0.96875q-31.5576 -0.969727 -73.6338 -10.1777q-42.0771 -9.20703 -86.1582 -31.9844q-44.0801 -22.7773 -91.667 -65.4238t-82.6514 -126.001t-49.0898 -204.509zM385 1466.9q36.0156 36.249 70.4668 68.1484 q25.0547 23.1992 58.7217 45.6729q33.667 22.4746 63.4189 31.1738q28.1875 2.90039 46.1953 -16.6738q18.0078 -19.5752 33.667 -42.7744t30.5352 -41.3232t33.667 -18.124q12.5273 0 22.7061 23.9238t16.4424 55.8232q9.39551 28.999 12.5273 78.2979l54.8066 -13.0498 q-15.6582 -56.5479 -32.8838 -97.1475q-12.5273 -39.1484 -30.5352 -68.8721q-18.0088 -29.7236 -36.7998 -29.7236q-31.3184 -2.90039 -47.7598 13.7744q-16.4424 16.6738 -28.9697 39.873t-27.4033 45.6738q-14.877 22.4736 -39.9316 22.4736q-28.1855 0 -52.458 -22.4736 q-24.2715 -22.4746 -47.7607 -48.5732q-25.0547 -26.0996 -46.9766 -68.1484z" />
<glyph unicode="&#xf6;" horiz-adv-x="1288" d="M435 1483.5q-3 25.5 11 48.5q14 18 38 22t42 -10q20 -18 23.5 -44t-6.5 -46q-16 -25 -41 -26t-45 14q-19 16 -22 41.5zM668.5 1463.5q-3.5 23.5 9.5 41.5q14 20 33.5 21.5t35.5 -11.5q16 -16 19.5 -37.5t-6.5 -41.5q-14 -18 -34 -21.5t-40 12.5q-14 13 -17.5 36.5z M15.9326 733.504q7.9707 180.495 62.2676 298.585q54.2969 118.091 126.029 189.137q71.7314 71.0459 168.37 113.29q96.6396 42.2432 231.137 44.1641q165.382 -1.9209 299.879 -61.4453q58.7812 -24.0029 114.074 -64.8057q55.293 -40.8037 101.122 -105.13 q45.8291 -64.3252 74.7207 -153.613q28.8916 -89.2871 34.8701 -205.457v-14.4014q0 -185.296 -48.8184 -325.469q-50.8096 -145.933 -136.489 -243.86q-85.6797 -97.9287 -195.271 -149.293q-109.591 -51.3652 -223.166 -53.2852h-10.959q-108.595 0 -217.188 39.3633 q-113.575 41.2842 -201.746 130.571q-88.1709 89.2881 -139.977 229.46q-40.8477 112.33 -40.8477 259.223q0 35.5234 1.99219 72.9668zM187.293 863.114q-8.9668 -71.0459 -7.9707 -136.331q0 -101.77 20.9219 -191.057q34.8701 -146.893 102.118 -250.102 q67.249 -103.209 156.914 -156.974q83.6875 -50.8848 165.382 -49.9248h11.9551q44.833 0 110.089 16.8018t128.52 75.8467t114.572 177.615q51.3076 118.57 67.248 327.868q2.98926 40.3232 2.98926 75.8467q0 92.168 -17.9336 163.214q-25.9023 99.8486 -71.7314 170.896 q-45.8291 71.0459 -101.122 115.209q-55.293 44.1641 -118.557 69.127q-63.2637 24.9619 -140.974 26.8818q-9.96289 0 -41.3457 -0.959961t-73.2256 -10.0811q-41.8438 -9.12109 -85.6807 -31.6826q-43.8359 -22.5625 -91.1592 -64.8057t-82.1924 -124.811 q-34.8701 -82.5674 -48.8174 -202.578z" />
<glyph unicode="&#xf7;" horiz-adv-x="806" d="M2 625l698 37l-6 -119l-684 14zM265 366.5q-5 30.5 14 59.5q18 27 49.5 32t58.5 -14q29 -20 34 -51t-13 -59q-18 -27 -50 -32t-59 13q-29 21 -34 51.5zM290 807q-5 29 11 51q16 23 44 28t50 -12q25 -16 30 -43.5t-11 -50.5t-45 -29t-52 11q-22 16 -27 45z" />
<glyph unicode="&#xf8;" horiz-adv-x="1271" d="M12 158l103 121q-55 88 -83 206.5t-20 270.5q10 170 54.5 283.5t108 186t134 111.5t132 55.5t155.5 24.5q14 0 53 -2t94.5 -12t120 -33.5t123.5 -69.5l121 144l74 -37l-127 -164q63 -66 107 -171t50 -259q0 -201 -50 -350.5t-134 -250.5t-192.5 -153.5t-221.5 -54.5 q-109 -2 -214 37t-193 121l-86 -109zM179.5 632q15.5 -118 53.5 -216l664 782q-43 47 -90 76t-89 46t-72 24.5t-38 7.5q-12 0 -44 1t-75 -9.5t-90 -36t-91 -75.5t-78.5 -134t-47.5 -209q-18 -139 -2.5 -257zM303 283q68 -98 153 -152.5t171 -50.5q29 2 67.5 9t81.5 27.5 t86 60.5t80 107.5t63.5 169t36.5 244.5q10 141 -15.5 243.5t-72.5 176.5z" />
<glyph unicode="&#xf9;" horiz-adv-x="1107" d="M2 1387.95l266 -6.78516q-20 -28.1074 -39 -51.3691q-16 -24.2305 -29.5 -45.5547q-13.5 -21.3223 -15.5 -37.7998q0 -123.093 3 -249.095q3 -126 15.5 -246.186t37 -230.194t65.5 -195.302t109.5 -140.055t160.5 -68.332q10 -0.96875 21 -0.96875q75 0 127 65.9082 q59 75.6006 92 197.725t38 269.448q4 104.678 4 201.602q0 38.7695 -1 75.6006q-2 130.848 -17.5 228.256t-35.5 119.701q-2 3.87695 -16.5 16.9609q-14.5 13.085 -30.5 26.6543l-41 35.8613h143l141 1.93945q2 -138.602 8 -298.525q3 -79.4785 2.5 -158.955 q-0.5 -79.4785 -2.5 -157.986q-5 -157.017 -24.5 -299.979q-19.5 -142.962 -70 -246.187q-50.5 -103.224 -134.5 -154.594q-59 -35.8613 -140 -35.8613q-34 0 -73 5.81543q-152 28.1084 -248 117.278t-154.5 211.293q-58.5 122.125 -85 266.057t-35.5 279.141t-9 250.063 t-6 178.824l-15 45.5537q-6 14.5391 -10 30.0469zM325.594 1615.9l52.7305 49.7178l153.672 -200.377l-30.1318 -25.6123zM325.594 1615.9l52.7305 49.7178l153.672 -200.377l-30.1318 -25.6123z" />
<glyph unicode="&#xfa;" horiz-adv-x="1105" d="M2 1432l266 -7q-20 -29 -39 -53q-16 -25 -29.5 -47t-15.5 -39q0 -127 3 -257t15.5 -254t37 -237.5t65.5 -201.5t109.5 -144.5t160.5 -70.5q10 -1 21 -1q75 0 127 68q59 78 92 204t38 278q4 108 4 208q0 40 -1 78q-2 135 -17.5 235.5t-35.5 123.5q-2 4 -16.5 17.5 t-30.5 27.5l-41 37h143l141 2q2 -143 8 -308q3 -82 2.5 -164t-2.5 -163q-5 -162 -24.5 -309.5t-70 -254t-134.5 -159.5q-59 -37 -140 -37q-34 0 -73 6q-152 29 -248 121t-154.5 218t-85 274.5t-35.5 288t-9 258t-6 184.5l-15 47q-6 15 -10 31zM566.423 2275.9 l-52.7236 49.7178l-153.654 -200.377l30.1289 -25.6123zM566.423 2275.9l-52.7236 49.7178l-153.654 -200.377l30.1289 -25.6123zM678.687 1596.28l-52.2324 49.7256l-152.223 -200.409l29.8477 -25.6162zM678.687 1596.28l-52.2324 49.7256l-152.223 -200.409 l29.8477 -25.6162z" />
<glyph unicode="&#xfb;" horiz-adv-x="1105" d="M2 1432l266 -7q-20 -29 -39 -53q-16 -25 -29.5 -47t-15.5 -39q0 -127 3 -257t15.5 -254t37 -237.5t65.5 -201.5t109.5 -144.5t160.5 -70.5q88 -10 147.5 67.5t92.5 203.5t38 277.5t3 287t-17.5 235.5t-35.5 123q-2 4 -16.5 17.5t-30.5 27.5l-41 37h143l141 2 q2 -143 7.5 -308t0 -327t-24.5 -309.5t-69.5 -254t-134.5 -159.5t-213 -31q-152 29 -248 121t-154.5 218t-85 274.5t-35.5 288t-9 258t-6 184.5l-15 47q-6 15 -10 31zM338 1452l154 207l219 -156l-45 -14l-166 127l-88 -180z" />
<glyph unicode="&#xfc;" horiz-adv-x="1105" d="M2 1432l266 -7q-20 -29 -39 -53q-16 -25 -29.5 -47t-15.5 -39q0 -127 3 -257t15.5 -254t37 -237.5t65.5 -201.5t109.5 -144.5t160.5 -70.5q10 -1 21 -1q75 0 127 68q59 78 92 204t38 278q4 108 4 208q0 40 -1 78q-2 135 -17.5 235.5t-35.5 123.5q-2 4 -16.5 17.5 t-30.5 27.5l-41 37h143l141 2q2 -143 8 -308q3 -82 2.5 -164t-2.5 -163q-5 -162 -24.5 -309.5t-70 -254t-134.5 -159.5q-59 -37 -140 -37q-34 0 -73 6q-152 29 -248 121t-154.5 218t-85 274.5t-35.5 288t-9 258t-6 184.5l-15 47q-6 15 -10 31zM316 1485.5q-3 25.5 11 48.5 q14 18 38 22t42 -10q20 -18 23.5 -44t-6.5 -46q-16 -25 -41 -26t-45 14q-19 16 -22 41.5zM549.5 1465.5q-3.5 23.5 9.5 41.5q14 20 33.5 21.5t35.5 -11.5q16 -16 19.5 -37.5t-6.5 -41.5q-14 -18 -34 -21.5t-40 12.5q-14 13 -17.5 36.5z" />
<glyph unicode="&#xfd;" d="M628.42 2224.68l-48.0586 45.3184l-140.057 -182.647l27.4619 -23.3457zM628.42 2224.68l-48.0586 45.3184l-140.057 -182.647l27.4619 -23.3457zM0 1432l240 -11l-29 -22q-10 -8 -18.5 -18.5t-10.5 -14.5q0 -4 348 -541q326 501 326 508q0 4 -16 21l-27 26 q-16 16 -37 35l322 -12l-94 -86l-396 -606l37 -639l88 -70h-368q84 49 104 65.5t25 26.5q2 6 2 37v78q0 47 -2 104.5t-5 116.5q-8 139 -14 293q-182 289 -238.5 372t-106.5 153.5t-87 122t-43 61.5zM678.687 1596.28l-52.2324 49.7256l-152.223 -200.409l29.8477 -25.6162z M678.687 1596.28l-52.2324 49.7256l-152.223 -200.409l29.8477 -25.6162z" />
<glyph unicode="&#xfe;" horiz-adv-x="1009" d="M0 1430h303q-18 -16 -33 -29q-10 -12 -22 -24.5t-15 -20.5q0 -2 1.5 -45t7.5 -113q145 23 265 16.5t207 -47.5t145.5 -120.5t84.5 -208.5q23 -109 -3 -188t-80 -134t-129 -88t-154.5 -53.5t-155.5 -26.5t-125 -6q8 -98 13 -158.5t7 -64.5q4 -4 28 -18.5t52 -28.5 q33 -18 72 -41l-365 -27q14 14 31 27q29 29 37 49q10 25 11 122t-3 228t-9 279.5t-14.5 279.5t-18.5 226.5t-19 121.5q-4 10 -21.5 24.5t-40.5 31.5q-24 19 -57 37zM248 1073q4 -68 9 -148.5t10 -162.5t11.5 -163t10.5 -155q41 -2 96 -3t112.5 7.5t115 29t101.5 59t69.5 100 t23.5 149.5q-14 135 -81 201t-154 89.5t-177 16t-147 -19.5z" />
<glyph unicode="&#xff;" d="M0 1432l240 -11l-29 -22q-10 -8 -18.5 -18.5t-10.5 -14.5q0 -4 348 -541q326 501 326 508q0 4 -16 21l-27 26q-16 16 -37 35l322 -12l-94 -86l-396 -606l37 -639l88 -70h-368q84 49 104 65.5t25 26.5q2 6 2 37v78q0 47 -2 104.5t-5 116.5q-8 139 -14 293 q-182 289 -238.5 372t-106.5 153.5t-87 122t-43 61.5zM316 1483.5q-3 25.5 11 48.5q14 18 38 22t42 -10q20 -18 23.5 -44t-6.5 -46q-16 -25 -41 -26t-45 14q-19 16 -22 41.5zM549.5 1463.5q-3.5 23.5 9.5 41.5q14 20 33.5 21.5t35.5 -11.5q16 -16 19.5 -37.5t-6.5 -41.5 q-14 -18 -34 -21.5t-40 12.5q-14 13 -17.5 36.5z" />
<glyph unicode="&#x104;" horiz-adv-x="1034" d="M0 0l422 1368l561 -1350l-235 -14l47 59l-385 965l-123 -457l334 23l22 -102l-379 -23l-131 -416l51 -53l-182 2zM737 -65.5q4 45.5 11 69.5l63 6q-27 -33 -27 -61q-2 -39 10.5 -69t34 -45t41.5 -19q31 -6 48 0v-90q0 -2 -17.5 -3.5t-50.5 8t-70 42.5q-31 33 -39 74.5 t-4 87z" />
<glyph unicode="&#x105;" horiz-adv-x="1034" d="M0 0l422 1368l561 -1350l-235 -14l47 59l-385 965l-123 -457l334 23l22 -102l-379 -23l-131 -416l51 -53l-182 2zM737 -65.5q4 45.5 11 69.5l63 6q-27 -33 -27 -61q-2 -39 10.5 -69t34 -45t41.5 -19q31 -6 48 0v-90q0 -2 -17.5 -3.5t-50.5 8t-70 42.5q-31 33 -39 74.5 t-4 87z" />
<glyph unicode="&#x106;" horiz-adv-x="1064" d="M20 729q8 172 86 308.5t207 227.5t299 129t357 15l-68 -164q-209 53 -371 19q-70 -16 -134 -52t-112 -103t-75 -169t-19 -250q6 -158 38 -262t78 -168.5t104.5 -96.5t117.5 -40q139 -20 312 57l69 -157q-258 -41 -456 16q-86 23 -165 72t-140.5 128.5t-97.5 200.5 t-30 289zM479 1444l31 -25l174 176l-51 50zM479 1444l31 -25l174 176l-51 50z" />
<glyph unicode="&#x107;" horiz-adv-x="1064" d="M20 729q8 172 86 308.5t207 227.5t299 129t357 15l-68 -164q-209 53 -371 19q-70 -16 -134 -52t-112 -103t-75 -169t-19 -250q6 -158 38 -262t78 -168.5t104.5 -96.5t117.5 -40q139 -20 312 57l69 -157q-258 -41 -456 16q-86 23 -165 72t-140.5 128.5t-97.5 200.5 t-30 289zM479 1444l31 -25l174 176l-51 50zM479 1444l31 -25l174 176l-51 50z" />
<glyph unicode="&#x118;" horiz-adv-x="1040" d="M0 1251v111l946 -14l-2 -230q-43 33 -80 62.5t-78 60.5l-553 6l5 -467l385 19v-125h-383l14 -563q459 8 461 10q6 2 170 104v-221h-836v107l60 -5v1145h-109zM737 -65.5q4 45.5 11 69.5h63q-27 -33 -27 -55q-2 -39 10.5 -69t34 -45t41.5 -19q31 -6 48 0v-90 q0 -2 -17.5 -3.5t-50.5 8t-70 42.5q-31 33 -39 74.5t-4 87zM748 4z" />
<glyph unicode="&#x119;" horiz-adv-x="1040" d="M0 1251v111l946 -14l-2 -230q-43 33 -80 62.5t-78 60.5l-553 6l5 -467l385 19v-125h-383l14 -563q459 8 461 10q6 2 170 104v-221h-836v107l60 -5v1145h-109zM737 -65.5q4 45.5 11 69.5h63q-27 -33 -27 -55q-2 -39 10.5 -69t34 -45t41.5 -19q31 -6 48 0v-90 q0 -2 -17.5 -3.5t-50.5 8t-70 42.5q-31 33 -39 74.5t-4 87zM748 4z" />
<glyph unicode="&#x11e;" horiz-adv-x="1105" d="M31 731q6 121 57 222.5t128 188.5t174 144t200.5 92t204 43.5t182.5 -2.5l6 -239l-47 59q-18 25 -35.5 44.5t-28.5 21.5q-121 12 -236.5 -21t-212.5 -106.5t-157.5 -187t-68.5 -263.5q-10 -143 25.5 -264t122.5 -205t212 -124t299 -11l-53 571l-373 -16l-6 121l485 8 l99 -772q-281 -55 -508 -6q-96 20 -187.5 66t-158 128t-102 206t-21.5 302zM449 1503l32 4q6 -18 17 -34q10 -14 23.5 -27.5t35.5 -18.5q20 -4 37.5 9.5t28.5 29.5q12 18 22 43l39 -6q-16 -27 -35 -49q-16 -18 -37.5 -33.5t-50.5 -15.5q-35 0 -56.5 15.5t-33.5 33.5 q-14 22 -22 49z" />
<glyph unicode="&#x11f;" horiz-adv-x="1110" d="M31 731q6 121 57 222.5t128 188.5t174 144t200.5 92t204 43.5t182.5 -2.5l6 -239l-47 59q-18 25 -35.5 44.5t-28.5 21.5q-121 12 -236.5 -21t-212.5 -106.5t-157.5 -187t-68.5 -263.5q-10 -143 25.5 -264t122.5 -205t212 -124t299 -11l-53 571l-373 -16l-6 121l485 8 l99 -772q-281 -55 -508 -6q-96 20 -187.5 66t-158 128t-102 206t-21.5 302zM449 1503l32 4q6 -18 17 -34q10 -14 23.5 -27.5t35.5 -18.5q20 -4 37.5 9.5t28.5 29.5q12 18 22 43l39 -6q-16 -27 -35 -49q-16 -18 -37.5 -33.5t-50.5 -15.5q-35 0 -56.5 15.5t-33.5 33.5 q-14 22 -22 49z" />
<glyph unicode="&#x130;" horiz-adv-x="432" d="M4 1432h279q-18 -16 -33 -31q-10 -12 -22.5 -24.5t-14.5 -20.5q0 -2 4 -620.5t6 -620.5q4 -6 123 -111l-338 -4q57 55 68 76q4 8 9 631.5t5 629.5q-6 10 -18.5 26t-67.5 69zM91 1528.5q-3 25.5 11 48.5q14 18 38 22.5t42 -10.5q20 -18 23.5 -43.5t-6.5 -46.5 q-16 -25 -41 -25.5t-45 13.5q-19 16 -22 41.5z" />
<glyph unicode="&#x131;" horiz-adv-x="436" d="M4 1432h279q-18 -16 -33 -31q-10 -12 -22.5 -24.5t-14.5 -20.5q0 -2 4 -620.5t6 -620.5q4 -6 123 -111l-338 -4q57 55 68 76q4 8 9 631.5t5 629.5q-6 10 -18.5 26t-67.5 69z" />
<glyph unicode="&#x141;" horiz-adv-x="997" d="M-229 530l790 492l8 -84l-712 -498zM2 1434h311q-76 -49 -89 -64.5t-15 -19.5q-2 -2 -4 -58.5t-4 -1178.5q610 14 616 20q10 2 103 119l-2 -250l-850 -4l-9 1384q-26 23 -57 52z" />
<glyph unicode="&#x142;" horiz-adv-x="997" d="M-229 530l790 492l8 -84l-712 -498zM2 1434h311q-76 -49 -89 -64.5t-15 -19.5q-2 -2 -4 -58.5t-4 -1178.5q610 14 616 20q10 2 103 119l-2 -250l-850 -4l-9 1384q-26 23 -57 52z" />
<glyph unicode="&#x143;" horiz-adv-x="1067" d="M-4 2l57 66l-45 1284l152 6l702 -950q-12 938 -14 944l-21 20q-14 14 -30 29l-43 29l207 2l12 -1428l-848 1129q39 -1034 41 -1045q6 -10 22.5 -26.5t34.5 -28.5q23 -16 49 -31h-276zM0 1362zM389 1432l154 200l51 -49l-174 -176zM389 1432l154 200l51 -49l-174 -176z " />
<glyph unicode="&#x144;" horiz-adv-x="1067" d="M-4 2l57 66l-45 1284l152 6l702 -950q-12 938 -14 944l-21 20q-14 14 -30 29l-43 29l207 2l12 -1428l-848 1129q39 -1034 41 -1045q6 -10 22.5 -26.5t34.5 -28.5q23 -16 49 -31h-276zM0 1362zM389 1432l154 200l51 -49l-174 -176zM389 1432l154 200l51 -49l-174 -176z " />
<glyph unicode="&#x152;" horiz-adv-x="1402" d="M4 705q-2 57 5 131.5t32 153.5t68 155t114.5 138.5t174 102t243.5 44.5l686 -7q-2 -268 -2 -264t-21.5 28.5t-50.5 53.5l-53 53q-25 25 -33 27q-4 0 -426 -14l15 -484l356 19v-133h-354l12 -596q344 10 346 12q4 2 141 108v-233h-684q-182 14 -291.5 94t-171 186.5 t-83 222.5t-23.5 202zM158 764q0 -119 22.5 -238.5t77.5 -214t142 -151t229 -47.5l-2 1194q-119 0 -201 -36t-130 -90.5t-78 -120t-43 -124.5t-15 -106.5t-2 -65.5z" />
<glyph unicode="&#x153;" horiz-adv-x="1402" d="M4 705q-2 57 5 131.5t32 153.5t68 155t114.5 138.5t174 102t243.5 44.5l686 -7q-2 -268 -2 -264t-21.5 28.5t-50.5 53.5l-53 53q-25 25 -33 27q-4 0 -426 -14l15 -484l356 19v-133h-354l12 -596q344 10 346 12q4 2 141 108v-233h-684q-182 14 -291.5 94t-171 186.5 t-83 222.5t-23.5 202zM158 764q0 -119 22.5 -238.5t77.5 -214t142 -151t229 -47.5l-2 1194q-119 0 -201 -36t-130 -90.5t-78 -120t-43 -124.5t-15 -106.5t-2 -65.5z" />
<glyph unicode="&#x15a;" horiz-adv-x="808" d="M486.687 1596.28l-52.2324 49.7256l-152.223 -200.409l29.8477 -25.6162zM486.687 1596.28l-52.2324 49.7256l-152.223 -200.409l29.8477 -25.6162zM6 936v16q0 105 49 192q53 93 146.5 157.5t215.5 98.5q109 30 231 30h30v-136q-25 8 -61.5 16.5t-68.5 9.5h-6 q-31 0 -86 -10q-60 -11 -120 -50t-116 -101.5t-60 -181.5q0 -80 49 -143.5t105.5 -103.5t122 -78t123.5 -84t98 -106.5t42 -148.5q0 -5 1 -10q0 -63 -23 -110q-25 -51 -66 -87t-94 -56.5t-108 -31.5q-83 -16 -181 -15q-57 0 -120 5l45 238q12 -31 20 -58q10 -23 19.5 -43 t17.5 -30q6 -6 41 -11q15 -2 33 -1q22 0 47 2q45 5 94 22.5t82 52.5t39 92q1 8 1 17q0 53 -34 127q-43 70 -93 113.5t-105.5 76.5t-108.5 60.5t-96 62.5t-73 83t-32 124z" />
<glyph unicode="&#x15b;" horiz-adv-x="808" d="M6 936v16q0 105 49 192q53 93 146.5 157.5t215.5 98.5q109 30 231 30h30v-136q-25 8 -61.5 16.5t-68.5 9.5h-6q-31 0 -86 -10q-60 -11 -120 -50t-116 -101.5t-60 -181.5q0 -80 49 -143.5t105.5 -103.5t122 -78t123.5 -84t98 -106.5t42 -148.5q0 -5 1 -10q0 -63 -23 -110 q-25 -51 -66 -87t-94 -56.5t-108 -31.5q-83 -16 -181 -15q-57 0 -120 5l45 238q12 -31 20 -58q10 -23 19.5 -43t17.5 -30q6 -6 41 -11q15 -2 33 -1q22 0 47 2q45 5 94 22.5t82 52.5t39 92q1 8 1 17q0 53 -34 127q-43 70 -93 113.5t-105.5 76.5t-108.5 60.5t-96 62.5t-73 83 t-32 124zM486.687 1596.28l-52.2324 49.7256l-152.223 -200.409l29.8477 -25.6162zM486.687 1596.28l-52.2324 49.7256l-152.223 -200.409l29.8477 -25.6162z" />
<glyph unicode="&#x15e;" horiz-adv-x="778" d="M2 936q-4 115 49 208t146.5 157.5t215.5 98.5t261 30v-136q-25 8 -62 16.5t-68.5 9.5t-92 -10.5t-120 -50t-115.5 -101t-60 -181.5q0 -80 49 -143.5t105.5 -103.5t122 -78t123.5 -84t98 -106.5t42 -148.5q2 -70 -22.5 -121t-65.5 -86.5t-94 -56t-108 -31.5 q-131 -25 -302 -10l46 238q12 -31 20 -58q10 -23 19.5 -43t17.5 -30q6 -6 41 -10.5t80 1t94 22.5t82 52t39 92.5t-33 143.5q-43 70 -93 113.5t-105.5 76.5t-108.5 60.5t-96.5 62.5t-73 83t-31.5 124zM281 -131q37 -6 67 -4q25 2 46.5 10t23.5 31q2 18 -10.5 22t-28.5 3 l-33 -2q-16 -1 -24 10q-8 8 -11.5 22t-4.5 26.5t-1 20.5t0 6q-2 -4 10.5 -3t26.5 1q16 0 37 2l-12 -20q-4 -10 -6.5 -19.5t6.5 -15.5q6 -6 18 -8l25 -4q12 -2 24 -8.5t21 -20.5q16 -31 -26 -66.5t-148 -35.5v26v27z" />
<glyph unicode="&#x15f;" horiz-adv-x="778" d="M2 936q-4 115 49 208t146.5 157.5t215.5 98.5t261 30v-136q-25 8 -62 16.5t-68.5 9.5t-92 -10.5t-120 -50t-115.5 -101t-60 -181.5q0 -80 49 -143.5t105.5 -103.5t122 -78t123.5 -84t98 -106.5t42 -148.5q2 -70 -22.5 -121t-65.5 -86.5t-94 -56t-108 -31.5 q-131 -25 -302 -10l46 238q12 -31 20 -58q10 -23 19.5 -43t17.5 -30q6 -6 41 -10.5t80 1t94 22.5t82 52t39 92.5t-33 143.5q-43 70 -93 113.5t-105.5 76.5t-108.5 60.5t-96.5 62.5t-73 83t-31.5 124zM281 -131q37 -6 67 -4q25 2 46.5 10t23.5 31q2 18 -10.5 22t-28.5 3 l-33 -2q-16 -1 -24 10q-8 8 -11.5 22t-4.5 26.5t-1 20.5t0 6q-2 -4 10.5 -3t26.5 1q16 0 37 2l-12 -20q-4 -10 -6.5 -19.5t6.5 -15.5q6 -6 18 -8l25 -4q12 -2 24 -8.5t21 -20.5q16 -31 -26 -66.5t-148 -35.5v26v27z" />
<glyph unicode="&#x160;" horiz-adv-x="798" d="M6 936v16q0 105 49 192q53 93 146.5 157.5t215.5 98.5q109 30 231 30h30v-136q-25 8 -61.5 16.5t-68.5 9.5h-6q-31 0 -86 -10q-60 -11 -120 -50t-116 -101.5t-60 -181.5q0 -80 49 -143.5t105.5 -103.5t122 -78t123.5 -84t98 -106.5t42 -148.5q0 -5 1 -10q0 -63 -23 -110 q-25 -51 -66 -87t-94 -56.5t-108 -31.5q-83 -16 -181 -15q-57 0 -120 5l45 238q12 -31 20 -58q10 -23 19.5 -43t17.5 -30q6 -6 41 -11q15 -2 33 -1q22 0 47 2q45 5 94 22.5t82 52.5t39 92q1 8 1 17q0 53 -34 127q-43 70 -93 113.5t-105.5 76.5t-108.5 60.5t-96 62.5t-73 83 t-32 124zM227 1628l61 18l70 -182l139 129l35 -16l-182 -158z" />
<glyph unicode="&#x161;" horiz-adv-x="808" d="M6 936v16q0 105 49 192q53 93 146.5 157.5t215.5 98.5q109 30 231 30h30v-136q-25 8 -61.5 16.5t-68.5 9.5h-6q-31 0 -86 -10q-60 -11 -120 -50t-116 -101.5t-60 -181.5q0 -80 49 -143.5t105.5 -103.5t122 -78t123.5 -84t98 -106.5t42 -148.5q0 -5 1 -10q0 -63 -23 -110 q-25 -51 -66 -87t-94 -56.5t-108 -31.5q-83 -16 -181 -15q-57 0 -120 5l45 238q12 -31 20 -58q10 -23 19.5 -43t17.5 -30q6 -6 41 -11q15 -2 33 -1q22 0 47 2q45 5 94 22.5t82 52.5t39 92q1 8 1 17q0 53 -34 127q-43 70 -93 113.5t-105.5 76.5t-108.5 60.5t-96 62.5t-73 83 t-32 124zM201 1610l61 18l70 -182l139 129l35 -16l-182 -158z" />
<glyph unicode="&#x178;" d="M0 1432l240 -11l-29 -22q-10 -8 -18.5 -18.5t-10.5 -14.5q0 -4 348 -541q326 501 326 508q0 4 -16 21l-27 26q-16 16 -37 35l322 -12l-94 -86l-396 -606l37 -639l88 -70h-368q84 49 104 65.5t25 26.5q2 6 2 37v78q0 47 -2 104.5t-5 116.5q-8 139 -14 293 q-182 289 -238.5 372t-106.5 153.5t-87 122t-43 61.5zM316 1483.5q-3 25.5 11 48.5q14 18 38 22t42 -10q20 -18 23.5 -44t-6.5 -46q-16 -25 -41 -26t-45 14q-19 16 -22 41.5zM549.5 1463.5q-3.5 23.5 9.5 41.5q14 20 33.5 21.5t35.5 -11.5q16 -16 19.5 -37.5t-6.5 -41.5 q-14 -18 -34 -21.5t-40 12.5q-14 13 -17.5 36.5z" />
<glyph unicode="&#x179;" horiz-adv-x="1046" d="M2 39l721 1251l-518 -33q-39 -23 -66 -59q-37 -35 -73 -78l-7 264l861 37l-711 -1253q627 -12 631 -10q53 41 78 61q27 25 53 55l2 -266zM408 1477l30 -25l174 176l-51 49zM408 1477l30 -25l174 176l-51 49z" />
<glyph unicode="&#x17a;" horiz-adv-x="1046" d="M2 39l721 1251l-518 -33q-39 -23 -66 -59q-37 -35 -73 -78l-7 264l861 37l-711 -1253q627 -12 631 -10q53 41 78 61q27 25 53 55l2 -266zM613.687 1628.28l-52.2324 49.7256l-152.223 -200.409l29.8477 -25.6162zM613.687 1628.28l-52.2324 49.7256l-152.223 -200.409 l29.8477 -25.6162z" />
<glyph unicode="&#x17b;" horiz-adv-x="1046" d="M2 39l721 1251l-518 -33q-39 -23 -66 -59q-37 -35 -73 -78l-7 264l861 37l-711 -1253q627 -12 631 -10q53 41 78 61q27 25 53 55l2 -266zM428 1539q-8 30 8 56q20 25 51 27t60 -18q27 -18 35 -49t-11 -56q-18 -25 -47.5 -27t-60.5 19q-27 18 -35 48z" />
<glyph unicode="&#x17c;" horiz-adv-x="1046" d="M2 39l721 1251l-518 -33q-39 -23 -66 -59q-37 -35 -73 -78l-7 264l861 37l-711 -1253q627 -12 631 -10q53 41 78 61q27 25 53 55l2 -266zM428 1539q-8 30 8 56q20 25 51 27t60 -18q27 -18 35 -49t-11 -56q-18 -25 -47.5 -27t-60.5 19q-27 18 -35 48z" />
<glyph unicode="&#x17d;" horiz-adv-x="1064" d="M2 39l721 1251l-518 -33q-33 -18 -66 -59q-37 -35 -73 -78l-7 264l861 37l-711 -1253q537 -11 617 -11q13 0 14 1q53 41 78 61q27 25 53 55l2 -266zM383 1632l61 18l70 -182l139 129l35 -16l-182 -158z" />
<glyph unicode="&#x17e;" horiz-adv-x="1064" d="M2 39l721 1251l-518 -33q-33 -18 -66 -59q-37 -35 -73 -78l-7 264l861 37l-711 -1253q537 -11 617 -11q13 0 14 1q53 41 78 61q27 25 53 55l2 -266zM379 1630l61 18l70 -182l139 129l35 -16l-182 -158z" />
<glyph unicode="&#x2c6;" horiz-adv-x="440" d="M2 1126l162 359l235 -271l-45 -24l-178 217l-92 -309z" />
<glyph unicode="&#x2c7;" horiz-adv-x="409" d="M0 1104l61 18l70 -182l139 129l35 -16l-182 -158z" />
<glyph unicode="&#x2d8;" horiz-adv-x="337" d="M0 1417l33 4q6 -18 16 -35q10 -14 23.5 -27t36.5 -18q20 -4 37.5 9.5t27.5 29.5q12 18 23 43l39 -6q-16 -27 -35 -49q-16 -18 -38 -33.5t-50 -15.5q-35 0 -56.5 15.5t-33.5 33.5q-15 22 -23 49z" />
<glyph unicode="&#x2da;" horiz-adv-x="299" />
<glyph unicode="&#x2dc;" horiz-adv-x="409" d="M0 1051q23 25 45 47q16 16 37.5 31.5t40.5 21.5q18 2 29.5 -11.5t21.5 -29.5t19.5 -28.5t21.5 -12.5q8 0 14.5 16.5t10.5 38.5q6 20 8 54l35 -9q-10 -39 -21 -67q-8 -27 -19.5 -47.5t-23.5 -20.5q-20 -2 -30.5 9.5t-18.5 27.5t-17.5 31.5t-25.5 15.5q-18 0 -33.5 -15.5 t-30.5 -33.5q-16 -18 -30 -47z" />
<glyph unicode="&#x401;" horiz-adv-x="1019" d="M0 1317v117l948 -15l-2 -241q-43 35 -80 65.5t-78 63.5l-555 6l5 -492l387 19v-131h-385l14 -592q461 8 463 10q6 2 170 111v-234h-838v113l60 -4v1204h-109zM306 1588.5q-3 25.5 13 47.5q14 18 38 22.5t42 -9.5q20 -18 23.5 -44t-6.5 -46q-16 -23 -42 -25t-44 12 q-21 17 -24 42.5zM542 1567.5q-3 23.5 9 42.5q12 20 31.5 21t38.5 -9q16 -18 18 -39.5t-6 -42.5q-14 -18 -33.5 -21t-42.5 13q-12 12 -15 35.5z" />
<glyph unicode="&#x410;" horiz-adv-x="1015" d="M0 0l422 1444l561 -1424l-235 -16l47 64l-385 1017l-123 -483l334 25l22 -109l-379 -22l-131 -441l51 -55l-182 2z" />
<glyph unicode="&#x411;" horiz-adv-x="1009" d="M0 1309l2 123h125q53 2 780 -9l-12 -264l-86 133l-33 25q-541 2 -553 2l45 -1270l-151 8l6 1258h-21q-18 0 -43 -2zM53 104v17v6q104 -23 184 -28t175.5 1t176.5 37t138 97.5t64 183.5q0 84 -39 137t-101.5 86t-138.5 43t-139.5 12t-106.5 -1l-43 -3v21q0 20 2 43 q0 27 -2 63q33 4 166 -2q152 -6 277 -45q53 -20 103 -52t93 -91.5t61.5 -115.5t16.5 -126q-2 -92 -43 -158.5t-107.5 -111.5t-153.5 -71t-185.5 -36t-198.5 -8t-197 12q0 39 -1 59.5t-1 30.5z" />
<glyph unicode="&#x412;" horiz-adv-x="1009" d="M0 1309l2 123q45 0 115.5 1t148.5 -2.5t159 -18.5t145.5 -45t106.5 -82t46 -132q4 -100 -48 -173t-118 -118q-78 -49 -154 -67q137 16 263 -23q53 -20 103 -52t93 -91.5t61.5 -115.5t16.5 -126q-2 -92 -43 -158.5t-107.5 -111.5t-153.5 -71t-185.5 -36t-198.5 -8t-197 12 q0 39 -1 59.5t-1 31.5v15v7q104 -23 184 -28t175.5 1t176.5 37t138 97.5t64 183.5q0 84 -39 137t-101.5 86t-138.5 43t-139.5 12t-106.5 -1t-43 -2v21q0 19 2 42q0 27 2 73q106 18 191 56q35 16 69.5 37.5t60 54.5t39 75t11.5 95q-2 57 -29.5 91t-69.5 52.5t-89.5 24.5 t-89 6t-97.5 -2l45 -1270l-151 8q6 1257 5 1258h-20q-18 0 -43 -2z" />
<glyph unicode="&#x413;" horiz-adv-x="1026" d="M0 1430l965 -5l-7 -272q-25 37 -47 70q-18 27 -37.5 52t-33.5 30q-6 2 -39 3t-592 -5q31 -1186 33 -1192q4 -10 137 -109h-359q78 74 80 82q0 4 -8 619.5t-2 605.5h-86z" />
<glyph unicode="&#x414;" horiz-adv-x="1517" d="M25 -367l45 484l211 8l385 1323l526 -1329q49 6 252 6l45 -483l-119 -7l-31 369h-63l-574 -2h-401l-131 -4l-25 -371zM397 119l627 2l-371 962z" />
<glyph unicode="&#x415;" horiz-adv-x="1019" d="M0 1317v117l948 -15l-2 -241q-43 35 -80 65.5t-78 63.5l-555 6l5 -492l387 19v-131h-385l14 -592q461 8 463 10q6 2 170 111v-234h-838v113l60 -4v1204h-109z" />
<glyph unicode="&#x416;" horiz-adv-x="1835" d="M25 211l630 766l-514 303l95 84l606 -399l-2 366q-2 0 -113 99l354 -3l-59 -41q-61 -43 -61 -47l10 -376l608 401l94 -84l-514 -303l633 -766l-129 -107l-598 814l-98 -60l20 -770q2 -6 55 -43l56 -37l-357 -4q106 80 107 82q-4 475 -6 774l-90 58l-598 -816z" />
<glyph unicode="&#x417;" horiz-adv-x="755" d="M10 127q109 -25 146 -25q207 18 340 197q68 160 -2 274q-72 102 -189 172q-68 18 -117 -4l-6 78q104 45 149.5 84t88.5 109q39 86 32.5 143t-39 92t-81.5 52.5t-94 22.5t-80 1t-41 -10q-8 -10 -18.5 -30.5t-18.5 -43.5q-8 -27 -21 -57l-47 237q170 14 303 -10 q55 -10 107.5 -30.5t93.5 -56.5t65.5 -87t22.5 -121q-2 -88 -42 -148.5t-83 -94t-88 -64.5q141 -63 225 -143q47 -55 60 -113q37 -182 -82 -336q-145 -150 -334 -195q-100 -25 -248 -24q0 45 -2 131z" />
<glyph unicode="&#x418;" horiz-adv-x="1097" d="M31 1425l223 9q-4 4 -64 -109q-10 -35 -16 -1116l748 1210l57 -1415l-207 2q29 35 55 82q2 164 -22 903l-631 -981l-4 -8h-137z" />
<glyph unicode="&#x419;" horiz-adv-x="1103" d="M37 1425l2 -1423h135l4 8l631 981q27 -739 25 -903q-27 -47 -58 -82l207 -2l-55 1415l-750 -1210q8 1081 19 1116q59 113 61 109zM330 1677l139 41l98 -260l164 191l76 -47l-258 -271z" />
<glyph unicode="&#x41a;" horiz-adv-x="1044" d="M0 1432l289 -5l-60 -41q-61 -43 -61 -47l10 -376l610 401l93 -84l-514 -303l632 -766l-129 -107l-598 814l-98 -60l21 -770q2 -6 55 -43l55 -37l-299 -8q49 84 49 86q-8 1284 -8 1286q-2 1 -47 60z" />
<glyph unicode="&#x41b;" horiz-adv-x="1015" d="M0 0l422 1444l561 -1424l-235 -16l47 64l-385 1017l-277 -1030l51 -55l-182 2z" />
<glyph unicode="&#x41c;" horiz-adv-x="1255" d="M2 2l49 37q18 16 34.5 31.5t18.5 23.5q0 6 -5 621.5t-7 617.5l-15 22.5t-24 35.5q-14 20 -33 41l263 -7l368 -815l357 733l129 9l-2 -1289l-242 -2q23 10 43 21q16 8 57 35q2 2 6 999l-389 -784l-415 909q20 -1169 24 -1171q4 -6 33 -18.5t119 -49.5h-369z" />
<glyph unicode="&#x41d;" horiz-adv-x="1069" d="M2 1425l223 9q-4 4 -63 -109q-10 -35 -17 -778l639 16l-39 848l148 8l57 -1415l-207 2q29 35 56 82q2 164 -8 379l-646 -27l-4 -438h-137z" />
<glyph unicode="&#x41e;" horiz-adv-x="1308" d="M18 764q8 188 62.5 311t126.5 197t169 118t232 46q166 -2 301 -64q59 -25 114.5 -67.5t101.5 -109.5t75 -160t35 -214q2 -203 -49 -354.5t-137 -253.5t-196 -155.5t-224 -55.5q-115 -2 -228.5 41t-202.5 136t-140.5 238.5t-39.5 346.5zM190 899q-23 -188 12.5 -340.5 t103 -260.5t157.5 -164t178 -52q45 0 110.5 17.5t129 79t115 185t67.5 341.5q10 145 -15.5 249.5t-71.5 178t-101.5 119.5t-119 72t-141.5 28q-10 0 -41.5 -1t-73.5 -10.5t-86 -33t-91.5 -67.5t-82.5 -130t-49 -211z" />
<glyph unicode="&#x41f;" horiz-adv-x="1069" d="M-2 0l55 68l-45 1333l914 31l53 -1430l-174 -2l47 82l-37 1241l-684 -20q39 -1206 41 -1217q4 -8 21.5 -25.5t33.5 -27.5q25 -18 49 -33h-274z" />
<glyph unicode="&#x420;" horiz-adv-x="991" d="M2 1411q252 27 453 12q86 -8 166.5 -27.5t145 -51t104.5 -81t40 -118.5q0 -92 -35.5 -153.5t-95 -100.5t-133.5 -57.5t-149.5 -26.5t-255.5 -16q-68 0 -78 10t8 24q18 16 68 47q158 -4 276 25q51 12 99.5 30.5t84 45t53 62.5t11.5 85q-16 92 -82 137.5t-148.5 61.5 t-167.5 11t-139 -11q43 -1186 43 -1188q4 -4 21.5 -22.5t38.5 -36.5q25 -25 53 -52l-322 -14q16 14 29 25l22 21q9 9 11 14q0 4 -10 1241l-105 -13z" />
<glyph unicode="&#x421;" horiz-adv-x="1064" d="M20 729q8 172 86 308.5t207 227.5t299 129t357 15l-68 -164q-209 53 -371 19q-70 -16 -134 -52t-112 -103t-75 -169t-19 -250q6 -158 38 -262t78 -168.5t104.5 -96.5t117.5 -40q139 -20 312 57l69 -157q-258 -41 -456 16q-86 23 -165 72t-140.5 128.5t-97.5 200.5 t-30 289z" />
<glyph unicode="&#x422;" d="M2 1188l2 201l1047 41l4 -234q-14 23 -29 47q-10 18 -23.5 35.5t-23.5 24.5q-12 8 -428 -3q39 -1171 39 -1175q2 -12 45 -62l51 -63l-387 2q86 53 107 70l30 24q8 10 -18 1202q-311 -2 -320 -4l-43 -45q-24 -28 -53 -61z" />
<glyph unicode="&#x423;" d="M0 1432l240 -11l-29 -22q-10 -8 -18.5 -18.5t-10.5 -14.5q0 -4 504 -549q172 512 170 516q-4 8 -16 21l-27 26q-16 16 -37 35l322 -12l-94 -86l-439 -1245l88 -70h-368q84 49 104.5 65.5t24.5 26.5q2 6 217 621q-451 463 -501 533.5t-87 122t-43 61.5z" />
<glyph unicode="&#x424;" horiz-adv-x="1308" d="M18 811q8 152 62.5 249t126.5 157.5t159 91t195 37.5q-10 23 -86 88q143 -6 285 -2q-92 -84 -64 -89q115 -10 213 -45q59 -20 114.5 -54t101.5 -88t75 -128t35 -172q2 -162 -49 -282.5t-137 -202.5t-179.5 -119t-173.5 -45q2 -55 2 -96q27 -33 123 -109q-182 0 -358 -4 q61 41 96 111v96q-80 6 -176 34.5t-185 103.5t-140.5 190.5t-39.5 277.5zM182 805.5q2 -60.5 17.5 -128t42.5 -149.5q29 -55 64.5 -95t70.5 -67.5t68.5 -44t59 -25.5t41 -13t15.5 -9v45q0 43 -1 114t-1 161t-2 184q-2 219 -2 500q-45 -6 -90 -15.5t-88 -32t-81 -64.5 t-71 -113q-25 -68 -35 -127.5t-8 -120zM690 270q0 -2 15.5 -1t41 8.5t59.5 21.5t68.5 42t69.5 69t62 102q57 164 62 299t-50 231q-43 70 -86 112t-83 65.5t-79 35t-74 19.5l-4 -502q0 -92 -1 -182t-1 -161v-116v-43z" />
<glyph unicode="&#x425;" horiz-adv-x="1148" d="M2 119l459 637l-402 598l150 80l350 -560l326 498l116 -41l-372 -557l473 -678l-137 -92l-437 645l-415 -596z" />
<glyph unicode="&#x426;" horiz-adv-x="1292" d="M41 1415l231 2q-33 -10 -84 -71q12 -35 7 -1240l608 17l-23 1122l4 78q-23 31 -51 54.5t-59 43.5l307 6l-49 -102l33 -1184l231 -8l45 -483l-121 -6l-24 370l-285 -8l-616 -6l-5 2h-137z" />
<glyph unicode="&#x427;" horiz-adv-x="1079" d="M82 1413l246 -6l-113 -72l-25 -30q-14 -236 31 -324t88 -126t109.5 -63.5t126.5 -39.5q139 -31 313 -35l2 606l-100 90l321 -14l-108 -84q16 -1214 16 -1219q0 -4 9.5 -17t21.5 -32q14 -23 33 -45l-310 12q29 31 54 60q23 27 40 48t17 28q-2 4 0 481q-94 6 -180 18 q-72 10 -128.5 20.5t-72.5 14.5l-94 27q-86 27 -154 63q-90 61 -133 195.5t-10 443.5z" />
<glyph unicode="&#x428;" horiz-adv-x="1439" d="M31 1407h231q-33 -10 -84 -72q12 -35 6 -1229l455 7l25 1167l98 4l31 -1167l381 6l-23 1120l4 78q-23 33 -51.5 56.5t-59.5 41.5l306 8l-50 -102l39 -1321l-157 2l-998 -6l-4 2h-137z" />
<glyph unicode="&#x429;" horiz-adv-x="1656" d="M35 1407h231q-31 -10 -82 -72q12 -35 4 -1229l455 7l27 1167l96 4l33 -1167l379 6l-23 1120l4 78q-23 33 -51.5 56.5t-58.5 41.5l307 8l-49 -102l32 -1184l232 -8l45 -483l-121 -6l-25 370l-284 -8l-998 -6l-4 2h-137z" />
<glyph unicode="&#x42a;" horiz-adv-x="1069" d="M4 1311v121q20 0 201 2h133h61q0 -63 2 -121q-59 -4 -82 -2l37 -1262l-151 8l6 1258q-2 0 -83 -1t-124 -3zM141 104v17v6q104 -23 184.5 -28t175.5 1t176 37t138 97.5t64 183.5q0 84 -39 137t-101.5 86t-138.5 43t-139.5 12t-106.5 -1l-43 -3v21q0 20 2 43q0 27 -2 63 q31 4 166 -2q152 -6 277 -45q53 -20 103 -52t93 -91.5t61.5 -115.5t16.5 -126q-2 -92 -43 -158.5t-107.5 -111.5t-153.5 -71t-185.5 -36t-198.5 -8t-197 12q0 39 -1 59.5t-1 30.5z" />
<glyph unicode="&#x42b;" horiz-adv-x="1318" d="M27 1432q20 0 90 2q63 0 133 -2l53 4q-39 -41 -72 -76l37 -1311l-151 8l6 1258q-2 0 -12.5 22.5t-32.5 46.5zM53 104v17v6q104 -23 184 -28t175.5 1t176.5 37t138 97.5t64 183.5q0 84 -39 137t-101.5 86t-138.5 43t-139.5 12t-106.5 -1l-43 -3v21q0 20 2 43q0 27 -2 63 q33 4 166 -2q152 -6 277 -45q53 -20 103 -52t93 -91.5t61.5 -115.5t16.5 -126q-2 -92 -43 -158.5t-107.5 -111.5t-153.5 -71t-185.5 -36t-198.5 -8t-197 12q0 39 -1 59.5t-1 30.5zM911 1427h281q-20 -18 -35 -30q-8 -12 -21.5 -24.5t-15.5 -20.5q0 -2 4 -620.5t6 -620.5 q4 -6 123 -111l-338 -4q59 53 68 76q4 8 9 630.5t5 628.5q-6 12 -18.5 26.5t-67.5 69.5z" />
<glyph unicode="&#x42c;" horiz-adv-x="976" d="M27 1432q20 0 90 2q63 0 133 -2l53 4q-39 -41 -72 -76l37 -1311l-151 8l6 1258q-2 0 -12.5 22.5t-32.5 46.5zM53 104v17v6q104 -23 184 -28t175.5 1t176.5 37t138 97.5t64 183.5q0 84 -39 137t-101.5 86t-138.5 43t-139.5 12t-106.5 -1l-43 -3v21q0 20 2 43q0 27 -2 63 q33 4 166 -2q152 -6 277 -45q53 -20 103 -52t93 -91.5t61.5 -115.5t16.5 -126q-2 -92 -43 -158.5t-107.5 -111.5t-153.5 -71t-185.5 -36t-198.5 -8t-197 12q0 39 -1 59.5t-1 30.5z" />
<glyph unicode="&#x42d;" horiz-adv-x="1171" d="M4 1391q256 47 473 8q92 -16 184.5 -52t172 -101.5t140 -165t91.5 -240.5q33 -186 7.5 -319.5t-90 -227.5t-158 -150.5t-193.5 -87.5q-242 -74 -565 -39l-5 115q248 -41 437 2q82 18 157.5 59t133 111t88 168t28.5 225q0 6 -661 -8q-4 55 -2 139q553 -10 655 -10 q-10 70 -36.5 141.5t-75 135t-106.5 101.5t-122 60q-141 51 -315 39l-101 -6l-125 -18z" />
<glyph unicode="&#x42e;" horiz-adv-x="1816" d="M14 1432h279q-31 -35 -68 -89v-530l291 12q14 145 59 246q55 123 126 197.5t169.5 119t233.5 46.5q166 -2 301 -66q57 -23 113.5 -65.5t101.5 -110.5t74.5 -161t36.5 -214q2 -203 -50.5 -354.5t-138.5 -252.5t-195.5 -155.5t-224.5 -54.5q-113 -2 -227.5 41t-203.5 135 t-138 238q-43 123 -43 284h-283q12 -582 15 -587q4 -10 137 -109h-359q78 74 80 82v588q0 584 4 645l-8 29zM684 895q-20 -186 13.5 -339t101 -261.5t159 -163.5t179.5 -51q45 0 110.5 17.5t129 79t113.5 184t69 341.5q10 145 -15.5 250t-72 177.5t-101.5 118.5t-118.5 73 t-141.5 29q-10 0 -43 -1t-75 -11.5t-86 -34t-91 -66.5t-81 -129t-50 -213z" />
<glyph unicode="&#x42f;" horiz-adv-x="1196" d="M41 172l422 539q-86 27 -158 67q-57 37 -109.5 102.5t-58.5 174.5q0 111 46 181.5t126 113.5t184.5 60t218 21.5t228.5 2.5t215 -7l-6 -120l-92 8q14 -1214 14 -1219q2 -4 11.5 -17t21.5 -32q12 -23 31 -45l-310 12q31 31 56 60q20 27 38.5 48t18.5 28q-2 4 0 481 q-94 6 -180 18q-74 10 -129.5 20.5t-71.5 14.5q-29 -37 -57 -88q-29 -45 -64 -100.5t-74 -116.5q-82 -137 -188 -311zM291 1063q0 -70 28.5 -120t71.5 -88t109.5 -63.5t126.5 -39.5q141 -31 315 -35v606q-164 20 -303 8q-76 -10 -134.5 -26.5t-102.5 -47t-74.5 -78.5 t-36.5 -116z" />
<glyph unicode="&#x430;" horiz-adv-x="1015" d="M0 0l422 1444l561 -1424l-235 -16l47 64l-385 1017l-123 -483l334 25l22 -109l-379 -22l-131 -441l51 -55l-182 2z" />
<glyph unicode="&#x431;" horiz-adv-x="1009" d="M0 1309l2 123h125q53 2 780 -9l-12 -264l-86 133l-33 25q-541 2 -553 2l45 -1270l-151 8l6 1258h-21q-18 0 -43 -2zM53 104v17v6q104 -23 184 -28t175.5 1t176.5 37t138 97.5t64 183.5q0 84 -39 137t-101.5 86t-138.5 43t-139.5 12t-106.5 -1l-43 -3v21q0 20 2 43 q0 27 -2 63q33 4 166 -2q152 -6 277 -45q53 -20 103 -52t93 -91.5t61.5 -115.5t16.5 -126q-2 -92 -43 -158.5t-107.5 -111.5t-153.5 -71t-185.5 -36t-198.5 -8t-197 12q0 39 -1 59.5t-1 30.5z" />
<glyph unicode="&#x432;" horiz-adv-x="1009" d="M0 1309l2 123q45 0 115.5 1t148.5 -2.5t159 -18.5t145.5 -45t106.5 -82t46 -132q4 -100 -48 -173t-118 -118q-78 -49 -154 -67q137 16 263 -23q53 -20 103 -52t93 -91.5t61.5 -115.5t16.5 -126q-2 -92 -43 -158.5t-107.5 -111.5t-153.5 -71t-185.5 -36t-198.5 -8t-197 12 q0 39 -1 59.5t-1 31.5v15v7q104 -23 184 -28t175.5 1t176.5 37t138 97.5t64 183.5q0 84 -39 137t-101.5 86t-138.5 43t-139.5 12t-106.5 -1t-43 -2v21q0 19 2 42q0 27 2 73q106 18 191 56q35 16 69.5 37.5t60 54.5t39 75t11.5 95q-2 57 -29.5 91t-69.5 52.5t-89.5 24.5 t-89 6t-97.5 -2l45 -1270l-151 8q6 1257 5 1258h-20q-18 0 -43 -2z" />
<glyph unicode="&#x433;" horiz-adv-x="1026" d="M0 1430l965 -5l-7 -272q-25 37 -47 70q-18 27 -37.5 52t-33.5 30q-6 2 -39 3t-592 -5q31 -1186 33 -1192q4 -10 137 -109h-359q78 74 80 82q0 4 -8 619.5t-2 605.5h-86z" />
<glyph unicode="&#x434;" horiz-adv-x="1517" d="M25 -367l45 484l211 8l385 1323l526 -1329q49 6 252 6l45 -483l-119 -7l-31 369h-63l-574 -2h-401l-131 -4l-25 -371zM397 119l627 2l-371 962z" />
<glyph unicode="&#x435;" horiz-adv-x="1019" d="M0 1317v117l948 -15l-2 -241q-43 35 -80 65.5t-78 63.5l-555 6l5 -492l387 19v-131h-385l14 -592q461 8 463 10q6 2 170 111v-234h-838v113l60 -4v1204h-109z" />
<glyph unicode="&#x436;" horiz-adv-x="1835" d="M25 211l630 766l-514 303l95 84l606 -399l-2 366q-2 0 -113 99l354 -3l-59 -41q-61 -43 -61 -47l10 -376l608 401l94 -84l-514 -303l633 -766l-129 -107l-598 814l-98 -60l20 -770q2 -6 55 -43l56 -37l-357 -4q106 80 107 82q-4 475 -6 774l-90 58l-598 -816z" />
<glyph unicode="&#x437;" horiz-adv-x="755" d="M10 127q109 -25 146 -25q207 18 340 197q68 160 -2 274q-72 102 -189 172q-68 18 -117 -4l-6 78q104 45 149.5 84t88.5 109q39 86 32.5 143t-39 92t-81.5 52.5t-94 22.5t-80 1t-41 -10q-8 -10 -18.5 -30.5t-18.5 -43.5q-8 -27 -21 -57l-47 237q170 14 303 -10 q55 -10 107.5 -30.5t93.5 -56.5t65.5 -87t22.5 -121q-2 -88 -42 -148.5t-83 -94t-88 -64.5q141 -63 225 -143q47 -55 60 -113q37 -182 -82 -336q-145 -150 -334 -195q-100 -25 -248 -24q0 45 -2 131z" />
<glyph unicode="&#x438;" horiz-adv-x="1097" d="M31 1425l223 9q-4 4 -64 -109q-10 -35 -16 -1116l748 1210l57 -1415l-207 2q29 35 55 82q2 164 -22 903l-631 -981l-4 -8h-137z" />
<glyph unicode="&#x439;" horiz-adv-x="1103" d="M37 1425l2 -1423h135l4 8l631 981q27 -739 25 -903q-27 -47 -58 -82l207 -2l-55 1415l-750 -1210q8 1081 19 1116q59 113 61 109zM330 1677l139 41l98 -260l164 191l76 -47l-258 -271z" />
<glyph unicode="&#x43a;" horiz-adv-x="1044" d="M0 1432l289 -5l-60 -41q-61 -43 -61 -47l10 -376l610 401l93 -84l-514 -303l632 -766l-129 -107l-598 814l-98 -60l21 -770q2 -6 55 -43l55 -37l-299 -8q49 84 49 86q-8 1284 -8 1286q-2 1 -47 60z" />
<glyph unicode="&#x43b;" horiz-adv-x="1015" d="M0 0l422 1444l561 -1424l-235 -16l47 64l-385 1017l-277 -1030l51 -55l-182 2z" />
<glyph unicode="&#x43c;" horiz-adv-x="1255" d="M2 2l49 37q18 16 34.5 31.5t18.5 23.5q0 6 -5 621.5t-7 617.5l-15 22.5t-24 35.5q-14 20 -33 41l263 -7l368 -815l357 733l129 9l-2 -1289l-242 -2q23 10 43 21q16 8 57 35q2 2 6 999l-389 -784l-415 909q20 -1169 24 -1171q4 -6 33 -18.5t119 -49.5h-369z" />
<glyph unicode="&#x43d;" horiz-adv-x="1069" d="M2 1425l223 9q-4 4 -63 -109q-10 -35 -17 -778l639 16l-39 848l148 8l57 -1415l-207 2q29 35 56 82q2 164 -8 379l-646 -27l-4 -438h-137z" />
<glyph unicode="&#x43e;" horiz-adv-x="1308" d="M18 764q8 188 62.5 311t126.5 197t169 118t232 46q166 -2 301 -64q59 -25 114.5 -67.5t101.5 -109.5t75 -160t35 -214q2 -203 -49 -354.5t-137 -253.5t-196 -155.5t-224 -55.5q-115 -2 -228.5 41t-202.5 136t-140.5 238.5t-39.5 346.5zM190 899q-23 -188 12.5 -340.5 t103 -260.5t157.5 -164t178 -52q45 0 110.5 17.5t129 79t115 185t67.5 341.5q10 145 -15.5 249.5t-71.5 178t-101.5 119.5t-119 72t-141.5 28q-10 0 -41.5 -1t-73.5 -10.5t-86 -33t-91.5 -67.5t-82.5 -130t-49 -211z" />
<glyph unicode="&#x43f;" horiz-adv-x="1069" d="M-2 0l55 68l-45 1333l914 31l53 -1430l-174 -2l47 82l-37 1241l-684 -20q39 -1206 41 -1217q4 -8 21.5 -25.5t33.5 -27.5q25 -18 49 -33h-274z" />
<glyph unicode="&#x440;" horiz-adv-x="991" d="M2 1411q252 27 453 12q86 -8 166.5 -27.5t145 -51t104.5 -81t40 -118.5q0 -92 -35.5 -153.5t-95 -100.5t-133.5 -57.5t-149.5 -26.5t-255.5 -16q-68 0 -78 10t8 24q18 16 68 47q158 -4 276 25q51 12 99.5 30.5t84 45t53 62.5t11.5 85q-16 92 -82 137.5t-148.5 61.5 t-167.5 11t-139 -11q43 -1186 43 -1188q4 -4 21.5 -22.5t38.5 -36.5q25 -25 53 -52l-322 -14q16 14 29 25l22 21q9 9 11 14q0 4 -10 1241l-105 -13z" />
<glyph unicode="&#x441;" horiz-adv-x="1064" d="M20 729q8 172 86 308.5t207 227.5t299 129t357 15l-68 -164q-209 53 -371 19q-70 -16 -134 -52t-112 -103t-75 -169t-19 -250q6 -158 38 -262t78 -168.5t104.5 -96.5t117.5 -40q139 -20 312 57l69 -157q-258 -41 -456 16q-86 23 -165 72t-140.5 128.5t-97.5 200.5 t-30 289z" />
<glyph unicode="&#x442;" d="M2 1188l2 201l1047 41l4 -234q-14 23 -29 47q-10 18 -23.5 35.5t-23.5 24.5q-12 8 -428 -3q39 -1171 39 -1175q2 -12 45 -62l51 -63l-387 2q86 53 107 70l30 24q8 10 -18 1202q-311 -2 -320 -4l-43 -45q-24 -28 -53 -61z" />
<glyph unicode="&#x443;" d="M0 1432l240 -11l-29 -22q-10 -8 -18.5 -18.5t-10.5 -14.5q0 -4 504 -549q172 512 170 516q-4 8 -16 21l-27 26q-16 16 -37 35l322 -12l-94 -86l-439 -1245l88 -70h-368q84 49 104.5 65.5t24.5 26.5q2 6 217 621q-451 463 -501 533.5t-87 122t-43 61.5z" />
<glyph unicode="&#x444;" horiz-adv-x="1308" d="M18 811q8 152 62.5 249t126.5 157.5t159 91t195 37.5q-10 23 -86 88q143 -6 285 -2q-92 -84 -64 -89q115 -10 213 -45q59 -20 114.5 -54t101.5 -88t75 -128t35 -172q2 -162 -49 -282.5t-137 -202.5t-179.5 -119t-173.5 -45q2 -55 2 -96q27 -33 123 -109q-182 0 -358 -4 q61 41 96 111v96q-80 6 -176 34.5t-185 103.5t-140.5 190.5t-39.5 277.5zM182 805.5q2 -60.5 17.5 -128t42.5 -149.5q29 -55 64.5 -95t70.5 -67.5t68.5 -44t59 -25.5t41 -13t15.5 -9v45q0 43 -1 114t-1 161t-2 184q-2 219 -2 500q-45 -6 -90 -15.5t-88 -32t-81 -64.5 t-71 -113q-25 -68 -35 -127.5t-8 -120zM690 270q0 -2 15.5 -1t41 8.5t59.5 21.5t68.5 42t69.5 69t62 102q57 164 62 299t-50 231q-43 70 -86 112t-83 65.5t-79 35t-74 19.5l-4 -502q0 -92 -1 -182t-1 -161v-116v-43z" />
<glyph unicode="&#x445;" horiz-adv-x="1148" d="M2 119l459 637l-402 598l150 80l350 -560l326 498l116 -41l-372 -557l473 -678l-137 -92l-437 645l-415 -596z" />
<glyph unicode="&#x446;" horiz-adv-x="1292" d="M41 1415l231 2q-33 -10 -84 -71q12 -35 7 -1240l608 17l-23 1122l4 78q-23 31 -51 54.5t-59 43.5l307 6l-49 -102l33 -1184l231 -8l45 -483l-121 -6l-24 370l-285 -8l-616 -6l-5 2h-137z" />
<glyph unicode="&#x447;" horiz-adv-x="1079" d="M82 1413l246 -6l-113 -72l-25 -30q-14 -236 31 -324t88 -126t109.5 -63.5t126.5 -39.5q139 -31 313 -35l2 606l-100 90l321 -14l-108 -84q16 -1214 16 -1219q0 -4 9.5 -17t21.5 -32q14 -23 33 -45l-310 12q29 31 54 60q23 27 40 48t17 28q-2 4 0 481q-94 6 -180 18 q-72 10 -128.5 20.5t-72.5 14.5l-94 27q-86 27 -154 63q-90 61 -133 195.5t-10 443.5z" />
<glyph unicode="&#x448;" horiz-adv-x="1439" d="M31 1407h231q-33 -10 -84 -72q12 -35 6 -1229l455 7l25 1167l98 4l31 -1167l381 6l-23 1120l4 78q-23 33 -51.5 56.5t-59.5 41.5l306 8l-50 -102l39 -1321l-157 2l-998 -6l-4 2h-137z" />
<glyph unicode="&#x449;" horiz-adv-x="1656" d="M35 1407h231q-31 -10 -82 -72q12 -35 4 -1229l455 7l27 1167l96 4l33 -1167l379 6l-23 1120l4 78q-23 33 -51.5 56.5t-58.5 41.5l307 8l-49 -102l32 -1184l232 -8l45 -483l-121 -6l-25 370l-284 -8l-998 -6l-4 2h-137z" />
<glyph unicode="&#x44a;" horiz-adv-x="1069" d="M4 1311v121q20 0 201 2h133h61q0 -63 2 -121q-59 -4 -82 -2l37 -1262l-151 8l6 1258q-2 0 -83 -1t-124 -3zM141 104v17v6q104 -23 184.5 -28t175.5 1t176 37t138 97.5t64 183.5q0 84 -39 137t-101.5 86t-138.5 43t-139.5 12t-106.5 -1l-43 -3v21q0 20 2 43q0 27 -2 63 q31 4 166 -2q152 -6 277 -45q53 -20 103 -52t93 -91.5t61.5 -115.5t16.5 -126q-2 -92 -43 -158.5t-107.5 -111.5t-153.5 -71t-185.5 -36t-198.5 -8t-197 12q0 39 -1 59.5t-1 30.5z" />
<glyph unicode="&#x44b;" horiz-adv-x="1318" d="M27 1432q20 0 90 2q63 0 133 -2l53 4q-39 -41 -72 -76l37 -1311l-151 8l6 1258q-2 0 -12.5 22.5t-32.5 46.5zM53 104v17v6q104 -23 184 -28t175.5 1t176.5 37t138 97.5t64 183.5q0 84 -39 137t-101.5 86t-138.5 43t-139.5 12t-106.5 -1l-43 -3v21q0 20 2 43q0 27 -2 63 q33 4 166 -2q152 -6 277 -45q53 -20 103 -52t93 -91.5t61.5 -115.5t16.5 -126q-2 -92 -43 -158.5t-107.5 -111.5t-153.5 -71t-185.5 -36t-198.5 -8t-197 12q0 39 -1 59.5t-1 30.5zM911 1427h281q-20 -18 -35 -30q-8 -12 -21.5 -24.5t-15.5 -20.5q0 -2 4 -620.5t6 -620.5 q4 -6 123 -111l-338 -4q59 53 68 76q4 8 9 630.5t5 628.5q-6 12 -18.5 26.5t-67.5 69.5z" />
<glyph unicode="&#x44c;" horiz-adv-x="976" d="M27 1432q20 0 90 2q63 0 133 -2l53 4q-39 -41 -72 -76l37 -1311l-151 8l6 1258q-2 0 -12.5 22.5t-32.5 46.5zM53 104v17v6q104 -23 184 -28t175.5 1t176.5 37t138 97.5t64 183.5q0 84 -39 137t-101.5 86t-138.5 43t-139.5 12t-106.5 -1l-43 -3v21q0 20 2 43q0 27 -2 63 q33 4 166 -2q152 -6 277 -45q53 -20 103 -52t93 -91.5t61.5 -115.5t16.5 -126q-2 -92 -43 -158.5t-107.5 -111.5t-153.5 -71t-185.5 -36t-198.5 -8t-197 12q0 39 -1 59.5t-1 30.5z" />
<glyph unicode="&#x44d;" horiz-adv-x="1171" d="M4 1391q256 47 473 8q92 -16 184.5 -52t172 -101.5t140 -165t91.5 -240.5q33 -186 7.5 -319.5t-90 -227.5t-158 -150.5t-193.5 -87.5q-242 -74 -565 -39l-5 115q248 -41 437 2q82 18 157.5 59t133 111t88 168t28.5 225q0 6 -661 -8q-4 55 -2 139q553 -10 655 -10 q-10 70 -36.5 141.5t-75 135t-106.5 101.5t-122 60q-141 51 -315 39l-101 -6l-125 -18z" />
<glyph unicode="&#x44e;" horiz-adv-x="1816" d="M14 1432h279q-31 -35 -68 -89v-530l291 12q14 145 59 246q55 123 126 197.5t169.5 119t233.5 46.5q166 -2 301 -66q57 -23 113.5 -65.5t101.5 -110.5t74.5 -161t36.5 -214q2 -203 -50.5 -354.5t-138.5 -252.5t-195.5 -155.5t-224.5 -54.5q-113 -2 -227.5 41t-203.5 135 t-138 238q-43 123 -43 284h-283q12 -582 15 -587q4 -10 137 -109h-359q78 74 80 82v588q0 584 4 645l-8 29zM684 895q-20 -186 13.5 -339t101 -261.5t159 -163.5t179.5 -51q45 0 110.5 17.5t129 79t113.5 184t69 341.5q10 145 -15.5 250t-72 177.5t-101.5 118.5t-118.5 73 t-141.5 29q-10 0 -43 -1t-75 -11.5t-86 -34t-91 -66.5t-81 -129t-50 -213z" />
<glyph unicode="&#x44f;" horiz-adv-x="1196" d="M41 172l422 539q-86 27 -158 67q-57 37 -109.5 102.5t-58.5 174.5q0 111 46 181.5t126 113.5t184.5 60t218 21.5t228.5 2.5t215 -7l-6 -120l-92 8q14 -1214 14 -1219q2 -4 11.5 -17t21.5 -32q12 -23 31 -45l-310 12q31 31 56 60q20 27 38.5 48t18.5 28q-2 4 0 481 q-94 6 -180 18q-74 10 -129.5 20.5t-71.5 14.5q-29 -37 -57 -88q-29 -45 -64 -100.5t-74 -116.5q-82 -137 -188 -311zM291 1063q0 -70 28.5 -120t71.5 -88t109.5 -63.5t126.5 -39.5q141 -31 315 -35v606q-164 20 -303 8q-76 -10 -134.5 -26.5t-102.5 -47t-74.5 -78.5 t-36.5 -116z" />
<glyph unicode="&#x451;" horiz-adv-x="1019" d="M0 1317v117l948 -15l-2 -241q-43 35 -80 65.5t-78 63.5l-555 6l5 -492l387 19v-131h-385l14 -592q461 8 463 10q6 2 170 111v-234h-838v113l60 -4v1204h-109zM306 1588.5q-3 25.5 13 47.5q14 18 38 22.5t42 -9.5q20 -18 23.5 -44t-6.5 -46q-16 -23 -42 -25t-44 12 q-21 17 -24 42.5zM542 1567.5q-3 23.5 9 42.5q12 20 31.5 21t38.5 -9q16 -18 18 -39.5t-6 -42.5q-14 -18 -33.5 -21t-42.5 13q-12 12 -15 35.5z" />
<glyph unicode="&#x2000;" horiz-adv-x="1189" />
<glyph unicode="&#x2001;" horiz-adv-x="2379" />
<glyph unicode="&#x2002;" horiz-adv-x="1189" />
<glyph unicode="&#x2003;" horiz-adv-x="2379" />
<glyph unicode="&#x2004;" horiz-adv-x="792" />
<glyph unicode="&#x2005;" horiz-adv-x="593" />
<glyph unicode="&#x2006;" horiz-adv-x="395" />
<glyph unicode="&#x2007;" horiz-adv-x="395" />
<glyph unicode="&#x2008;" horiz-adv-x="296" />
<glyph unicode="&#x2009;" horiz-adv-x="475" />
<glyph unicode="&#x200a;" horiz-adv-x="131" />
<glyph unicode="&#x2010;" horiz-adv-x="573" d="M0 713l463 41l-8 -136l-449 17z" />
<glyph unicode="&#x2011;" horiz-adv-x="573" d="M0 713l463 41l-8 -136l-449 17z" />
<glyph unicode="&#x2012;" horiz-adv-x="573" d="M0 713l463 41l-8 -136l-449 17z" />
<glyph unicode="&#x2013;" horiz-adv-x="493" d="M14 776l369 60l10 -62l-336 -98z" />
<glyph unicode="&#x2014;" horiz-adv-x="735" d="M0 694l629 33l-4 -111l-619 15z" />
<glyph unicode="&#x2018;" horiz-adv-x="288" d="M16 1397q4 33 28 71.5t99 73.5l29 -35q-51 -14 -69.5 -31.5t-20.5 -33.5q51 8 82 -43q18 -31 13 -65t-34 -50q-29 -12 -58.5 -3t-47.5 38q-23 39 -21 78z" />
<glyph unicode="&#x2019;" horiz-adv-x="284" d="M9 1456q-5 33 16 57q20 23 50.5 23t59.5 -20q35 -31 45 -68q10 -33 -2 -77t-67 -103l-43 26q45 31 56 52.5t9 37.5q-20 -10 -45 -7t-45 22q-29 24 -34 57z" />
<glyph unicode="&#x201c;" horiz-adv-x="409" d="M4 1409q2 31 23.5 62.5t83.5 66.5l24 -35q-45 -12 -60.5 -25.5t-17.5 -25.5q43 6 68 -37q14 -27 10 -55.5t-26 -42.5q-23 -10 -47.5 -3t-43.5 32q-16 32 -14 63zM145 1311q-8 37 2 69q10 27 41 54.5t97 40.5l18 -39q-47 0 -66.5 -9.5t-25.5 -21.5q43 -4 55 -53 q6 -29 -7 -55.5t-36 -32.5q-27 -4 -49 10t-29 41v-4z" />
<glyph unicode="&#x201d;" horiz-adv-x="370" d="M5 1423.5q-5 26.5 11 46.5q16 18 40 20.5t46 -15.5q27 -20 37 -52q8 -27 -1 -64.5t-50 -86.5l-35 22q35 25 45.5 43.5t5.5 30.5q-37 -20 -71 8q-23 21 -28 47.5zM135 1495q10 23 32.5 31t47.5 -2q33 -14 49 -41q14 -23 18.5 -61t-22.5 -97l-37 10q27 35 29 54.5t-2 31.5 q-29 -29 -74 -12q-27 12 -39 36.5t-2 49.5z" />
<glyph unicode="&#x202f;" horiz-adv-x="475" />
<glyph unicode="&#x2044;" horiz-adv-x="587" d="M0 150l381 997l123 -21l-436 -999z" />
<glyph unicode="&#x205f;" horiz-adv-x="593" />
<glyph unicode="&#x20ac;" horiz-adv-x="833" d="M0 842l154 2q18 127 63 203.5t100.5 120.5t120 59.5t117.5 12.5t93 -18.5t52 -29.5l2 -121q-43 39 -65 62q-57 23 -94 24.5t-76 -5.5t-74 -33.5t-70.5 -93.5t-41.5 -181h100l-2 -51l-103 -7v-32v-17l166 15l-2 -101l-157 4q10 -113 40.5 -179t71.5 -99t84 -42t79 -4 t60.5 12t24.5 11l66 105l2 -209q-152 -23 -273 10q-53 14 -103 42t-90 75t-67.5 116.5t-34.5 163.5l-75 5l-5 59l80 8v12q0 12 1 21.5t1 19.5l-137 -10z" />
<glyph unicode="&#x2122;" horiz-adv-x="716" d="M4 1440l262 -2l-2 -25h-123l23 -276l-43 -2l-8 282h-107zM299 1135l35 -2l-10 235l110 -227l119 237l10 -241h49l-20 301h-37l-113 -240l-123 242h-20v-305z" />
<glyph unicode="&#x2212;" horiz-adv-x="653" d="M0 829l526 33l-4 -110l-516 14z" />
<glyph unicode="&#xe000;" horiz-adv-x="1435" d="M0 1435h1435v-1435h-1435v1435z" />
<glyph horiz-adv-x="2048" d="M2 39l721 1251l-518 -33q-39 -23 -66 -59q-37 -35 -73 -78l-7 264l861 37l-711 -1253q627 -12 631 -10q53 41 78 61q27 25 53 55l2 -266z" />
</font>
</defs>
</svg>
