<?xml version="1.0" standalone="no"?>
<!DOCTYPE svg PUBLIC "-//W3C//DTD SVG 1.1//EN" "http://www.w3.org/Graphics/SVG/1.1/DTD/svg11.dtd" >
<svg xmlns="http://www.w3.org/2000/svg">
<metadata></metadata>
<defs>
<font id="tf2secondary" horiz-adv-x="1198" >
<font-face units-per-em="2048" ascent="1536" descent="-512" />
<missing-glyph horiz-adv-x="700" />
<glyph unicode="&#xd;" horiz-adv-x="819" />
<glyph unicode=" "  horiz-adv-x="700" />
<glyph unicode="&#x09;" horiz-adv-x="700" />
<glyph unicode="&#xa0;" horiz-adv-x="700" />
<glyph unicode="!" horiz-adv-x="411" d="M55 115q-4 43 13.5 76.5t52.5 39.5t63.5 -17.5t32.5 -63.5q8 -41 -10.5 -74t-52.5 -41q-35 -8 -62 15.5t-37 64.5zM86 377l55 1122l180 -22l-147 -1117z" />
<glyph unicode="&#x22;" horiz-adv-x="458" d="M8 1391l154 8v-383h-82zM199 1436l147 -37l-41 -312h-82z" />
<glyph unicode="#" horiz-adv-x="1365" d="M288 0h-147l109 411h-188v140h226l112 426h-338v140h379l117 435h144l-115 -435h378l117 435h149l-120 -435h192v-140h-233l-113 -426h346v-140h-381l-112 -411h-148l113 411h-375zM438 551h376l115 426h-378z" />
<glyph unicode="$" horiz-adv-x="559" d="M16 870q-8 76 33 143.5t135 108.5v160h111l-6 -131q12 2 32.5 5t38.5 5h45l-8 -100h-57q-41 -6 -51 -8l-17 -265q37 -8 75 -19t71.5 -42t53 -67.5t17.5 -112.5q-23 -94 -89 -157.5t-144 -82.5l-12 -143l-60 -6l6 131q-45 -8 -98 -13q-23 -2 -41 -2l2 132q23 -6 65 -10.5 t74 1.5l-6 336l-61 25q-31 12 -55.5 30.5t-39 37.5t-14.5 44zM119 885q0 -16 18 -38t49 -32l-2 203q-27 -23 -46 -54.5t-19 -78.5zM258 412q61 23 79.5 47t30 44.5t15.5 55.5q4 55 -30 92t-83 47z" />
<glyph unicode="%" horiz-adv-x="780" d="M53 962q11 42 55 77.5t114 33.5q43 0 64.5 -33.5t16.5 -74.5t-37 -76t-93 -37q-74 -2 -102.5 33t-17.5 77zM113.5 929.5q8.5 -18.5 44.5 -24.5q35 -6 55.5 7.5t27 33t-3 37.5t-33.5 23q-29 4 -52.5 -8.5t-35 -31t-3 -37zM130 285l448 886l60 -24l-406 -899zM429 539 q6 43 27.5 79.5t53 60t74.5 23.5q63 0 92 -51t24 -113.5t-44 -113.5t-110 -51q-49 0 -77 24.5t-37 61.5t-3 80zM481 531.5q-7 -31.5 9.5 -58.5t63.5 -27q45 2 70.5 32t30.5 66t-12.5 62.5t-58.5 22.5q-41 -6 -68.5 -36t-34.5 -61.5z" />
<glyph unicode="&#x26;" horiz-adv-x="962" d="M0 387q0 37 24.5 92.5t62.5 117.5t81 128t79 125t60.5 105t22.5 73q0 37 -17.5 61.5t-42 37t-55.5 12.5t-59 -11q-31 -80 9 -174t118.5 -189t179 -183t189.5 -156t149.5 -109t60.5 -38l-117 -146q-195 166 -350 336q-66 72 -130 151.5t-114.5 160.5t-83 161t-34.5 154 q0 68 18.5 103.5t40 52t41 18.5t21.5 2q6 2 35.5 -5t68.5 -27.5t80 -54.5t65 -85q18 -41 7 -89t-38.5 -103.5t-66.5 -117t-74.5 -127t-62.5 -135t-31 -141.5q6 -53 23.5 -88t42 -55.5t57.5 -28.5t70 -8t90 20.5t103 71.5t86 140t38 227h-147l-6 92l276 -10q6 -174 -37 -312 q-18 -59 -50 -114.5t-80 -99.5t-115.5 -69.5t-159.5 -25.5t-155.5 19.5t-101.5 54.5t-54.5 83t-16.5 103z" />
<glyph unicode="'" horiz-adv-x="274" d="M51 1108v432l172 -6l-82 -426h-90z" />
<glyph unicode="(" horiz-adv-x="555" d="M43 597q7 103 40 215t82 220.5t98 195.5t87 143t46 63l55 -39q-84 -127 -147 -265q-27 -59 -52.5 -124.5t-43 -134t-25.5 -139t-2 -138.5q10 -121 56 -210t98 -148q59 -70 131 -119l-74 -117q-53 41 -109 100q-47 51 -103 129t-107 187q-37 78 -30 181z" />
<glyph unicode=")" horiz-adv-x="532" d="M0 1327l74 117q53 -41 108 -101q47 -51 102.5 -128.5t108.5 -186.5q37 -78 30 -181.5t-40 -215t-82 -220t-98 -195.5t-87 -143.5t-46 -62.5l-56 39q84 127 148 264q27 57 51.5 123t42.5 135.5t26.5 140t2.5 138.5q-12 119 -57.5 209t-96.5 149q-59 70 -131 119z" />
<glyph unicode="*" horiz-adv-x="655" d="M6 1192l242 80l-144 182l41 29l142 -150l55 205l86 -39l-86 -190l164 51l20 -29l-174 -80l195 -190l-92 -66l-146 201l-96 -201l-33 19l56 190l-211 -78z" />
<glyph unicode="+" horiz-adv-x="606" d="M0 637l12 76h228l-4 233h86l-5 -233l207 2l-4 -82l-203 4l-8 -293h-63l-6 293h-240z" />
<glyph unicode="," horiz-adv-x="243" d="M4 -197v453l180 -10l-84 -443h-96z" />
<glyph unicode="-" horiz-adv-x="585" d="M0 766l475 39l-8 -131l-459 16z" />
<glyph unicode="." horiz-adv-x="307" d="M22.5 100q-8.5 47 18.5 93q27 39 75 47t93 -17q39 -31 47 -78t-17 -92q-27 -39 -76 -47t-94 19q-38 28 -46.5 75z" />
<glyph unicode="/" horiz-adv-x="716" d="M0 154l465 1214l149 -25l-532 -1218z" />
<glyph unicode="0" horiz-adv-x="1077" d="M10 741q-2 117 16.5 203t51.5 149.5t73.5 104.5t83.5 68q100 59 232 59q6 0 45 -2t94 -17.5t118.5 -50t120 -101.5t98.5 -172t52 -259q10 -141 -11 -241.5t-61 -167t-91.5 -104.5t-102.5 -56.5t-94 -23.5t-64 -5q-12 0 -54 4t-99.5 23.5t-122 58.5t-122.5 107.5 t-103.5 172t-59.5 250.5zM186 817q-2 -170 46.5 -287.5t116 -192.5t137 -108.5t110.5 -33.5q39 0 81 22.5t79 74.5t62.5 137t29.5 210q4 127 -22.5 236.5t-78 191.5t-122 128t-152.5 48q-80 0 -143 -45q-27 -18 -52.5 -49t-46 -77t-33 -108.5t-12.5 -146.5z" />
<glyph unicode="1" horiz-adv-x="364" d="M68 131l36 1192l111 4l39 -1196h-186z" />
<glyph unicode="2" horiz-adv-x="1036" d="M0 1214q43 27 119 53.5t167 42t188 15.5t182 -25.5t146.5 -82t84.5 -152.5q14 -74 3 -147.5t-42 -146.5t-75 -140.5t-93 -126.5q-113 -141 -268 -273l518 17l4 -119q-219 -2 -391 -2h-144h-125q-55 0 -89 1l-33 1q68 55 136 127t126.5 144.5t175.5 230.5q29 39 55.5 91 t41.5 109.5t15 116t-22.5 106.5t-71.5 80.5t-131 41.5q-90 12 -156.5 -1.5t-113.5 -37t-77 -48t-46 -34.5q-2 -1 -84 159z" />
<glyph unicode="3" horiz-adv-x="952" d="M0 1278q88 31 185.5 43t191.5 10t181 -19.5t152.5 -49t104.5 -74.5t39 -98q4 -70 -17.5 -122.5t-56.5 -91t-76.5 -65.5t-77.5 -43t-59.5 -23.5t-23.5 -9.5q0 2 37.5 -12t84 -48t87.5 -88.5t49 -133.5q0 -70 -31 -120t-82 -84t-116.5 -53.5t-133.5 -29.5q-160 -23 -366 -8 v100q147 -16 260 -2q49 6 95 19.5t82 37t58.5 59.5t22.5 89q0 43 -17.5 74.5t-44 54t-61.5 36t-70 19.5q-84 16 -190 8q-4 115 0 117q2 2 34.5 2t82 5t105.5 20.5t104.5 45t79 80t30.5 126.5q-2 76 -43 115.5t-103.5 54t-136 7.5t-140 -24.5t-179.5 -85.5q-2 12 -41 162z " />
<glyph unicode="4" horiz-adv-x="1056" d="M0 481l616 842l80 6l33 -704l223 14l2 -154l-217 4l-2 -4l15 -366l-172 -17l-11 383zM217 602l342 16l-4 467z" />
<glyph unicode="5" horiz-adv-x="851" d="M0 682l4 588l719 59v-164l-567 4l2 -354q33 2 87 3t116.5 -4t128 -18.5t120 -42t91 -73.5t42.5 -115q6 -53 -15 -100t-60 -87t-90.5 -75t-106.5 -63q-127 -68 -295 -117l-51 119q119 33 213 80q39 18 78 42.5t68.5 53t47 62.5t15.5 71t-26.5 62.5t-62.5 42t-87 24.5 t-101 12q-118 8 -270 -10z" />
<glyph unicode="6" horiz-adv-x="788" d="M8 512v4q-2 37 3 94.5t24.5 128t55.5 149.5t94.5 157.5t143.5 153.5t201 136q70 -139 68 -141q-106 -57 -180 -121.5t-123 -130t-79 -130t-46 -120.5q41 16 72.5 26.5t84 16.5t81.5 4q27 0 74.5 -11t94 -43t80 -92.5t33.5 -160.5q0 -104 -46 -165.5t-107.5 -93.5 t-122 -40t-90.5 -6q-25 0 -78.5 13.5t-106.5 53t-93 115.5t-38 203zM170 432q-2 -23 7 -60.5t28.5 -73.5t48.5 -62.5t65 -28.5q70 -6 118 21.5t75 73.5t34 102.5t-6.5 106.5t-45 87t-80.5 45q-76 10 -123 -10.5t-73 -55t-36 -75.5t-12 -70z" />
<glyph unicode="7" horiz-adv-x="974" d="M4 1309l866 32l-92 -1214h-160l125 1073l-708 -65z" />
<glyph unicode="8" horiz-adv-x="1001" d="M46.5 489.5q18.5 67.5 82 132t184.5 111.5q-78 23 -125 73t-64.5 112.5t-5 129t54.5 123t111.5 94.5t169.5 44q80 6 142.5 -18.5t105.5 -66.5t65.5 -98.5t21.5 -115t-25.5 -114.5t-75.5 -97q113 -8 174 -61.5t74.5 -126t-15.5 -156.5t-95.5 -155t-166.5 -120t-227 -51 q-94 -2 -173 28.5t-132.5 82t-76 117t-4 133zM242 467q-9 -61 13.5 -114.5t79 -89.5t150.5 -36q90 0 151.5 37t93 91.5t36 118t-20.5 117.5t-79 89t-138 33q-82 -2 -143.5 -39t-97.5 -91.5t-45 -115.5zM276 1000.5q0 -58.5 20.5 -105.5t62.5 -78t105 -24q61 4 100.5 37.5 t58 80.5t17.5 102.5t-21.5 101.5t-58.5 77t-91 31q-63 2 -106.5 -32t-65 -83t-21.5 -107.5z" />
<glyph unicode="9" horiz-adv-x="808" d="M28 948q-10 80 2.5 154t50.5 130t103.5 90t163.5 34q70 -4 110.5 -17.5t87 -41t85 -78t65.5 -128t29 -190.5q0 -86 -21.5 -165t-56.5 -150.5t-81 -134t-93 -115.5q-113 -125 -256 -225l-96 131q117 80 208 161q39 35 77 75t68 82t48 84t20 83q-119 -49 -212 -37 t-158.5 55t-101.5 101.5t-42 101.5zM155.5 1078q-6.5 -52 10 -109.5t53.5 -101.5t94 -66.5t133 -5.5q55 10 83 51t31 95t-15.5 111.5t-56.5 101.5t-92 66.5t-124 6.5q-53 -12 -81.5 -54.5t-35 -94.5z" />
<glyph unicode=":" horiz-adv-x="352" d="M20 329q-7 50 16 93q29 39 73.5 47t85.5 -23q35 -29 43.5 -78t-14.5 -92q-27 -39 -72 -47t-84 23q-41 27 -48 77zM54 1021q-6 42 14 83q25 33 64 41t74 -12q37 -29 42 -71t-18 -83q-23 -39 -63.5 -44t-71.5 15q-35 29 -41 71z" />
<glyph unicode=";" horiz-adv-x="329" d="M20 1017q-7 42 20 79q20 39 63 44t78 -20t44 -65.5t-13 -75.5q-25 -39 -68 -46t-84 21q-33 21 -40 63zM58 -53v356l144 -6l-68 -350h-76z" />
<glyph unicode="&#x3c;" horiz-adv-x="669" d="M-2 743l508 310l57 -127l-444 -191l348 -272l-37 -80z" />
<glyph unicode="=" horiz-adv-x="858" d="M2 621l729 32v-155l-721 30zM25 752l8 161l712 -100l9 -90z" />
<glyph unicode="&#x3e;" horiz-adv-x="684" d="M-2 936l59 131l531 -322l-451 -374l-39 84l365 282z" />
<glyph unicode="?" horiz-adv-x="942" d="M2 1343q43 25 112.5 46.5t152.5 33t170 6t165 -35t137.5 -87t87.5 -153.5q18 -72 5 -129t-48.5 -104.5t-87 -83t-108.5 -62.5q-133 -63 -318 -98l31 -328l-100 -4v414q162 23 276 71q49 20 92 49t71 66t34 84t-19 105q-23 53 -60.5 83.5t-83.5 43t-97.5 10.5t-100.5 -10 q-117 -23 -247 -86zM168 102q0 39 25 74q29 39 64.5 51.5t59.5 -12.5q25 -16 25 -56t-25 -73q-29 -37 -64.5 -51.5t-62.5 12.5q-22 16 -22 55z" />
<glyph unicode="@" horiz-adv-x="1228" d="M4 743q2 131 41 227.5t98.5 161t131 103.5t127 54.5t122 23.5t183.5 -4q113 -27 176 -58.5t117.5 -86t89 -135.5t34.5 -200q-8 -98 -38.5 -151t-69.5 -81t-70 -34t-39 -6q8 -2 -4 -4t-35.5 4t-54.5 21.5t-55 48.5q-6 -20 -25.5 -39t-38 -36t-50.5 -27.5t-81 -10.5 q-39 0 -81 23.5t-74.5 64.5t-47 99.5t4.5 127.5q6 37 27.5 81t57 83t86 64.5t117.5 23.5q63 -4 94 -37.5t45.5 -82t18.5 -103.5t12 -100t24.5 -77t59.5 -28q47 0 79 42t40 103.5t-7 134.5t-62.5 136.5t-129.5 107.5t-204 48q-109 4 -186 -27t-127 -79t-79.5 -106.5 t-44 -112.5t-19.5 -96t-5 -52q-2 -43 11 -103.5t43 -121t80 -113t125 -80t176 -25.5t234 56l46 -113q-27 -16 -101 -34.5t-171 -20.5t-201.5 18.5t-193.5 79.5t-146.5 167.5t-59.5 280.5zM480 732q7 -44 31 -75.5t67 -42.5q37 -8 66.5 18.5t47 69.5t23.5 95.5t-2 97.5 t-29.5 74.5t-60.5 29.5q-37 2 -66 -22.5t-47 -64.5t-27.5 -88t-2.5 -92z" />
<glyph unicode="A" horiz-adv-x="1290" d="M10 39l465 1384l103 4l632 -1355l-159 -64l-539 1221l-168 -555l432 6l35 -88l-485 -2l-195 -590z" />
<glyph unicode="B" horiz-adv-x="1044" d="M0 16v1387q10 6 74.5 15t152.5 15q31 2 65 1q60 0 125 -6q101 -9 187 -44.5t143.5 -97t59.5 -160.5q0 -98 -37 -155.5t-80 -85.5q-51 -35 -115 -43q98 -16 179 -62q33 -18 65.5 -45.5t59 -65.5t43.5 -86q19 -54 18 -120q0 -90 -36 -156q-38 -70 -103.5 -119t-150.5 -81.5 t-173 -51.5q-184 -40 -413 -39q-32 -1 -64 0zM121 1315l6 -432q46 -4 89 -5q80 0 153 15q49 8 96 25.5t85 45t63.5 67.5t29.5 95q1 11 1 22q0 62 -32 99q-37 43 -96 64.5t-129 25.5q-31 2 -60 2q-37 0 -71 -3q-61 -5 -97 -12t-38 -9zM123 760l12 -565q43 -4 119 -6h15 q68 0 139 9q78 9 151.5 31.5t128.5 63.5t84 105q21 48 21 110q0 22 -2 47q-12 74 -64.5 118t-128.5 66.5t-161 28.5q-64 5 -121 5q-19 0 -37 -1q-74 -2 -115 -7z" />
<glyph unicode="C" horiz-adv-x="1267" d="M31 588q-6 46 -7 97q0 131 42 296q39 119 108.5 199t155.5 131t183 76.5t194 35.5q68 7 139 7q163 0 344 -35v-181q-184 41 -346 42q-54 0 -105 -5q-88 -8 -176 -32.5t-163.5 -74.5t-134 -130t-85.5 -199q-14 -68 -17 -149q0 -9 -1 -19q0 -72 21 -145q24 -82 80 -156 t160.5 -127t262.5 -77q84 -13 188 -12q90 0 195 9l12 -57q4 -23 7.5 -41t1.5 -21q-87 -10 -190 -9h-52q-133 3 -266 34t-253 94.5t-197.5 174t-100.5 274.5z" />
<glyph unicode="D" horiz-adv-x="1492" d="M0 2v1348q143 12 275 11q239 0 442 -38q135 -25 264 -74t230.5 -130t164 -198.5t64.5 -283.5q-8 -154 -74 -262.5t-169 -182t-231 -116.5t-261 -64q-173 -28 -372 -28q-158 0 -333 18zM176 109q83 -6 165 -7q180 0 353 31q106 18 200.5 54t170.5 93.5t109.5 141.5 t46.5 201q-6 125 -41 215t-102.5 151.5t-158 99t-198.5 58.5q-172 32 -353 32q-87 0 -175 -8z" />
<glyph unicode="E" horiz-adv-x="894" d="M0 0v1413l842 19v-179l-723 7l6 -490l594 35l2 -154l-588 -10l6 -535l668 31l4 -137h-811z" />
<glyph unicode="F" horiz-adv-x="821" d="M0 18l18 1414l721 -5v-127l-616 23l12 -451l479 19l-4 -172l-463 16l25 -737l-170 6z" />
<glyph unicode="G" horiz-adv-x="1312" d="M29 758q20 162 81.5 275.5t149.5 188t193.5 117.5t212.5 62q115 21 241 20q150 0 316 -28l-6 -107q-130 17 -247 17q-143 0 -265 -25q-96 -18 -186.5 -57t-161 -105.5t-112.5 -165.5q-38 -90 -39 -213q0 -12 1 -24q0 -147 38 -247.5t101.5 -165t143 -96.5t163.5 -44 q58 -8 121 -8q150 0 328 45l-6 204l-430 -26l4 141l540 -2v-459q-230 -49 -423 -49q-105 0 -199 14q-115 18 -222.5 63.5t-187.5 130.5t-123 218q-31 96 -31 224q0 49 5 102z" />
<glyph unicode="H" horiz-adv-x="1392" d="M0 0v1434l156 -9l14 -862l907 19l-8 839h121l39 -1394l-146 -2l-6 411l-903 -4l6 -432h-180z" />
<glyph unicode="I" horiz-adv-x="491" d="M109 2l43 1432l165 -2l-75 -1432z" />
<glyph unicode="J" horiz-adv-x="1044" d="M0 147q0 4 63 95q51 -45 119 -80q57 -29 137 -50q54 -15 119 -15q31 0 64 3q78 6 131 61.5t86 151t38 225.5q2 43 1 89q0 92 -6 196l-60 604l191 3q2 -53 6 -119q8 -205 8 -291q4 -128 4 -253q0 -62 -1 -123q-3 -183 -50 -326.5t-141.5 -230.5t-255.5 -87 q-78 0 -150 14.5t-131 37t-103 47.5t-69 48z" />
<glyph unicode="K" horiz-adv-x="1083" d="M0 1427l137 5v-590l649 573l115 -129l-676 -524l774 -553l-100 -156l-749 629l12 -674l-125 -6z" />
<glyph unicode="L" horiz-adv-x="1130" d="M41 1430l149 -9l-6 -1284l830 62l-4 -193l-967 -6z" />
<glyph unicode="M" horiz-adv-x="1562" d="M41 0v1434h92l596 -1205l518 1196h150l47 -1409h-187l-6 1139l-499 -1161l-74 16l-531 1102l37 -1114z" />
<glyph unicode="N" horiz-adv-x="1533" d="M41 0v1434h92l1155 -1198l-12 1185l147 -6l-6 -1395l-117 -2l-1138 1153l16 -1171h-137z" />
<glyph unicode="O" horiz-adv-x="1740" d="M16 715q10 152 59.5 265.5t123 195t156.5 134t172 85t172 44.5q70 10 130 9h21q66 0 146.5 -11.5t167.5 -41t166 -79.5t150.5 -130t118 -196t48.5 -269q-6 -211 -86 -350.5t-200 -226.5t-264.5 -124.5t-277.5 -37.5q-72 0 -162 10t-182 43t-175 90t-150.5 138t-104.5 184 q-30 85 -30 210q0 28 1 58zM205 633q4 -143 61.5 -247.5t134 -170t187 -98.5t223.5 -37h12q109 0 225 34q122 36 210 112.5t154 215.5q61 127 61 310v34q-10 119 -51.5 213.5t-85.5 150.5t-108.5 98t-126 66.5t-194.5 39.5q-19 1 -38 1q-115 0 -227 -32 q-130 -37 -233.5 -137.5t-155.5 -248.5q-48 -138 -48 -282v-22z" />
<glyph unicode="P" horiz-adv-x="1081" d="M16 1421q61 2 157 7q60 3 124 4q39 0 79 -1q108 -3 215 -18.5t194 -54.5t144.5 -108.5t65.5 -172.5q1 -17 1 -32q0 -100 -44 -172q-51 -83 -126.5 -138t-169 -86t-182.5 -47t-166 -19t-118 -3l-2 -580h-133zM174 1292l16 -575q32 -1 63 -1q155 0 282 25q63 12 109 34 t83 55.5t65.5 82t28.5 113.5q0 70 -27.5 118t-66.5 79.5t-85 49t-113.5 25.5t-142.5 8q-100 0 -212 -14z" />
<glyph unicode="Q" horiz-adv-x="1536" d="M-4 786q6 156 47 264.5t108.5 182.5t149.5 119t155.5 65.5t129 26.5t71.5 8q27 0 91.5 -1t147.5 -16.5t173 -54.5t168 -111.5t139.5 -188t69.5 -287.5v-29q0 -134 -35 -223q-39 -98 -100.5 -173t-136 -126.5t-142.5 -83.5l418 -68l-90 -174q-219 59 -344 92t-187 49 l-76 21q-15 4 -18 4q-6 0 -61.5 4t-136 23.5t-173 60.5t-173 116.5t-136 191t-59.5 308.5zM199 743q4 -61 20.5 -126.5t47 -130t75.5 -123t109.5 -101.5t147.5 -66q62 -17 135 -18q26 0 52 2q147 8 241.5 64.5t149 135.5t78 170t25.5 169v21q0 64 -10 122q-12 68 -43 138.5 t-81 137t-124 118t-173 78.5q-77 21 -171 22q-28 0 -57 -2q-150 -10 -238 -77t-131 -157t-52 -187q-5 -52 -5 -102q0 -45 4 -88z" />
<glyph unicode="R" horiz-adv-x="1126" d="M41 1421q4 0 49 3t116 6q28 1 59 0q47 0 100 -2q88 -3 179 -15t178 -36.5t153.5 -66.5t106.5 -103q38 -57 38 -138q0 -84 -34 -149q-32 -61 -82 -107.5t-112.5 -78.5t-127.5 -52q-154 -49 -347 -57l467 -525l-137 -96l-461 606l13 -602l-136 4zM182 750q65 -5 125 -5 q111 0 205 17q61 12 119.5 32.5t104.5 56.5t74 86t28 122q0 63 -29 108t-75 76t-104.5 49.5t-119.5 28.5q-93 15 -203 15q-60 0 -125 -5v-581z" />
<glyph unicode="S" horiz-adv-x="882" d="M22 1097q-5 28 -6 57q0 58 21 118q23 68 88 103.5t148 47.5q62 9 129 10q22 0 45 -1q91 -4 167 -14.5t124 -23t48 -14.5l-6 -143q0 -2 -34.5 12.5t-89 30.5t-120.5 29q-50 9 -99 9q-16 0 -33 -1q-65 -4 -118 -29.5t-81 -87.5q-22 -49 -23 -98q0 -28 7 -55 q19 -78 69.5 -157t123.5 -158t144.5 -153.5t132 -145.5t87.5 -135q18 -41 18 -79q0 -21 -5 -41q-15 -55 -95 -100q-66 -37 -135 -44q-27 -3 -53 -3q-41 0 -82 7q-67 11 -125 34.5t-103 48t-70.5 42t-25.5 19.5l77 103q12 -14 41 -38t66 -47.5t81 -43t88 -26.5q19 -3 38 -3 q24 0 46 5q40 9 71 44q28 33 28 70q0 11 -3 22q-11 49 -51 106.5t-102.5 121t-130 133t-132 145.5t-107.5 157t-58 166z" />
<glyph unicode="T" horiz-adv-x="1288" d="M0 1430l1225 -15l-13 -121l-573 13l109 -1293l-203 -14l-33 1315l-506 10z" />
<glyph unicode="U" horiz-adv-x="1492" d="M43 1432l143 2q-5 -129 -5 -249q0 -222 18 -413q14 -125 43.5 -243.5t79 -213t121 -150.5t173.5 -59h14q183 0 297 56q118 57 176 205.5t66 405.5q2 60 2 129q0 222 -20 525l207 5q2 -184 2 -327q0 -308 -9 -417q-13 -160 -52 -287t-120 -216t-215 -137 q-129 -46 -323 -46h-16h-9q-154 0 -255 68q-103 70 -167.5 184.5t-94 264t-41 309.5t-15.5 604z" />
<glyph unicode="V" horiz-adv-x="1454" d="M23 1382l122 52l498 -1194l555 1196l158 -76l-672 -1366l-70 6z" />
<glyph unicode="W" horiz-adv-x="1923" d="M61 1366l160 68l475 -1198l375 841l51 13l275 -689l278 973l164 -43l-377 -1233l-65 2l-303 734l-365 -822l-84 -12z" />
<glyph unicode="X" horiz-adv-x="1474" d="M70 121l501 686l-471 547l105 78l440 -517l322 467l131 -100l-365 -483l608 -713l-110 -80l-565 692l-441 -675z" />
<glyph unicode="Y" horiz-adv-x="1269" d="M55 1339l97 70l419 -510l428 537l134 -107l-463 -538l55 -785l-178 -6l-25 795z" />
<glyph unicode="Z" horiz-adv-x="1306" d="M92 1434l1127 -13l2 -71l-801 -1227l780 37l10 -140l-995 -20l-10 92l819 1225l-922 -8z" />
<glyph unicode="[" horiz-adv-x="409" d="M4 1409l258 25v-148h-135l20 -1210l140 16l14 -74l-229 -18z" />
<glyph unicode="\" horiz-adv-x="755" d="M25 1368l153 23l473 -1239l-84 -29z" />
<glyph unicode="]" horiz-adv-x="442" d="M2 1415l236 23l96 -1405l-262 -29l-6 119l137 4l-39 1229l-146 -15z" />
<glyph unicode="^" horiz-adv-x="585" d="M0 1217l272 325l211 -348l-61 -14l-154 276l-180 -291z" />
<glyph unicode="_" horiz-adv-x="911" d="M0 -131h911v-82h-911v82z" />
<glyph unicode="`" horiz-adv-x="268" d="M0 1444l78 92l190 -225l-28 -43z" />
<glyph unicode="a" horiz-adv-x="1304" d="M79 524q10 109 60 192t127 138t176.5 84t209.5 29q100 0 193.5 -36t150.5 -102l4 103h170l-12 -924l-174 2l6 146q-76 -70 -175 -105t-212 -37h-12q-112 0 -207 36q-100 38 -172 106.5t-108 162.5q-28 73 -27 157q0 23 2 48zM241 514q-1 -12 -1 -25q0 -31 4 -64 q5 -46 21.5 -90t41 -84t62.5 -70.5t88 -50t115 -21.5q12 0 24 -1q96 0 167 30q80 34 130 89.5t67.5 124t19.5 133.5v19q0 60 -11 119q-13 68 -58.5 121t-116 86.5t-164.5 35.5h-11q-53 0 -113 -17q-67 -19 -124 -62.5t-97 -110t-44 -162.5z" />
<glyph unicode="b" horiz-adv-x="1179" d="M0 1419h147l3 -583q72 66 167 102.5t197 36.5q115 0 214 -26.5t176 -82t125 -138.5t61 -193q2 -26 2 -51q0 -85 -27 -161q-35 -99 -105.5 -171t-172.5 -113q-97 -39 -212 -39h-12q-113 2 -214 38t-179 105l4 -147l-162 -2zM166 481q2 -66 26.5 -136.5t77 -126.5 t131.5 -91q71 -31 171 -31h24q100 4 166.5 44t106.5 100.5t56 132.5q14 63 13 123v16q-6 96 -46 166t-99.5 113t-128 62t-127.5 19q-96 -2 -168 -36.5t-118 -90t-68 -123.5q-18 -58 -18 -118q0 -12 1 -23z" />
<glyph unicode="c" horiz-adv-x="964" d="M30 408q-7 35 -7 75q0 93 38 209q39 86 89.5 144.5t113 95.5t132 54.5t139.5 25.5q37 2 72 2q173 0 319 -58l-2 -168q-157 67 -324 67q-22 0 -45 -1q-59 -6 -116.5 -22.5t-107.5 -48t-97.5 -86t-65.5 -132.5q-10 -50 -10 -85q0 -15 2 -27q6 -41 21.5 -95.5t69.5 -114 t130 -100.5t177 -42h4q100 0 255 51q6 -125 6 -129q-80 -31 -181 -37l-46 -2q-77 0 -151 16q-95 20 -183 68.5t-148 134.5t-84 205z" />
<glyph unicode="d" horiz-adv-x="1263" d="M53 520q10 113 61.5 198t130.5 142.5t180 86t216 28.5q102 0 197.5 -37t167.5 -102l2 583h204l-12 -1425l-219 2l4 147q-78 -70 -179 -105.5t-214 -37.5h-12q-116 0 -214 37q-103 39 -176 108.5t-110 165.5q-29 75 -29 161q0 24 2 48zM219 512q-1 -14 -1 -29 q0 -54 12 -110q15 -72 55.5 -132.5t107 -100.5t166.5 -44h24q99 0 171 31q80 35 132 91t76.5 127t26.5 136q1 11 1 23q0 60 -18 118q-22 69 -68 124t-117.5 89.5t-168.5 36.5q-41 0 -85 -8t-87 -26.5t-82.5 -47t-70.5 -68.5t-51.5 -93.5t-22.5 -116.5z" />
<glyph unicode="e" horiz-adv-x="1224" d="M76 588q14 82 51 149.5t92 118.5t122 85t139.5 49.5t142.5 15.5q127 -4 226 -46t165.5 -115t99.5 -172q29 -88 29 -194v-26l3 -1q0 -1 -25 -1h-96h-146h-174h-178h-156h-114q-44 0 -48 -2q10 -61 38.5 -111.5t68.5 -87.5t88.5 -62.5t93.5 -35.5q29 -6 68 -10 q20 -2 43.5 -1.5t50.5 1.5q54 3 121 17.5t147 45.5l30 -164q-59 -29 -134.5 -43t-152.5 -15q-7 0 -14 -1q-69 0 -132 10q-69 10 -113 33q-55 25 -108.5 56.5t-98.5 77.5t-79 107.5t-48 141.5q-9 52 -9 100q0 42 7 80zM217 575l750 -24q-16 76 -40 133t-73 98t-105.5 66.5 t-117.5 34.5q-30 5 -61 5q-45 0 -89 -11q-74 -18 -132 -60.5t-94 -105t-38 -136.5z" />
<glyph unicode="f" horiz-adv-x="731" d="M-88 821v131l201 -6l-7 -127zM100 499q-2 93 -1 175q0 102 2 186q5 152 21.5 252t48.5 163.5t82 97.5t122 52q29 6 63 10q10 1 22 1q25 0 52 -5q39 -7 83 -26t89 -53l-68 -119q-25 18 -48 32.5t-45.5 22.5t-48 11.5t-52.5 5.5q-55 -2 -90 -30t-56.5 -71t-29.5 -97 t-10 -110q-1 -37 -2 -70v-33q1 -48 2 -83l36 -799l-161 -8q-7 285 -11 495zM233 942l248 -6v-109l-245 2z" />
<glyph unicode="g" horiz-adv-x="1224" d="M14 563q14 115 68.5 204t137.5 149.5t188 87.5q71 18 147 18q35 0 72 -4q57 -6 103 -19.5t83 -30t63.5 -30.5t43.5 -25l-2 62h210q-6 -285 -12 -501t-20.5 -375.5t-37 -268.5t-74.5 -176.5t-127 -99t-163 -37.5q-9 0 -18 -1q-67 0 -135 27q-78 31 -140 105l93 96 q25 -31 46 -50.5t41.5 -33.5t43 -21.5t51.5 -11.5q11 -1 22 -1q38 0 67 17q38 22 63.5 62.5t41 94t23.5 109.5t11 110.5t5 97.5q-33 -29 -73.5 -48.5t-85.5 -30.5t-95.5 -15.5t-103.5 -6.5q-82 0 -157 18.5t-137 54.5t-112.5 85t-81 110.5t-45.5 132.5q-8 41 -8 84 q0 30 4 62zM172 553q-2 -18 -2 -36q0 -51 13 -103q17 -70 60.5 -128.5t112 -99.5t166.5 -53q29 -4 57 -4q62 0 115 19q78 28 129 80.5t76 122t27 141.5v21q0 68 -12 130q-13 72 -55 126t-110.5 89t-164.5 37q-15 1 -30 1q-52 0 -105 -11q-70 -14 -129.5 -53t-100.5 -108 t-47 -171z" />
<glyph unicode="h" horiz-adv-x="1071" d="M-12 1436l147 2l25 -598q20 25 48 46t59.5 37.5t63 28t62.5 15.5q82 14 150 14q40 0 73 -5q92 -13 153.5 -62.5t97.5 -131.5t54.5 -195.5t23.5 -256t7 -314.5h-172q-1 20 -1 44q0 34 2 74q3 67 5 139q1 36 1 73t-1 75q-2 75 -12 143.5t-30.5 128t-57.5 102.5t-92 65 q-41 17 -93 17q-19 0 -40 -3q-68 -6 -120 -28.5t-89 -69.5t-56.5 -120.5t-19.5 -182.5l8 -330l9 -141l-160 -2z" />
<glyph unicode="i" horiz-adv-x="468" d="M88 2l219 -2l19 922l-205 -2zM123 1157q0 18 7 33.5t19.5 28t29 19.5t32.5 7q18 0 34.5 -7t29 -19.5t19.5 -27.5t7 -34q0 -37 -26.5 -62.5t-63.5 -25.5q-35 0 -61.5 25.5t-26.5 62.5z" />
<glyph unicode="j" horiz-adv-x="741" d="M-57 -344q59 -78 131.5 -109.5t158.5 -31.5q98 4 161 38.5t106 105.5t69.5 179.5t33.5 268t13.5 375.5t14.5 501h-172l-10 -858q0 -43 -3.5 -97.5t-11.5 -110.5t-24.5 -109.5t-42 -94.5t-63.5 -62q-29 -17 -67 -17q-11 0 -22 1q-29 4 -51.5 11.5t-43 22t-41 33.5 t-44.5 48zM463 1169q0 18 7 35t19.5 28t27.5 18t34 7q18 0 34.5 -7t29 -18t18.5 -27.5t6 -35.5q0 -37 -25.5 -62.5t-62.5 -25.5t-62.5 25.5t-25.5 62.5z" />
<glyph unicode="k" horiz-adv-x="1026" d="M0 1427l135 5v-775l588 387l90 -122l-580 -342l666 -410l-111 -139l-632 467l22 -490l-141 -6z" />
<glyph unicode="l" horiz-adv-x="342" d="M57 1456l205 2l2 -1458h-190z" />
<glyph unicode="m" horiz-adv-x="1800" d="M2 942l158 2l4 -104q35 53 91 91t132 54q88 20 160 21q86 0 146 -30q112 -54 167 -198q14 18 41 47t63.5 57.5t82 51t96.5 29.5q53 8 98 8q90 0 153 -32q95 -48 146 -167t64 -309q6 -95 6 -208.5t-6 -244.5h-189q0 68 5 159t6 188q0 11 1 22q0 86 -8 170 q-8 94 -34.5 164.5t-77.5 110.5q-41 32 -103 32q-16 0 -33 -2q-72 -10 -117.5 -55t-71.5 -111.5t-37 -145.5t-13 -157q6 -78 8 -165t4 -183h-164q0 66 3 158q2 46 2 93t-2 96q-3 97 -18 192.5t-51 169t-100 115.5q-53 35 -130 35q-15 0 -31 -1q-268 -20 -273 -422l8 -330 l9 -141l-168 -2z" />
<glyph unicode="n" horiz-adv-x="1234" d="M78 942l149 2l4 -104q66 57 138.5 92t154.5 53q99 24 179 24q24 0 47 -2q96 -9 168.5 -60.5t117.5 -135.5t58.5 -198.5t19.5 -259t6 -316.5h-231q0 49 2 113.5t4 136.5q1 48 1 97v49q-1 75 -12.5 144.5t-32 130t-52 104.5t-81.5 67q-39 18 -96 17q-15 0 -32 -1 q-68 -6 -128.5 -36t-107.5 -82t-75.5 -129t-30.5 -175l8 -330l8 -141l-160 -2z" />
<glyph unicode="o" horiz-adv-x="1245" d="M49 498q12 113 62.5 201.5t130.5 149t184 96.5q99 34 192 34h11q80 0 179 -37t175 -101.5t121 -152.5q40 -77 40 -169q0 -13 -1 -25q-6 -125 -54.5 -222.5t-128 -163t-178 -101.5t-184.5 -36h-10q-98 0 -201 38q-109 40 -187.5 109.5t-119.5 168.5q-33 79 -33 166 q0 22 2 45zM217 492q-1 -12 -1 -24q0 -57 16 -117q19 -73 63.5 -134t114 -102t168.5 -45q6 0 12 -1q49 0 93 15q50 16 99 46t85 71t58.5 87t31 94t10.5 95q1 12 0 24q0 59 -17 116q-20 69 -66 123.5t-119 90t-147 37.5q-8 1 -16 1q-44 0 -104 -18q-72 -22 -133.5 -68 t-103.5 -118.5t-44 -172.5z" />
<glyph unicode="p" d="M57 954h136l4 -102q68 66 155.5 97.5t188.5 35.5q22 1 43 1q82 0 157 -18q94 -24 168 -77t123 -137t64 -199q2 -26 2 -52q0 -84 -26 -159q-34 -98 -96.5 -178t-163.5 -130q-94 -46 -201 -47q-9 0 -17 1q-53 2 -105.5 11t-102.5 28.5t-96 46t-87 55.5l2 -557l-137 -2z M209 504q0 -76 22.5 -148.5t71.5 -128t129 -86.5q57 -22 130 -22q29 0 61 4q66 6 114.5 27.5t85.5 52t62.5 69.5t42 82t21.5 88q4 32 4 64q0 12 -1 24q-4 96 -43 165t-96 112t-122.5 62.5t-123.5 19.5q-92 -2 -160.5 -37t-113.5 -88t-67 -122q-18 -58 -18 -116q0 -11 1 -22z " />
<glyph unicode="q" horiz-adv-x="1187" d="M10 518q8 109 56.5 193t124 141t174 88t208.5 33h12q94 0 183 -32q94 -34 166 -97v100l133 -2l14 -1413l-155 -2l2 643q-74 -72 -172.5 -108.5t-210.5 -41.5q-17 -1 -35 0q-99 0 -185 30q-101 36 -174 102.5t-111 160.5q-31 77 -31 166q0 19 1 39zM172 512v-15 q0 -59 14 -120q16 -70 56.5 -128.5t106 -96t163.5 -39.5q74 0 133.5 15t105.5 44t78.5 66.5t53 80.5t31 89.5t12.5 89.5v11q0 64 -21 126q-23 68 -70 120t-117.5 84.5t-162.5 32.5q-39 0 -82 -9t-85 -28.5t-81 -48t-68.5 -68.5t-47 -91.5t-19.5 -114.5z" />
<glyph unicode="r" horiz-adv-x="821" d="M51 940l144 4l2 -162q16 23 42.5 48.5t61.5 50t79 44t96 27.5q25 4 51 4q30 0 62 -5q60 -9 130 -40l-41 -143q-55 31 -113 44q-39 9 -78 9q-18 0 -35 -2q-56 -6 -104.5 -31.5t-84.5 -75.5t-54 -124q-15 -60 -15 -139q0 -17 1 -35l16 -406l-154 -8z" />
<glyph unicode="s" horiz-adv-x="890" d="M37 707q-2 15 -2 30q0 61 33 131q49 82 154 130q72 33 163 33q43 0 90 -7q147 -23 239.5 -82t92.5 -61l-92 -162q-115 121 -216 152q-58 18 -112 19q-40 0 -77 -10q-87 -24 -124 -100q-10 -30 -10 -57q0 -56 42 -103q62 -71 182 -159t185 -161q57 -65 57 -140 q0 -10 -1 -20q-8 -87 -115 -140q-60 -20 -117 -20q-24 0 -48 4q-79 12 -134 40.5t-164 110.5l89 123q88 -102 202 -143q43 -15 76 -16q53 0 75 42q10 19 10 39q0 50 -66 104q-92 75 -198 150.5t-155 137t-59 135.5z" />
<glyph unicode="t" horiz-adv-x="716" d="M2 825l2 131l205 -8l-2 330h123l8 -334l254 -6v-107l-246 3l19 -824l-162 -6l-4 819z" />
<glyph unicode="u" horiz-adv-x="1136" d="M37 659.5q0 141.5 2 315.5l170 -6q-2 -47 -7 -110.5t-10.5 -135.5t-5.5 -147.5t8.5 -146.5t28 -134.5t55 -110.5t90.5 -73q50 -25 122 -25h12q76 0 139.5 27.5t110.5 79t74.5 126t31.5 173.5l6 464l160 -4l-14 -936l-150 4v107q-68 -57 -141.5 -94t-157.5 -41 q-28 -1 -53 -2q-95 0 -167 18q-91 23 -150.5 74t-91 133t-47 192.5t-15.5 252z" />
<glyph unicode="v" horiz-adv-x="1150" d="M2 936l125 61l399 -780l392 784l157 -77l-500 -930l-67 6z" />
<glyph unicode="w" horiz-adv-x="1679" d="M2 924l160 67l315 -755l328 778l69 2l302 -654l225 648l151 -41l-311 -873l-74 4l-333 682l-332 -770l-86 -12z" />
<glyph unicode="x" horiz-adv-x="1079" d="M-12 934l102 100l379 -395l311 369l103 -90l-326 -373l391 -393l-102 -113l-369 387l-354 -424l-123 98l379 430z" />
<glyph unicode="y" horiz-adv-x="1124" d="M-4 -250l119 57q12 -35 24.5 -57t22.5 -35.5t22.5 -22.5t28.5 -18q29 -18 58 -18l20 2q39 8 73.5 41t66.5 82t56.5 105.5t44 112.5t29.5 101l-561 756l121 74l493 -692l228 747l157 -45l-348 -1014q-53 -127 -105 -206.5t-107.5 -121.5t-115.5 -52q-20 -3 -42 -3 q-43 0 -93 13q-23 4 -49 18t-54 39t-51.5 58.5t-37.5 78.5z" />
<glyph unicode="z" horiz-adv-x="968" d="M16 856l4 127l799 -16l2 -82l-555 -760l588 2l-6 -133l-780 22l-5 82l576 764z" />
<glyph unicode="{" horiz-adv-x="544" d="M-2 666q61 4 90 38.5t37 86t0 113t-19.5 119.5t-20.5 108.5t-3 76.5q4 27 21.5 71t57.5 82t107.5 57.5t173.5 -3.5l4 -131q-68 10 -122 2q-47 -8 -90.5 -36.5t-53.5 -94.5q-12 -66 -2 -129t25.5 -117.5t29 -97.5t7.5 -70q-8 -29 -20.5 -45t-26 -26.5t-24.5 -15.5t-17 -7 q2 -6 8 -10t12 -13.5t11 -29t5 -55.5q0 -25 -9 -66t-16 -87t-6 -92t21.5 -84t66.5 -60.5t128 -20.5l-19 -121q-78 -6 -143 17q-29 8 -55.5 24.5t-48 43t-36 63.5t-16.5 88q2 72 18.5 129t21.5 106t-13 94.5t-84 92.5z" />
<glyph unicode="|" horiz-adv-x="309" d="M76 72l18 1298l92 6v-1315z" />
<glyph unicode="}" horiz-adv-x="565" d="M4 1421q78 18 146 6q57 -10 110 -52t76 -138q8 -74 2 -133.5t-3 -109.5t28.5 -91t99.5 -78q-61 -16 -85 -55t-24 -92t18.5 -113.5t39 -118t37 -105.5t14.5 -75q0 -25 -9.5 -70.5t-43 -90t-97 -76t-174.5 -25.5l-24 133q68 -2 121 17q45 16 82.5 51t39.5 102 q0 68 -19.5 129.5t-44 114.5t-44 94t-17.5 70q4 27 13.5 44t21 29.5t21.5 18.5t16 12q-4 6 -11 9t-13.5 11.5t-13.5 27t-11 55.5q-4 25 -2 66.5t2 88.5t-8 93.5t-35 79t-76 47t-131 -0.5z" />
<glyph unicode="~" horiz-adv-x="655" d="M-2 590q41 55 82 102q35 39 77 74t79 41q37 4 61.5 -24.5t43.5 -63.5t35.5 -63.5t39.5 -24.5q18 0 30.5 37t20.5 82q8 53 14 118l70 -16q-16 -80 -37 -145q-16 -55 -40.5 -102.5t-51.5 -51.5q-41 -6 -59.5 16.5t-32 50t-28.5 52t-48 24.5q-35 4 -68.5 -22.5t-62.5 -59.5 q-33 -37 -62 -86z" />
<glyph unicode="&#xa1;" horiz-adv-x="411" d="M55 1411.06q-4 -42.9766 13.5 -76.458t52.5 -39.4785t63.5 17.4902t32.5 63.4648q8 40.9775 -10.5 73.96q-18.5 32.9814 -52.5 40.9775q-35 7.99512 -62 -15.4922q-27 -23.4863 -37 -64.4639zM86 1149.21l55 -1121.38l180 21.9883l-147 1116.39z" />
<glyph unicode="&#xa2;" horiz-adv-x="612" d="M12 668q-4 59 13.5 104t48 80t71.5 59.5t84 42.5l-16 138l51 8l14 -127q63 18 113 24q25 4 49 4q4 -76 4 -73.5t-2 2.5l-17 1q-17 1 -42 1t-94 -12l41 -306q39 14 58 23.5t50 38.5l31 24l47 -96l-51 -24l-127 -43l26 -183h-86l-12 166q-47 -8 -90 -7t-78 16.5t-57.5 48.5 t-28.5 90zM110 711q0 -82 43.5 -110t102.5 -11l-25 311q-49 -27 -85 -71.5t-36 -118.5z" />
<glyph unicode="&#xa3;" horiz-adv-x="778" d="M0 674l123 12q-12 150 2 245t47 156.5t78 94t94 45.5q113 29 264 -25q-53 -117 -51 -115q-96 39 -157.5 39t-97.5 -25.5t-51 -72.5t-20.5 -103.5t2.5 -228.5l111 13l4 -86l-108 -13l32 -358l408 24l-2 -114h-615l3 78l69 4v55l-8 305l-121 -14z" />
<glyph unicode="&#xa8;" horiz-adv-x="354" d="M14 1464.5q-5 24.5 7 44.5q20 25 46 26t47 -13q20 -16 23 -38t-9 -42q-16 -20 -40 -22.5t-46 7.5q-23 13 -28 37.5zM251 1453.5q-4 21.5 12 41.5q18 16 41 15t33 -9q16 -12 21 -30.5t-7 -36.5q-14 -16 -35.5 -20.5t-42.5 7.5q-18 11 -22 32.5z" />
<glyph unicode="&#xa9;" horiz-adv-x="1228" d="M30 733q8 154 73 249t153 147.5t182 72t160 19.5q72 0 162 -19.5t175 -72t145 -144.5t71 -246q-6 -135 -59.5 -228t-136.5 -150.5t-182 -83t-194 -25.5q-72 0 -172 16.5t-187 69.5t-143.5 147t-46.5 248zM94 696q0 -104 46 -180t119 -122t155.5 -66.5t160.5 -20.5 q76 -4 166 20.5t167 83t125 149.5t44 220q-4 119 -62.5 199t-133 126t-146.5 63.5t-102 17.5q-227 14 -383 -122.5t-156 -367.5zM299 858q37 106 117.5 148.5t162.5 52.5q100 8 213 -15v-79q-109 33 -196 22q-80 -8 -152 -50t-94 -151q-10 -43 -8 -101t42 -106.5t124 -77 t237 -14.5q0 -14 2 -26q0 -10 2 -12.5t2 -8.5v-8q-68 -8 -164 0t-171.5 53t-115.5 132t-1 241z" />
<glyph unicode="&#xac;" horiz-adv-x="727" d="M0 641l584 -6l43 -189l-90 -6l-7 135l-524 -24z" />
<glyph unicode="&#xad;" horiz-adv-x="585" d="M0 766l475 39l-8 -131l-459 16z" />
<glyph unicode="&#xae;" horiz-adv-x="1241" d="M18 711q10 150 74.5 250t155 155t187.5 72.5t165 17.5t163 -19.5t181 -72.5t146.5 -148.5t70.5 -248.5q-4 -137 -60.5 -233.5t-141.5 -155t-185 -85t-195 -26.5q-72 0 -175 18.5t-191 70.5t-146.5 149.5t-48.5 255.5zM82 674q0 -111 48 -187.5t119.5 -123t159.5 -68 t166 -21.5q76 -4 169 19.5t170 83t125 154t44 225.5q-6 121 -65.5 202.5t-136 128t-148.5 69t-100 22.5q-238 8 -394.5 -130t-156.5 -374zM385 1051q6 0 78.5 5t156.5 -7.5t156 -49t65 -116.5q-4 -74 -52 -113t-105 -59q-70 -23 -156 -33l250 -281h-117l-207 271l-6 -277 l-53 6zM448 741q84 -10 152 4q57 10 107.5 39t50.5 99q0 57 -50.5 85.5t-107.5 39.5q-68 12 -152 0v-267z" />
<glyph unicode="&#xb4;" horiz-adv-x="286" d="M6 1305l193 229l82 -94l-244 -180z" />
<glyph unicode="&#xb8;" horiz-adv-x="278" d="M12 -90q55 -8 99 -6q37 2 68.5 13t33.5 46q2 27 -14.5 32t-40 4t-48 -1t-36.5 14q-12 12 -17.5 31.5t-7.5 77.5h109q-10 -16 -19 -31q-6 -12 -7 -26.5t9 -24.5q8 -10 25.5 -12t36 -5.5t36 -11.5t29.5 -30q12 -23 2 -48.5t-40.5 -48t-85 -38t-132.5 -15.5q-2 0 0 80z" />
<glyph unicode="&#xbf;" horiz-adv-x="942" d="M871.001 111.737q-42.9766 -24.9854 -112.438 -46.4736q-69.4609 -21.4883 -152.416 -32.9824q-82.9541 -11.4932 -169.906 -5.99609q-86.9521 5.49609 -164.909 34.9805q-77.958 29.4834 -137.425 86.9521q-59.4678 57.4688 -87.4521 153.416 q-17.9902 71.96 -4.99707 128.929t48.4736 104.442t86.9521 82.9551q51.4717 35.4805 108.44 62.4648q132.927 62.9658 317.825 97.9463l-30.9834 327.82l99.9453 3.99805v-413.773q-161.911 -22.9873 -275.849 -70.9609q-48.9727 -19.9883 -91.9492 -48.9727 t-70.9609 -65.9639t-33.9814 -83.9541q-5.99707 -46.9736 18.9893 -104.942q22.9883 -52.9707 60.4668 -83.4541q37.4795 -30.4834 83.4541 -42.9766q45.9756 -12.4922 97.4473 -10.4941q51.4717 1.99902 100.444 9.99512q116.936 22.9873 246.864 85.9521zM705.092 1352.06 q0 -38.9785 -24.9854 -73.959q-28.9844 -38.9785 -64.4648 -51.4717t-59.4678 12.4932q-24.9863 15.9912 -24.9863 55.9688q0 39.9785 24.9863 72.96q28.9844 36.9805 64.4648 51.4717q35.4805 14.4922 62.4658 -12.4932q21.9873 -15.9912 21.9873 -54.9697z" />
<glyph unicode="&#xc0;" horiz-adv-x="1300" d="M10 39l465 1384l103 4l632 -1355l-159 -64l-539 1221l-168 -555l432 6l35 -88l-485 -2l-195 -590zM295 1630l78 92l190 -225l-28 -43z" />
<glyph unicode="&#xc1;" horiz-adv-x="1300" d="M10 39l465 1384l103 4l632 -1355l-159 -64l-539 1221l-168 -555l432 6l35 -88l-485 -2l-195 -590zM483 1508l193 229l82 -94l-244 -180z" />
<glyph unicode="&#xc2;" horiz-adv-x="1300" d="M10 39l465 1384l103 4l632 -1355l-159 -64l-539 1221l-168 -555l432 6l35 -88l-485 -2l-195 -590zM313 1438l168 305l248 -215l-64 -64l-174 185l-112 -242z" />
<glyph unicode="&#xc3;" horiz-adv-x="1300" d="M10 39l465 1384l103 4l632 -1355l-159 -64l-539 1221l-168 -555l432 6l35 -88l-485 -2l-195 -590zM248 1499q37 45 74 82q33 31 69.5 59.5t69.5 32.5q33 2 55.5 -20.5t40 -51.5t33.5 -52.5t35 -19.5q16 0 27.5 30t17.5 67q8 43 12 98l64 -12q-14 -66 -33 -119 q-16 -45 -37.5 -83t-44.5 -42q-37 -4 -54.5 13.5t-29.5 40t-25.5 43t-42.5 20.5q-33 2 -63.5 -18.5t-54.5 -47.5q-29 -31 -56 -72z" />
<glyph unicode="&#xc4;" horiz-adv-x="1300" d="M10 39l465 1384l103 4l632 -1355l-159 -64l-539 1221l-168 -555l432 6l35 -88l-485 -2l-195 -590zM353 1521.5q-5 24.5 7 44.5q20 25 46 26t47 -13q20 -16 23 -38t-9 -42q-16 -20 -40 -22.5t-46 7.5q-23 13 -28 37.5zM590 1510.5q-4 21.5 12 41.5q18 16 41 15t33 -9 q16 -12 21 -30.5t-7 -36.5q-14 -16 -35.5 -20.5t-42.5 7.5q-18 11 -22 32.5z" />
<glyph unicode="&#xc5;" horiz-adv-x="1300" d="M10 39l465 1384l103 4l632 -1355l-159 -64l-539 1221l-168 -555l432 6l35 -88l-485 -2l-195 -590zM385 1534q0 27 5 43t16.5 29.5t25 23.5t28.5 16.5t29.5 8.5t34.5 2q23 -2 43.5 -9.5t39 -21.5t31.5 -36.5t13 -55.5q0 -27 -7 -45.5t-18 -31.5t-24.5 -21.5t-27 -13.5 t-28.5 -7t-24 -2q-12 0 -25.5 2t-27.5 7t-27.5 14.5t-25.5 22.5t-21.5 31.5t-9.5 43.5zM430 1542q0 -23 7.5 -43t20.5 -34.5t28.5 -19.5t40.5 -5q20 2 29 6t17.5 10t15.5 15.5t12 21.5t7 26q2 33 -7 52.5t-21.5 31t-24.5 16.5t-39 5q-16 0 -32.5 -6t-27.5 -16.5t-17.5 -23.5 t-8.5 -36z" />
<glyph unicode="&#xc6;" horiz-adv-x="1363" d="M8 4l473 1409l131 2l11 -1415h-129v1147l-142 -404l359 29l12 -127l-401 4l-222 -651zM506 0v1413l751 21v-181l-651 2l6 -483l492 37l4 -154l-485 -12l14 -539l588 37l2 -137z" />
<glyph unicode="&#xc7;" horiz-adv-x="1267" d="M31 588q-6 46 -7 97q0 131 42 296q39 119 108.5 199t155.5 131t183 76.5t194 35.5q68 7 139 7q163 0 344 -35v-181q-184 41 -346 42q-54 0 -105 -5q-88 -8 -176 -32.5t-163.5 -74.5t-134 -130t-85.5 -199q-14 -68 -17 -149q0 -9 -1 -19q0 -72 21 -145q24 -82 80 -156 t160.5 -127t262.5 -77q84 -13 188 -12q90 0 195 9l12 -57q4 -23 7.5 -41t1.5 -21q-87 -10 -190 -9h-52q-133 3 -266 34t-253 94.5t-197.5 174t-100.5 274.5zM594 -149q55 -8 99 -6q37 2 68.5 13t33.5 46q2 27 -14.5 32t-40 4t-48 -1t-36.5 14q-12 12 -17.5 31.5t-7.5 77.5 h109q-10 -16 -19 -31q-6 -12 -7 -26.5t9 -24.5q8 -10 25.5 -12t36 -5.5t36 -11.5t29.5 -30q12 -23 2 -48.5t-40.5 -48t-85 -38t-132.5 -15.5q-2 0 0 80z" />
<glyph unicode="&#xc8;" horiz-adv-x="985" d="M41 0v1413l842 19v-179l-723 7l6 -490l594 35l2 -154l-588 -10l6 -535l668 31l4 -137h-811zM291 1637l78 92l190 -225l-28 -43z" />
<glyph unicode="&#xc9;" horiz-adv-x="980" d="M41 0v1413l842 19v-179l-723 7l6 -490l594 35l2 -154l-588 -10l6 -535l668 31l4 -137h-811zM377 1508l193 229l82 -94l-244 -180z" />
<glyph unicode="&#xca;" horiz-adv-x="987" d="M41 0v1413l842 19v-179l-723 7l6 -490l594 35l2 -154l-588 -10l6 -535l668 31l4 -137h-811zM248 1485l168 305l248 -215l-64 -64l-174 185l-112 -242z" />
<glyph unicode="&#xcb;" horiz-adv-x="985" d="M43 0v1413l842 19v-179l-723 7l6 -490l594 35l2 -154l-588 -10l6 -535l668 31l4 -137h-811zM306 1523.5q-5 24.5 7 44.5q20 25 46 26t47 -13q20 -16 23 -38t-9 -42q-16 -20 -40 -22.5t-46 7.5q-23 13 -28 37.5zM543 1512.5q-4 21.5 12 41.5q18 16 41 15t33 -9 q16 -12 21 -30.5t-7 -36.5q-14 -16 -35.5 -20.5t-42.5 7.5q-18 11 -22 32.5z" />
<glyph unicode="&#xcc;" horiz-adv-x="446" d="M129 2l43 1432l165 -2l-75 -1432zM18 1653l78 92l190 -225l-28 -43z" />
<glyph unicode="&#xcd;" horiz-adv-x="448" d="M109 2l43 1432l165 -2l-75 -1432zM112 1524l193 229l82 -94l-244 -180z" />
<glyph unicode="&#xce;" horiz-adv-x="448" d="M121 2l43 1432l165 -2l-75 -1432zM16 1462.94l151.439 275.252l223.555 -194.03l-57.6914 -57.7578l-156.849 166.956l-100.96 -218.396z" />
<glyph unicode="&#xcf;" horiz-adv-x="448" d="M128 2l43 1432l165 -2l-75 -1432zM41 1523.5q-5 24.5 7 44.5q20 25 46 26t47 -13q20 -16 23 -38t-9 -42q-16 -20 -40 -22.5t-46 7.5q-23 13 -28 37.5zM278 1512.5q-4 21.5 12 41.5q18 16 41 15t33 -9q16 -12 21 -30.5t-7 -36.5q-14 -16 -35.5 -20.5t-42.5 7.5 q-18 11 -22 32.5z" />
<glyph unicode="&#xd0;" horiz-adv-x="1689" d="M0 709l160 6l-2 686q408 35 731 -27q137 -27 269 -77t235.5 -133t167 -203.5t65.5 -288.5q-8 -158 -74.5 -268.5t-171 -185.5t-236.5 -119t-267 -64q-319 -51 -719 -12v559h-152zM287 133q322 -20 579 25q109 18 214.5 54t190.5 94.5t138 144.5t57 204q4 127 -43 219.5 t-128 156t-186 102t-216 59.5q-260 49 -592 27l-6 -498l272 12l-8 -149l-266 -2z" />
<glyph unicode="&#xd1;" horiz-adv-x="1519" d="M41 0v1434h92l1155 -1198l-12 1185l147 -6l-6 -1395l-117 -2l-1138 1153l16 -1171h-137zM408 1473q37 45 74 82q33 31 69.5 59.5t69.5 32.5q33 2 55.5 -20.5t40 -51.5t33.5 -52.5t35 -19.5q16 0 27.5 30t17.5 67q8 43 12 98l64 -12q-14 -66 -33 -119q-16 -45 -37.5 -83 t-44.5 -42q-37 -4 -54.5 13.5t-29.5 40t-25.5 43t-42.5 20.5q-33 2 -63.5 -18.5t-54.5 -47.5q-29 -31 -56 -72z" />
<glyph unicode="&#xd2;" horiz-adv-x="1740" d="M16 715q10 152 59.5 265.5t123 195t156.5 134t172 85t172 44.5q70 10 130 9h21q66 0 146.5 -11.5t167.5 -41t166 -79.5t150.5 -130t118 -196t48.5 -269q-6 -211 -86 -350.5t-200 -226.5t-264.5 -124.5t-277.5 -37.5q-72 0 -162 10t-182 43t-175 90t-150.5 138t-104.5 184 q-30 85 -30 210q0 28 1 58zM205 633q4 -143 61.5 -247.5t134 -170t187 -98.5t223.5 -37h12q109 0 225 34q122 36 210 112.5t154 215.5q61 127 61 310v34q-10 119 -51.5 213.5t-85.5 150.5t-108.5 98t-126 66.5t-194.5 39.5q-19 1 -38 1q-115 0 -227 -32 q-130 -37 -233.5 -137.5t-155.5 -248.5q-48 -138 -48 -282v-22zM600 1661l78 92l190 -225l-28 -43z" />
<glyph unicode="&#xd3;" horiz-adv-x="1740" d="M16 715q10 152 59.5 265.5t123 195t156.5 134t172 85t172 44.5q70 10 130 9h21q66 0 146.5 -11.5t167.5 -41t166 -79.5t150.5 -130t118 -196t48.5 -269q-6 -211 -86 -350.5t-200 -226.5t-264.5 -124.5t-277.5 -37.5q-72 0 -162 10t-182 43t-175 90t-150.5 138t-104.5 184 q-30 85 -30 210q0 28 1 58zM205 633q4 -143 61.5 -247.5t134 -170t187 -98.5t223.5 -37h12q109 0 225 34q122 36 210 112.5t154 215.5q61 127 61 310v34q-10 119 -51.5 213.5t-85.5 150.5t-108.5 98t-126 66.5t-194.5 39.5q-19 1 -38 1q-115 0 -227 -32 q-130 -37 -233.5 -137.5t-155.5 -248.5q-48 -138 -48 -282v-22zM717 1532l193 229l82 -94l-244 -180z" />
<glyph unicode="&#xd4;" horiz-adv-x="1740" d="M16 715q10 152 59.5 265.5t123 195t156.5 134t172 85t172 44.5q70 10 130 9h21q66 0 146.5 -11.5t167.5 -41t166 -79.5t150.5 -130t118 -196t48.5 -269q-6 -211 -86 -350.5t-200 -226.5t-264.5 -124.5t-277.5 -37.5q-72 0 -162 10t-182 43t-175 90t-150.5 138t-104.5 184 q-30 85 -30 210q0 28 1 58zM205 633q4 -143 61.5 -247.5t134 -170t187 -98.5t223.5 -37h12q109 0 225 34q122 36 210 112.5t154 215.5q61 127 61 310v34q-10 119 -51.5 213.5t-85.5 150.5t-108.5 98t-126 66.5t-194.5 39.5q-19 1 -38 1q-115 0 -227 -32 q-130 -37 -233.5 -137.5t-155.5 -248.5q-48 -138 -48 -282v-22zM565 1499l168 305l248 -215l-64 -64l-174 185l-112 -242z" />
<glyph unicode="&#xd5;" horiz-adv-x="1740" d="M16 715q10 152 59.5 265.5t123 195t156.5 134t172 85t172 44.5q70 10 130 9h21q66 0 146.5 -11.5t167.5 -41t166 -79.5t150.5 -130t118 -196t48.5 -269q-6 -211 -86 -350.5t-200 -226.5t-264.5 -124.5t-277.5 -37.5q-72 0 -162 10t-182 43t-175 90t-150.5 138t-104.5 184 q-30 85 -30 210q0 28 1 58zM205 633q4 -143 61.5 -247.5t134 -170t187 -98.5t223.5 -37h12q109 0 225 34q122 36 210 112.5t154 215.5q61 127 61 310v34q-10 119 -51.5 213.5t-85.5 150.5t-108.5 98t-126 66.5t-194.5 39.5q-19 1 -38 1q-115 0 -227 -32 q-130 -37 -233.5 -137.5t-155.5 -248.5q-48 -138 -48 -282v-22zM528 1532q37 45 74 82q33 31 69.5 59.5t69.5 32.5q33 2 55.5 -20.5t40 -51.5t33.5 -52.5t35 -19.5q16 0 27.5 30t17.5 67q8 43 12 98l64 -12q-14 -66 -33 -119q-16 -45 -37.5 -83t-44.5 -42q-37 -4 -54.5 13.5 t-29.5 40t-25.5 43t-42.5 20.5q-33 2 -63.5 -18.5t-54.5 -47.5q-29 -31 -56 -72z" />
<glyph unicode="&#xd6;" horiz-adv-x="1740" d="M16 715q10 152 59.5 265.5t123 195t156.5 134t172 85t172 44.5q70 10 130 9h21q66 0 146.5 -11.5t167.5 -41t166 -79.5t150.5 -130t118 -196t48.5 -269q-6 -211 -86 -350.5t-200 -226.5t-264.5 -124.5t-277.5 -37.5q-72 0 -162 10t-182 43t-175 90t-150.5 138t-104.5 184 q-30 85 -30 210q0 28 1 58zM205 633q4 -143 61.5 -247.5t134 -170t187 -98.5t223.5 -37h12q109 0 225 34q122 36 210 112.5t154 215.5q61 127 61 310v34q-10 119 -51.5 213.5t-85.5 150.5t-108.5 98t-126 66.5t-194.5 39.5q-19 1 -38 1q-115 0 -227 -32 q-130 -37 -233.5 -137.5t-155.5 -248.5q-48 -138 -48 -282v-22zM605 1550.5q-5 24.5 7 44.5q20 25 46 26t47 -13q20 -16 23 -38t-9 -42q-16 -20 -40 -22.5t-46 7.5q-23 13 -28 37.5zM842 1539.5q-4 21.5 12 41.5q18 16 41 15t33 -9q16 -12 21 -30.5t-7 -36.5 q-14 -16 -35.5 -20.5t-42.5 7.5q-18 11 -22 32.5z" />
<glyph unicode="&#xd7;" horiz-adv-x="817" d="M0 930l117 2l219 -205l168 184l102 -4l-217 -235l338 -307l-100 -3l-273 261l-219 -250h-121l281 303z" />
<glyph unicode="&#xd8;" horiz-adv-x="1742" d="M20 715q8 147 56.5 257.5t119 190.5t158.5 132.5t178 83t175 43t153 12.5q76 -2 173 -16.5t198 -55.5l65 84l107 -100l-43 -52q61 -39 114.5 -91t94.5 -122.5t66.5 -160t31.5 -199.5q-4 -199 -85 -335t-203 -221t-268.5 -122t-281.5 -37q-98 0 -223 18.5t-244 75.5 l-55 -65l-66 51l43 55q-61 39 -113 91.5t-88 123t-53.5 159.5t-9.5 200zM184 645q4 -133 53.5 -231.5t128.5 -165.5l801 1032q-78 35 -145.5 48t-104.5 13q-135 6 -268 -48t-237.5 -151.5t-168 -226.5t-59.5 -270zM440 195q86 -53 183.5 -79t197.5 -30q115 -4 236.5 33 t221 122t161 219t53.5 324q-6 156 -65.5 257.5t-141.5 164.5z" />
<glyph unicode="&#xd9;" horiz-adv-x="1490" d="M43 1432l143 2q-5 -129 -5 -249q0 -222 18 -413q14 -125 43.5 -243.5t79 -213t121 -150.5t173.5 -59h14q183 0 297 56q118 57 176 205.5t66 405.5q2 60 2 129q0 222 -20 525l207 5q2 -184 2 -327q0 -308 -9 -417q-13 -160 -52 -287t-120 -216t-215 -137 q-129 -46 -323 -46h-16h-9q-154 0 -255 68q-103 70 -167.5 184.5t-94 264t-41 309.5t-15.5 604zM489 1610l78 92l190 -225l-28 -43z" />
<glyph unicode="&#xda;" horiz-adv-x="1484" d="M43 1432l143 2q-5 -129 -5 -249q0 -222 18 -413q14 -125 43.5 -243.5t79 -213t121 -150.5t173.5 -59h14q183 0 297 56q118 57 176 205.5t66 405.5q2 60 2 129q0 222 -20 525l207 5q2 -184 2 -327q0 -308 -9 -417q-13 -160 -52 -287t-120 -216t-215 -137 q-129 -46 -323 -46h-16h-9q-154 0 -255 68q-103 70 -167.5 184.5t-94 264t-41 309.5t-15.5 604zM588 1479l193 229l82 -94l-244 -180z" />
<glyph unicode="&#xdb;" horiz-adv-x="1433" d="M43 1432l143 2q-5 -129 -5 -249q0 -222 18 -413q14 -125 43.5 -243.5t79 -213t121 -150.5t173.5 -59h14q183 0 297 56q118 57 176 205.5t66 405.5q2 60 2 129q0 222 -20 525l207 5q2 -184 2 -327q0 -308 -9 -417q-13 -160 -52 -287t-120 -216t-215 -137 q-129 -46 -323 -46h-16h-9q-154 0 -255 68q-103 70 -167.5 184.5t-94 264t-41 309.5t-15.5 604zM449 1460l168 305l248 -215l-64 -64l-174 185l-112 -242z" />
<glyph unicode="&#xdc;" horiz-adv-x="1484" d="M43 1432l143 2q-5 -129 -5 -249q0 -222 18 -413q14 -125 43.5 -243.5t79 -213t121 -150.5t173.5 -59h14q183 0 297 56q118 57 176 205.5t66 405.5q2 60 2 129q0 222 -20 525l207 5q2 -184 2 -327q0 -308 -9 -417q-13 -160 -52 -287t-120 -216t-215 -137 q-129 -46 -323 -46h-16h-9q-154 0 -255 68q-103 70 -167.5 184.5t-94 264t-41 309.5t-15.5 604zM517 1464.5q-5 24.5 7 44.5q20 25 46 26t47 -13q20 -16 23 -38t-9 -42q-16 -20 -40 -22.5t-46 7.5q-23 13 -28 37.5zM754 1453.5q-4 21.5 12 41.5q18 16 41 15t33 -9 q16 -12 21 -30.5t-7 -36.5q-14 -16 -35.5 -20.5t-42.5 7.5q-18 11 -22 32.5z" />
<glyph unicode="&#xdd;" horiz-adv-x="1265" d="M55 1339l97 70l419 -510l428 537l134 -107l-463 -538l55 -785l-178 -6l-25 795zM581 1477l193 229l82 -94l-244 -180z" />
<glyph unicode="&#xde;" horiz-adv-x="962" d="M0 1436h178l10 -355q59 4 131 4t145 -10t142.5 -34.5t125.5 -67.5t91 -107.5t41 -156.5q2 -90 -30.5 -157t-86 -114t-122 -76.5t-141 -47t-143.5 -24.5t-128 -9l8 -281h-135zM190 985l23 -637q37 0 90 5t109.5 18.5t113 36t100.5 60.5t70.5 91t24.5 127q-2 80 -32 134 t-77 88t-104 52.5t-115.5 24.5t-112 5t-90.5 -5z" />
<glyph unicode="&#xdf;" horiz-adv-x="950" d="M0 -6v1102q0 70 12.5 136t58.5 116.5t148.5 72t175.5 9.5q92 -12 150.5 -49.5t93.5 -82.5t47 -82.5t16 -87.5q2 -92 -33.5 -147t-76.5 -82t-96 -41q53 -6 92 -20.5t82 -37t82 -67.5t68.5 -116.5t33.5 -184.5q-4 -143 -54 -233t-129 -136.5t-171 -48.5t-156 45 q-43 33 -72.5 89.5t-25.5 117.5q-2 2 151 -2q-2 -45 21 -84q31 -49 96 -41q78 0 116 73t40 214q0 76 -13.5 132t-41 106.5t-93.5 91.5q-72 31 -186 24v140q37 2 88 10q55 16 72.5 31.5t33 39t24.5 54t7 86.5q-4 66 -40 117t-101.5 67t-124.5 4t-96 -50t-37 -116l51 -1157z " />
<glyph unicode="&#xe0;" horiz-adv-x="1196" d="M167 524q10 109 60 192t127 138t176.5 84t209.5 29q100 0 193.5 -36t150.5 -102l4 103h170l-12 -924l-174 2l6 146q-76 -70 -175 -105t-212 -37h-12q-112 0 -207 36q-100 38 -172 106.5t-108 162.5q-28 73 -27 157q0 23 2 48zM329 514q-1 -12 -1 -25q0 -31 4 -64 q5 -46 21.5 -90t41 -84t62.5 -70.5t88 -50t115 -21.5q12 0 24 -1q96 0 167 30q80 34 130 89.5t67.5 124t19.5 133.5v19q0 60 -11 119q-13 68 -58.5 121t-116 86.5t-164.5 35.5h-11q-53 0 -113 -17q-67 -19 -124 -62.5t-97 -110t-44 -162.5zM396 1227l78 92l190 -225l-28 -43 z" />
<glyph unicode="&#xe1;" horiz-adv-x="1196" d="M167 524q10 109 60 192t127 138t176.5 84t209.5 29q100 0 193.5 -36t150.5 -102l4 103h170l-12 -924l-174 2l6 146q-76 -70 -175 -105t-212 -37h-12q-112 0 -207 36q-100 38 -172 106.5t-108 162.5q-28 73 -27 157q0 23 2 48zM329 514q-1 -12 -1 -25q0 -31 4 -64 q5 -46 21.5 -90t41 -84t62.5 -70.5t88 -50t115 -21.5q12 0 24 -1q96 0 167 30q80 34 130 89.5t67.5 124t19.5 133.5v19q0 60 -11 119q-13 68 -58.5 121t-116 86.5t-164.5 35.5h-11q-53 0 -113 -17q-67 -19 -124 -62.5t-97 -110t-44 -162.5zM490 1074l193 229l82 -94 l-244 -180z" />
<glyph unicode="&#xe2;" horiz-adv-x="1196" d="M167 524q10 109 60 192t127 138t176.5 84t209.5 29q100 0 193.5 -36t150.5 -102l4 103h170l-12 -924l-174 2l6 146q-76 -70 -175 -105t-212 -37h-12q-112 0 -207 36q-100 38 -172 106.5t-108 162.5q-28 73 -27 157q0 23 2 48zM329 514q-1 -12 -1 -25q0 -31 4 -64 q5 -46 21.5 -90t41 -84t62.5 -70.5t88 -50t115 -21.5q12 0 24 -1q96 0 167 30q80 34 130 89.5t67.5 124t19.5 133.5v19q0 60 -11 119q-13 68 -58.5 121t-116 86.5t-164.5 35.5h-11q-53 0 -113 -17q-67 -19 -124 -62.5t-97 -110t-44 -162.5zM327 1045l168 305l248 -215 l-64 -64l-174 185l-112 -242z" />
<glyph unicode="&#xe3;" horiz-adv-x="1196" d="M167 524q10 109 60 192t127 138t176.5 84t209.5 29q100 0 193.5 -36t150.5 -102l4 103h170l-12 -924l-174 2l6 146q-76 -70 -175 -105t-212 -37h-12q-112 0 -207 36q-100 38 -172 106.5t-108 162.5q-28 73 -27 157q0 23 2 48zM329 514q-1 -12 -1 -25q0 -31 4 -64 q5 -46 21.5 -90t41 -84t62.5 -70.5t88 -50t115 -21.5q12 0 24 -1q96 0 167 30q80 34 130 89.5t67.5 124t19.5 133.5v19q0 60 -11 119q-13 68 -58.5 121t-116 86.5t-164.5 35.5h-11q-53 0 -113 -17q-67 -19 -124 -62.5t-97 -110t-44 -162.5zM327 1090q37 45 74 82 q33 31 69.5 59.5t69.5 32.5q33 2 55.5 -20.5t40 -51.5t33.5 -52.5t35 -19.5q16 0 27.5 30t17.5 67q8 43 12 98l64 -12q-14 -66 -33 -119q-16 -45 -37.5 -83t-44.5 -42q-37 -4 -54.5 13.5t-29.5 40t-25.5 43t-42.5 20.5q-33 2 -63.5 -18.5t-54.5 -47.5q-29 -31 -56 -72z" />
<glyph unicode="&#xe4;" horiz-adv-x="1196" d="M167 524q10 109 60 192t127 138t176.5 84t209.5 29q100 0 193.5 -36t150.5 -102l4 103h170l-12 -924l-174 2l6 146q-76 -70 -175 -105t-212 -37h-12q-112 0 -207 36q-100 38 -172 106.5t-108 162.5q-28 73 -27 157q0 23 2 48zM329 514q-1 -12 -1 -25q0 -31 4 -64 q5 -46 21.5 -90t41 -84t62.5 -70.5t88 -50t115 -21.5q12 0 24 -1q96 0 167 30q80 34 130 89.5t67.5 124t19.5 133.5v19q0 60 -11 119q-13 68 -58.5 121t-116 86.5t-164.5 35.5h-11q-53 0 -113 -17q-67 -19 -124 -62.5t-97 -110t-44 -162.5zM379 1093.5q-5 24.5 7 44.5 q20 25 46 26t47 -13q20 -16 23 -38t-9 -42q-16 -20 -40 -22.5t-46 7.5q-23 13 -28 37.5zM616 1082.5q-4 21.5 12 41.5q18 16 41 15t33 -9q16 -12 21 -30.5t-7 -36.5q-14 -16 -35.5 -20.5t-42.5 7.5q-18 11 -22 32.5z" />
<glyph unicode="&#xe5;" horiz-adv-x="1196" d="M167 524q10 109 60 192t127 138t176.5 84t209.5 29q100 0 193.5 -36t150.5 -102l4 103h170l-12 -924l-174 2l6 146q-76 -70 -175 -105t-212 -37h-12q-112 0 -207 36q-100 38 -172 106.5t-108 162.5q-28 73 -27 157q0 23 2 48zM329 514q-1 -12 -1 -25q0 -31 4 -64 q5 -46 21.5 -90t41 -84t62.5 -70.5t88 -50t115 -21.5q12 0 24 -1q96 0 167 30q80 34 130 89.5t67.5 124t19.5 133.5v19q0 60 -11 119q-13 68 -58.5 121t-116 86.5t-164.5 35.5h-11q-53 0 -113 -17q-67 -19 -124 -62.5t-97 -110t-44 -162.5zM435 1157q0 27 5 43t16.5 29.5 t25 23.5t28.5 16.5t29.5 8.5t34.5 2q23 -2 43.5 -9.5t39 -21.5t31.5 -36.5t13 -55.5q0 -27 -7 -45.5t-18 -31.5t-24.5 -21.5t-27 -13.5t-28.5 -7t-24 -2q-12 0 -25.5 2t-27.5 7t-27.5 14.5t-25.5 22.5t-21.5 31.5t-9.5 43.5zM480 1165q0 -23 7.5 -43t20.5 -34.5t28.5 -19.5 t40.5 -5q20 2 29 6t17.5 10t15.5 15.5t12 21.5t7 26q2 33 -7 52.5t-21.5 31t-24.5 16.5t-39 5q-16 0 -32.5 -6t-27.5 -16.5t-17.5 -23.5t-8.5 -36z" />
<glyph unicode="&#xe6;" horiz-adv-x="2082" d="M24 524q10 109 60.5 192t127.5 138t176 84t210 29q100 0 193 -36t163 -102l4 103h142l-13 -924l-157 2l6 146q-76 -70 -175.5 -105t-211.5 -37q-119 -2 -219.5 36t-172 106.5t-107.5 162.5t-26 205zM186 514q-2 -43 3 -89t21.5 -90t41 -84t62.5 -70.5t88 -50t116 -21.5 q111 -4 190.5 29.5t130 89t75 124t26.5 133.5q2 70 -18.5 137.5t-65.5 121t-116 87t-165 35.5q-57 2 -123.5 -17.5t-124 -62.5t-97.5 -109.5t-44 -162.5zM951 583q13 79 49 144.5t90.5 114.5t118 81.5t134 48t137.5 13.5q123 -4 219.5 -44t161 -110.5t96 -167t27.5 -210.5 q12 -2 -20.5 -3t-92.5 -1h-143h-168h-171h-152h-111q-43 0 -45 -3q8 -59 37 -107t67.5 -84t85 -60.5t89.5 -32.5q27 -8 66.5 -11.5t92 0t117 16.5t139.5 44l33 -158q-59 -29 -133 -42t-147.5 -14t-140 8t-111.5 32q-53 23 -104.5 54.5t-95.5 76.5t-77 103.5t-45 136.5 q-16 96 -3 175zM1087 569l717 -22q-6 74 -33.5 129t-69.5 95t-97.5 63.5t-114.5 33.5q-74 10 -145.5 -7t-127 -58t-91.5 -101.5t-38 -132.5z" />
<glyph unicode="&#xe7;" horiz-adv-x="1028" d="M30 408q-7 35 -7 75q0 93 38 209q39 86 89.5 144.5t113 95.5t132 54.5t139.5 25.5q37 2 72 2q173 0 319 -58l-2 -168q-157 67 -324 67q-22 0 -45 -1q-59 -6 -116.5 -22.5t-107.5 -48t-97.5 -86t-65.5 -132.5q-10 -50 -10 -85q0 -15 2 -27q6 -41 21.5 -95.5t69.5 -114 t130 -100.5t177 -42h4q100 0 255 51q6 -125 6 -129q-80 -31 -181 -37l-46 -2q-77 0 -151 16q-95 20 -183 68.5t-148 134.5t-84 205zM379 -166q55 -8 99 -6q37 2 68.5 13t33.5 46q2 27 -14.5 32t-40 4t-48 -1t-36.5 14q-12 12 -17.5 31.5t-7.5 77.5h109q-10 -16 -19 -31 q-6 -12 -7 -26.5t9 -24.5q8 -10 25.5 -12t36 -5.5t36 -11.5t29.5 -30q12 -23 2 -48.5t-40.5 -48t-85 -38t-132.5 -15.5q-2 0 0 80z" />
<glyph unicode="&#xe8;" horiz-adv-x="1130" d="M76 588q14 82 51 149.5t92 118.5t122 85t139.5 49.5t142.5 15.5q127 -4 226 -46t165.5 -115t99.5 -172q29 -88 29 -194v-26l3 -1q0 -1 -25 -1h-96h-146h-174h-178h-156h-114q-44 0 -48 -2q10 -61 38.5 -111.5t68.5 -87.5t88.5 -62.5t93.5 -35.5q29 -6 68 -10 q20 -2 43.5 -1.5t50.5 1.5q54 3 121 17.5t147 45.5l30 -164q-59 -29 -134.5 -43t-152.5 -15q-7 0 -14 -1q-69 0 -132 10q-69 10 -113 33q-55 25 -108.5 56.5t-98.5 77.5t-79 107.5t-48 141.5q-9 52 -9 100q0 42 7 80zM217 575l750 -24q-16 76 -40 133t-73 98t-105.5 66.5 t-117.5 34.5q-30 5 -61 5q-45 0 -89 -11q-74 -18 -132 -60.5t-94 -105t-38 -136.5zM373 1174l78 92l190 -225l-28 -43z" />
<glyph unicode="&#xe9;" horiz-adv-x="1134" d="M76 590q14 82 51 149.5t92 118.5t122 85t139.5 49.5t142.5 15.5q127 -4 226 -46t165.5 -115t99.5 -172q29 -88 29 -194v-26l3 -1q0 -1 -25 -1h-96h-146h-174h-178h-156h-114q-44 0 -48 -2q10 -61 38.5 -111.5t68.5 -87.5t88.5 -62.5t93.5 -35.5q29 -6 68 -10 q20 -2 43.5 -1.5t50.5 1.5q54 3 121 17.5t147 45.5l30 -164q-59 -29 -134.5 -43t-152.5 -15q-7 0 -14 -1q-69 0 -132 10q-69 10 -113 33q-55 25 -108.5 56.5t-98.5 77.5t-79 107.5t-48 141.5q-9 52 -9 100q0 42 7 80zM217 577l750 -24q-16 76 -40 133t-73 98t-105.5 66.5 t-117.5 34.5q-30 5 -61 5q-45 0 -89 -11q-74 -18 -132 -60.5t-94 -105t-38 -136.5zM475 1057l193 229l82 -94l-244 -180z" />
<glyph unicode="&#xea;" horiz-adv-x="1130" d="M76 590q14 82 51 149.5t92 118.5t122 85t139.5 49.5t142.5 15.5q127 -4 226 -46t165.5 -115t99.5 -172q29 -88 29 -194v-26l3 -1q0 -1 -25 -1h-96h-146h-174h-178h-156h-114q-44 0 -48 -2q10 -61 38.5 -111.5t68.5 -87.5t88.5 -62.5t93.5 -35.5q29 -6 68 -10 q20 -2 43.5 -1.5t50.5 1.5q54 3 121 17.5t147 45.5l30 -164q-59 -29 -134.5 -43t-152.5 -15q-7 0 -14 -1q-69 0 -132 10q-69 10 -113 33q-55 25 -108.5 56.5t-98.5 77.5t-79 107.5t-48 141.5q-9 52 -9 100q0 42 7 80zM217 577l750 -24q-16 76 -40 133t-73 98t-105.5 66.5 t-117.5 34.5q-30 5 -61 5q-45 0 -89 -11q-74 -18 -132 -60.5t-94 -105t-38 -136.5zM299 1024l168 305l248 -215l-64 -64l-174 185l-112 -242z" />
<glyph unicode="&#xeb;" horiz-adv-x="1130" d="M76 590q14 82 51 149.5t92 118.5t122 85t139.5 49.5t142.5 15.5q127 -4 226 -46t165.5 -115t99.5 -172q29 -88 29 -194v-26l3 -1q0 -1 -25 -1h-96h-146h-174h-178h-156h-114q-44 0 -48 -2q10 -61 38.5 -111.5t68.5 -87.5t88.5 -62.5t93.5 -35.5q29 -6 68 -10 q20 -2 43.5 -1.5t50.5 1.5q54 3 121 17.5t147 45.5l30 -164q-59 -29 -134.5 -43t-152.5 -15q-7 0 -14 -1q-69 0 -132 10q-69 10 -113 33q-55 25 -108.5 56.5t-98.5 77.5t-79 107.5t-48 141.5q-9 52 -9 100q0 42 7 80zM217 577l750 -24q-16 76 -40 133t-73 98t-105.5 66.5 t-117.5 34.5q-30 5 -61 5q-45 0 -89 -11q-74 -18 -132 -60.5t-94 -105t-38 -136.5zM312 1063.5q-5 24.5 7 44.5q20 25 46 26t47 -13q20 -16 23 -38t-9 -42q-16 -20 -40 -22.5t-46 7.5q-23 13 -28 37.5zM549 1052.5q-4 21.5 12 41.5q18 16 41 15t33 -9q16 -12 21 -30.5 t-7 -36.5q-14 -16 -35.5 -20.5t-42.5 7.5q-18 11 -22 32.5z" />
<glyph unicode="&#xec;" horiz-adv-x="448" d="M6 1149l72 84l174 -209l-27 -39zM80 2l158 -2l14 922h-143z" />
<glyph unicode="&#xed;" horiz-adv-x="446" d="M63 2l158 -2l15 922h-144zM98 1008l193 229l82 -94l-244 -180z" />
<glyph unicode="&#xee;" horiz-adv-x="448" d="M43 1038l115 205l168 -145l-43 -43l-119 125l-76 -162zM74 2l157 -2l15 922h-146z" />
<glyph unicode="&#xef;" horiz-adv-x="448" d="M55 1062.5q-4 20.5 6 37.5q18 20 40 21t36 -11q18 -14 20.5 -31.5t-8.5 -34.5q-14 -18 -32.5 -19t-36.5 7q-21 10 -25 30.5zM82 2l158 -2l14 922h-144zM253 1053.5q-3 17.5 9 33.5q14 14 32.5 13.5t28.5 -6.5q14 -10 18.5 -25.5t-5.5 -30.5q-12 -14 -29.5 -17t-36.5 5 q-14 10 -17 27.5z" />
<glyph unicode="&#xf0;" d="M12 479q8 113 59.5 204t131 155.5t185 98.5t226.5 34q78 -2 155 -22.5t144 -59.5q-20 35 -35.5 65.5t-37 63.5t-54.5 71.5t-86 90.5l-104 -101l-80 78l113 107q-27 29 -62 56.5t-70 55.5l91 86q31 -29 68.5 -59.5t64.5 -59.5l84 80l82 -71l-91 -84q100 -96 168 -189.5 t108 -187.5t55.5 -190.5t10.5 -196.5q-4 -125 -51 -222.5t-123.5 -163t-176 -99t-206.5 -35.5q-123 -2 -230 33.5t-185 102t-120 158.5t-34 201zM180 473q-4 -68 15.5 -135.5t63.5 -122.5t113.5 -92t167.5 -39q113 -4 195 27.5t135 86t81 123t30 138.5q4 72 -19.5 138.5 t-71.5 119.5t-120 87t-168 38q-70 4 -141.5 -16.5t-133 -65.5t-102.5 -116t-45 -171z" />
<glyph unicode="&#xf1;" horiz-adv-x="1130" d="M228 942l149 2l4 -104q66 57 138.5 92t154.5 53q99 24 179 24q24 0 47 -2q96 -9 168.5 -60.5t117.5 -135.5t58.5 -198.5t19.5 -259t6 -316.5h-231q0 49 2 113.5t4 136.5q1 48 1 97v49q-1 75 -12.5 144.5t-32 130t-52 104.5t-81.5 67q-39 18 -96 17q-15 0 -32 -1 q-68 -6 -128.5 -36t-107.5 -82t-75.5 -129t-30.5 -175l8 -330l8 -141l-160 -2zM217 1119q37 45 74 82q33 31 69.5 59.5t69.5 32.5q33 2 55.5 -20.5t40 -51.5t33.5 -52.5t35 -19.5q16 0 27.5 30t17.5 67q8 43 12 98l64 -12q-14 -66 -33 -119q-16 -45 -37.5 -83t-44.5 -42 q-37 -4 -54.5 13.5t-29.5 40t-25.5 43t-42.5 20.5q-33 2 -63.5 -18.5t-54.5 -47.5q-29 -31 -56 -72z" />
<glyph unicode="&#xf2;" d="M164 498q12 113 62.5 201.5t130.5 149t184 96.5q99 34 192 34h11q80 0 179 -37t175 -101.5t121 -152.5q40 -77 40 -169q0 -13 -1 -25q-6 -125 -54.5 -222.5t-128 -163t-178 -101.5t-184.5 -36h-10q-98 0 -201 38q-109 40 -187.5 109.5t-119.5 168.5q-33 79 -33 166 q0 22 2 45zM332 492q-1 -12 -1 -24q0 -57 16 -117q19 -73 63.5 -134t114 -102t168.5 -45q6 0 12 -1q49 0 93 15q50 16 99 46t85 71t58.5 87t31 94t10.5 95q1 12 0 24q0 59 -17 116q-20 69 -66 123.5t-119 90t-147 37.5q-8 1 -16 1q-44 0 -104 -18q-72 -22 -133.5 -68 t-103.5 -118.5t-44 -172.5zM365 1219l78 92l190 -225l-28 -43z" />
<glyph unicode="&#xf3;" d="M164 498q12 113 62.5 201.5t130.5 149t184 96.5q99 34 192 34h11q80 0 179 -37t175 -101.5t121 -152.5q40 -77 40 -169q0 -13 -1 -25q-6 -125 -54.5 -222.5t-128 -163t-178 -101.5t-184.5 -36h-10q-98 0 -201 38q-109 40 -187.5 109.5t-119.5 168.5q-33 79 -33 166 q0 22 2 45zM332 492q-1 -12 -1 -24q0 -57 16 -117q19 -73 63.5 -134t114 -102t168.5 -45q6 0 12 -1q49 0 93 15q50 16 99 46t85 71t58.5 87t31 94t10.5 95q1 12 0 24q0 59 -17 116q-20 69 -66 123.5t-119 90t-147 37.5q-8 1 -16 1q-44 0 -104 -18q-72 -22 -133.5 -68 t-103.5 -118.5t-44 -172.5zM477 1098l193 229l82 -94l-244 -180z" />
<glyph unicode="&#xf4;" d="M164 498q12 113 62.5 201.5t130.5 149t184 96.5q99 34 192 34h11q80 0 179 -37t175 -101.5t121 -152.5q40 -77 40 -169q0 -13 -1 -25q-6 -125 -54.5 -222.5t-128 -163t-178 -101.5t-184.5 -36h-10q-98 0 -201 38q-109 40 -187.5 109.5t-119.5 168.5q-33 79 -33 166 q0 22 2 45zM332 492q-1 -12 -1 -24q0 -57 16 -117q19 -73 63.5 -134t114 -102t168.5 -45q6 0 12 -1q49 0 93 15q50 16 99 46t85 71t58.5 87t31 94t10.5 95q1 12 0 24q0 59 -17 116q-20 69 -66 123.5t-119 90t-147 37.5q-8 1 -16 1q-44 0 -104 -18q-72 -22 -133.5 -68 t-103.5 -118.5t-44 -172.5zM360 1061l168 305l248 -215l-64 -64l-174 185l-112 -242z" />
<glyph unicode="&#xf5;" d="M164 498q12 113 62.5 201.5t130.5 149t184 96.5q99 34 192 34h11q80 0 179 -37t175 -101.5t121 -152.5q40 -77 40 -169q0 -13 -1 -25q-6 -125 -54.5 -222.5t-128 -163t-178 -101.5t-184.5 -36h-10q-98 0 -201 38q-109 40 -187.5 109.5t-119.5 168.5q-33 79 -33 166 q0 22 2 45zM332 492q-1 -12 -1 -24q0 -57 16 -117q19 -73 63.5 -134t114 -102t168.5 -45q6 0 12 -1q49 0 93 15q50 16 99 46t85 71t58.5 87t31 94t10.5 95q1 12 0 24q0 59 -17 116q-20 69 -66 123.5t-119 90t-147 37.5q-8 1 -16 1q-44 0 -104 -18q-72 -22 -133.5 -68 t-103.5 -118.5t-44 -172.5zM319 1084q37 45 74 82q33 31 69.5 59.5t69.5 32.5q33 2 55.5 -20.5t40 -51.5t33.5 -52.5t35 -19.5q16 0 27.5 30t17.5 67q8 43 12 98l64 -12q-14 -66 -33 -119q-16 -45 -37.5 -83t-44.5 -42q-37 -4 -54.5 13.5t-29.5 40t-25.5 43t-42.5 20.5 q-33 2 -63.5 -18.5t-54.5 -47.5q-29 -31 -56 -72z" />
<glyph unicode="&#xf6;" d="M164 498q12 113 62.5 201.5t130.5 149t184 96.5q99 34 192 34h11q80 0 179 -37t175 -101.5t121 -152.5q40 -77 40 -169q0 -13 -1 -25q-6 -125 -54.5 -222.5t-128 -163t-178 -101.5t-184.5 -36h-10q-98 0 -201 38q-109 40 -187.5 109.5t-119.5 168.5q-33 79 -33 166 q0 22 2 45zM332 492q-1 -12 -1 -24q0 -57 16 -117q19 -73 63.5 -134t114 -102t168.5 -45q6 0 12 -1q49 0 93 15q50 16 99 46t85 71t58.5 87t31 94t10.5 95q1 12 0 24q0 59 -17 116q-20 69 -66 123.5t-119 90t-147 37.5q-8 1 -16 1q-44 0 -104 -18q-72 -22 -133.5 -68 t-103.5 -118.5t-44 -172.5zM402 1099.5q-5 24.5 7 44.5q20 25 46 26t47 -13q20 -16 23 -38t-9 -42q-16 -20 -40 -22.5t-46 7.5q-23 13 -28 37.5zM639 1088.5q-4 21.5 12 41.5q18 16 41 15t33 -9q16 -12 21 -30.5t-7 -36.5q-14 -16 -35.5 -20.5t-42.5 7.5q-18 11 -22 32.5z " />
<glyph unicode="&#xf7;" horiz-adv-x="655" d="M146 329q-7 50 16 93q29 39 73.5 47t85.5 -23q35 -29 43.5 -78t-14.5 -92q-27 -39 -72 -47t-84 23q-41 27 -48 77zM180 1021q-6 42 14 83q25 33 64 41t74 -12q37 -29 42 -71t-18 -83q-23 -39 -63.5 -44t-71.5 15q-35 29 -41 71zM0 664l545 34l-4 -110l-535 12z" />
<glyph unicode="&#xf8;" d="M22 528q12 113 62.5 202t130.5 149.5t184.5 92.5t222.5 29q66 0 129.5 -15t122.5 -42l39 45l119 -88l-35 -37q72 -63 115 -148t37 -192q-6 -125 -53.5 -222t-124 -162.5t-175 -101.5t-204.5 -36q-94 -2 -178.5 20.5t-155.5 63.5l-68 -72l-71 58l61 71q-82 72 -125 170 t-33 215zM190 522q-4 -68 15.5 -140.5t64.5 -133.5l524 606q-39 18 -84 30.5t-98 14.5q-70 4 -141.5 -17.5t-133 -67.5t-103.5 -119t-44 -173zM340 172q43 -31 95 -50.5t116 -21.5q76 -2 136 14.5t109.5 46t84 70.5t59 87.5t37 94.5t14.5 95q4 70 -17.5 137.5t-68.5 122.5z " />
<glyph unicode="&#xf9;" horiz-adv-x="1101" d="M6 659.5q0 141.5 2 315.5l170 -6q-2 -47 -7 -110.5t-10.5 -135.5t-5.5 -147.5t8.5 -146.5t28 -134.5t55 -110.5t90.5 -73q50 -25 122 -25h12q76 0 139.5 27.5t110.5 79t74.5 126t31.5 173.5l6 464l160 -4l-14 -936l-150 4v107q-68 -57 -141.5 -94t-157.5 -41 q-28 -1 -53 -2q-95 0 -167 18q-91 23 -150.5 74t-91 133t-47 192.5t-15.5 252zM274 1206l78 92l190 -225l-28 -43z" />
<glyph unicode="&#xfa;" horiz-adv-x="1099" d="M6 659.5q0 141.5 2 315.5l170 -6q-2 -47 -7 -110.5t-10.5 -135.5t-5.5 -147.5t8.5 -146.5t28 -134.5t55 -110.5t90.5 -73q50 -25 122 -25h12q76 0 139.5 27.5t110.5 79t74.5 126t31.5 173.5l6 464l160 -4l-14 -936l-150 4v107q-68 -57 -141.5 -94t-157.5 -41 q-28 -1 -53 -2q-95 0 -167 18q-91 23 -150.5 74t-91 133t-47 192.5t-15.5 252zM463 1057l193 229l82 -94l-244 -180z" />
<glyph unicode="&#xfb;" horiz-adv-x="1099" d="M6 659.5q0 141.5 2 315.5l170 -6q-2 -47 -7 -110.5t-10.5 -135.5t-5.5 -147.5t8.5 -146.5t28 -134.5t55 -110.5t90.5 -73q50 -25 122 -25h12q76 0 139.5 27.5t110.5 79t74.5 126t31.5 173.5l6 464l160 -4l-14 -936l-150 4v107q-68 -57 -141.5 -94t-157.5 -41 q-28 -1 -53 -2q-95 0 -167 18q-91 23 -150.5 74t-91 133t-47 192.5t-15.5 252zM274 1024l168 305l248 -215l-64 -64l-174 185l-112 -242z" />
<glyph unicode="&#xfc;" horiz-adv-x="1099" d="M6 659.5q0 141.5 2 315.5l170 -6q-2 -47 -7 -110.5t-10.5 -135.5t-5.5 -147.5t8.5 -146.5t28 -134.5t55 -110.5t90.5 -73q50 -25 122 -25h12q76 0 139.5 27.5t110.5 79t74.5 126t31.5 173.5l6 464l160 -4l-14 -936l-150 4v107q-68 -57 -141.5 -94t-157.5 -41 q-28 -1 -53 -2q-95 0 -167 18q-91 23 -150.5 74t-91 133t-47 192.5t-15.5 252zM376 1071.5q-5 24.5 7 44.5q20 25 46 26t47 -13q20 -16 23 -38t-9 -42q-16 -20 -40 -22.5t-46 7.5q-23 13 -28 37.5zM613 1060.5q-4 21.5 12 41.5q18 16 41 15t33 -9q16 -12 21 -30.5t-7 -36.5 q-14 -16 -35.5 -20.5t-42.5 7.5q-18 11 -22 32.5z" />
<glyph unicode="&#xfd;" horiz-adv-x="1120" d="M-4 -250l119 57q12 -35 24.5 -57t22.5 -35.5t22.5 -22.5t28.5 -18q29 -18 58 -18l20 2q39 8 73.5 41t66.5 82t56.5 105.5t44 112.5t29.5 101l-561 756l121 74l493 -692l228 747l157 -45l-348 -1014q-53 -127 -105 -206.5t-107.5 -121.5t-115.5 -52q-20 -3 -42 -3 q-43 0 -93 13q-23 4 -49 18t-54 39t-51.5 58.5t-37.5 78.5zM518 1061l193 229l82 -94l-244 -180z" />
<glyph unicode="&#xfe;" horiz-adv-x="962" d="M0 1436h178l10 -355q59 4 131 4t145 -10t142.5 -34.5t125.5 -67.5t91 -107.5t41 -156.5q2 -90 -30.5 -157t-86 -114t-122 -76.5t-141 -47t-143.5 -24.5t-128 -9l8 -281h-135zM190 985l23 -637q37 0 90 5t109.5 18.5t113 36t100.5 60.5t70.5 91t24.5 127q-2 80 -32 134 t-77 88t-104 52.5t-115.5 24.5t-112 5t-90.5 -5z" />
<glyph unicode="&#xff;" horiz-adv-x="1120" d="M-4 -250l119 57q12 -35 24.5 -57t22.5 -35.5t22.5 -22.5t28.5 -18q29 -18 58 -18l20 2q39 8 73.5 41t66.5 82t56.5 105.5t44 112.5t29.5 101l-561 756l121 74l493 -692l228 747l157 -45l-348 -1014q-53 -127 -105 -206.5t-107.5 -121.5t-115.5 -52q-20 -3 -42 -3 q-43 0 -93 13q-23 4 -49 18t-54 39t-51.5 58.5t-37.5 78.5zM322 1075.5q-5 24.5 7 44.5q20 25 46 26t47 -13q20 -16 23 -38t-9 -42q-16 -20 -40 -22.5t-46 7.5q-23 13 -28 37.5zM559 1064.5q-4 21.5 12 41.5q18 16 41 15t33 -9q16 -12 21 -30.5t-7 -36.5 q-14 -16 -35.5 -20.5t-42.5 7.5q-18 11 -22 32.5z" />
<glyph unicode="&#x104;" horiz-adv-x="1290" d="M10 39l465 1384l103 4l632 -1355l-159 -64l-539 1221l-168 -555l432 6l35 -88l-485 -2l-195 -590zM1042.5 -43q4.5 45 10.5 70l63 6q-27 -33 -26 -62q-2 -39 10 -68.5t33.5 -45t42.5 -19.5q31 -6 47 0v-90q0 -2 -17.5 -3t-50.5 8t-70 42q-31 33 -39 75t-3.5 87z" />
<glyph unicode="&#x105;" horiz-adv-x="1294" d="M78 524q10 109 60 192t127 138t176 84t210 29q100 0 193.5 -36t150.5 -102l4 103h170l-12 -924l-174 2l6 146q-76 -70 -175 -105t-212 -37q-119 -2 -219.5 36t-172 106.5t-107 162.5t-25.5 205zM239 514q-2 -43 3.5 -89t21.5 -90t40.5 -84t62.5 -70.5t88.5 -50 t115.5 -21.5q111 -4 190.5 29.5t130 89t68 124t19.5 133.5q2 70 -11.5 137.5t-58.5 121t-115.5 87t-165.5 35.5q-57 2 -123.5 -17.5t-124 -62.5t-97.5 -109.5t-44 -162.5zM952 -142q-2 44 10.5 89t22.5 67l65 -4q-33 -29 -36 -57q-8 -39 -1 -72t26.5 -52t39.5 -26 q31 -12 49 -8l-16 -92q0 -2 -18.5 0t-50.5 16.5t-64 55.5q-25 39 -27 83z" />
<glyph unicode="&#x106;" horiz-adv-x="1267" d="M52.5 588q-22.5 164 35.5 393q39 119 108.5 199t155.5 131t183 76.5t194 35.5q223 23 483 -28v-181q-246 55 -451 37q-88 -8 -176 -32.5t-163.5 -74.5t-134 -130t-85.5 -199q-14 -68 -17 -149.5t20.5 -163.5t79.5 -156t160.5 -127t262.5 -76.5t383 -3.5l12 -57 q4 -23 7.5 -41t1.5 -21q-109 -12 -242 -9t-266 34t-253 94.5t-198 174t-100.5 274.5zM626 1528l193 229l82 -94l-244 -180z" />
<glyph unicode="&#x107;" horiz-adv-x="1028" d="M452 1135l193 229l82 -94l-244 -180zM30 408q-7 35 -7 75q0 93 38 209q39 86 89.5 144.5t113 95.5t132 54.5t139.5 25.5q37 2 72 2q173 0 319 -58l-2 -168q-157 67 -324 67q-22 0 -45 -1q-59 -6 -116.5 -22.5t-107.5 -48t-97.5 -86t-65.5 -132.5q-10 -50 -10 -85 q0 -15 2 -27q6 -41 21.5 -95.5t69.5 -114t130 -100.5t177 -42h4q100 0 255 51q6 -125 6 -129q-80 -31 -181 -37l-46 -2q-77 0 -151 16q-95 20 -183 68.5t-148 134.5t-84 205z" />
<glyph unicode="&#x118;" horiz-adv-x="894" d="M0 0v1413l842 19v-179l-723 7l6 -490l594 35l2 -154l-588 -10l6 -535l668 31l4 -137h-811zM737 -69.5q4 49.5 11 73.5l63 -2q-27 -33 -27 -61q-2 -39 10.5 -69t34 -45t41.5 -20q31 -6 48 0v-90q0 -2 -17.5 -3t-50.5 8.5t-70 41.5q-31 33 -39 75t-4 91.5z" />
<glyph unicode="&#x119;" horiz-adv-x="1224" d="M89.5 588q14.5 82 51.5 149.5t92 118.5t122 85t139.5 49.5t142.5 15.5q127 -4 226 -46t165.5 -115t99.5 -172.5t29 -219.5q12 -2 -22 -2h-96h-146h-174h-178h-156h-114q-44 0 -48 -2q10 -61 38.5 -111.5t68.5 -87.5t88.5 -62.5t93.5 -35.5q29 -6 68.5 -9.5t94 -0.5 t121 17.5t146.5 45.5l30 -164q-59 -29 -134.5 -43t-152.5 -15t-145.5 9t-113.5 33q-55 25 -108.5 56.5t-98.5 77.5t-79 107.5t-48 141.5q-17 98 -2.5 180zM231 575l750 -24q-16 76 -40 133t-73 98t-105.5 66.5t-117.5 34.5q-76 12 -149.5 -6.5t-132 -60.5t-94.5 -104.5 t-38 -136.5zM888.5 -39q4.5 45 10.5 70l63 6q-27 -33 -26 -62q-2 -39 11 -68.5t34.5 -45t42.5 -17.5q31 -6 47 0l2 -90q0 -2 -17.5 -3t-51.5 7.5t-70 40.5q-31 33 -40.5 75t-5 87z" />
<glyph unicode="&#x11e;" horiz-adv-x="1312" d="M28 758q20 162 82 275.5t150 188t193.5 117.5t211.5 62q250 45 557 -8l-6 -107q-289 37 -512 -8q-96 -18 -186 -57t-161 -105.5t-113 -165t-38 -237.5q0 -147 38 -247.5t101.5 -165t143.5 -96.5t164 -44q197 -27 448 37l-6 204l-430 -26l4 141l541 -2v-459 q-354 -76 -623 -35q-115 18 -222 63.5t-187 130.5t-123 218t-27 326zM477 1669l76 10q14 -43 38 -82q25 -33 56 -64.5t84 -39.5q47 -10 88 20.5t65 69.5q29 43 54 100l90 -14q-39 -61 -82 -115q-37 -43 -88 -78.5t-117 -35.5q-82 0 -132 35.5t-79 78.5q-35 54 -53 115z" />
<glyph unicode="&#x11f;" horiz-adv-x="1228" d="M24 563q14 115 68.5 204t137.5 149.5t187.5 87t219.5 14.5q57 -6 103 -19.5t83 -30t63.5 -30.5t43.5 -25l-2 62h210q-6 -285 -12 -501t-20.5 -375.5t-37 -268.5t-74.5 -176.5t-127 -99t-163 -37.5q-76 -4 -153.5 26.5t-139.5 104.5l93 96q25 -31 46 -50.5t41.5 -33.5 t43 -21.5t51.5 -11.5q51 -6 89 15.5t63.5 62.5t41 94.5t23.5 109.5t11 110.5t5 97.5q-33 -29 -73.5 -48.5t-85.5 -30.5t-95.5 -15.5t-103.5 -6.5q-82 0 -157 18.5t-137 54.5t-112.5 85t-81 110.5t-45 132t-4.5 146.5zM182 553q-6 -70 11.5 -139.5t60.5 -128t111.5 -99.5 t166.5 -53q94 -12 172 15.5t129 80t76 122t27 141.5q2 80 -11.5 151.5t-55.5 125.5t-110.5 89t-164.5 37q-66 4 -135.5 -10.5t-129 -53t-100.5 -107.5t-47 -171zM268 1362l92 10q16 -51 45 -96q29 -41 66 -78t98 -47q57 -12 106.5 24.5t77.5 81.5q33 53 62 121l108 -16 q-45 -76 -96 -137q-47 -51 -106.5 -94.5t-139.5 -43.5q-96 0 -156.5 43.5t-92.5 94.5q-41 61 -64 137z" />
<glyph unicode="&#x130;" horiz-adv-x="491" d="M109 2l43 1432l165 -2l-75 -1432zM167 1604.5q-7 35.5 9 64.5q31 39 70 40t67 -19q31 -27 35 -57.5t-14 -61.5q-25 -31 -58.5 -34t-68.5 13q-33 19 -40 54.5z" />
<glyph unicode="&#x131;" horiz-adv-x="485" d="M88 2l219 -2l19 922l-205 -2z" />
<glyph unicode="&#x141;" horiz-adv-x="1130" d="M-166 686l838 301l24 -53l-805 -332zM41 1430l149 -9l-6 -1284l830 62l-4 -193l-967 -6z" />
<glyph unicode="&#x142;" horiz-adv-x="342" d="M-154 795l648 219l14 -56l-627 -253zM57 1456l205 2l2 -1458h-190z" />
<glyph unicode="&#x143;" horiz-adv-x="1533" d="M41 0v1434h92l1155 -1198l-12 1185l147 -6l-6 -1395l-117 -2l-1138 1153l16 -1171h-137zM766 1442l217 239l90 -98l-272 -188z" />
<glyph unicode="&#x144;" horiz-adv-x="1234" d="M78 942l149 2l4 -104q66 57 138.5 92t154.5 53q129 31 225.5 21.5t169 -60.5t117.5 -135t58.5 -198.5t19.5 -259t6 -316.5h-231q0 49 2 113.5t4 136t1 146.5t-12.5 144.5t-32 130t-52 104.5t-81.5 66.5t-128 16.5q-68 -6 -128.5 -36t-107.5 -82t-75.5 -129t-30.5 -175 l8 -330l8 -141l-160 -2zM557 1151l193 229l81 -94l-243 -180z" />
<glyph unicode="&#x152;" horiz-adv-x="1581" d="M4 688q0 170 32 288t84 197.5t119.5 126t138.5 70t138.5 32.5t120.5 13l-8 -155q-4 0 -13 2q-6 0 -16 1t-20 1q-31 0 -77 -6.5t-97.5 -29t-101.5 -62.5t-91 -107.5t-66.5 -166.5t-25.5 -237q0 -92 21.5 -186t79 -172t156.5 -132t257 -67q0 -35 1 -55t3 -29.5t2 -11.5 t-4 -2q-47 -2 -111.5 7t-134 37t-139.5 77t-125 126t-89 185.5t-34 255.5zM629 0v1413l841 19v-179l-733 7l6 -490l605 35l2 -154l-598 -10l6 -535l678 31l4 -137h-811z" />
<glyph unicode="&#x153;" horiz-adv-x="1763" d="M52.5 407.5q-23.5 118.5 31.5 284.5q39 86 89.5 144.5t113 95.5t132 54.5t139.5 25.5q215 14 391 -56l-95 -143q-86 51 -276 41q-59 -6 -116.5 -22.5t-107.5 -48t-97.5 -86t-65.5 -132.5q-14 -72 -8 -112.5t21.5 -95t69.5 -114t130 -100.5t186.5 -46t249.5 55l109 -99 q-143 -70 -264 -71.5t-216.5 18.5t-183.5 68.5t-148.5 134.5t-84 204.5zM617 600q14 82 51 149.5t92.5 119t122 85t139 50t142.5 14.5q127 -4 226 -46t165.5 -115t99.5 -172t29 -218q12 -2 -21.5 -3t-96.5 -1h-146h-174h-177h-157h-114q-44 0 -48 -2q10 -61 39 -111.5 t70 -87.5t88 -62.5t92 -33.5q29 -8 68.5 -11t94 0t121 17t146.5 45l31 -164q-59 -29 -135 -43t-153 -15t-145.5 9t-113.5 33q-55 25 -108.5 57.5t-98.5 77.5t-79 106.5t-48 141.5q-16 98 -2 180zM758 588l738 -25q-4 76 -33 133.5t-73 98.5t-100.5 66.5t-117.5 33.5 q-76 12 -149.5 -6.5t-132 -60.5t-94.5 -104t-38 -136z" />
<glyph unicode="&#x15a;" horiz-adv-x="882" d="M36.5 1097q-15.5 85 15.5 175q23 68 88 103.5t148 48t174.5 8t167 -14.5t123.5 -22.5t48 -14.5l-6 -143q0 -2 -34.5 12.5t-89 30.5t-121 28.5t-131 8.5t-118 -29.5t-81.5 -87.5q-35 -76 -15.5 -153.5t69.5 -156.5t123 -158t144.5 -153.5t132 -145.5t88 -135.5t12 -119.5 t-94.5 -100q-66 -37 -134.5 -44t-135 4t-125 34.5t-103.5 48t-70.5 42t-25.5 19.5l77 103q12 -14 41 -38t66 -47.5t81 -43t88 -26.5t84 2t71 44q37 43 25.5 92t-51.5 106.5t-102.5 121t-130 133t-132 145.5t-107.5 157t-58.5 166zM341 1556l192 230l82 -94l-244 -181z" />
<glyph unicode="&#x15b;" horiz-adv-x="890" d="M47 706.5q-10 73.5 31 161.5q49 82 154.5 130.5t253 25.5t239.5 -82t92 -61l-92 -162q-115 121 -216.5 152.5t-188.5 8t-124 -99.5q-31 -90 32 -160.5t182.5 -158.5t184 -161t56.5 -160t-115 -140q-86 -29 -164.5 -16.5t-134 41t-164.5 110.5l89 123q88 -102 202.5 -143 t150.5 26.5t-56.5 142t-198 150.5t-154.5 137.5t-59 135zM377 1178l192 229l82 -94l-244 -180z" />
<glyph unicode="&#x15e;" horiz-adv-x="903" d="M36.5 1097q-15.5 85 15.5 175q23 68 88 103.5t148 48t174.5 8t167 -14.5t123.5 -22.5t48 -14.5l-6 -143q0 -2 -34.5 12.5t-89 30.5t-121 28.5t-131 8.5t-118 -29.5t-81.5 -87.5q-35 -76 -15.5 -153.5t69.5 -156.5t123 -158t144.5 -153.5t132 -145.5t88 -135.5t12 -119.5 t-94.5 -100q-66 -37 -134.5 -44t-135 4t-125 34.5t-103.5 48t-70.5 42t-25.5 19.5l77 103q12 -14 41 -38t66 -47.5t81 -43t88 -26.5t84 2t71 44q37 43 25.5 92t-51.5 106.5t-102.5 121t-130 133t-132 145.5t-107.5 157t-58.5 166zM367 -170q55 -8 99 -6q37 2 68.5 13 t33.5 46q2 27 -14.5 32t-40 4t-48 -1t-36.5 14q-12 12 -17.5 32t-7.5 77h109q-10 -16 -19 -31q-6 -12 -7 -26.5t9 -24.5q8 -10 25.5 -12t36 -5t36 -11.5t29.5 -30.5q12 -23 2 -48.5t-40.5 -48t-85 -38t-132.5 -15.5q-2 0 0 80z" />
<glyph unicode="&#x15f;" horiz-adv-x="888" d="M47 706.5q-10 73.5 31 161.5q49 82 154.5 130.5t253 25.5t239.5 -82t92 -61l-92 -162q-115 121 -216.5 152.5t-188.5 8t-124 -99.5q-31 -90 32 -160.5t182.5 -158.5t184 -161t56.5 -160t-115 -140q-86 -29 -164.5 -16.5t-134 41t-164.5 110.5l89 123q88 -102 202.5 -143 t150.5 26.5t-56.5 142t-198 150.5t-154.5 137.5t-59 135zM317 -223q55 -8 99 -6q37 2 68.5 13t33.5 46q2 27 -14.5 32t-40 4t-48 -1t-36.5 14q-12 12 -17.5 31.5t-7.5 77.5h109q-10 -16 -19 -31q-6 -12 -7 -26.5t9 -24.5q8 -10 25.5 -12.5t36 -5.5t36 -11t29.5 -31t2 -48 t-40.5 -47.5t-85 -38t-132.5 -15.5q-2 0 0 80z" />
<glyph unicode="&#x160;" horiz-adv-x="882" d="M22 1097q-5 28 -6 57q0 58 21 118q23 68 88 103.5t148 47.5q62 9 129 10q22 0 45 -1q91 -4 167 -14.5t124 -23t48 -14.5l-6 -143q0 -2 -34.5 12.5t-89 30.5t-120.5 29q-50 9 -99 9q-16 0 -33 -1q-65 -4 -118 -29.5t-81 -87.5q-22 -49 -23 -98q0 -28 7 -55 q19 -78 69.5 -157t123.5 -158t144.5 -153.5t132 -145.5t87.5 -135q18 -41 18 -79q0 -21 -5 -41q-15 -55 -95 -100q-66 -37 -135 -44q-27 -3 -53 -3q-41 0 -82 7q-67 11 -125 34.5t-103 48t-70.5 42t-25.5 19.5l77 103q12 -14 41 -38t66 -47.5t81 -43t88 -26.5q19 -3 38 -3 q24 0 46 5q40 9 71 44q28 33 28 70q0 11 -3 22q-11 49 -51 106.5t-102.5 121t-130 133t-132 145.5t-107.5 157t-58 166zM248 1771l66 31l112 -242l174 185l64 -64l-248 -215z" />
<glyph unicode="&#x161;" horiz-adv-x="894" d="M21 707q-2 15 -2 30q0 61 33 131q49 82 154 130q72 33 163 33q43 0 90 -7q147 -23 239.5 -82t92.5 -61l-92 -162q-115 121 -216 152q-58 18 -112 19q-40 0 -77 -10q-87 -24 -124 -100q-10 -30 -10 -57q0 -56 42 -103q62 -71 182 -159t185 -161q57 -65 57 -140 q0 -10 -1 -20q-8 -87 -115 -140q-60 -20 -117 -20q-24 0 -48 4q-79 12 -134 40.5t-164 110.5l89 123q88 -102 202 -143q43 -15 76 -16q53 0 75 42q10 19 10 39q0 50 -66 104q-92 75 -198 150.5t-155 137t-59 135.5zM168 1396l66 31l112 -242l174 185l64 -64l-248 -215z" />
<glyph unicode="&#x178;" horiz-adv-x="1269" d="M55 1339l97 70l419 -510l428 537l134 -107l-463 -538l55 -785l-178 -6l-25 795zM419 1466.5q-5 24.5 7 44.5q20 25 46 26t47 -13q20 -16 23 -38t-9 -42q-16 -20 -40 -22.5t-46 7.5q-23 13 -28 37.5zM656 1455.5q-4 21.5 12 41.5q18 16 41 15t33 -9q16 -12 21 -30.5 t-7 -36.5q-14 -16 -35.5 -20.5t-42.5 7.5q-18 11 -22 32.5z" />
<glyph unicode="&#x179;" horiz-adv-x="1306" d="M92 1434l1127 -13l2 -71l-801 -1227l780 37l10 -140l-995 -20l-10 92l819 1225l-922 -8zM643 1589l193 230l82 -95l-244 -180z" />
<glyph unicode="&#x17a;" horiz-adv-x="968" d="M16 856l4 127l799 -16l2 -82l-555 -760l588 2l-6 -133l-780 22l-5 82l576 764zM348 1126l193 230l82 -94l-244 -181z" />
<glyph unicode="&#x17b;" horiz-adv-x="1306" d="M92 1434l1127 -13l2 -71l-801 -1227l780 37l10 -140l-995 -20l-10 92l819 1225l-922 -8zM621.5 1599.5q-5.5 30.5 13.5 59.5q18 25 53 31t66 -11q29 -20 34 -51t-12 -59q-18 -27 -53 -32t-68 13q-28 19 -33.5 49.5z" />
<glyph unicode="&#x17c;" horiz-adv-x="968" d="M16 856l4 127l799 -16l2 -82l-555 -760l588 2l-6 -133l-780 22l-5 82l576 764zM364.5 1130.5q-6.5 30.5 12.5 59.5q18 27 53 32t66 -12q29 -20 34 -51t-12 -59q-18 -25 -53 -30t-68 11q-26 19 -32.5 49.5z" />
<glyph unicode="&#x2c6;" horiz-adv-x="421" d="M0 1231l168 305l248 -215l-64 -64l-174 185l-112 -242z" />
<glyph unicode="&#x2c7;" horiz-adv-x="423" d="M0 1505l66 31l112 -242l174 185l64 -64l-248 -215z" />
<glyph unicode="&#x2da;" horiz-adv-x="286" d="M8 1528q0 27 5 43t16.5 29.5t25 23.5t28.5 16.5t29.5 8.5t34.5 2q23 -2 43.5 -9.5t39 -21.5t31.5 -36.5t13 -55.5q0 -27 -7 -45.5t-18 -31.5t-24.5 -21.5t-27 -13.5t-28.5 -7t-24 -2q-12 0 -25.5 2t-27.5 7t-27.5 14.5t-25.5 22.5t-21.5 31.5t-9.5 43.5zM53 1536 q0 -23 7.5 -43t20.5 -34.5t28.5 -19.5t40.5 -5q20 2 29 6t17.5 10t15.5 15.5t12 21.5t7 26q2 33 -7 52.5t-21.5 31t-24.5 16.5t-39 5q-16 0 -32.5 -6t-27.5 -16.5t-17.5 -23.5t-8.5 -36z" />
<glyph unicode="&#x2dc;" horiz-adv-x="503" d="M2 1309q37 45 74 82q33 31 69.5 59.5t69.5 32.5q33 2 55.5 -20.5t40 -51.5t33.5 -52.5t35 -19.5q16 0 27.5 30t17.5 67q8 43 12 98l64 -12q-14 -66 -33 -119q-16 -45 -37.5 -83t-44.5 -42q-37 -4 -54.5 13.5t-29.5 40t-25.5 43t-42.5 20.5q-33 2 -63.5 -18.5t-54.5 -47.5 q-29 -31 -56 -72z" />
<glyph unicode="&#x401;" horiz-adv-x="894" d="M0 0v1413l842 19v-179l-723 7l6 -490l594 35l2 -154l-588 -10l6 -535l668 31l4 -137h-811zM193.5 1583q-7.5 35 9.5 64q29 35 65.5 35.5t65.5 -19.5q29 -23 33 -53.5t-15 -59.5q-23 -29 -55.5 -31.5t-65.5 13.5q-30 16 -37.5 51zM527 1566.5q-5 30.5 20 59.5 q25 23 56.5 22t45.5 -14q25 -16 31 -42.5t-10 -53.5q-20 -23 -51 -29t-60 13q-27 14 -32 44.5z" />
<glyph unicode="&#x410;" horiz-adv-x="1261" d="M10 39l465 1384l103 4l632 -1355l-159 -64l-539 1221l-168 -555l432 6l35 -88l-485 -2l-195 -590z" />
<glyph unicode="&#x411;" horiz-adv-x="1087" d="M43 16v1387h2l-2 39l723 -4v-127l-594 22v-10q-18 -145 0 -438q61 -2 123.5 -5t148.5 -10q49 -6 93.5 -11t80.5 -17q100 -16 181 -62q31 -18 63.5 -45.5t59 -65.5t43 -86t18.5 -110q2 -96 -36 -165.5t-103.5 -119t-150.5 -82t-173 -51.5q-209 -45 -477 -39zM178 195 q43 -4 120 -5.5t153.5 8t151.5 32t129 63.5t84 105.5t20 156.5q-14 74 -65.5 118t-128.5 66.5t-162 28.5t-157.5 4t-113.5 -7t-31 -570z" />
<glyph unicode="&#x412;" horiz-adv-x="1077" d="M33 16v1387q10 6 74.5 15t152.5 14.5t189.5 -4t187.5 -45t143.5 -97t59.5 -160.5q0 -98 -37 -155.5t-80 -85.5q-51 -35 -115 -43q98 -16 178 -62q33 -18 66 -45.5t59.5 -65.5t43 -86t18.5 -110q2 -96 -36 -165.5t-103.5 -119t-150.5 -82t-173 -51.5q-209 -45 -477 -39z M154 1315l6 -432q129 -12 241 10q49 8 96.5 25.5t85.5 45t63.5 67.5t29.5 95q6 78 -31 121t-96.5 64.5t-129 25.5t-131 -1t-97 -12t-37.5 -9zM168 195q43 -4 118.5 -5.5t153.5 8t152 32t129 63.5t84 105.5t18 156.5q-12 74 -64 118t-128 66.5t-161 28.5t-158.5 4t-114.5 -7 t-29 -570z" />
<glyph unicode="&#x413;" horiz-adv-x="821" d="M0 18l18 1414l721 -5v-127l-616 23l49 -1325l-170 6z" />
<glyph unicode="&#x414;" horiz-adv-x="1845" d="M47 129h289l43 2l434 1292l105 4l602 -1294h288l-2 -551h-135l21 420l-301 6l-922 -8l-303 -2l18 -420h-135zM512 133h823l-485 1096z" />
<glyph unicode="&#x415;" horiz-adv-x="894" d="M0 0v1413l842 19v-179l-723 7l6 -490l594 35l2 -154l-588 -10l6 -535l668 31l4 -137h-811z" />
<glyph unicode="&#x416;" horiz-adv-x="1947" d="M43 180l758 576l-690 504l110 133l658 -547l-17 579l137 7v-590l650 571l114 -129l-676 -522l775 -553l-101 -158l-747 631l10 -676l-125 -6l-16 670l-736 -641z" />
<glyph unicode="&#x417;" horiz-adv-x="882" d="M-8 1380q0 2 48 14.5t124 22.5t167 14.5t174 -8t148.5 -48.5t87.5 -103q31 -90 15.5 -175t-58.5 -166t-108 -157q-45 -55 -129 -143l55 -58q68 -70 128.5 -141.5t88 -136t12 -118.5t-95.5 -99q-66 -37 -134.5 -44t-135 3t-124.5 33.5t-103.5 48t-71 42t-25.5 19.5l78 105 q12 -16 41 -40t65.5 -47.5t81 -43t88.5 -25.5t83.5 2t70.5 43q37 43 26 92t-51 106.5t-93.5 113t-139.5 114.5q-8 29 -10 59q61 29 88 56q4 8 12 16q74 80 124 159t69.5 156.5t-15.5 153.5q-29 61 -82 87t-117.5 30t-131 -8.5t-120.5 -28.5t-89 -30.5t-35 -12.5z" />
<glyph unicode="&#x418;" horiz-adv-x="1533" d="M41 1415l147 6l-12 -1185l1155 1198h92v-1434h-137l17 1171l-1139 -1153l-117 2z" />
<glyph unicode="&#x419;" horiz-adv-x="1533" d="M41 1415l6 -1395l117 -2l1139 1153l-17 -1171h137v1434h-92l-1155 -1198l12 1185zM522 1821l88 39l152 -322l233 246l84 -86l-331 -287z" />
<glyph unicode="&#x41a;" horiz-adv-x="1110" d="M27 1427l137 5v-590l649 573l115 -129l-676 -524l774 -553l-100 -156l-750 629l12 -674l-125 -6z" />
<glyph unicode="&#x41b;" horiz-adv-x="1454" d="M23 47l591 1383l70 6l672 -1366l-158 -76l-555 1196l-498 -1194z" />
<glyph unicode="&#x41c;" horiz-adv-x="1562" d="M41 0v1434h92l596 -1205l518 1196h150l47 -1409h-187l-6 1139l-499 -1161l-74 16l-531 1102l37 -1114z" />
<glyph unicode="&#x41d;" horiz-adv-x="1392" d="M0 0v1434l156 -9l14 -862l907 19l-8 839h121l39 -1394l-146 -2l-6 411l-903 -4l6 -432h-180z" />
<glyph unicode="&#x41e;" horiz-adv-x="1740" d="M24 715q10 152 59.5 265.5t123 195t156.5 134t172 85t172 44t151 9.5q66 0 146.5 -11.5t167.5 -41t166 -79.5t150.5 -130t118 -196t48.5 -269q-6 -211 -86 -350.5t-200 -226.5t-264.5 -124.5t-277.5 -37.5q-72 0 -162 10t-182 43t-175 90t-150.5 138t-104.5 184.5 t-29 267.5zM213 633q4 -143 61.5 -247.5t134 -170t187 -98.5t223.5 -37q115 -2 236.5 34t210 112.5t155 216t60.5 343.5q-10 119 -51.5 213.5t-85.5 150.5t-108.5 98t-126 66.5t-194.5 39.5q-135 6 -265 -31t-233.5 -137.5t-155.5 -248.5t-48 -304z" />
<glyph unicode="&#x41f;" horiz-adv-x="1392" d="M0 0v1434l1190 -13l39 -1394l-146 -2l-6 1251l-903 -4l6 -1272h-180z" />
<glyph unicode="&#x420;" horiz-adv-x="1081" d="M16 1421q61 2 156.5 7.5t203 2t215 -18.5t194.5 -54t144.5 -108.5t65.5 -172.5q8 -121 -43 -203.5t-126.5 -138t-169 -86.5t-182.5 -47t-166 -19t-118 -3l-2 -580h-133zM174 1292l16 -575q193 -6 345 24q63 12 109 34t83 55.5t65.5 82t28.5 113.5q0 70 -27.5 118 t-66.5 79.5t-85 49t-114 25.5q-157 19 -354 -6z" />
<glyph unicode="&#x421;" horiz-adv-x="1267" d="M52.5 588q-22.5 164 35.5 393q39 119 108.5 199t155.5 131t183 76.5t194 35.5q223 23 483 -28v-181q-246 55 -451 37q-88 -8 -176 -32.5t-163.5 -74.5t-134 -130t-85.5 -199q-14 -68 -17 -149.5t20.5 -163.5t79.5 -156t160.5 -127t262.5 -76.5t383 -3.5l12 -57 q4 -23 7.5 -41t1.5 -21q-109 -12 -242 -9t-266 34t-253 94.5t-198 174t-100.5 274.5z" />
<glyph unicode="&#x422;" horiz-adv-x="1288" d="M0 1430l1225 -15l-13 -121l-573 13l109 -1293l-203 -14l-33 1315l-506 10z" />
<glyph unicode="&#x423;" horiz-adv-x="1269" d="M55 1339l97 70l538 -655l309 682l134 -107l-609 -1323l-178 -6l295 649z" />
<glyph unicode="&#x424;" horiz-adv-x="1740" d="M12 770q8 137 59.5 241.5t126 178.5t158.5 122t174 77.5t174 40t154 10.5q68 0 149.5 -11.5t169.5 -38t168 -71.5t154 -119t120 -179.5t48 -244.5q-6 -193 -86 -319.5t-203 -206.5t-254 -110.5t-242 -37.5q0 -49 -4 -98q-76 2 -133 2v98q-39 2 -106.5 9.5t-160.5 37 t-178 82t-153.5 126t-105.5 167.5t-29 244zM205.5 669.5q11.5 -106.5 60.5 -208.5q51 -74 110.5 -127t131.5 -78q57 -25 118.5 -39t124.5 -22l35 1155q-113 -6 -201 -41t-159 -97q-49 -37 -82 -76.5t-55.5 -79.5t-38 -81t-23.5 -82q-33 -117 -21.5 -223.5zM891 195 q59 2 113.5 13t117.5 34q74 23 142.5 78t121.5 131q51 74 80 161.5t25 198.5q-2 63 -15.5 116.5t-34 100.5t-49 87t-59.5 77q-57 47 -109.5 76.5t-99.5 46t-90 22.5t-86 9z" />
<glyph unicode="&#x425;" horiz-adv-x="1474" d="M70 121l501 686l-471 547l105 78l440 -517l322 467l131 -100l-365 -483l608 -713l-110 -80l-565 692l-441 -675z" />
<glyph unicode="&#x426;" horiz-adv-x="1462" d="M55 -6v1433h152l-10 -1284l784 -4l70 1276l127 -4l-41 -1274h282v-551l-139 -2l25 422l-1158 -12h-92z" />
<glyph unicode="&#x427;" horiz-adv-x="1081" d="M82 1425l123 -2l8 -295q2 -37 6.5 -66.5t11.5 -54t16 -47t20 -45.5q23 -33 50.5 -62.5t61 -53t75.5 -40t93 -24.5q78 -12 158 -17t166 1l22 708q-20 2 37.5 -1t118.5 -5l-39 -1421h-133l-2 580q-41 0 -118 3t-166 19t-182 47t-169 86.5t-128.5 139t-29.5 550.5z" />
<glyph unicode="&#x428;" horiz-adv-x="1562" d="M41 -6v1433h152l-11 -1284l459 -2v1286l111 -12l51 -1274l444 -2l70 1276l127 -4l-47 -1409h-150l-1114 -8h-92z" />
<glyph unicode="&#x429;" horiz-adv-x="1728" d="M41 -6v1433h152l-11 -1284l459 -2v1286l111 -12l51 -1274l444 -2l70 1276l127 -4l-41 -1274h283v-551l-140 -2l25 422l-1438 -12h-92z" />
<glyph unicode="&#x42a;" horiz-adv-x="1384" d="M29 895l2 539h461l2 -580q41 0 117.5 -3t165.5 -19.5t182.5 -47t169 -86t127 -138.5t42.5 -204q-8 -102 -65 -171.5t-144.5 -108.5t-195 -54.5t-215 -18.5t-202.5 2t-157 7l35 1311l-211 -6l27 -430zM477 141q197 -25 354 -6q68 8 114 25.5t85 49.5t66.5 80t27.5 118 q0 66 -28.5 113.5t-65.5 81.5t-83 55.5t-109 33.5q-152 31 -344 25z" />
<glyph unicode="&#x42b;" horiz-adv-x="1368" d="M16 12q61 -2 156.5 -7t203 -2t215 18.5t194.5 54.5t144.5 108.5t65.5 171.5q8 121 -43 204t-126.5 138.5t-169 86t-182.5 47t-166 19.5t-118 3l-2 580h-133zM174 141l16 576q193 6 345 -25q63 -12 109 -33.5t83 -55.5t65.5 -82t28.5 -113q0 -70 -27.5 -118t-66.5 -80 t-85 -49.5t-114 -25.5q-157 -19 -354 6zM1067 6l43 1434l166 -2l-76 -1434z" />
<glyph unicode="&#x42c;" horiz-adv-x="1081" d="M16 12l39 1422h133l2 -580q41 0 118 -3t166 -19.5t182.5 -47t169 -86t127 -138.5t42.5 -204q-8 -102 -65.5 -171.5t-144.5 -108.5t-194.5 -54.5t-215 -18.5t-203 2t-156.5 7zM174 141q197 -25 354 -6q68 8 114 25.5t85 49.5t66.5 80t27.5 118q0 66 -28.5 113.5 t-65.5 81.5t-83 55.5t-109 33.5q-152 31 -345 25z" />
<glyph unicode="&#x42d;" horiz-adv-x="1288" d="M74 1214v181q260 51 481 28q96 -10 194.5 -35.5t184.5 -76.5t154.5 -131t107.5 -199q57 -229 34.5 -393t-99 -274.5t-197.5 -174t-253 -94.5t-265 -34t-244 9q-2 2 1 20.5t7 41.5l13 57q227 -20 383.5 3.5t261 76.5t162 127t79.5 156q23 74 21 149l-586 -10l-4 176 l580 -39l-9 37q-25 119 -84 199t-135 130t-164 74.5t-176 32.5q-204 18 -448 -37z" />
<glyph unicode="&#x42e;" horiz-adv-x="2240" d="M51 23l19 1413l102 2l14 -561l351 14q12 47 30 90q49 113 123 194.5t157 134t172 85t172 44t150 9.5q66 0 147 -11.5t168 -41t166 -79.5t150.5 -130t117.5 -196t48 -269q-6 -211 -86 -350.5t-199.5 -226.5t-264 -124.5t-277.5 -37.5q-72 0 -162 10t-182.5 43t-175 90 t-150.5 138t-104.5 184.5t-28.5 267.5q0 8 2 12l-311 12l24 -737l-170 6zM696 633q4 -143 61.5 -247.5t134.5 -170t187.5 -98.5t223.5 -37q115 -2 236.5 34t209.5 112.5t154.5 216t60.5 343.5q-10 119 -51 213.5t-85 150.5t-108.5 98t-126 66.5t-194.5 39.5q-135 6 -265 -31 t-233.5 -137.5t-156 -248.5t-48.5 -304z" />
<glyph unicode="&#x42f;" horiz-adv-x="1126" d="M47 1061q-2 86 38 146.5t106.5 102.5t152.5 66.5t177 36.5t180 15.5t160 1t116 -5.5t49 -3l-23 -1409l-137 -4l15 602l-461 -606l-137 96l467 525q-193 8 -349 57q-63 20 -125.5 52t-112.5 78t-83 107.5t-33 141.5zM227 1059q0 -72 29 -122t75 -86t104.5 -56.5 t119.5 -32.5q141 -27 330 -12v581q-186 12 -328 -10q-61 -10 -119.5 -28.5t-104.5 -49.5t-76 -76t-30 -108z" />
<glyph unicode="&#x430;" horiz-adv-x="1304" d="M88 524q10 109 60 192t127 138t176.5 84t209.5 29q100 0 193.5 -36t150.5 -102l4 103h170l-12 -924l-174 2l6 146q-76 -70 -175 -105t-212 -37q-119 -2 -219 36t-172 106.5t-107.5 162.5t-25.5 205zM250 514q-2 -43 3 -89t21.5 -90t41 -84t62.5 -70.5t88 -50t115 -21.5 q111 -4 191 29.5t130 89t67.5 124t19.5 133.5q2 70 -11.5 137.5t-58.5 121t-115.5 87t-164.5 35.5q-57 2 -124 -17.5t-124 -62.5t-97 -109.5t-44 -162.5z" />
<glyph unicode="&#x431;" horiz-adv-x="1177" d="M57 27l17 960l794 60l56 -136l-678 -51l-8 -256q76 53 175 80t132 29q119 0 219 -29t172 -79t107.5 -121.5t23.5 -151.5q-8 -82 -58.5 -144.5t-127 -103.5t-176 -62.5t-130.5 -21.5q-100 0 -193 26.5t-151 75.5l-4 -75h-170zM248 365q-2 -43 11 -87.5t58 -78t116 -55 t85 -23.5q57 -2 124 10t124 40t97 71t44 104q2 29 -4 58.5t-21.5 57t-40 53.5t-62.5 46.5t-89 31.5t-115 13q-31 4 -110.5 -17.5t-129.5 -57t-67.5 -79.5t-19.5 -87z" />
<glyph unicode="&#x432;" horiz-adv-x="1067" d="M57 27l17 901v47l149 8q117 4 183.5 5t132 -6t151.5 -44q80 -39 126 -89t46 -101q-6 -102 -25.5 -118t36 -45.5t91 -101t23.5 -151.5q-8 -82 -58 -144.5t-120 -106.5t-132.5 -61.5t-180.5 -19.5q-20 0 -115 27q-90 27 -148 73v-10h-4l-2 -63h-170zM223 840l2 -213 q0 -2 25.5 -3t71 0t108 2t135.5 5q45 0 75 4t48.5 14t25.5 26.5t5 41.5q0 29 -12.5 49t-34 35.5t-49 25t-62.5 15.5q-55 10 -98 13t-82 1t-77 -6t-81 -10zM236 225q47 -31 100 -58.5t121 -39.5q23 -8 54.5 -9t63 4t62.5 13t51 19q31 14 56.5 35.5t46 47t32 55.5t11.5 60 q0 27 -6.5 46.5t-22.5 50.5q-31 25 -63.5 38t-68.5 19t-73 6t-70 -2q-20 0 -49.5 -1t-62.5 -2l-66 -2q-33 -1 -58.5 -3t-41.5 -4t-16 -6v-267z" />
<glyph unicode="&#x433;" horiz-adv-x="700" d="M33 4v963l588 -19v-117l-447 3l21 -824z" />
<glyph unicode="&#x434;" horiz-adv-x="1224" d="M24 563q14 115 68.5 204t137.5 149.5t187.5 87t219.5 14.5q57 -6 103 -19.5t83 -30t63.5 -30.5t43.5 -25l-2 62h210q-6 -285 -12 -501t-20.5 -375.5t-37 -268.5t-74.5 -176.5t-127 -99t-163 -37.5q-76 -4 -153.5 26.5t-139.5 104.5l93 96q25 -31 46 -50.5t41.5 -33.5 t43 -21.5t51.5 -11.5q51 -6 89 15.5t63.5 62.5t41 94.5t23.5 109.5t11 110.5t5 97.5q-33 -29 -73.5 -48.5t-85.5 -30.5t-95.5 -15.5t-103.5 -6.5q-82 0 -157 18.5t-137 54.5t-112.5 85t-81 110.5t-45 132t-4.5 146.5zM182 553q-6 -70 11.5 -139.5t60.5 -128t111.5 -99.5 t166.5 -53q94 -12 172 15.5t129 80t76 122t27 141.5q2 80 -11.5 151.5t-55.5 125.5t-110.5 89t-164.5 37q-66 4 -135.5 -10.5t-129 -53t-100.5 -107.5t-47 -171z" />
<glyph unicode="&#x435;" horiz-adv-x="1224" d="M89.5 588q14.5 82 51.5 149.5t92 118.5t122 85t139.5 49.5t142.5 15.5q127 -4 226 -46t165.5 -115t99.5 -172.5t29 -219.5q12 -2 -22 -2h-96h-146h-174h-178h-156h-114q-44 0 -48 -2q10 -61 38.5 -111.5t68.5 -87.5t88.5 -62.5t93.5 -35.5q29 -6 68.5 -9.5t94 -0.5 t121 17.5t146.5 45.5l30 -164q-59 -29 -134.5 -43t-152.5 -15t-145.5 9t-113.5 33q-55 25 -108.5 56.5t-98.5 77.5t-79 107.5t-48 141.5q-17 98 -2.5 180zM231 575l750 -24q-16 76 -40 133t-73 98t-105.5 66.5t-117.5 34.5q-76 12 -149.5 -6.5t-132 -60.5t-94.5 -104.5 t-38 -136.5z" />
<glyph unicode="&#x436;" horiz-adv-x="1847" d="M90 170l666 410l-580 342l90 122l568 -374l-13 356l135 4v-375l588 387l90 -120l-579 -342l665 -410l-110 -139l-633 467l22 -492l-141 -6l-18 500l-639 -469z" />
<glyph unicode="&#x437;" horiz-adv-x="890" d="M14 881q0 2 93.5 61t241 82t253 -25.5t154.5 -130.5q41 -88 29.5 -161.5t-60.5 -135.5q-45 -57 -229 -190q39 -35 79 -82q63 -72 56.5 -159t-115.5 -140q-86 -29 -165 -16.5t-133 41t-165 110.5l88 123q88 -102 204 -143t150.5 26.5t-49.5 133t-112 77.5l-8 62 q27 4 49 18t47 29q121 88 183.5 158.5t31.5 160.5q-39 76 -125 99.5t-188.5 -8t-217.5 -152.5z" />
<glyph unicode="&#x438;" horiz-adv-x="1163" d="M63 659.5q0 141.5 3 315.5l170 -6q-2 -47 -7.5 -110.5t-10.5 -135.5t-5 -147.5t8 -146.5t27.5 -134.5t55.5 -110.5t90.5 -73.5t133.5 -24.5q76 0 139.5 27.5t110.5 79t75 126t32 173.5l6 464l160 -4l-15 -936l-149 4v107q-68 -57 -141.5 -94t-157.5 -41 q-129 -6 -220.5 16.5t-150.5 73.5t-91 133t-47.5 192.5t-15.5 252z" />
<glyph unicode="&#x439;" horiz-adv-x="1136" d="M37 659.5q0 141.5 2 315.5l170 -6q-2 -47 -7 -110.5t-10.5 -135.5t-5.5 -147.5t8.5 -146.5t28 -134.5t55 -110.5t90 -73.5t134.5 -24.5q76 0 139.5 27.5t110.5 79t74.5 126t31.5 173.5l6 464l160 -4l-14 -936l-150 4v107q-68 -57 -141.5 -94t-157.5 -41 q-129 -6 -220 16.5t-150.5 73.5t-91 133t-47 192.5t-15.5 252zM334 1401l88 39l149 -320l232 244l82 -84l-328 -287z" />
<glyph unicode="&#x43a;" horiz-adv-x="1087" d="M119 1026l135 6v-375l588 387l90 -122l-580 -342l666 -410l-111 -139l-633 467l23 -490l-141 -6z" />
<glyph unicode="&#x43b;" horiz-adv-x="1150" d="M2 57l506 936l67 6l500 -929l-157 -76l-392 782l-399 -778z" />
<glyph unicode="&#x43c;" horiz-adv-x="1679" d="M2 92l414 924l86 -12l332 -771l333 682l74 5l311 -873l-151 -41l-225 647l-302 -653l-69 2l-328 778l-315 -755z" />
<glyph unicode="&#x43d;" horiz-adv-x="1234" d="M78 973l149 2l4 -135l13 -275l676 15l14 378l153 3l-18 -953l-170 2l16 432l-665 -22l6 -277l8 -141l-160 -2z" />
<glyph unicode="&#x43e;" horiz-adv-x="1245" d="M59 498q12 113 62.5 201.5t130.5 149t184 96.5t203 34q80 0 179 -37t175 -101.5t121 -152.5t39 -194q-6 -125 -54.5 -222.5t-128 -163t-178 -101.5t-184.5 -36q-102 -2 -210.5 38t-187.5 109.5t-120 168t-31 211.5zM227 492q-4 -68 15.5 -140.5t63.5 -134t113.5 -102.5 t168.5 -45q55 -2 105 14t99 46t85 71t58.5 87t31 94t10.5 95q4 72 -16.5 140.5t-66.5 123t-119 90t-147 37.5q-49 4 -120.5 -17.5t-133 -67.5t-103.5 -118.5t-44 -172.5z" />
<glyph unicode="&#x43f;" horiz-adv-x="1234" d="M78 973l1009 -12l-18 -953l-170 2l19 819l-668 -10l6 -676l8 -141l-160 -2z" />
<glyph unicode="&#x440;" d="M57 954h136l4 -102q68 66 155.5 97.5t188.5 35.5q106 6 200.5 -17.5t168 -76.5t122.5 -137t64 -199q10 -113 -24 -211t-96.5 -178t-163.5 -130t-218 -46q-53 2 -105.5 11t-102.5 28.5t-96 46t-87 55.5l2 -557l-137 -2zM209 504q0 -76 22.5 -148.5t71.5 -128t129 -86 t191 -18.5q66 6 114.5 27.5t85.5 52t62.5 69.5t42 82t21.5 88t3 88q-4 96 -43 165t-96 112t-122.5 62.5t-123.5 19.5q-92 -2 -160.5 -37t-113.5 -88t-66.5 -121.5t-17.5 -138.5z" />
<glyph unicode="&#x441;" horiz-adv-x="964" d="M52.5 407.5q-23.5 118.5 31.5 284.5q39 86 89.5 144.5t113 95.5t132 54.5t139.5 25.5q215 14 391 -56l-2 -168q-178 76 -369 66q-59 -6 -116.5 -22.5t-107.5 -48t-97.5 -86t-65.5 -132.5q-14 -72 -8 -112.5t21.5 -95t69.5 -114t130 -100.5t177 -42t259 51q6 -125 6 -129 q-80 -31 -181 -37t-196.5 14t-183.5 68.5t-148.5 134.5t-84 204.5z" />
<glyph unicode="&#x442;" horiz-adv-x="897" d="M49 825l2 142l789 -19v-117l-346 3l18 -824l-162 -6l-4 819z" />
<glyph unicode="&#x443;" horiz-adv-x="1124" d="M-4 -250l119 57q12 -35 24.5 -57t22.5 -35.5t22.5 -22.5t28.5 -18q39 -25 78 -16.5t73.5 41.5t66.5 82t56.5 105.5t44 112.5t29.5 101l-561 756l121 74l493 -692l228 747l157 -45l-348 -1014q-53 -127 -105 -206.5t-107.5 -121.5t-116 -51.5t-134.5 9.5q-23 4 -49 18 t-54 39t-51.5 58.5t-37.5 78.5z" />
<glyph unicode="&#x444;" horiz-adv-x="2045" d="M98 555q14 115 63.5 199t123 137t168 76.5t200.5 17.5q100 -4 188 -37q70 -23 136 -69v75h135l4 -102q68 66 156 97.5t188 35.5q106 6 200.5 -17.5t168 -76.5t123 -137t63.5 -199q10 -113 -23.5 -211t-96 -178t-164 -130t-218.5 -46q-53 2 -105 11t-102.5 28.5t-96.5 46 t-87 55.5l2 -557l-137 -2l-4 555q-43 -31 -80 -51q-45 -27 -95 -46.5t-102.5 -28.5t-105.5 -11q-117 -4 -218.5 46t-164 130t-96 178t-23.5 211zM241 530q-2 -43 3.5 -88t21.5 -88t42 -82t62.5 -69.5t86 -52t114.5 -27.5q111 -12 190.5 18.5t129 86t72 128t22.5 148.5 q4 70 -17.5 138.5t-66.5 121.5t-113.5 88t-161.5 37q-57 0 -122.5 -19.5t-123 -62.5t-96.5 -112t-43 -165zM1128 504q0 -76 22.5 -148.5t72 -128t129 -86t190.5 -18.5q66 6 115 27.5t85.5 52t62.5 69.5t42 82t21.5 88t3.5 88q-4 96 -43 165t-96.5 112t-123 62.5t-122.5 19.5 q-92 -2 -161 -37t-114 -88t-66.5 -121.5t-17.5 -138.5z" />
<glyph unicode="&#x445;" horiz-adv-x="1079" d="M-12 934l102 100l379 -395l311 369l103 -90l-326 -373l391 -393l-102 -113l-369 387l-354 -424l-123 98l379 430z" />
<glyph unicode="&#x446;" horiz-adv-x="1273" d="M84 0l25 973l159 -2l-8 -172l-6 -647l559 -9l-18 820l170 2l16 -820l236 -10l8 -110l10 -234l-162 -4l4 227l-94 2v-4z" />
<glyph unicode="&#x447;" horiz-adv-x="1261" d="M129 629q10 80 8 346l180 -4l-26 -307q-12 -63 2 -119t63 -105q123 -109 307 -80q168 41 295 121l6 375l4 119h170l-14 -969l-174 2l10 344q-78 -53 -176 -78.5t-166.5 -35t-185.5 33.5h2h-2q-100 29 -171 80t-107.5 123t-24.5 154z" />
<glyph unicode="&#x448;" horiz-adv-x="1368" d="M78 0l26 981h160l-8 -182l-6 -647l348 -5l-4 824l145 4l15 -830l344 -2l-19 830l170 2l19 -963z" />
<glyph unicode="&#x449;" horiz-adv-x="1558" d="M78 0l26 981h160l-8 -182l-6 -647l348 -5l-4 824l145 4l15 -830l344 -2l-19 830l170 2l17 -830l235 -10l8 -110l11 -234l-162 -4l4 227l-94 2v-4z" />
<glyph unicode="&#x44a;" horiz-adv-x="1323" d="M33 854l2 131l198 -8v4l181 -6l-6 -318q76 57 175 85t132 30q119 0 219 -29.5t172 -86t107.5 -132t25.5 -164.5q-10 -88 -60.5 -155.5t-127 -111.5t-176 -67.5t-165 -23.5t-158.5 28.5t-151 82.5l-4 -82h-2v-2l-162 -6v8h-6l4 526l-2 295zM418 397q-2 -53 11 -104t58 -92 t201 -95q57 0 124 14.5t124 47.5t97 83t44 126q2 31 -3 66.5t-21.5 69.5t-41 63.5t-62.5 53t-88 38t-116 16.5q-31 4 -110.5 -21.5t-129.5 -67.5t-67.5 -94.5t-19.5 -103.5z" />
<glyph unicode="&#x44b;" horiz-adv-x="1536" d="M57 31l13 956l174 -2l-6 -328q76 57 175 85t132 30q119 0 219 -29.5t172 -86t107.5 -132t23.5 -164.5q-8 -88 -58.5 -155.5t-127 -111.5t-176 -67.5t-165 -23.5t-158.5 28.5t-151 82.5l-4 -82h-170zM248 397q-2 -53 11 -104t58 -92t116 -66.5t106.5 -27t102.5 13 t124 47.5t97 83t44 126q2 31 -4 66.5t-21.5 69.5t-40 63.5t-62.5 53t-89 38t-115 16.5q-31 4 -110.5 -21.5t-129.5 -67.5t-67.5 -94.5t-19.5 -103.5zM1141 23l219 -3l18 922l-204 -2z" />
<glyph unicode="&#x44c;" horiz-adv-x="1210" d="M57 31l13 956l174 -2l-6 -328q76 57 175 85t132 30q119 0 219 -29.5t172 -86t107.5 -132t23.5 -164.5q-8 -88 -58.5 -155.5t-127 -111.5t-176 -67.5t-165 -23.5t-158.5 28.5t-151 82.5l-4 -82h-170zM248 397q-2 -53 11 -104t58 -92t116 -66.5t106.5 -27t102.5 13 t124 47.5t97 83t44 126q2 31 -4 66.5t-21.5 69.5t-40 63.5t-62.5 53t-89 38t-115 16.5q-31 4 -110.5 -21.5t-129.5 -67.5t-67.5 -94.5t-19.5 -103.5z" />
<glyph unicode="&#x44d;" horiz-adv-x="1019" d="M39 956q174 70 389 56q72 -8 141.5 -25.5t132 -54.5t111.5 -95.5t88 -144.5q55 -166 31.5 -284.5t-84 -204.5t-148.5 -134.5t-182 -68.5t-196.5 -14t-182.5 37q0 4 6 129q158 -51 260.5 -50.5t177 41.5t130 100.5t71 114t21.5 95.5v12q-66 0 -307 2q-332 2 -336 0l8 121 l625 -17q-20 74 -66 125q-47 55 -96 87t-106.5 48.5t-116.5 22.5q-193 10 -369 -66z" />
<glyph unicode="&#x44e;" horiz-adv-x="1689" d="M90 8l2 953l135 -7l9 -319l274 -17q14 41 37 80q51 90 130 150.5t183.5 96.5t202.5 34q80 0 179 -37t175 -101.5t121 -152.5t41 -194q-8 -125 -56 -222.5t-128 -163t-178.5 -101.5t-184.5 -36q-102 -2 -210.5 38t-187.5 109.5t-120 168t-31 211.5l2 8l-252 2l21 -494z M651 492q-4 -68 15.5 -140.5t63.5 -134t113.5 -102.5t168.5 -45q55 -2 105 14t99.5 46t85 71t58 87t31 94t10.5 95q6 72 -14.5 140.5t-67.5 123t-120 90t-146 37.5q-49 4 -121 -17.5t-133.5 -67.5t-103.5 -118.5t-44 -172.5z" />
<glyph unicode="&#x44f;" horiz-adv-x="1304" d="M88 629q10 80 60 143.5t127 103t176.5 62.5t209.5 23q100 0 193.5 -28t150.5 -77l4 78h170l-14 -928l-174 2l8 344q-76 -53 -175 -78.5t-212 -27.5h-47l-233 -283l-123 98l182 211h4h-2q-100 29 -172 80t-107.5 123t-25.5 154zM243 618q-2 -27 4.5 -57.5t22.5 -59t41 -54 t62.5 -45t89 -32t116.5 -14.5q115 -4 195 18.5t131 58.5t68.5 80t19.5 85q2 47 -11.5 90t-59.5 78t-116.5 56.5t-166.5 23.5q-59 2 -126 -11.5t-125.5 -41t-99.5 -70t-45 -105.5z" />
<glyph unicode="&#x451;" horiz-adv-x="1224" d="M89.5 588q14.5 82 51.5 149.5t92 118.5t122 85t139.5 49.5t142.5 15.5q127 -4 226 -46t165.5 -115t99.5 -172.5t29 -219.5q12 -2 -22 -2h-96h-146h-174h-178h-156h-114q-44 0 -48 -2q10 -61 38.5 -111.5t68.5 -87.5t88.5 -62.5t93.5 -35.5q29 -6 68.5 -9.5t94 -0.5 t121 17.5t146.5 45.5l30 -164q-59 -29 -134.5 -43t-152.5 -15t-145.5 9t-113.5 33q-55 25 -108.5 56.5t-98.5 77.5t-79 107.5t-48 141.5q-17 98 -2.5 180zM231 575l750 -24q-16 76 -40 133t-73 98t-105.5 66.5t-117.5 34.5q-76 12 -149.5 -6.5t-132 -60.5t-94.5 -104.5 t-38 -136.5zM410 1178.5q-7 35.5 10 64.5q31 39 69.5 40t67.5 -19q31 -27 35 -57.5t-15 -61.5q-25 -31 -58.5 -34t-68.5 13q-33 19 -40 54.5zM759.5 1162q-6.5 32 20.5 63q27 23 60.5 20.5t45.5 -12.5q27 -18 34 -46t-9 -54q-25 -25 -55.5 -31t-61.5 12q-28 16 -34.5 48z " />
<glyph unicode="&#x2000;" horiz-adv-x="929" />
<glyph unicode="&#x2001;" horiz-adv-x="1859" />
<glyph unicode="&#x2002;" horiz-adv-x="929" />
<glyph unicode="&#x2003;" horiz-adv-x="1859" />
<glyph unicode="&#x2004;" horiz-adv-x="618" />
<glyph unicode="&#x2005;" horiz-adv-x="464" />
<glyph unicode="&#x2006;" horiz-adv-x="309" />
<glyph unicode="&#x2007;" horiz-adv-x="309" />
<glyph unicode="&#x2008;" horiz-adv-x="231" />
<glyph unicode="&#x2009;" horiz-adv-x="370" />
<glyph unicode="&#x200a;" horiz-adv-x="102" />
<glyph unicode="&#x2010;" horiz-adv-x="585" d="M0 766l475 39l-8 -131l-459 16z" />
<glyph unicode="&#x2011;" horiz-adv-x="585" d="M0 766l475 39l-8 -131l-459 16z" />
<glyph unicode="&#x2012;" horiz-adv-x="585" d="M0 766l475 39l-8 -131l-459 16z" />
<glyph unicode="&#x2013;" horiz-adv-x="841" d="M0 657l745 31l-8 -104l-731 14z" />
<glyph unicode="&#x2014;" horiz-adv-x="655" d="M0 664l545 34l-4 -110l-535 12z" />
<glyph unicode="&#x2018;" horiz-adv-x="239" d="M0 1526l129 6v-322h-68z" />
<glyph unicode="&#x2019;" horiz-adv-x="237" d="M4 1120v318l143 -8l-67 -310h-76z" />
<glyph unicode="&#x201a;" horiz-adv-x="225" d="M2 -106v307l123 -8l-57 -299h-66z" />
<glyph unicode="&#x201c;" horiz-adv-x="350" d="M0 1501l111 6v-276h-60zM137 1532l107 -25l-29 -225h-59z" />
<glyph unicode="&#x201d;" horiz-adv-x="346" d="M0 1501l109 6v-272h-58zM135 1532l105 -25l-29 -221h-57z" />
<glyph unicode="&#x201e;" horiz-adv-x="307" d="M2 164l92 4v-227h-49zM113 190l92 -22l-27 -184h-47z" />
<glyph unicode="&#x202f;" horiz-adv-x="370" />
<glyph unicode="&#x205f;" horiz-adv-x="464" />
<glyph unicode="&#x20ac;" horiz-adv-x="841" d="M0 803l160 4q18 127 64 208t104.5 126t123 60.5t121 12t97.5 -18.5t53 -30l-31 -110q-2 2 -29.5 16t-69.5 26.5t-92 12.5t-94.5 -27.5t-76 -93t-39.5 -182.5h104l-4 -53l-104 -6v-54l172 17l-4 -105l-162 4q10 -104 44 -163.5t78 -85t92 -31.5t89 0t68.5 13t27.5 9 l43 -164q-156 -23 -282 15q-53 14 -105.5 42.5t-94.5 77t-69.5 120t-33.5 169.5l-80 4l-4 62l81 8q0 2 3 53l-140 -8z" />
<glyph unicode="&#x2122;" horiz-adv-x="696" d="M2 1434l258 -2l-2 -25h-123l25 -272l-43 -2l-8 276l-105 2zM293 1133l33 -3l-9 232l109 -225l115 237l12 -239h47l-18 297h-37l-111 -238l-123 240h-18v-301z" />
<glyph unicode="&#x2212;" horiz-adv-x="655" d="M0 664l545 34l-4 -110l-535 12z" />
<glyph unicode="&#xe000;" horiz-adv-x="1035" d="M0 1035h1035v-1035h-1035v1035z" />
</font>
</defs>
</svg>
