<?xml version="1.0" standalone="no"?>
<!DOCTYPE svg PUBLIC "-//W3C//DTD SVG 1.1//EN" "http://www.w3.org/Graphics/SVG/1.1/DTD/svg11.dtd" >
<svg xmlns="http://www.w3.org/2000/svg">
<metadata>
This is a custom SVG webfont generated by Font Squirrel.
Copyright   : Copyright c 2004 Valve Corporation All Rights Reserved
</metadata>
<defs>
<font id="csRegular" horiz-adv-x="500" >
<font-face units-per-em="1000" ascent="800" descent="-200" />
<missing-glyph horiz-adv-x="500" />
<glyph unicode="!" horiz-adv-x="1142" />
<glyph unicode="+" />
<glyph unicode="0" horiz-adv-x="1010" d="M332 411q-82 0 -133 73.5t-52 213.5q0 71 14.5 125.5t40.5 91t62 55.5t78 19q89 0 137.5 -74.5t48.5 -208.5q0 -144 -51 -219.5t-143 -75.5h-2zM337 469q57 0 85 63t28 170q0 52 -6.5 94t-20.5 72t-35 46t-51 16q-52 0 -83 -61t-31 -167q-2 -109 29 -171t83 -62h2z" />
<glyph unicode="1" horiz-adv-x="570" d="M359 918h-1l-101 -53l-15 58l126 67h67v-570h-76v498v0z" />
<glyph unicode="2" horiz-adv-x="659" d="M156 424v45l60 58q53 51 92 91t64.5 74t38 64t12.5 62q0 21 -5.5 40.5t-18.5 34.5t-34 24t-52 9q-38 0 -68.5 -15t-50.5 -32l-24 55q29 23 69.5 39t89.5 16q44 0 76 -14t52.5 -36.5t30.5 -51.5t10 -59q0 -39 -13.5 -74.5t-38.5 -71.5t-60.5 -73.5t-79.5 -80.5l-43 -40v-3 h248v-61h-355z" />
<glyph unicode="3" horiz-adv-x="751" d="M191 505q17 -10 50.5 -22.5t74.5 -12.5q36 0 61 10.5t40 26t21 35t5 37.5q0 30 -12.5 51.5t-32.5 35t-46 20t-54 6.5h-43v58h43q21 0 43 5.5t40.5 17.5t30.5 30t12 43q0 33 -23.5 59t-76.5 26q-34 0 -64 -12t-49 -26l-20 55q23 17 62.5 30.5t85.5 13.5q42 0 72.5 -11.5 t50.5 -30t29.5 -43t9.5 -50.5q0 -45 -26.5 -80t-77.5 -53v-2q26 -5 49 -17t40 -30.5t27 -42.5t10 -54q0 -34 -13 -64.5t-39 -54t-64.5 -37.5t-89.5 -14q-48 0 -87 12t-61 26z" />
<glyph unicode="4" horiz-adv-x="1010" d="M375 411v157h-269v51l259 371h84v-361h82v-61h-82v-157h-74zM375 629v193q0 23 1 46l2 46h-3q-14 -26 -24.5 -46t-22.5 -41l-141 -196v-2h188z" />
<glyph unicode="5" horiz-adv-x="618" d="M454 925h-212l-21 -144q10 2 20.5 3t24.5 1q68 0 120 -29q33 -20 56 -56.5t23 -91.5q0 -41 -15.5 -76.5t-42.5 -61.5t-65 -40.5t-83 -14.5q-46 0 -81.5 10.5t-57.5 24.5l20 58q17 -10 49 -20.5t70 -10.5q26 0 50 8.5t42 24.5t28 39t10 52q0 55 -38 90t-120 35 q-25 0 -43.5 -2t-34.5 -4l35 270h266v-65z" />
<glyph unicode="6" horiz-adv-x="672" d="M443 927q-11 1 -25.5 -0.5t-30.5 -3.5q-44 -7 -77.5 -26t-57 -45t-37.5 -58.5t-19 -66.5h2q19 27 53 45.5t81 18.5q36 0 66.5 -12.5t52.5 -36t34 -56t12 -72.5q0 -38 -12.5 -73.5t-36 -62.5t-58 -43t-77.5 -16q-44 0 -79.5 16.5t-61 47t-39 74t-13.5 96.5q0 82 25.5 145 t67.5 105q69 67 175 81q17 3 30.5 3.5t24.5 0.5v-61zM315 477q48 0 77.5 36t29.5 95q0 60 -31 93.5t-83 33.5q-33 0 -62 -18.5t-45 -49.5q-8 -13 -8 -32q0 -34 8 -63t23.5 -50t38 -33t52.5 -12z" />
<glyph unicode="7" horiz-adv-x="621" d="M506 983v-50l-250 -513h-80l249 498v2h-284v63h365v0z" />
<glyph unicode="8" horiz-adv-x="661" d="M389 710q48 -24 69.5 -61t21.5 -75q0 -37 -14.5 -67.5t-40.5 -52t-61 -33.5t-76 -12q-45 0 -79 13t-56.5 34t-34 48.5t-11.5 57.5q0 20 5 40t17 39t31.5 36t48.5 30v3h2q-45 24 -65 58t-20 70q0 35 14 63.5t38.5 49t57.5 32t72 11.5h1q43 0 75 -12t54 -32t33 -46.5 t11 -54.5q0 -38 -22 -75t-77 -63v-1h6v0zM306 938q-50 0 -76.5 -28.5t-26.5 -66.5q0 -45 31.5 -70t82.5 -39q38 14 63.5 41t25.5 67q0 17 -5.5 34.5t-17.5 31t-30.5 22t-44.5 8.5h-2v0zM291 470q53 0 80 29t27 70q2 47 -31 73.5t-87 40.5q-41 -14 -68 -42t-27 -70 q0 -19 6 -37t18.5 -32.5t32.5 -23t48 -8.5h1v0z" />
<glyph unicode="9" horiz-adv-x="625" d="M173 480q12 0 26 0.5t33 3.5q33 3 63 17t53 36q28 26 46.5 63t26.5 87h-2q-23 -28 -56 -44t-76 -16q-37 0 -67 13.5t-51 36.5t-32.5 54.5t-11.5 67.5q0 40 13.5 76t38.5 63.5t60 43.5t77 16t76 -16.5t57.5 -47.5t36 -74t12.5 -97q0 -94 -27 -159t-67 -107 q-32 -31 -74 -50t-87 -25q-20 -2 -37.5 -3.5t-30.5 -0.5v62zM307 941q-23 0 -43 -10.5t-34 -28.5t-22 -43t-8 -55q0 -52 28.5 -86t77.5 -34q37 0 65.5 17.5t42.5 41.5q7 10 7 28q0 37 -6.5 68t-20.5 53.5t-35 35.5t-50 13h-2z" />
<glyph unicode=":" />
<glyph unicode="A" horiz-adv-x="1326" d="M1292 832q3 -11 2.5 -18.5t-2.5 -12.5q-3 -5 -6 -9h-3q-4 0 -15 -0.5t-23 -0.5h-22t-11 1q-3 0 -7 2.5t-4 4.5h-8.5t-14.5 -2q-1 0 -2 -1t-3 -2t-3 -2q-5 -3 -5 -6q0 -2 -1 -11.5t-3 -11.5v-4h-4h-11t-8 2q-4 0 -6 10l-2 -6h-53v-13l-2 -12h-169l-8 6v10h-45 q0 -2 -6.5 -3.5t-26.5 -12.5q0 -4 1.5 -14.5t4 -24t5.5 -27.5t6 -25q5 -27 6.5 -38t1.5 -13v-2q0 -1 -0.5 -1.5t-0.5 -1.5l-1 -1q-5 -2 -21.5 -7.5t-35.5 -10.5t-35 -8t-20 -1q-2 1 -4 6.5t-5 18t-7.5 35.5t-10.5 60q-2 8 -3 16t-1 13q-8 -6 -11 -17h-2q-24 -17 -49 -14 q-17 7 -21 17q-12 -17 -23 -34.5t-20 -32.5t-14.5 -26.5t-5.5 -16.5v-2q2 -2 2 -9q0 -6 -2 -8q-4 -4 -6 -4q-2 -1 -2 0q-94 31 -97 50q0 4 1 5q0 1 1 2t10.5 13t21 27t22 29.5t13.5 20.5q2 2 2 9q0 8 -4.5 14.5t-7.5 8.5q-1 0 -6 0.5t-11 1.5q-7 1 -15 2q-21 6 -45.5 3 t-45.5 -8.5t-35 -11t-15 -6.5q-42 -22 -86 -45t-80.5 -41.5t-60.5 -30.5t-26 -12q-5 0 -12.5 2t-10.5 15v2q3 8 4.5 26.5t2 42t0.5 49t-0.5 46t-1.5 34l-1 13.5v4l4 2h7.5h33t80 -0.5t149.5 -1.5q35 0 73.5 10t67.5 20q16 8 33.5 11.5t25.5 3.5v23l13 4h2h4q2 2 4.5 7 t10.5 16l2 4l34 -14q0 -2 1 -3q0 -2 0.5 -2.5t0.5 -1.5q2 0 5.5 -0.5t19.5 -9.5l2 -2v-19h23v23h-14l-2 2q0 6 -1.5 11t-1.5 10q0 13 2.5 21t2.5 11q1 1 2.5 2t8 2t21 1.5t41.5 0.5v17h3q5 2 9 2t7 -1q4 -1 7 -3l2 -2v-2v-7v-4q3 0 8.5 3.5t10.5 7.5h2q2 0 13 1q8 1 25 2 t46 3h5v-2q4 -16 2.5 -29.5t-3.5 -23.5q-4 -11 -8 -21l-2 -2h-13v-23h15q3 2 9 2t18 2h112q38 0 69 1q26 0 49 0.5t28 0.5q-2 5 -2 8.5v6.5q0 17 3 24t5 7v3h27l2 -3q4 0 4.5 -3.5t0.5 -8.5v-10.5t-2 -10.5q1 -3 2 -7q2 -8 2 -10h8h2l2 -2q4 -5 4.5 -10t0.5 -11 q0 -14 -5 -26h15l13 2q3 2 17 2t57 -2h4v-2v0zM638 742q-5 0 -8.5 -4.5t-3.5 -10.5t3.5 -10.5t8.5 -4.5h30q5 0 9 4.5t4 10.5t-4 10.5t-9 4.5h-30v0zM120 706q11 -7 21.5 -12t14.5 -7q3 1 18 8.5t35.5 18.5t43.5 23.5t42 23.5q0 2 1 5.5t1 6.5q0 5 -2 7q-20 1 -43.5 3 t-45 3.5t-37 2t-18.5 -0.5l-4 -2q-14 -6 -18.5 -9.5t-4.5 -5.5t-0.5 -10.5t-1 -19t-1 -20.5t-1.5 -15zM723 879h46v23h-46v-23z" />
<glyph unicode="B" horiz-adv-x="1452" d="M1427 927q0 -5 -0.5 -12t-2.5 -11q-4 -4 -16.5 -4.5t-24.5 -0.5v-5h1q2 0 2 -3q4 0 13 1t15 -3q4 -2 7 -11t1 -17q-4 -12 -16 -16h-59h-294q-2 0 -17 -5t-44 -5h-6h-41.5t-58.5 -0.5t-65 -0.5h-61h-47t-21 1q-6 2 -11.5 2.5t-11.5 0.5h-18q-4 1 -12.5 1.5t-17.5 1 t-16.5 0.5t-9.5 -1q-3 0 -8 -5q-13 -8 -18 -8q-2 0 -7 2t-13 4t-17.5 3.5t-11.5 1.5q-5 0 -18 -0.5t-17 -4.5q-3 0 -8 -8q-6 -6 -13 -13.5t-15 -9.5h-8q-4 -2 -6 -2.5t-4 -0.5q-4 0 -14 -0.5t-21.5 -1t-20.5 -2t-11 -3.5q-1 -1 -5 -10t-10 -22t-13 -27l-13 -26q0 -10 1 -14 t2 -6l2 -3q2 -2 5 -4t3 -6l-2 -3q-2 -2 -7 -2.5t-10 -0.5q-6 0 -14 1q-8 2 -20 4.5t-23 5.5t-19.5 5.5t-9.5 4.5l-1 2v1h-1q-3 2 -3 7v3q1 2 8.5 15t16 29t16 29.5t8.5 16.5q0 4 -0.5 10t-4.5 10q-6 2 -15 3.5t-14 -0.5q-10 0 -10 2h-2q0 2 1 4q0 2 0.5 3.5t0.5 2.5 q-2 0 -18 -3.5t-34.5 -8t-33.5 -8t-16 -3.5q-2 -2 -4.5 -5.5t-8.5 -9.5q-3 -4 -6 -10.5l-6 -13t-5 -11.5t-3 -6t-7 -5q-5 -3 -17.5 -9t-34.5 -14h-3l-10 3l-3 186l77 11q4 1 6 2.5t4 3.5t3 4l253 23v-3q2 -4 4 -7t4 -3q1 -1 2 -1q2 0 3 1l3 3v2v5h2q13 20 18 25q3 4 5 4 q10 0 13 -8q5 -5 10 -5l5 -3h16q8 0 13 -0.5t5 -4.5q2 0 2 -8v-5q1 0 2 -0.5t2 -0.5l1 -1v15h213v-3q0 -5 1.5 -10t3.5 -5h648q2 2 6 6.5t4 8.5l2 6q0 4 2 9.5t6 5.5q3 0 10.5 -4t15.5 -9t14.5 -10.5t8.5 -9.5q2 -2 3 -2.5t2 -1.5t2 -1h3l8 -3v-3v-5zM1352 894q-3 5 -5 5 h-15l-3 3h-276q-5 -5 -5 -8v-3q5 -1 36 -1t75 0.5t94 1.5t92 2h7v0zM431 815q8 0 11.5 4.5t3.5 10.5q0 8 -3.5 13t-11.5 5h-36q-6 0 -10.5 -5t-4.5 -13q0 -6 4.5 -10.5t10.5 -4.5h36v0zM682 961h-10v7h10v-7zM661 958h-10v10h10v-10zM641 961h-10v10h10v-10zM623 961h-10v10 h10v-10zM602 961h-10v10h10v-10zM582 961h-10v10h10v-10zM561 961h-10v10h10v-10zM541 961h-10v10h10v-10zM520 961h-10v10h10v-10zM503 961h-11v10h11v-10z" />
<glyph unicode="C" horiz-adv-x="1235" d="M1090 605l7 -7t10.5 -11.5t9.5 -13t3 -11.5q-2 -5 -2.5 -8.5t-1.5 -6.5q-1 -4 -1 -6h-2v-1l-5.5 -6.5t-13 -13.5t-17 -12.5t-18.5 -3.5q-1 0 -2.5 1t-6.5 3q-2 2 -5.5 3t-7.5 3h-5v1q-8 4 -12 3h-1q-1 0 -3 2t-4.5 4t-7.5 7q-12 12 -14 19q-1 3 -12 11.5t-27.5 20 t-36.5 24.5t-41 26l-2 2q-2 -7 -6.5 -20t-13.5 -27q-11 -19 -33 -36.5t-62 -19.5q-61 -4 -109 55q-10 14 -16.5 27l-10.5 21q0 1 -3 7q-10 -6 -40 -25.5t-63 -45.5q-12 -9 -22 -18.5t-19 -18.5l-11 -11t-9 -6v-1h-1q-1 -1 -1 -2t-2 -1q-2 -2 -7 -2.5t-12 2.5t-16.5 12 t-21.5 26q-3 3 -5 9t-3 12v4q0 10 8 23t39 21l1 -2v2q1 -1 7 0t14 2.5t15.5 3t12.5 3.5q3 1 17.5 9.5t32.5 20t36.5 22.5t30.5 19q-2 5 -5 18t-7 28.5t-6.5 30.5t-2.5 25q-2 1 -20 9t-40 17.5t-40 17l-18 7.5q-5 -1 -18 -1.5t-26 12.5q-20 15 -18 27l1 1q2 3 4 7 q2 3 2.5 6.5t1.5 6.5q2 21 11 28.5t17 9.5h1q14 2 29 1.5t21 -9.5v-1q4 -7 8.5 -13.5t9.5 -11.5q3 -3 12.5 -8.5t21.5 -11.5t24.5 -12t22.5 -10q3 6 10 19.5t22 29.5q18 17 50.5 34.5t84.5 17.5q2 0 19 -1.5t40 -10.5q61 -21 89 -80q0 2 2 2l9 6l30 18q11 8 21 14 q8 5 14.5 9t7.5 5q0 4 5 17t16 18q11 8 28 2h1q6 -7 11.5 -9.5t8.5 -3.5l4 -2q4 -1 17 -10.5t16 -25.5q1 -3 1 -8q0 -21 -21 -40q0 -1 -4 -2t-20 -3q-2 -1 -11.5 -2.5t-14.5 0.5q-2 -2 -13 -8t-26 -14.5t-31.5 -18t-31.5 -17.5q-2 -3 -2 -7l-2 2q-2 -9 -6.5 -24.5 t-5.5 -25.5v-11q-2 -17 -3.5 -30t-5.5 -18l-2 -3q7 -4 28.5 -15.5t44.5 -24.5q27 -15 59 -33q1 -1 7.5 -2.5t15 -3.5t16.5 -3.5t14 -1.5h4v-1v1l8 -1l2 -2v0zM769 588q5 2 8.5 3t6.5 3q-1 3 -1 7.5t-2 10.5q-3 -1 -6.5 -2t-6.5 -1v-11t1 -10zM790 598q3 2 6 3.5t5 3.5 q-1 2 -2 4.5t-1 5.5q-3 0 -5 -1t-5 -1q1 -6 1 -9.5t1 -5.5zM806 611q3 2 5 4.5t4 4.5q-3 -1 -5 -1t-5 -2v-5q0 -1 1 -1zM806 611v-2v2zM804 624q6 1 11 4h-11v-4v0zM789 629q-1 -4 -1 -9q3 0 5 0.5t4 0.5v8h-8zM781 619q0 6 2 10h-15v-13q3 1 6.5 1t6.5 2zM762 629h-14 q0 -10 -1 -14h15v14zM741 615q1 4 1 14h-1h-17q0 -3 0.5 -6.5t0.5 -7.5h16v0zM700 619q7 -3 18 -3q0 3 -0.5 6t-0.5 7q-5 -1 -9 -1h-8v-9v0zM675 628q6 -5 18 -8v8h-18zM693 613l-10 4t-9 3q4 -3 9 -6.5t10 -8.5v8v0zM700 612q0 -8 -1 -11q8 -5 19 -9h-1q1 2 1 16 q-5 1 -9.5 2t-8.5 2zM725 608q0 -16 -1 -18q10 -4 18 -4q0 2 -0.5 7t-0.5 15q-5 -1 -8.5 -0.5t-7.5 0.5zM747 608v-15t1 -7h-1h7h9q-1 5 -1 10.5v11.5h-15v0zM742 708q-7 -4 -9.5 -9t-3.5 -10q0 -2 -1 -3.5t-1 -3.5q0 -5 3 -8q1 -2 3 -2q3 0 9 6v30zM682 722q17 0 28.5 9 t11.5 23q0 13 -11.5 22t-28.5 9t-29 -9t-12 -22q0 -14 12 -23t29 -9zM771 674q1 1 1 8v7q-1 5 -4 10t-10 9v-30q2 -2 5 -4t5 -2q1 0 3 2zM813 786q-17 0 -29 -9t-12 -22t12 -22.5t29 -9.5t29.5 9.5t12.5 22.5t-12.5 22t-29.5 9z" />
<glyph unicode="D" horiz-adv-x="1131" d="M634 790q8 3 15 3q6 0 12.5 -2.5t11.5 -9.5v-2h-2q-5 -2 -16.5 -3.5t-22.5 11.5v3h2v0zM636 787q2 -3 5 -4.5t6 -3.5q-2 2 -2 6q0 2 1 3.5t1 3.5q-3 -2 -6 -2.5t-5 -2.5zM669 781q-2 3 -4.5 5t-4.5 4v-5q0 -6 -4 -6q10 0 13 2zM684 647q1 0 8.5 3.5t17.5 6t19.5 1.5 t14.5 -9l-2 -2v2l-54 -2l-2 -2l-2 2v0zM766 867q18 -43 15 -67v-2h-3q-3 -8 -8 -22.5t0 -22.5v-2l4 -16t4 -10v-4q0 -4 -1 -11t-2.5 -13.5t-3.5 -12t-3 -7.5q-2 -2 -6 -13t-7 -21q-1 -7 -3.5 -18t-5.5 -21.5t-6 -19t-5 -10.5q-2 -5 -8.5 -10t-14.5 -12h-3v-6q0 -10 3 -21 t6 -18v-6q-13 -14 -26.5 -22.5t-24.5 -13t-19 -6t-10 -1.5q-31 2 -62.5 21t-58 41t-43 40t-17.5 20h-2q-2 4 1 19t8 46q6 19 6 30q0 7 -3 23.5t-8 37.5q-5 20 -8 41t-7 41q-3 21 1 42t12 39t18 32t19 22q8 8 23 14.5t33 10.5t36.5 5t32.5 -2q13 -1 27.5 -6.5t27 -12t21 -13 t10.5 -9.5q2 -2 7 -6.5t13 -12.5h155h4l58 -24l-58 -30h-118zM515 871v-4q0 -3 0.5 -10t2.5 -14q0 9 4 9h1q1 0 3 -2q2 -3 4.5 -12.5t4.5 -17.5v-5q3 4 5 6.5t6 4.5q7 6 10 2q5 -2 9.5 -7t8.5 -10l2 -2q2 3 5 9.5t8 9.5q3 5 8 5q3 -2 7 -2q7 -5 11 -3q4 6 0 13q-5 8 0 11 q2 3 11 3.5t17 -1.5q-2 6 -13 13q-4 2 -4.5 3t-2.5 1h-4l4 3q0 2 2 2q4 5 9 9t9 6h2q-2 3 -6.5 6.5t-15.5 8.5q-10 5 -12.5 7.5t-2.5 5.5q0 2 -2 4q0 4 -1 7t-1 6v4h-2q-8 -3 -20 -5q-6 -1 -13 -1l-2 -2q0 5 1 10q0 5 0.5 9t0.5 7q-1 -1 -8 -15q-4 -7 -5.5 -9t-3.5 -2t-3 1 t-3 1q0 4 -5 4q-2 2 -4 3.5t-2 3.5q-2 -4 -2 -7.5t-2 -9.5v-9q0 -3 -1.5 -4t-3.5 -3h-2q-7 -3 -15 0.5t-13 6.5q0 -2 1.5 -4.5t5.5 -2.5q5 -3 11 -12q3 -4 6 -9l2 -2q-10 -3 -19 -6q-8 -2 -14 -4t-8 -3q2 -2 5.5 -4.5t13.5 -2.5h11zM658 759q16 0 27.5 8t11.5 18t-11.5 18 t-27.5 8q-17 0 -29 -8t-12 -18t12 -18t29 -8zM733 621q7 4 11 10t4 8l2 10q-2 5 -2 9.5t-2 6.5t-7.5 2h-7.5q-2 -2 -8.5 -2t-8.5 2h-20q-5 -2 -16.5 -9t-13.5 -11q1 -2 5 -5.5t9.5 -7.5t10.5 -7t8 -3q13 -4 23 -4.5t13 1.5zM763 766q-3 -2 -9.5 -2t-9.5 2v-2q6 -8 19 -11v13 zM766 772q0 2 -2.5 3.5t-4.5 3.5l1 -1q0 -1 0.5 -2t0.5 -2q0 -6 -8 -6h10v1h1l2 1v2zM744 774q0 9 9 9q-3 0 -4 1q-1 0 -1 1v2q-2 -3 -2 -4.5t-2 -3.5v-2v-7v-2h9q-9 0 -9 6zM766 777l4 12t4 9q-5 -2 -13 -3t-13 -8q2 -2 8 -4.5t10 -5.5zM1024 906v-22h-69v22h69zM938 925 l41 37l15 -17l-43 -37zM934 925l-20 11l18 30l17 -10zM953 880l43 -37l-15 -17l-41 37zM936 863l15 -30l-17 -11l-18 30z" />
<glyph unicode="E" horiz-adv-x="1281" d="M644 896q14 -125 -14 -230q-11 -43 -29 -81t-41 -73q-21 -29 -41.5 -50t-37 -34t-27 -19.5t-10.5 -7.5l-6 -3l-6 3q-90 62 -142 152q-41 72 -57 162q-7 38 -8 70.5t0 57t3 39t2 15.5l3 17l14 -9q41 -25 84 -14q21 6 38 18.5t29.5 25t19.5 22.5t8 11q0 4 2 14q1 4 2 9 l15 -21q50 -76 115 -80q31 -3 66 15q6 4 13 0l5 -3v-6v0zM609 672q17 66 17 143q0 16 -0.5 31.5t-2.5 31.5q-33 -13 -65 -11q-69 4 -122 76q-2 -2 -4.5 -5.5t-5.5 -6.5q-9 -11 -23.5 -24t-32.5 -23q-58 -34 -119 -6q-1 -11 -2.5 -26.5t-1.5 -35.5q0 -43 9 -97 q15 -86 54 -155q46 -84 129 -139q6 3 17 11t25 20.5t30 29.5t31 40q23 33 39.5 69t27.5 77zM572 824q5 -48 1.5 -88t-12.5 -72t-21.5 -56.5t-25.5 -42.5q-14 -20 -27.5 -34t-24.5 -23q-13 -11 -24 -17q-34 23 -58 50t-39.5 54.5t-24 54.5t-12.5 50q-5 25 -5.5 47.5t0 39 t2 26.5t1.5 11h2q31 -21 66 -9q15 5 27.5 14t20.5 18t12.5 16l4.5 7h1q19 -29 39 -41.5t38 -15t32.5 1.5t23.5 9h3v0zM430 669q0 -2 6 -2.5t8 -2.5h58q5 0 16.5 -3t15.5 -4v10q0 77 -41 104q-19 12 -40 13t-39 -2q-21 -4 -42 -12q-9 -5 -16.5 -15.5t-12.5 -22.5 q-6 -14 -12 -30q-2 -2 -4 -5.5t-4 -5.5q-1 0 -1 -1q2 0 6 0.5t9 0.5q11 2 20.5 2.5t14.5 0.5q4 0 11 -3t15.5 -7t16 -8t12.5 -6z" />
<glyph unicode="F" horiz-adv-x="1055" d="M705 839v-290h-152v-148h-291v152h-158v291h152v150h280h11v-155h158zM664 590v208h-156v2h-3v153h-208v-151h-152v-208h159v-152h208v148h152zM462 761h155v-117h-155v-153h-115v153h-159v117h159v151h115v-151z" />
<glyph unicode="G" horiz-adv-x="1143" d="M632 789q20 -30 31.5 -66t11.5 -77q0 -52 -19.5 -97.5t-53 -79.5t-78 -54t-94.5 -20q-51 0 -96 20t-78.5 54t-53 79.5t-19.5 97.5q0 76 40 138q-6 4 -9 7q-15 14 -12 38.5t21 44.5q11 11 24.5 17t26.5 6q20 0 31 -10q3 -4 5.5 -7.5t3.5 -8.5q40 22 86 26v34h-52v62h161 v-62h-47v-34q20 -4 39 -9.5t38 -15.5q2 13 9 19q6 5 13.5 8t17.5 3q12 0 25.5 -7t24.5 -18t16 -24.5t5 -25.5v-2q0 -21 -12 -30q-1 -2 -2.5 -3t-3.5 -3zM430 457q38 0 71.5 15t58.5 41t39.5 60t14.5 73t-14.5 74t-39.5 60.5t-58.5 40.5t-71.5 15t-72 -15t-59 -40.5 t-39.5 -60.5t-14.5 -74t14.5 -73t39.5 -60t59 -41t72 -15zM560 757l-103 -103v-6q0 -5 -2 -9l69 -71l-15 -16l-69 71q-3 -1 -9 -1q-12 0 -20 7.5t-8 18.5q0 12 8 20.5t20 8.5q1 0 3 -2l105 105z" />
<glyph unicode="H" horiz-adv-x="997" d="M321 870q-22 0 -36.5 17.5t-14.5 41.5q0 26 14.5 43.5t36.5 17.5q23 0 38 -17.5t15 -43.5q0 -24 -15 -41.5t-38 -17.5zM479 572q0 -10 -6.5 -17.5t-16.5 -7.5q-9 0 -15 6.5t-6 16.5v158h-2q-4 0 -6 2h-8t-14 -2v-175v-304q0 -14 -9 -23t-20 -9t-19 9t-8 23v287q-5 0 -9 8 h-27q-2 -3 -3 -6t-4 -6v-275v-4q0 -14 -8 -23t-19 -9t-18.5 9t-7.5 23v4v287v182q-21 6 -25 2q-2 -2 -3 -2h-1q-2 0 -2 1v1v-152v-6q0 -10 -6 -17.5t-17 -7.5q-8 0 -14.5 6.5t-6.5 16.5h-1v219v2v2l4.5 8.5t13.5 19.5t23.5 21t34.5 13v2h148h4q18 -3 32 -12t23 -19.5 t13.5 -20t5.5 -11.5v-1v-2v-211v-6z" />
<glyph unicode="I" horiz-adv-x="1060" d="M383 497q-10 -5 -29 -9t-45 -4q-73 0 -114 43q-39 39 -39 105q0 73 47 115q45 40 112 40q26 0 45 -4t28 -9l4 -2l-17 -62l-6 3q-8 3 -20.5 6.5t-30.5 3.5q-37 0 -59 -22q-25 -23 -25 -65t22.5 -64t62.5 -22q14 0 27.5 1.5t23.5 6.5l6 3l12 -62l-5 -2v0zM624 613v-60h-32 v-64h-73v64h-119v49l104 170h82h6v-159h32zM519 613v54v12t1 14q-3 -8 -6.5 -14.5t-7.5 -14.5q-7 -11 -13 -21q-5 -8 -10.5 -16.5t-7.5 -13.5h44zM649 885q51 -51 78 -116t27 -137t-27 -137t-78 -116t-116 -77.5t-137 -26.5t-136.5 26.5t-115.5 77.5t-78 116t-27 137t27 137 t78 116t115.5 78t136.5 27t137 -27t116 -78zM616 413q44 44 67 100.5t23 118.5t-23 118.5t-67 100.5q-45 45 -101 68t-119 23q-62 0 -118 -23t-101 -68q-44 -44 -67.5 -100.5t-23.5 -118.5t23.5 -118.5t67.5 -100.5q45 -45 101 -68t118 -23q63 0 119 23t101 68zM245 794 l-29 36l18 14l29 -35zM389 811h-24v107h24v-107zM308 809l-26 71l23 7l26 -71zM523 795l-19 16l28 36l19 -16zM458 810l-22 8l26 72l23 -9zM529 471l28 -36l-19 -15l-28 36zM383 453h24v-107h-24v107zM466 457l26 -72l-23 -8l-26 72zM251 469l18 -14l-29 -36l-18 14z M314 455l23 -9l-26 -71l-23 8z" />
<glyph unicode="J" horiz-adv-x="690" d="M486 812l-279 -278l-6 1q-36 5 -58 23t-33 35q-11 20 -15 34t-5 14v6l139 138l92 93l32 31l9 8l2 3q3 2 10 2q30 -5 50 -21.5t33 -34.5t19 -32.5t6 -16.5zM265 620q28 29 61.5 62.5l62.5 62.5l49.5 49.5l22.5 22.5q-3 7 -9 19t-16.5 25t-25.5 24.5t-36 16.5l-26.5 -26.5 l-46.5 -46.5l-59 -59t-64 -63q2 -6 6.5 -16.5t14.5 -22.5t26 -24.5t40 -23.5z" />
<glyph unicode="K" horiz-adv-x="771" d="M386 994v-239h230v-103h-230v-244h-108v244h-230v103h230v239h108v0z" />
<glyph unicode="L" horiz-adv-x="623" d="M412 814v-102h-267v102h267v0z" />
<glyph unicode="M" horiz-adv-x="625" d="M311 819q-10 -18 -25 -31.5t-16 -14.5q-1 0 -13.5 -11t-27.5 -24q-18 -16 -40 -35l-57 -47q-20 -18 -24 -21.5t-7 -1.5q-22 5 -34 17t-18 24q-7 14 -10 30l-1 3l2 2l15 12.5t38.5 32.5t53.5 45.5t62 51.5q52 43 82 36q14 -3 19 -10t7 -10v-1q4 -3 4 -15q0 -8 -2 -16 t-8 -16zM102 643q1 2 2.5 3.5l3.5 3.5q-21 16 -33 34t-16 27q-4 -3 -6 -5t-4 -3q1 -4 3.5 -12.5t8 -17.5t15.5 -17.5t26 -12.5zM117 656q3 2 6 4.5t7 5.5q-20 19 -33 36.5t-18 25.5q-4 -3 -7 -5.5t-6 -4.5q3 -7 15.5 -26t35.5 -36zM137 673q26 22 60 51t63 55 q-20 16 -31.5 33.5t-16.5 26.5q-36 -29 -69 -56.5t-57 -48.5q5 -8 18 -25t33 -36zM269 785q7 6 16.5 16.5t16.5 22.5q5 8 7 15.5t2 12.5q0 3 -0.5 5t-0.5 3q1 0 -3 2q-1 3 -5 8t-12 7t-25.5 -3t-45.5 -28q5 -8 17.5 -26t32.5 -35zM250 660q16 0 16 -18q0 -17 -16 -17t-16 17 q0 8 4 13t12 5zM357 677h15v-21h-15v-29h-26v29h-53v18l44 75h35v-72zM331 727q-3 -6 -5.5 -11.5t-5.5 -11.5l-16 -26v-1h27v27v23zM456 698q6 -5 10 -12t4 -18q0 -17 -13.5 -30t-38.5 -13q-23 0 -33 7l5 21q4 -2 11.5 -4t15.5 -2t16 4.5t8 14.5q0 20 -34 20h-16l7 63h67 v-24h-47l-2 -18h7q19 0 33 -9z" />
<glyph unicode="N" horiz-adv-x="629" d="M284 751q-5 -7 -12.5 -15t-14.5 -16h69v-25h-49l-3 -19h8q19 0 33 -9q7 -5 11.5 -12.5t4.5 -18.5q0 -19 -14.5 -32.5t-39.5 -13.5q-12 0 -21 2.5t-14 5.5l5 22q4 -2 12 -4t16 -2q9 0 17 4.5t8 14.5q0 21 -35 21h-17l8 65q-24 -27 -50.5 -57.5t-49 -56.5t-37.5 -43 t-16 -18l-3 -3h-4q-17 -1 -30 5.5t-22 16t-14.5 20.5t-7.5 20l-1 6l193 213q8 6 15 10q5 4 10 6.5t6 3.5q1 0 7 6.5t14 14.5l20 20l110 92l6 7l18 -18l-80 -135l-20 -22q-8 -8 -14 -16t-7 -9q0 -1 -2.5 -6t-4.5 -10l-6 -14zM236 813q7 -14 19 -23t20 -13l5 10 q-11 8 -20 17.5t-13 15.5q-3 -2 -5.5 -3.5t-5.5 -3.5zM292 803q6 8 14 17.5t13 14.5q-11 5 -18 12t-12 13q-7 -7 -14.5 -15t-12.5 -13q4 -6 11.5 -14t18.5 -15zM331 851q5 8 12 19.5t14.5 24.5t14.5 25.5t12 21.5q-9 -8 -20.5 -17.5t-22.5 -19.5t-21 -18.5t-16 -12.5 q3 -5 9.5 -12t17.5 -11zM179 660q20 24 38 44q15 17 29.5 33t19.5 23q-9 4 -22 13.5t-23 26.5q-10 -11 -33.5 -36.5t-49.5 -54.5t-50.5 -56t-36.5 -40q6 -9 18 -24.5t29 -20.5l19 21zM369 627q16 0 16 -18q0 -19 -16 -19h-2q-7 0 -12 5.5t-5 13.5t5.5 13t13.5 5zM473 667 q16 -11 16 -31q0 -19 -14.5 -32.5t-39.5 -13.5q-12 0 -21 2.5t-14 5.5l5 22q4 -2 12 -4t16 -2q10 0 18 4.5t8 14.5t-8 15.5t-28 5.5h-17l8 66h70v-25h-49l-3 -19h8q19 0 33 -9zM563 677q16 0 27.5 -10t11.5 -30t-13.5 -33.5t-33.5 -13.5q-26 0 -38 16.5t-12 39.5q0 36 23 57 q18 16 48 18h12v-23q-2 1 -5 0.5t-6 -0.5q-20 -1 -29.5 -10t-11.5 -20q8 9 27 9zM555 613q8 0 12.5 6.5t4.5 15.5q0 8 -4.5 15t-14.5 7q-14 0 -17 -11q-2 -2 -2 -8q2 -10 6 -17.5t15 -7.5z" />
<glyph unicode="O" horiz-adv-x="876" d="M289 956q3 0 19 -0.5t34.5 -1t35.5 -1.5t21 -1l30 -1q2 0 8.5 -1.5t7.5 -6.5q0 -5 -3 -12t-12 -9q-6 -1 -9.5 1t-5.5 4q-1 -5 -1 -16.5t-1 -23.5q-1 -14 -1 -31v-2h1h1q1 0 3 -1t4 -1.5t5 -2.5t12.5 -12.5t19.5 -24t19 -25.5t11 -17t4.5 -13.5t4.5 -17.5t4 -17.5t3 -12.5 l1 -2q3 -17 8 -26l1 -3q3 -6 3 -13q0 -4 -1 -7q-2 -1 -4 -3q-3 -1 -3 -3v-2q0 -3 -2.5 -18t-7 -32t-9.5 -31.5t-10 -18.5q-3 -4 -9 -11l-12 -14t-10.5 -13t-5.5 -7q0 -2 -1.5 -6t-2.5 -6t-11 -7t-15 -7q-11 -4 -23.5 -7t-21.5 -2q-20 1 -31.5 6.5t-13.5 9.5q-2 5 -2.5 9.5 t-0.5 6.5q-2 0 -5 3q-8 5 -24.5 19t-24.5 34q-4 8 -7.5 14.5t-7.5 12.5q-7 11 -12 22t-5 32q-1 0 -2 2q-1 1 -1.5 2.5t-1.5 3.5l-4 8v2v4q0 5 3 7l2 4t1 3v21q0 11 0.5 24t2.5 20l3 8q3 9 6 17.5t10 16.5l7 10q0 2 7 11q-13 6 -23 13l-2 -4l-7 -11q-11 -19 -19 -34 q-4 -7 -7 -13t-6 -11q-4 -6 -6 -11l-0.5 -15.5t-1 -33.5t-1 -33l-0.5 -15l2 -5l-1 -35q-2 -1 -5 -2l-4 -2q-1 -1 -2 -1q0 -1 -0.5 -4.5t-0.5 -7.5v-11l-8 -3l-2 2q-2 2 -2 3q0 -1 -0.5 -1t-0.5 -1t-0.5 -4t-0.5 -6v-9l-10 -3l6 161l56 128l3 8q-3 7 -5 14t0 15q1 23 15 40.5 t37 23.5l8 16v1q1 1 3 2t3.5 1t3.5 1zM229 870q-1 -5 1 -16l28 53l7 14q-16 -7 -26 -20.5t-10 -30.5zM296 845v52q-5 -5 -10.5 -13l-11 -16t-9.5 -15t-7 -11l-4 -6l-2 -4t-3 -7q11 -8 23 -12q5 5 6 10q4 3 6.5 7.5t4.5 8.5q1 2 4 5h1h2.5t6.5 1h-7zM307 845q11 1 23.5 2.5 t20.5 1.5q3 7 3 17q2 13 -3 23t-13 20q-5 4 -10 7.5t-11 5.5q-2 -1 -4 -5l-6 -8v-64v0zM390 938q-1 0 -6 1t-11.5 1.5t-12 1t-8.5 0.5q-2 -1 -10.5 -4t-15.5 -9q5 -2 10 -5.5t9 -7.5q22 -22 21 -50q0 -5 -1 -9t-3 -9h5l2 2q1 1 2 1.5t3 2.5l6 6h1q5 1 9.5 1.5t7.5 0.5v24v47 q-2 1 -4 2.5t-4 2.5z" />
<glyph unicode="P" horiz-adv-x="520" d="M493 826q4 -5 2 -10t-4 -9h-1q-2 -3 -6 -6l-3 -2q-5 -2 -10 0t-9 6v1l-26 -26q-1 -1 -1 -4q0 -2 -1 -4.5t-8 -7.5q2 -4 6 -9t9 -10q14 -19 16.5 -24t2.5 -7q-3 -11 -9 -11l-13 -13t-33 -33.5t-46 -46.5l-53 -53q-63 -64 -144 -145l-3 2q-1 0 -18.5 4.5t-40.5 20.5 q-21 14 -46 42t-38 76l-1 3l303 302v1l6 1q0 2 2.5 2.5t4.5 2.5q-2 1 -3.5 2.5l-3.5 3.5q-17 17 -17 41t17 41t41 17t41 -17q12 -14 15.5 -30.5t-2.5 -32.5l2 3l4 -2q4 -5 14.5 -15.5l22 -22l21 -21zM189 453q4 5 10 10.5t11 11.5q-29 13 -52.5 32t-41 38t-29 35.5 t-15.5 23.5q-12 -13 -22 -22q4 -7 15 -23t29 -35.5t42 -38.5t53 -32zM482 815q3 4 0 6t-5 0q-3 -2 0 -6q2 -3 5 0zM326 876q2 -2 4 -3.5t5 -2.5l1 -1q16 -11 35.5 -8.5t33.5 15.5q16 17 16 39.5t-16 38.5q-17 17 -40 17t-39 -17q-17 -16 -17 -38.5t17 -39.5zM400 665 q5 6 10.5 11t10.5 10q-29 13 -53 33.5t-42 40t-28.5 35t-13.5 20.5q-5 -5 -11 -10.5t-11 -11.5q3 -5 13.5 -20.5t28.5 -35t42 -39.5t54 -33zM450 714q-1 5 -11.5 19.5t-23.5 28.5l-3 3l2 1q-11 12 -24.5 26t-26.5 27t-23.5 22.5t-15.5 13.5q-2 0 -3 -3q32 -30 56 -55.5 t41 -45.5q23 -25 30 -40h1v1q0 1 0.5 1t0.5 1zM468 818h1l-1 1q-6 2 -8 2l-2 1q-2 0 -5 1.5l-5 2.5l-5 2q-1 0 -1 1l-1 2q-6 0 -7 2v5q0 2 1 3h1l-1 1q-1 3 -7.5 15.5t-8.5 15.5l-1 1q-4 0 -4 -3l-26 -25q-3 -4 -4.5 -4.5t-3.5 -0.5l-2 -1q-4 0 -10 6q-2 2 -4 6 q-1 -2 -7.5 -5t-10.5 -5q5 -5 12.5 -12t15.5 -16l26.5 -26.5t17.5 -18.5l8 8v5q0 1 1 2l1 1q-4 2 -7.5 7t-8.5 8l-1 -2l-12 13l17 16v1l13 -11l-15 -16q3 -2 7.5 -6t7.5 -9l29 31l4 3l3 -5zM412 803q2 2 7.5 7t6.5 7q-1 1 -4.5 4t-5.5 4q-1 -1 -6.5 -7t-7.5 -7 q2 -1 4.5 -4.5t4.5 -5.5v2h1v0zM436 834q1 -1 4 -1q-3 3 -4 6v-5zM483 813l1 1q-2 -2 -4.5 -2t-4.5 2q-5 5 0 8q2 3 7 3q-3 2 -6 5.5t-8 8.5l-24.5 24.5l-24.5 24.5q-3 0 -3 1q-2 -4 -4 -7t-6 -7q-14 -14 -33 -16.5t-36 7.5l2 -4l-9 -5q2 -2 5.5 -5t8.5 -7l20 9h1 q4 -5 7.5 -8.5t5.5 -3.5l2 1q2 0 6 4l26 26q3 3 6 3h1l1 -2q2 -3 9 -15.5t8 -15.5l2 -3q2 -7 5 -9l5 -3q3 -1 5.5 -2t3.5 -1l3 -1q4 0 8 -4q2 0 2 -2q0 -1 -0.5 -1t-0.5 -1v-1l-2 -2l1 -1q2 -2 4 -3.5t3 -1.5l5 3q1 1 1 2l1 1v0zM485 817v3v-3zM347 869q-5 2 -9 5t-8 7 q-15 15 -15 35.5t15 34.5q14 15 34.5 15t35.5 -15q12 -11 14 -28t-6 -31q-4 -8 -8 -11q-11 -11 -24.5 -14t-26.5 2h-2v0zM399 882q2 2 3.5 4.5t2.5 4.5q-9 -3 -27 -10t-26 -11q11 -3 24 0t23 12zM331 882q4 -3 7 -5t8 -4l9 3.5t19.5 8t20 8t12.5 3.5h1q13 28 -9 54 q-14 14 -34 14t-34 -14t-14 -34t14 -34z" />
<glyph unicode="Q" horiz-adv-x="527" d="M410 964q12 -13 15.5 -30t-2.5 -33l2 4l3 -2q4 -5 15 -15.5t22.5 -22l21 -21l10.5 -10.5q4 -5 2 -10t-4 -9h-1q-2 -2 -3 -2.5t-3 -2.5l-4 -3q-5 -2 -10 0t-8 6v1q-5 -5 -15 -14.5t-11 -10.5q-1 -2 -1 -5q0 -1 -1 -4t-8 -8q2 -3 6 -8t9 -10q13 -20 15.5 -25t2.5 -7 q-1 -10 -8 -10q0 -1 -13 -13.5t-33 -33t-46 -46.5l-53 -53q-63 -63 -143 -144l-3 1q-1 0 -18.5 5t-40.5 21q-21 13 -46 41t-38 76l-1 3l302 301v1l6 1q0 2 2.5 2.5t4.5 2.5q-2 1 -3.5 2.5l-3.5 3.5q-17 17 -17 40.5t17 40.5t41 17t41 -17zM191 460l21 21q-25 11 -45.5 27 t-37.5 33q-22 22 -36 41t-18 27q-8 -6 -13 -11.5t-10 -10.5q4 -6 15.5 -22t29 -35.5t41 -38.5t52.5 -31h1zM416 773l2 2q-11 12 -24.5 26t-26.5 26.5t-23.5 22t-15.5 13.5q-2 0 -3 -3q0 -2 2 -4q30 -26 52 -48.5t37 -41.5q13 -14 22 -26t11 -18q2 -1 2 -2h2l1 2 q-1 5 -12 19.5t-23 28.5zM462 825l4 3l3 -5l2 3h2l-2 1q-4 2 -8 2l-1 1q-2 0 -5 1.5l-5 2.5l-5 2q-1 0 -1 1l-1 2q-6 0 -7 2v5q0 2 1 3h1l-1 1q-1 3 -7.5 15.5t-8.5 15.5l-2 1q-3 0 -3 -3l-26 -25q-3 -4 -4.5 -4.5t-3.5 -0.5l-2 -1q-5 0 -9 6q-3 2 -5 6q-1 -2 -7.5 -5 t-10.5 -5q5 -5 12.5 -12t15.5 -16q14 -14 26 -26.5t17 -18.5q3 2 5 4.5t4 3.5v5q0 1 1 2l1 1q-4 3 -8 7.5t-8 7.5l-2 -2l-11 13l17 16v1l12 -11l-14 -15q2 -3 6.5 -7t8.5 -9zM430 825q-2 1 -5.5 4t-4.5 4l-14 -14q1 -1 4 -4.5t4 -4.5v1h2zM444 841q-2 1 -4 6v-5q1 -1 4 -1z M489 825v3v-3zM485 823q4 4 0 6q-2 2 -4 0q-5 -2 0 -6q2 -2 4 0zM423 896q-3 0 -3 1q-4 -6 -10 -14q-14 -14 -33 -16.5t-36 7.5l2 -4l-9 -5q2 -2 5.5 -5t8.5 -7l20 9h1q4 -5 7.5 -8.5t5.5 -3.5l2 1q2 0 6 4l26 26q3 3 5 3h1l2 -2q2 -3 9 -15.5t8 -15.5l1 -3q4 -8 6 -9l5 -3 q2 -1 5 -2t4 -1l2 -1q3 0 9 -4q2 0 2 -2q0 -1 -0.5 -1t-0.5 -1v-1l-3 -2l2 -1l3.5 -3.5t3.5 -1.5l4 3q1 1 1 2l2 1l1 1q-5 -3 -10 0q-3 5 0 8t7 3q-2 2 -6 5.5t-9 8.5q-11 11 -23.5 24.5t-23.5 24.5zM409 884q16 17 16 39.5t-16 38.5q-17 17 -39.5 17t-38.5 -17 q-17 -16 -17 -38.5t17 -39.5l3.5 -3.5t4.5 -2.5l1 -1q16 -11 35.5 -8.5t33.5 15.5zM334 959q14 14 34.5 14t35.5 -14q12 -12 14 -28.5t-6 -30.5q-3 -6 -8 -11q-11 -11 -24.5 -14t-26.5 2h-1q-5 2 -9.5 5t-8.5 7q-15 14 -15 35t15 35zM409 899q-9 -3 -27 -10t-26 -11 q11 -3 24 0t23 12zM412 904q6 13 4 27.5t-13 25.5q-14 14 -34 14t-34 -14t-14 -33.5t14 -33.5q7 -6 15 -9q1 0 9.5 3.5t19 8t20 8t12.5 3.5h1v0z" />
<glyph unicode="R" horiz-adv-x="688" d="M320 879q5 -4 5 -16q0 -19 -10 -35q-13 -20 -29 -34t-17 -15l-87 -75l-60 -51q-11 -10 -17.5 -15.5t-10 -7.5t-5 -2.5t-2.5 0.5q-23 6 -36 18.5t-20 25.5q-8 15 -11 33v2l2 4l16 13t41.5 34.5t58.5 49t67 55.5q54 46 88 39q14 -3 19.5 -10.5t7.5 -11.5v-1zM89 639 q1 1 2.5 3t4.5 4q-24 17 -37 37t-17 29q-6 -6 -10 -8q1 -5 3.5 -13.5t8.5 -18.5t17 -19t28 -14zM104 653q4 2 6.5 4.5t7.5 6.5q-21 20 -35 39t-20 28q-9 -9 -12 -11q3 -7 15.5 -28t37.5 -39zM125 672q29 23 66 54.5t68 58.5q-22 17 -35 36.5t-18 27.5q-38 -31 -73.5 -60 t-60.5 -51q5 -9 18.5 -27.5t34.5 -38.5zM304 833q6 9 7.5 17t1.5 15q0 6 -1 8q-1 0 -1 2q-2 3 -6.5 8.5t-13.5 8.5q-10 2 -27.5 -4.5t-47.5 -29.5q4 -8 16.5 -28t35.5 -38q7 6 18 17t18 24zM276 754q26 0 37.5 -16.5t11.5 -39.5q0 -20 -6 -34.5t-16 -25.5q-23 -18 -52 -18 q-4 -1 -7.5 -0.5t-5.5 0.5v25q6 -1 13 0q17 0 26 8q6 4 10.5 10t5.5 14q-8 -10 -27 -10q-16 0 -28 10.5t-12 29.5q0 20 13.5 33.5t36.5 13.5zM293 705q0 11 -4 19.5t-14 8.5q-18 0 -18 -25q0 -8 4.5 -14t13.5 -6q7 0 11 3t6 6q1 3 1 8zM450 722q14 0 23 -10.5t9 -32.5v-58 h-30v54q0 10 -3 16.5t-11 6.5q-10 0 -14 -11q-1 -2 -1 -8v-58h-30v56q0 8 -3 14.5t-11 6.5q-6 0 -9.5 -3.5t-5.5 -8.5v-7v-58h-31v67v32h26l1 -14q4 5 10.5 10.5t20.5 5.5q18 0 27 -17q5 7 13 12q7 5 19 5zM612 722q14 0 23.5 -10.5t9.5 -32.5v-58h-29v54q0 10 -3.5 16.5 t-11.5 6.5q-6 0 -9 -3t-6 -8q0 -2 -0.5 -4t-0.5 -4v-58h-29v56q0 8 -3 14.5t-10 6.5t-10.5 -3.5t-5.5 -8.5q-1 -1 -1 -7v-58h-29v67v18t-1 14h27v-14h1q2 5 9.5 10.5t19.5 5.5q20 0 27 -17h1q2 5 6 7.5t6 4.5q7 5 19 5z" />
<glyph unicode="S" horiz-adv-x="569" d="M369 817q4 -5 4 -16q0 -19 -10 -35q-6 -9 -13.5 -17.5t-14 -15t-11.5 -11t-6 -4.5l-85 -74l-59 -49q-11 -10 -17.5 -15.5t-9.5 -7.5t-4.5 -2t-2.5 1q-23 5 -35.5 17t-19.5 25q-8 15 -11 32v4l1 2q1 0 17 13t41 34t57 48t66 55q54 45 86 38q14 -3 19 -11t8 -10v-1z M141 581l3.5 3.5l3.5 3.5q-23 17 -35.5 36.5t-16.5 27.5q-3 -2 -5.5 -4.5l-3.5 -3.5q0 -4 2.5 -12.5t8.5 -18.5t16 -19t27 -13zM157 595q4 2 6.5 4.5t7.5 5.5q-21 20 -34.5 38.5t-19.5 27.5q-4 -3 -7 -6t-7 -5q4 -7 17 -27.5t37 -37.5zM178 613q28 23 64 54t67 58 q-22 17 -34.5 35t-17.5 28q-37 -31 -72 -60t-59 -51q5 -8 18 -26t34 -38zM353 772q6 8 7.5 16t1.5 14q0 7 -1 8q1 0 -3 2q-2 4 -5.5 9t-12.5 7q-10 2 -27 -3.5t-47 -29.5q4 -8 16.5 -27t34.5 -36q7 5 17.5 16t18.5 24zM354 639q7 -5 11.5 -13t4.5 -19q0 -18 -14.5 -32 t-40.5 -14q-12 0 -21.5 3t-14.5 5l6 23q3 -2 11.5 -4.5t17.5 -2.5q8 0 16.5 5t8.5 15q0 21 -36 21h-17l8 67h70v-25h-49l-3 -19h8q19 0 34 -10zM398 598q17 0 17 -18q0 -19 -17 -19q-18 0 -18 19q0 8 5 13t13 5zM512 693v-20l-52 -108h-34l54 102v1h-59v25h91z" />
<glyph unicode="T" horiz-adv-x="598" d="M306 735q-6 -9 -13 -17.5t-13.5 -15t-11 -10.5l-4.5 -4l-82 -70l-56 -48q-21 -17 -25.5 -20.5t-8.5 -1.5q-21 5 -33 16.5t-19 23.5q-8 14 -10 31v3l1 3l15 12.5t39.5 32.5t55.5 45.5t63 51.5q51 44 82 37q13 -3 18 -10.5t7 -9.5v-1q5 -4 5 -16q0 -8 -2.5 -16t-7.5 -16z M95 558q3 3 6 7q-23 16 -34.5 34.5t-16.5 26.5q-2 -3 -5 -5t-4 -3q0 -4 2.5 -12.5t8.5 -17.5t16 -17.5t27 -12.5zM109 570q4 3 6.5 5.5t5.5 4.5q-19 20 -32 37.5t-19 26.5q-2 -4 -5.5 -6t-5.5 -4q2 -7 14.5 -26.5t35.5 -37.5zM129 588q27 22 62 51.5t64 55.5q-21 16 -33 34 t-17 26q-36 -29 -69.5 -57t-56.5 -49q5 -8 18 -24.5t32 -36.5zM263 701q6 5 16 16t17 23q6 8 7.5 15.5t1.5 13.5t-1 7q-1 0 -1 3q-2 3 -6.5 8t-12.5 7t-25 -3t-45 -28q3 -8 15.5 -26.5t33.5 -35.5zM244 575q17 0 17 -18q0 -8 -4.5 -13t-12.5 -5t-12.5 5t-4.5 13t4.5 13 t12.5 5zM324 607q11 -2 18.5 -9.5t7.5 -20.5q0 -16 -13 -27t-36 -11q-12 0 -21.5 3.5t-14.5 5.5l5 21q4 -2 12 -5t16 -3q12 0 17.5 5t5.5 12q0 9 -7.5 13.5t-17.5 4.5h-11v21h11q7 0 14 2.5t7 10.5q0 14 -17 14q-8 0 -15.5 -3t-10.5 -5l-6 21q14 9 38 9q20 0 30 -9t10 -21 q0 -9 -5.5 -17t-16.5 -12zM432 614q6 -5 10.5 -12.5t4.5 -17.5q0 -19 -14 -32t-39 -13q-24 0 -34 8l5 21q4 -2 12 -4.5t16 -2.5q9 0 17 5t8 14q0 20 -35 20h-17l8 65h68v-25h-48l-2 -18h7q19 0 33 -8zM543 665v-19l-51 -105h-30l50 98v1h-55v25h86z" />
<glyph unicode="U" horiz-adv-x="527" d="M352 795q-6 -9 -13 -17t-13.5 -14t-11 -10t-4.5 -5l-82 -70l-56 -47q-21 -18 -25 -21t-7 -1q-21 5 -33.5 16.5t-19.5 23.5q-8 14 -10 31v2l2 3l15 12.5l39 32.5t54.5 45.5t62.5 51.5q50 44 82 36q12 -3 17.5 -10t7.5 -10v-1q5 -4 5 -15q0 -16 -10 -33zM141 620l2.5 2.5 l3.5 3.5q-21 16 -33.5 34.5t-16.5 26.5q-2 -3 -4.5 -4.5t-3.5 -3.5q0 -4 2.5 -12.5t8 -17.5t15.5 -17t26 -12zM156 632q3 2 6 4.5t7 5.5q-20 19 -33 36.5t-19 25.5q-4 -4 -12 -10q3 -6 15.5 -25.5t35.5 -36.5zM176 649q26 22 60.5 51.5t64.5 55.5q-21 16 -33 33.5t-17 25.5 q-36 -29 -69 -56.5t-56 -47.5q5 -8 17.5 -25.5t32.5 -36.5zM308 762q7 5 16.5 15.5t17.5 22.5q5 8 7 16t2 13q0 6 -2 8l-2 2q-1 3 -5 8t-12 7q-9 2 -25.5 -3t-44.5 -28q4 -8 16 -26t32 -35zM290 636q17 0 17 -18q0 -17 -17 -17t-17 17q0 8 4.5 13t12.5 5zM382 674 q15 -9 15 -30q0 -17 -13.5 -30t-39.5 -13q-11 0 -19.5 2.5t-13.5 4.5l5 21q5 -2 12 -4t15 -2q10 0 17.5 4.5t7.5 14.5q0 20 -35 20h-16l9 64h66v-24h-48l-2 -19h9q8 0 16.5 -2t14.5 -7zM451 727q24 0 34 -18.5t10 -44.5q0 -28 -11 -45.5t-35 -17.5q-23 0 -34 18.5t-11 44.5 t11 44.5t36 18.5zM449 623q18 0 18 41q0 42 -18 42q-17 0 -17 -42q0 -41 17 -41z" />
<glyph unicode="V" horiz-adv-x="637" d="M421 939l-80 -134q-10 -12 -19 -22q-8 -8 -14.5 -15.5t-7.5 -8.5q0 -2 -2.5 -6.5t-4.5 -9.5q-3 -6 -6 -13l-1 -1q-23 -26 -53.5 -61t-58 -67t-47.5 -54t-21 -23l-3 -4h-3q-17 -1 -30 5t-22 15.5t-14 20.5t-7 20l-1 6l191 211l14 10q5 4 10 6.5t6 3.5t7 8t14 15q9 9 19 20 l110 90l6 6zM238 790q7 -14 19 -23t20 -13q1 2 3 5t3 5q-26 20 -34 32q-3 -2 -5 -3zM182 638q20 24 38 44q15 17 29 33t19 23q-8 5 -21.5 14.5t-23.5 26.5q-10 -12 -33 -38t-49 -55t-50.5 -55.5t-36.5 -40.5q6 -8 18 -23t29 -20l20 21zM294 781q5 7 13.5 16t13.5 15 q-11 5 -17.5 11.5t-11.5 12.5q-7 -6 -15 -14.5t-13 -13.5q4 -5 11.5 -13.5t18.5 -13.5zM333 828q5 8 11.5 19.5t14 24t14.5 24.5t13 21q-9 -7 -20.5 -16.5l-23 -19t-21 -18t-15.5 -12.5q2 -5 9 -12t18 -11zM245 670h89v-18l-52 -107h-31l50 101h-56v24zM370 578q7 0 12 -5 t5 -13q0 -16 -17 -16h-2q-7 0 -12 4.5t-5 11.5q0 18 19 18zM456 629q16 0 27 -11t11 -30q0 -18 -13 -31t-33 -13q-25 0 -37.5 15.5t-12.5 37.5q0 18 6 32.5t17 23.5q8 9 21 13t27 6h11v-22h-4.5t-6.5 -1q-20 -1 -29 -10t-11 -20q10 10 27 10zM448 564q8 0 12 6.5t4 16.5 q0 8 -4 15t-14 7q-6 0 -10.5 -3.5t-6.5 -8.5q-1 -1 -1 -8q0 -9 4.5 -17t15.5 -8zM597 569v-24h-89v17l16 15q20 19 30.5 31t10.5 22q0 19 -21 19q-8 0 -14.5 -3.5t-11.5 -7.5l-8 21q15 13 40 13q23 0 34 -10.5t11 -28.5q0 -16 -10 -29t-24 -25l-11 -10h47z" />
<glyph unicode="W" horiz-adv-x="627" d="M339 813q-10 -12 -19 -22q-8 -8 -14.5 -15t-7.5 -8q0 -2 -2 -6.5t-4 -9.5q-3 -6 -6 -13l-1 -1q-23 -26 -53 -60t-57 -65t-46.5 -53t-20.5 -23l-2 -4h-4q-17 -1 -29.5 5.5t-21.5 16t-14 20t-7 19.5l-1 5l187 208q8 5 14 9l10 6t7 4q0 1 6 7l14 14q9 9 19 20l107 90l6 5 l18 -18l-78 -131v0zM238 798q7 -14 18.5 -22.5t19.5 -12.5q2 5 5 10q-11 8 -20 17t-13 14q-6 -3 -10 -6zM263 816q4 -5 11 -13t18 -14q6 7 14 16t13 14q-11 5 -17.5 12t-11.5 12q-7 -5 -14.5 -13.5t-12.5 -13.5zM330 836q4 7 11 18.5t14.5 23.5t14.5 24t12 21 q-9 -7 -20 -16.5l-22 -19t-21 -17.5t-16 -13q3 -5 9.5 -11.5t17.5 -9.5zM182 649q19 23 37 42q14 17 28.5 33t19.5 22q-8 5 -21.5 14.5t-22.5 26.5q-10 -12 -33 -37t-48.5 -53.5t-48.5 -54.5t-35 -39q5 -9 17 -23.5t28 -19.5l19 20zM261 617q17 0 17 -18q0 -16 -17 -16 t-17 16q0 18 17 18zM351 649q11 -2 19 -10t8 -20q0 -16 -13.5 -26t-37.5 -10t-36 7l6 23q4 -3 11.5 -5.5t16.5 -2.5q23 0 23 17q0 8 -7.5 12.5t-16.5 4.5h-13v20h11q8 0 15.5 3t7.5 11q0 13 -19 13q-8 0 -14.5 -2t-10.5 -4l-6 20q5 4 15.5 6.5t21.5 2.5q20 0 31 -8.5 t11 -22.5q0 -19 -23 -27v-2v0zM456 649q11 -2 18.5 -10t7.5 -20q0 -16 -13.5 -26t-36.5 -10t-37 7l7 23q4 -3 11.5 -5.5t17.5 -2.5q22 0 22 17q0 8 -7.5 12.5t-17.5 4.5h-11v20h11q7 0 14.5 3t7.5 11q0 13 -19 13q-8 0 -14.5 -2t-11.5 -4l-5 20q5 4 15.5 6.5t22.5 2.5 q19 0 30 -8.5t11 -22.5q0 -19 -23 -27v-2v0zM569 651q10 -4 16.5 -12t6.5 -20q0 -16 -12.5 -26t-34.5 -10q-23 0 -34 10.5t-11 23.5q0 22 21 30v1q-17 9 -17 27q0 16 12.5 25t30.5 9q22 0 31.5 -10.5t9.5 -21.5q0 -17 -19 -26zM547 690q-8 0 -12 -4.5t-4 -9.5q0 -7 5 -11 t13 -6q11 4 11 16q0 5 -2.5 10t-10.5 5zM547 601q8 0 12 5t4 12q0 13 -19 20q-15 -5 -15 -19q0 -7 4.5 -12.5t13.5 -5.5z" />
<glyph unicode="a" horiz-adv-x="1288" d="M295 444q-3 14 1 36.5t11.5 48t18 52t20 48t16.5 36t8 16.5q4 7 3.5 18.5t-5.5 24.5q-3 6 -10.5 11.5t-15.5 9.5t-15.5 6.5t-9.5 3.5q-5 2 -6 3t-2 4q-1 2 0 12.5t6 16.5q3 2 6.5 11.5t7.5 20.5q4 12 9 26q-1 0 -4 3q-2 2 -7 5.5t-12 10.5q-6 9 -4.5 12.5t5.5 4.5t12 0 q2 -2 5.5 -1t6.5 2q4 1 8 3l4 8q2 11 7.5 16.5t11.5 7.5q7 3 15 2v4q-1 11 4.5 14.5t13.5 4.5q9 1 20 -2l2 -19h171h33l4 -4h96q3 0 5 3q1 2 1 4l3 2h212q1 1 2 3t1 3.5t1 3.5q2 4 11 1.5t14 -4.5q6 -1 7.5 -5t5.5 -5q2 -1 3.5 -3.5t2 -9.5t1 -19.5t0.5 -33.5q2 -13 2.5 -27 t-0.5 -25q-1 -13 -3 -26l-38 -4q-2 -8 -7.5 -11t-10.5 -3q-2 0 -18 -1t-35 -2t-35.5 -2t-19.5 -1q-6 0 -10 -3t-12 -8q-4 -3 -8.5 -16.5t-8.5 -28.5q-4 -18 -9 -39q-2 -2 -6 -5l-7.5 -5t-10.5 -5q-7 -2 -25.5 -4t-41.5 -3.5t-46.5 -1t-39.5 3.5q-17 3 -27 -1t-16 -9 q-7 -7 -10 -16l-47 -179q0 -1 2 -5q2 -3 4 -8t7 -13q4 -6 -9.5 -8.5t-36.5 -3t-51.5 0.5t-53.5 2.5t-43.5 3t-20.5 2.5q-4 2 -5 6t-2 9t-1 12q0 1 -1 2q-2 2 -4 5zM611 758q-14 -14 -20 -29q-5 -13 -3.5 -29t20.5 -31q23 -2 47 -3t44.5 0t35 2.5t19.5 4.5q4 3 10.5 12.5 t10 21.5t1 25.5t-17.5 25.5h-147v0z" />
<glyph unicode="b" horiz-adv-x="1535" d="M47 878q10 7 23 11q11 4 26 6.5t32 -0.5q0 -1 27 1t60 4l88 6l18 -6q15 -5 25 -5q4 0 16 3t26 7q16 4 34 11l56 48l5 -5h340q0 1 3 3q2 2 7 3t15 1l262 -2q7 -2 14 -5q6 -2 12.5 -4.5t11.5 -3.5h109q9 -11 17 -20q7 -8 14 -15t12 -8h96l8 3q6 12 10 23q4 9 7.5 18t5.5 12 q2 8 2 9v4h10h15v-59v-7l23 -3q3 -5 5 -9t2.5 -7.5t-2.5 -6.5q-4 -3 -11 -3q-3 0 -6 1h-8l-10 -18l-20 8h-165l-8 -11l-10 8h-117l-2 -10h-185l-22 -12q-8 -5 -16 -8t-11 -3q-6 0 -12 2q-3 1 -5 3l-8 5h-84q0 -31 14 -64q12 -29 38.5 -64t77.5 -70q-2 0 -11 -14.5t-20 -31.5 q-12 -20 -28 -45q-37 25 -70 60q-29 30 -59.5 75t-50.5 106q-2 2 -7 -1q-3 -2 -5 -4l-18 3q-14 -8 -29 -12q-13 -3 -29.5 -1.5t-32.5 15.5q-1 0 -11.5 -9.5t-23 -24.5t-24 -33.5t-15.5 -36.5q0 -1 -11 -5t-24.5 -5t-25.5 6t-15 29q1 3 9 19.5t18 34.5t18.5 33t10.5 15 q-2 0 -10 7t-16 6q-2 -1 -12.5 -4.5t-27 -9.5t-37 -13.5t-41.5 -14.5q-49 -18 -110 -40l-144 -48l-13 173v0zM562 817q0 -8 6.5 -14t16.5 -6h33q9 0 14.5 6t5.5 14q0 10 -5.5 16.5t-14.5 6.5h-33q-10 0 -16.5 -6.5t-6.5 -16.5z" />
<glyph unicode="c" horiz-adv-x="1454" d="M1185 867q0 -55 -18 -66q-3 -2 -9 -2q-11 -2 -36.5 -3t-55.5 -2.5t-59 -2t-47 -0.5q-22 0 -35 -2t-19.5 -5t-8.5 -7.5t-2 -10.5v-6q0 -8 1 -18t3 -19l4 -22v-2l-11 -13v-2q-6 -3 -29 -3q-47 -3 -79 -2.5t-52.5 2.5t-31 4.5t-14.5 5.5q-6 0 -13 -3q-6 -4 -15.5 -16 t-23 -38t-31 -70t-39.5 -111l-2 -1q0 -19 -10 -25q-6 -5 -9 -2h-181q0 4 1 8q2 8 2 13h-12q-4 0 -7 1q-19 1 -29 16q-6 9 -6 23q0 17 5 30t5 15v-2q1 1 9.5 14t21.5 32.5t29 42.5t31 44q16 31 24.5 55t8.5 43q0 12 -5 24q-6 16 -19 24t-25 14h-1q-11 3 -14.5 11.5t-3.5 18.5 q0 5 0.5 8t0.5 6q-1 1 -1 2v4v5v34v17.5t-2 9.5q0 1 -1 1t-1 2q0 1 1 2l1 1q1 2 7 5t35 5q1 2 1.5 4t2.5 4q1 3 3 5l2 3l24 -1l2 -6q1 -2 1.5 -4.5t1.5 -4.5h668l3 3q1 1 2 1l15 6q1 -2 3 -4q4 -4 5 -4h29l5 -89v0zM857 769q0 7 -3.5 11t-7.5 4h-114q-3 0 -6.5 -4t-3.5 -11 v-39q0 -8 3.5 -12t6.5 -4h114q4 0 7.5 4t3.5 12v39v0z" />
<glyph unicode="d" horiz-adv-x="1164" d="M1031 896v-66l-7 -5h-81h-1l5 -15l6 -13l5 -12l2 -7q0 -2 2 -8l2 -6q0 -1 2 -7q1 -3 3 -6l3 -10l-5 -9h-10l-9 11l-3 11q-2 2 -3.5 6t-1.5 6q-2 1 -3 3l-4 4l-7 5l-8 2q-7 1 -24 -2q-5 0 -8.5 -1t-8.5 -1q-10 -1 -14 -3t-4 -15q1 -10 4 -22.5t6.5 -24t6.5 -19.5t3 -9 q2 -13 6 -27q3 -13 6 -29t7 -33q7 -34 9.5 -53t3.5 -28.5t0 -12l-1 -2.5q-4 -2 -19 -5t-32 -6.5t-31.5 -6t-17.5 -2.5h-3v3q-1 1 -4.5 10.5t-7.5 24t-7.5 31.5t-4.5 32q-1 14 -1.5 22.5l-1 17t-1 19.5t-1.5 29v6q-2 20 -2 32.5v18.5v10q0 2 -3 11t-12 9h-6.5t-7.5 2 q-8 2 -18 2t-24 -15q-14 -12 -22 -24q-8 -11 -14.5 -17t-18.5 -8q-10 -2 -24 -2.5t-28 -0.5t-25.5 1t-17.5 3q-6 0 -10 4q-5 1 -9 -2q-2 -3 -6.5 -13t-9.5 -23t-8.5 -26.5t-3.5 -21.5v-21v-108v-1q-2 -1 -3 -2q-2 -1 -2.5 -2t-1.5 -1h-1q-1 0 -1 -2v-236l-6 -11l-9 -3h-94 l-7 10v242q-1 0 -1 1q-1 0 -1 2h-35l-5 7l1 86l5 20q0 1 5 15t10.5 33t10.5 38t5 30v4v12q-3 28 -9 30q-2 2 -3.5 2t-2.5 1q-3 3 -9 4.5t-32 4.5q-16 3 -41.5 7.5t-49.5 9t-42 7.5t-19 3h-2l-6 8l-5 10v7v5h-9v31h4q2 0 3 0.5t2 0.5q0 2 0.5 2t0.5 2q-1 0 -1 1t-0.5 1 t-0.5 1q-1 1 -1 3l2 2q1 1 1.5 2t1.5 2q-1 0 -3 2q-1 1 -2 1v24l2 1q-1 1 -2 1.5t-2 1.5q-2 1 -3 1v22q2 0 4 -1t3.5 -1.5t2.5 -1.5q-2 4 -2 6q-1 2 -1 3v43l13 6h41l1 -1q0 -1 2 -3h57q0 3 1 5q0 2 1 4h15h2q0 -2 1 -3l2 -4l4 -2l3 -5q1 -2 2 -3q1 -2 3 -4h498q3 0 6 1 q2 0 4.5 0.5t3.5 0.5l15 5q2 0 4 1q4 2 6 2l10 7l12 -5l13 -5l11 -7l8 -6l7 -14q2 -3 4 -7q2 -3 2.5 -6t1.5 -5l2 -4h25l5 -18h-20v-2h103zM651 716q3 2 10.5 9t11.5 11t7 9t3 13v1q0 7 -3 11t-7 6q-2 5 -3 5q-2 2 -6.5 3t-8.5 1q-1 0 -6.5 -0.5t-12.5 -0.5q-8 -1 -17 -1 l-3 2q-5 0 -14.5 0.5t-17.5 0.5q-7 0 -11 -3t-8 -7q-3 -2 -3 -3q-7 -3 -14 -25q-2 -5 -1.5 -13.5t1.5 -10.5q4 -6 26 -14q8 -1 15 -1h12l6 -2q7 0 17 1t12 1q4 1 8.5 3t6.5 4z" />
<glyph unicode="e" horiz-adv-x="1402" d="M1360 811l-5 -12h-59q0 -1 -0.5 -1.5t-0.5 -1.5l-1 -1l-7 -3l-4 2q-2 1 -3 2t-2 1h-24h-9h-7h-238q0 -2 1 -3q0 -1 1 -2l-9 -11l-12 2l-7 2h-33q-1 -1 -2 -4t-3 -6l-4 -8q0 -3 1 -4q0 -1 1 -1h10h7l-5 -5q0 -1 -1 -3l-2 -4t-2 -7v-26v-96q2 0 6 -10q2 -4 4 -9l-5 -2 q-1 0 -2 1q-1 0 -2 0.5t-3 0.5q-2 -2 -7.5 -2h-9.5l-7 -3q-3 0 -13.5 0.5t-14.5 4.5q-2 2 -2 6v8q0 5 1 10t1 9v1l2 1q0 4 1.5 11t3.5 24v26q0 25 -2.5 36.5t-4.5 13.5q-4 2 -10.5 5.5t-10.5 5.5h-33q-2 0 -9.5 -2.5t-16.5 -4.5q-3 -1 -8.5 -5t-12 -9.5t-12.5 -11t-9 -9.5 q-1 -2 -13 -18t-26 -35.5t-27 -37.5t-17 -22q-5 -5 -11 -9.5t-12 -7.5q-7 -4 -14 -6h-115h-5l2 4v7q0 5 0.5 12t2.5 21q0 14 6 28t12.5 24.5t12.5 17.5t6 8h3q2 1 4 4q2 2 3 4.5t2 7.5q2 2 2 4v1q0 10 -7 17v2q-3 4 -7.5 5.5t-6.5 3.5q-1 0 -5 -0.5t-9.5 -0.5h-10.5t-8 1 q-3 0 -11 -2l-18 -4.5t-21 -5.5t-20 -6q0 -2 -1.5 -3.5l-3.5 -3.5l-5 -5q0 -2 -3.5 -5.5t-3.5 -8.5q0 -3 4 -19.5t10 -39.5t12.5 -49.5t11.5 -49.5l2 -2l-103 -38v3q0 2 -4 10q-3 7 -8.5 19.5t-13.5 35.5q-14 38 -17.5 63t-3.5 36v5v7q-4 0 -5 1q-1 0 -2 1h-15 q-3 0 -10 -6.5t-11 -12.5l-7 -4l-2 2q-2 2 -7.5 4.5t-9.5 2.5q-2 0 -8.5 -5t-17 -12.5t-22.5 -18t-24 -20.5v-7q0 -3 9 -12l-2 -10h-3q-2 -1 -4 -3t-4.5 -3l-7.5 -3t-17.5 -2t-26.5 0.5t-25.5 1.5t-15.5 2t-5.5 2t-3.5 2t-3 1q0 2 -3 16.5t-7 35t-8.5 43.5t-8.5 43t-7 33.5 t-3 14.5q0 4 -1.5 14.5t-1.5 16.5q0 3 1.5 6.5t1.5 7.5v2l14 14l2 5q3 2 6 5q1 1 1 2v2h494q4 0 6 1l4 2h49h4q5 0 5 2q4 0 5 1q1 0 2 1h12q0 2 -1 3.5t-1 3.5q-4 4 -20.5 16.5t-29.5 23.5h-129q-5 0 -7 5q-2 2 -2 7.5t0.5 12t1 12t0.5 8.5v2l7 3h108q1 -2 2 -3q1 -2 2 -2.5 t1 -1.5h96l5 2q0 2 1 4q0 1 1 3l8 5h2h5l9 -5l5 -5h61h2l5 7h19l4 -11q0 -8 1 -14t1.5 -11.5t2.5 -10.5q1 -3 5.5 -8.5t10.5 -11t12.5 -10t11.5 -7.5q0 -3 5 -3v5l7 5l7 -5l9 -2l5 -3l12 -4l4 -5q1 0 7 -4q3 -2 5 -3l7 -7q1 -3 3 -5q2 -5 4 -5h71q0 -1 1 -2t1.5 -2.5 t2.5 -2.5h237l17 5l2 2q9 0 9 -4q4 0 7 -1t5 1q0 1 2 3q1 1 3 1q2 -1 5 -1q3 -1 7 -1h47h18v-12v-9zM621 609q3 2 18 20t32 40t31.5 40.5t15.5 21.5l2 5v5q0 6 -9 18h-50q-2 0 -8.5 0.5t-10.5 -4.5q-3 -4 -6 -12t-3 -16v-15l2 -2h-4h-8t-6 -2q-3 -2 -9 -12.5t-13 -24 t-12 -26t-6 -17.5v-10v-6t2 -5h25t17 2zM831 856q-2 2 -3.5 4.5t-1.5 4.5l-34 26q-13 10 -24.5 18t-12.5 8h-61v-5l-7 -4h-19q-1 2 -1 4q-1 2 -1 5h-21q-5 0 -5 -5q0 -2 1 -3q0 -1 1 -1q1 -1 5 -8.5t8.5 -16.5t8 -17.5t4.5 -11.5q2 -4 2.5 -4.5t0.5 -2.5h155q1 1 3 5l2 4v0z " />
<glyph unicode="f" horiz-adv-x="1186" d="M94 779q0 4 2 6q3 8 17.5 17t50.5 18q2 2 6.5 10.5t4.5 20.5q0 5 -0.5 9.5t-4.5 10.5q-2 1 -5.5 7t-11.5 23v16l15 4q2 -2 4 -3q3 -3 5 -3h28q0 2 3 7q1 3 3 6l25 21q2 1 5 2q4 2 6 4v12q0 4 1 11h2h29l21 -21h36l13 7h149q2 -3 4 -5q4 -4 5 -4l195 -4l2 -2q1 -1 3 -1h11 q1 1 1 2q0 2 1 3q1 2 3 4l217 -2q0 -3 1 -5q0 -2 0.5 -3.5t0.5 -2.5h11q0 1 2 5q1 2 3 4h43q2 1 7.5 4.5t11.5 7t12 6t9 2.5q5 0 7.5 -7t2.5 -9q3 -3 8 -4q3 -1 7 -2q1 -1 2 -1h3q2 -1 5 -1l-1 -19l3 -27q-1 -8 -4 -17q-2 -8 -5 -17t-5 -18q-6 -20 -10 -30.5t-6.5 -15 t-3.5 -5.5t-2 -1h-380q-1 0 -12 -4t-25 -18q-12 -12 -24 -35t-12 -65v-7v-2h-2q-1 -1 -16 -4t-36 -5t-45.5 -1.5t-43.5 6.5q-5 -1 -14.5 -11t-10.5 -23q-1 -7 -5 -30.5t-9.5 -50t-9.5 -48.5t-5 -25l14 -37h-3q-39 -5 -79 -9q-35 -3 -75.5 -4t-78.5 4q-2 0 -5 1q-7 2 -10 8 q-5 8 -5 30q0 13 3 33t11 47t22 63t36 83v3q0 3 0.5 7t0.5 10q0 16 -7 33.5t-34 21.5q-1 0 -14 0.5t-28.5 1.5t-29 1.5t-14.5 0.5l-2 2v3v0zM462 707q0 -8 5.5 -13.5t13.5 -5.5h65q8 0 14 5.5t6 13.5v60q0 8 -6 13.5t-14 5.5h-65q-8 0 -13.5 -5.5t-5.5 -13.5v-60v0z" />
<glyph unicode="g" horiz-adv-x="1176" d="M773 658q6 -13 8.5 -27t2.5 -28q0 -67 -42 -110q-38 -40 -94 -47v-29h-63v30q-19 3 -34.5 7.5t-26.5 12.5q-30 13 -53 49q-21 34 -25 83v13l85 14l3 -14q6 -42 21 -62q14 -17 30 -24v153q-30 9 -64 27q-33 19 -47 48q-9 15 -13 32.5t-4 35.5q0 68 48 112q27 24 80 32v30 h55h8v-30q46 -6 74 -30q42 -35 50 -95l3 -15l-88 -11l-2 14q-5 31 -17 43q-5 4 -9.5 7.5t-10.5 5.5v-135q36 -9 50 -15t26 -14t21 -18q19 -20 28 -45zM696 599q0 25 -11 42q-3 4 -11.5 9.5t-25.5 11.5v-136q9 2 16.5 7.5t13.5 12.5q18 22 18 53zM545 828q0 -13 2.5 -23 t10.5 -18q7 -11 27 -20v120q-13 -5 -25 -17q-15 -18 -15 -42z" />
<glyph unicode="h" horiz-adv-x="1234" d="M529 523q-4 -2 -9 -3t-9 -1q-6 0 -9 1q-4 4 -6 7q-1 2 -4 2h-1h-2q-4 0 -24.5 4t-44.5 9.5t-45.5 12t-26.5 11.5t-15 13t-20 15.5t-18.5 13.5t-9.5 7q-2 2 -8 3.5t-8 2.5q-4 1 -10.5 14.5t-9.5 20.5q-6 13 -10.5 29t-2.5 30q2 26 10 41.5t13 18.5q5 1 12 2t11 1 q0 1 1.5 2.5t2.5 3.5q8 12 26.5 32.5t47.5 31.5q11 6 20 10t17 9q17 9 32 15.5t46 6.5l4 2q2 1 3.5 2t3.5 3l10 6h3h6q7 0 10 -3q6 -6 10 -6h27q18 0 36.5 -0.5t28.5 -3.5l10 -3q14 -5 26 -9t22 -13l16 -8q2 0 16 -9q6 18 17 29q-2 0 -4 2q-1 1 -2 1l-16 10l-48 24l-33 16.5 t-15 8.5q-1 0 -22.5 0.5t-47 1.5t-47 1.5l-21.5 0.5q-2 0 -4 -2q-1 -1 -2 -1l-49 2q-1 3 -3 7q-4 6 -4 8h-34l-2 12q0 1 1 2l4 2q-1 2 -3 2h-13q-5 0 -12 1l-5 13l226 -7l182 -73l10 -5q10 5 20 7t22 0q31 -1 55.5 -20.5t33.5 -48.5l23 -11q2 0 7 -13q1 -3 0.5 -24t-2 -46 t-2.5 -47t-2 -27l-1 -39q0 -2 -2 -11t-10 -11q-6 0 -16 5t-12 17q-2 8 0.5 12.5t4.5 6.5q-7 0 -23 0.5t-33 1.5q-20 1 -43 2h-3l2 -1h-2q0 -2 -1 -6.5t-6 -12.5q-2 -5 -17.5 -17t-34 -25.5t-36 -24.5t-24.5 -14t-19 -6t-24.5 -5.5t-24 -5t-17.5 -3.5l-3 -1q-11 -2 -21 -5.5 t-15 -5.5l-5 -1v0zM864 743q-14 -13 -32 -20t-38 -6q-11 0 -26 5v-6q1 -1 4 -3.5t6 -6.5q4 -4 8 -9v-1q1 -5 2 -11t1 -11h33h66q1 2 3 5.5t4 4.5q1 2 2.5 9t2 15l1 16t0.5 11q-1 4 -5 14.5t-12 21.5q-8 -16 -20 -28zM766 794q1 -14 1.5 -30.5t0.5 -27.5q12 -4 26 -4 q17 -2 32.5 4t26.5 17q14 14 21 29q-2 2 -4 2.5t-4 2.5l-11 7h-89zM800 896q-5 1 -10.5 0.5t-10.5 -1.5l73 -35l20 -10q-10 20 -29 33t-43 13zM737 870q-5 -7 -10 -14.5t-7 -15.5q8 -6 11 -9q7 -5 13 -8l12 -6q3 -3 7 -3l1 -2v-1v-3q0 -2 2 -8v8h73q-8 6 -19.5 13.5 t-22.5 15t-21 13.5t-16 9l-7 4q-4 1 -7.5 3t-8.5 4z" />
<glyph unicode="i" horiz-adv-x="1497" d="M1473 847q2 -8 2.5 -19.5t-7.5 -13.5q-3 -1 -13 -1.5t-22 -0.5t-24 0.5t-19 1.5l-5 3h-83q0 -1 -3 -4q-1 -1 -2 -1l-10 -3l-6 3h-5h-7l-3 -3q-2 -2 -2 -4v-3l-5 -8h-10v-3v-17l-5 -3q-3 -1 -6 -1q-7 0 -10 1l-15 3h-30h-15v-8h-5q-16 0 -19 1t-4 2q0 2 -1 2.5t-1 2.5h2v2 h-197q-8 -1 -19 -2t-21 -2t-17 -2t-8 -1q-5 -3 -10 0q-2 1 -3 2l-3 3v5h-78q2 -21 4 -45.5t4 -46t3.5 -37t1.5 -18.5v3q2 -3 -3 -8q-2 -2 -19 -5t-34 -7q-19 -3 -29.5 -4.5t-16 -2t-7 0t-2.5 1.5q0 1 -0.5 3.5t-2 15.5t-4 39t-6.5 73h-10l-5 -10h-5l5 10h-13v-3 q-4 -15 -9 -26.5t-13 -16.5q-10 -5 -30 -5.5t-28 3.5l-8 5q-5 2 -9 4t-6 4l-3 -3q-2 -2 -5 -9.5t-7 -15.5q-9 -20 -15 -32t-10 -18.5t-6.5 -8.5t-4.5 -2q-5 0 -24 12t-36 26l-5 3l2 2q1 2 4 8.5t7 14t8.5 14.5t8.5 11l3 3q5 5 11.5 12t8.5 15q2 12 -2.5 19t-10.5 9h-91 q-1 0 -4 -1q-2 -1 -6.5 -1.5t-9.5 -2.5q-4 -1 -24.5 -8.5t-48 -17.5t-58.5 -21.5t-57 -21t-43.5 -16t-18.5 -6.5q-6 -1 -15.5 -2.5t-18.5 -2.5t-17 -1.5t-12 1.5q-8 4 -9 10.5t-1 14.5q0 4 0.5 9t2.5 9q2 6 2 11.5v13.5q2 4 2.5 8t0.5 10q0 15 -1.5 29.5t-1.5 18.5h-2 q-2 6 -2.5 10t-0.5 8v7q2 2 3 3.5t5 1.5q2 1 10 2t18.5 1.5t20.5 1t16 0.5q2 6 4.5 12.5t10.5 8.5q5 1 31.5 1.5t57.5 1.5t58.5 1.5t34.5 0.5h3q3 -5 6 -9q2 -4 4.5 -7.5t4.5 -4.5q4 0 9.5 0.5t7.5 2.5q6 2 20.5 10.5t20.5 12.5q8 5 13 7.5t15 2.5h25t25 2q1 1 2 2.5t3 3.5 t3 4l12 8l10 2q3 -2 6 -3q6 -2 7 -2l10 -2l8 -10v-2l-3 -3h5v10l-4 4q-2 1 -3 3l-5 10l-3 11v2q-10 -2 -23 -3.5t-22 -3.5q-5 0 -20.5 0.5t-33 0.5t-31.5 0.5t-16 0.5t-4 -0.5t-4 -0.5q-3 -1 -5 -1l-35 2v5q0 1 -1 7.5t-1.5 14.5l-1 16t0.5 13q1 4 2 6.5t2 4.5t1 4l3 2h2h28 h12.5t25.5 -2q16 0 34 -0.5t34 -1t28.5 -1t17.5 -0.5l15 -2q8 -2 13 -2.5t9 -0.5q4 1 18.5 1.5t30 1t28.5 0.5h14q5 0 8 1q3 0 5 1l2 3q0 4 8 7q11 4 23 0h2q6 0 8.5 -1.5t4.5 -5.5q2 -3 7 -3l5 -2q10 0 31 -2t35 2q9 2 25.5 3.5t34 2.5t33 1t21.5 -2h2q8 -2 10.5 -5.5 t4.5 -17.5t-2.5 -26.5t-9.5 -16.5q-3 -1 -17 -1h-31t-33 1t-23 3q-9 2 -13.5 2t-9.5 -2h-7h-15q0 -5 -8 -13h-2q-20 -10 -26.5 -14t-6.5 -6q-2 0 -2.5 -3t-2.5 -7h328q1 1 7 1.5t13.5 1.5t14.5 1.5t10 0.5q6 0 12.5 1t10.5 1q0 1 4 5q2 2 4 3h22q2 -2 4 -5q4 -6 6 -8h119 q-2 6 -3.5 12.5t-1.5 10.5q0 5 1 6l2 2q4 5 8.5 7.5t6.5 2.5l12 -3l5 -13l3 -15l2 -12v-15q2 0 4 -4q1 -2 1 -4l-2 -3h2q3 0 4 1l2 2h5h7l2 -2q1 -1 3 -1h81h8h78l2 -2v0zM608 723q4 0 4.5 3t2.5 7q5 13 5 15v1q0 2 -2 2t-6.5 -1.5t-8.5 -3.5h-13h-3q-4 0 -15.5 -1.5 t-16.5 -3.5q-2 0 -4 -1.5t-4 -3.5l8 -8l7 -3.5t5 -1.5q6 -2 12 -2h8h10.5t10.5 2z" />
<glyph unicode="j" horiz-adv-x="1461" d="M1418 785l-9 -4q-15 -9 -49.5 -25t-83 -29.5t-110 -19.5t-130.5 4q-60 9 -99.5 13.5t-64.5 6t-38.5 1t-21.5 -1.5h-5q-8 -1 -33 -6t-53 -11t-51 -11.5t-27 -7.5q0 -1 -1 -1q-4 0 -4 1q-5 0 -5 10q-3 21 -12.5 38.5t-40.5 16.5q-19 -2 -30.5 -8t-18.5 -13.5t-9.5 -15 t-3.5 -11.5v-3q-2 -2 -2.5 -3t-2.5 -1q-5 -2 -11.5 0.5t-10.5 6.5h-2q1 14 2 25q1 10 2 18t1 10q-8 4 -15 9.5t-9 7.5q-4 0 -6 2.5t-4 4.5q-2 -3 -3 -3h-2l-383 -38l-17 43l5 12l3 5l2 -2h5l2 2v2v3q2 1 4 3q1 1 1 2l3 2h2h2v3v2l8 5v2h2q5 0 5 3v2l7 7l2 3h3l2 2v2l7 8v2h3 q2 0 3 1q1 0 2 1v3l2 2q7 7 10 7h342h2q2 -2 3 -2h2q0 2 1 2h1l12 3q8 0 15 0.5t12 4.5q3 2 7 5q5 4 10 12q2 3 3.5 6.5t3.5 7.5q0 5 5 10q2 3 6 4.5t8 -2.5q2 -2 8.5 -5.5t6.5 -11.5v-2q0 -5 -3 -14t-5 -13q0 -2 3 -2h58h2v-3q1 0 2 -1v-1q3 0 3 2v3h12h2l3 -3q0 -2 4 -2v2 l3 3l10 -3h2h2q0 -2 1 -2h2q2 0 5 2v3h12h2v-3q2 -2 5 -2l2 2h10h2h3l2 -2q0 5 5 5q10 3 14 -3h3q0 -2 1 -2h1l3 2q3 8 7 8t5.5 -3t3.5 -5q9 1 46 1.5t91 -1.5t119.5 -6.5t133 -14t131 -25t113.5 -38.5z" />
<glyph unicode="k" horiz-adv-x="1380" d="M1338 964v-27h-5h-115v-10h94v-2q2 -5 3 -9q2 -9 -3 -15l-2 -3h-2h-2h-93q0 1 -3 -2q-2 -1 -3 -2h-22l-4 4h-72l-8 -11l-13 -2h-3v-14l-2 -4l-5 -2h-7h-3v25h-6l-8 -3l-1 1q-2 2 -3 2q0 -2 -2 -4l-1 -1l-7 -3l-4 -1h-212l-5 6l-2 2l-2 2l-113 -4l-5 4q-1 0 -1 1l-2 2 h-111l-12 -4q-5 -2 -10 -4.5t-9 -7.5l-6 -8q-4 -4 -5.5 -6.5t-7.5 -2.5q-3 -1 -9.5 -1.5t-13.5 -1t-12.5 -0.5h-6.5q-2 0 -6 1t-8 -1q-2 -1 -7 -11.5t-10.5 -23.5t-10 -26t-4.5 -19v-4q5 -8 8 -10t3 -4l2 -2l-8 -6q-8 4 -18 8q-8 3 -18 5.5t-21 2.5t-15 2t-6 5q0 4 5 7 q3 6 8.5 16t11 20.5t9 20.5t3.5 15h-3q0 5 -1.5 10.5t-6.5 6.5q-8 4 -15 0q-4 -1 -29 -11t-59.5 -24.5t-73.5 -31.5t-72.5 -31.5t-56 -24.5t-23.5 -10l-5 2l-4 4l-15 143l350 45q4 0 10.5 1.5t10.5 3.5q2 0 5 1q2 1 4.5 1t4.5 2q12 7 17 7h-2q2 0 18 8t42 9q12 1 48.5 1 h75.5q46 0 99 -1h17l9 7l5 5h10l6 -5l2 -4l5 -3h516l10 13l6 -1l10 -12l3 -1h11zM531 891q0 5 -4 9.5t-12 4.5h-28q-8 0 -12 -4.5t-4 -9.5q0 -14 16 -14h28q16 0 16 14z" />
<glyph unicode="l" horiz-adv-x="1139" d="M957 887v-25l-10 -11h-40q-2 -1 -3 -1q-2 -1 -4 -1v-43h-105v-5.5t1 -6.5q0 -4 1 -8q-1 -1 -3 -2t-5 -4q1 -2 3 -12q1 -4 1 -9h-21q-19 0 -25 2q-2 -4 -6 -13t-10.5 -18.5t-15.5 -17.5t-21 -9q-18 -3 -41.5 -2t-38.5 12q-4 0 -5 3v-146q-3 -1 -5 -2q-3 -1 -7 -1v-354 l-2 -2q-1 -1 -11.5 -5.5t-25 -7.5t-30 -1t-26.5 14v352q-1 1 -2 1.5t-2 1.5t-2 1h-54l-12 15q10 46 19 83q7 32 13 58t6 27q-8 16 -15.5 28.5t-12.5 14.5t-22.5 2t-32.5 -2q-1 -1 -3 -2.5t-4 -3.5l-5 -5l-12 2q0 1 -1 3q-1 1 -1.5 2t-1.5 2h-77v-60h-4q-2 -2 -12 -4.5 t-18 -0.5q-6 2 -10 3.5t-6 1.5h-4t-7 1q-4 0 -10 1q-2 0 -6.5 3.5t-9.5 11.5q-2 3 -2 7v6q0 12 6 26q0 2 1 18t1 29l6 122l19 26v2l40 -2h2q14 -2 31 -3.5t32 -2.5t25.5 -2t12.5 -1t15 -1.5t28 -3.5t28 -4t16 -2h2v-2q2 0 4 -3.5t0 -8.5q-3 -4 -12 -7q-6 -2 -16.5 -2.5 t-21 -0.5t-18.5 0.5t-9 0.5l-77 6h-1q-1 0 -1 2v-8q5 0 15 -0.5t21 -1.5t20.5 -2t12.5 -2h34h76h96.5h96.5q0 2 0.5 7t1.5 10q1 6 2 13h2q4 1 12.5 1.5t17 0.5t15 -0.5t8.5 -2.5q3 -2 6.5 -9t5.5 -12h83v4.5t1 5.5q0 4 1 7h2q4 2 11.5 5l15 6t14.5 4t11 0q8 -3 10 -8t2 -7 v-54l8 -8h45zM717 756q0 7 -5.5 12.5t-13.5 5.5h-62q-8 0 -14 -5.5t-6 -12.5v-10q0 -8 6 -13t14 -5h62q8 0 13.5 5t5.5 13v10v0zM256 935q-5 2 -11 2h-9q-2 -3 -2 -8v-11q0 -10 1 -22t3 -28q3 21 9 40t9 27z" />
<glyph unicode="m" horiz-adv-x="1478" d="M1362 763q3 -3 4.5 -11t1.5 -16t-0.5 -14.5t-0.5 -7.5v-3q-2 -1 -9 -2q-6 -1 -18.5 -1.5t-35.5 -0.5h-2l-4 4q0 1 -3 -2l-2 -2l-4 4l-5 5q-1 -1 -1.5 -2t-1.5 -2t-1 -2h-14l4 -2q1 -1 3 -1l2 -14q1 -5 1.5 -9.5t0.5 -5.5q1 -1 3.5 -1.5t4.5 -1.5q3 -1 5 -1l-15 -92h-2 q-6 -1 -12 -1q-5 -1 -11.5 -1h-12.5q-12 2 -14 8t0 16v12q0 13 -2 15q-3 2 -9.5 2.5t-15.5 0.5h-10q-23 0 -26.5 -7t-5.5 -14v-2q-2 -10 -6.5 -31.5t-11.5 -33.5q-7 -15 -15.5 -24t-33.5 -26q-12 -6 -27.5 -9.5t-31.5 -4.5t-30 -0.5t-21 1.5h-5q-7 0 -12.5 3.5t-6.5 12.5 q0 4 2 13.5t4 19.5q4 12 4 21q4 5 -9 18q-8 5 -22 2q-3 0 -6.5 -1t-8.5 -1q-12 0 -17 -3.5t-19 -14.5l-7 -7q-10 -9 -26 -18t-32 -17t-29 -13.5t-18 -7.5q-6 -2 -27 -3t-44 -2t-41.5 -1.5t-20.5 -0.5l-6 3q-3 2 -5 5q-4 6 -4 8q-1 0 -7.5 2t-16.5 5t-23 7t-26 9l-70 24h-16 h-7q-1 -1 -1.5 -2.5t-1.5 -3.5q-1 -3 -1 -5h-3h-306q-5 2 -6.5 5.5t-5.5 12.5v4q-1 3 -0.5 13.5t1.5 24t2 28.5t2 28q0 14 1 23.5t1 12.5q0 4 -1 20t-1 36q-2 29 -3 53t1 27q0 7 8 10.5t10 3.5h6h7q2 0 3 -1t1.5 -2t1.5 -2l3 3h332q0 -1 1 -2q2 -2 3 -2h332q1 0 1 1l59 121 h2q1 0 2 -0.5t3 -0.5h29h2q0 -2 1 -3q2 -2 4 -2q1 0 6.5 2t12 4.5t12.5 5.5t9 6q5 5 16 13.5t11 10.5h150h2q1 -5 2 -9q0 -3 2 -7q1 -2 1 -3q1 0 6 -3t10.5 -6.5t10 -7t4.5 -4.5h11q0 3 2 5l2 2v-3h7q3 0 6.5 -0.5t7.5 0.5q6 0 9 -1l4 -4t9 -5q5 -3 8.5 -20.5t5 -40.5t2 -48 t0.5 -44v-27q1 0 1.5 -0.5t1.5 -0.5l1 -1q4 0 5 1q1 0 2 1h3q2 0 6 -2q0 1 3 3q1 1 3 1h57q4 0 6 -2zM1087 608q0 11 -7.5 18.5t-17.5 7.5h-36q-10 0 -17 -7.5t-7 -18.5v-31q0 -10 7 -17t17 -7h36q10 0 17.5 7t7.5 17v31v0zM670 591q27 -21 54 -11q7 2 20 7.5t25 11t21.5 10 t11.5 4.5q2 2 9 11.5t7 19.5q0 7 -2 9q-10 25 -36 32q-9 1 -23.5 1h-28.5t-25 -0.5t-13 -0.5q-1 0 -7 -2t-12.5 -6.5t-12 -12t-5.5 -17.5v-3v-1q1 -23 3 -34.5t14 -17.5z" />
<glyph unicode="n" horiz-adv-x="1397" d="M1366 894q0 -2 1 -3.5t1 -6.5q0 -7 -4 -11l-5 -7h-219q2 -4 2 -12v-3q0 -5 -2 -11q-1 -3 -2 -4l-8 -8l-14 -3q-1 0 -24.5 -1t-59 -2t-77 -2.5t-78.5 -3t-64 -3t-33 -1.5q-17 -3 -35 0h-26q-9 -4 -12.5 -5t-9.5 -3q-3 -1 -16 -2t-29 -1.5t-31 -1t-20 -0.5h-2q-2 1 -5 2 q-6 2 -8 3q0 -1 -4 -3q-2 -1 -3 -2q-1 0 -2 -1v-1q-2 -3 -11.5 -15.5t-29.5 -17.5q-27 -6 -63 22q-16 7 -17 7q-3 -1 -9 -4.5t-13.5 -8.5t-15 -12.5t-11.5 -17.5l-3 -5q-8 -18 -12 -23.5t-11 -7.5q-14 -3 -28 5q-5 0 -7.5 1t-4.5 1q-3 0 -11.5 2t-17.5 4.5t-17 5t-11 3.5 q-1 0 -2 -1t-3 -2l-4 -2h-2q-4 0 -19 -0.5t-32.5 -1t-32.5 -1t-18 0.5q-4 0 -6.5 1t-6.5 1l-3 3h-1l-2 -3q-5 -13 -12 -25t-14 -15q-8 -2 -17.5 -2.5t-18.5 -0.5h-2h-8t-13.5 1t-14 2t-9.5 4q-2 3 -5.5 8.5t-1.5 10.5q1 2 2 13.5t1.5 27.5t1.5 34t2 32q2 20 3 30.5t1 12.5 q0 7 4 10t7 3h6h25.5t45.5 0.5t55 0t54.5 -1t44 -2t23.5 -3.5q7 -3 16 -8t16.5 -10t13.5 -9.5t9 -5.5q3 -4 13.5 -6t18.5 4q6 2 16.5 7.5t22 11t21.5 10.5t14 6q5 2 5 9v2q2 2 8.5 13t23.5 13q9 1 16.5 1.5t12.5 0.5h12q2 -1 4 0q3 0 7 4v4q-2 2 -7.5 2h-12.5 q-1 0 -10.5 -1.5t-21.5 -2.5t-22 -1t-13 3q-1 0 -1.5 1t-1 6t-0.5 15t1 28v5h5q20 0 40 -0.5t26 -4.5q1 -2 2.5 -1.5t2.5 0.5t2 1l11 2l11 3h18q1 -2 3 -3q4 -2 5 -2h44v1l2 1v5l10 7l22 2h2l7 -7v-4l2 -3h9l6 3h25v-3q0 -2 3 -2h21q4 1 9 2l10 2t12 3q14 3 28 4.5t21 -0.5 h21h5v-56h-5q-3 0 -13.5 -0.5t-22 -0.5t-22.5 1t-15 4q-4 2 -19.5 2t-29.5 -2v-13h11h192h21h44.5t48.5 -1.5t35 -4.5q18 -7 25.5 -9t9.5 -2h248v-3v0zM495 802q-3 0 -3 -2v-1q17 -16 35 -16q6 1 11.5 4.5t9.5 7.5t8 9q0 2 -2.5 5t-4.5 5q-4 0 -7 1q-3 0 -6 1 q-4 1 -10.5 -0.5t-13 -4.5t-11.5 -5.5t-6 -3.5z" />
<glyph unicode="o" horiz-adv-x="1373" d="M1354 851q0 -7 -1 -8t-1 -3l-7 -7h-308q-1 0 -3.5 -0.5t-4.5 -0.5q-3 -1 -6 -1h-6q-4 2 -8.5 2h-9.5q-8 -3 -12 -7q-2 0 -2 -1t-2 -1h-3h-9.5t-21.5 -0.5t-38 -1.5q-36 -1 -83 -2t-89.5 -2.5t-74 -2.5t-35.5 -2q-14 -2 -23 -4.5t-13 -4.5q0 -5 2.5 -19t4.5 -26 q3 -20 5 -31t2 -14q0 -7 -5 -7q-26 -9 -40.5 -13.5t-22 -5.5t-9 0t-2.5 3t-4 14.5t-7 28.5t-7.5 31t-4.5 23q-7 -7 -15 -11q-7 -5 -24.5 -10.5t-36.5 5.5h-5q-3 -15 -7 -31t-4 -21h2l8 -4t4 -7q0 -3 -4.5 -15t-11.5 -12q-4 -4 -7 -4q0 -2 -6.5 -10.5t-18.5 -12.5 q-20 -3 -40 20q-2 0 -4.5 1.5t-4.5 1.5q-14 3 -16 9v2q0 6 4 16q8 15 25 15h2h3q1 5 3.5 16t5.5 22t6 20.5t5 11.5q0 4 -7 7l-2 2q-3 1 -23.5 2.5t-45.5 1.5t-48.5 -1.5t-33.5 -6.5h-2q-2 -2 -4 -2h-3q-5 -25 -8.5 -38.5t-6.5 -20t-4.5 -8t-2.5 -1.5q-30 -5 -47 -7 t-25.5 -1.5t-10.5 2.5t-3 4q-2 3 -2 9.5t-2 17.5q0 7 -1.5 13.5t-1.5 8.5q-3 7 -4 7h-3q2 -5 2.5 -11t0.5 -11q0 -14 -2 -26t-5 -15q-2 0 -3.5 -1t-3.5 1q-19 3 -22 6t-3 5v2v6q0 5 3 26q1 12 1 25.5v25.5v21t-1 11v7q-4 11 -6 19t1 13q9 11 23 11q3 -2 9 -4t6 -16 q0 -21 0.5 -34.5t1 -21t1 -10.5t0.5 -4h2v18q0 14 1 25t1 13l3 2q2 5 13 5h32h4v9q2 3 2 6.5v6.5q0 16 9 16q1 0 24.5 -1.5t52.5 -3t55 -3t33 -1.5l6 -2v-5l3 5q28 0 50 1q19 0 34.5 0.5t16.5 0.5v9q2 2 4 4.5t16 2.5h5v-7q4 0 6 1q2 0 3 1q14 0 26 1.5t17 1.5q0 4 -3 4h-6 h-3q-3 0 -6 5q-4 0 -17.5 1t-16.5 1q-1 -1 -14 -2t-28.5 -1.5t-30 -0.5t-17.5 2q-5 1 -7 6.5t-3 12t-0.5 12t1.5 7.5q0 2 0.5 5.5t3.5 5.5q2 0 16.5 -0.5t32 -0.5t33 -0.5t20.5 -0.5l9 -2h11h72v11h2q0 2 5.5 4.5t10.5 2.5q8 0 15 -2t7 -7q0 -7 3 -9h45l15 2.5l18 3t17 3 t11 2.5t14 1.5t23.5 0.5h23h13.5h4v-2q1 -2 2.5 -10t2 -18.5t-0.5 -20t-4 -14.5l-2 -2h-2q-24 -1 -38 -1.5t-21 -0.5t-9.5 0.5t-3.5 1.5q-3 0 -7 1q-3 1 -6.5 1.5t-6.5 1.5l-16 2q-3 1 -9 1t-12.5 -0.5t-12.5 -1t-9 -1.5h-2q-5 0 -7 -2q2 0 6 -0.5t7 -0.5q4 -1 7 -1v-9h21 l1 1q0 1 0.5 1.5t0.5 1.5v5h4h9q5 0 11.5 -1t15.5 -2q6 -1 27 -1.5t50 -0.5t60.5 0.5t58.5 0.5t44.5 0.5t18.5 0.5l77 3h46t23.5 -0.5t9 -1t2.5 -1.5q2 -2 4 -6q2 -3 3.5 -6.5t1.5 -5.5t-1 -2t-1 -2q-2 0 -8 -3.5t-13 -3.5q-2 0 -3.5 1t-5.5 1q-10 5 -18 5h-4h-5l3 -11 l-3 -3q-8 -4 -13 -4h304h4v-5v-11zM458 788q8 2 14.5 7t10.5 9q-7 0 -19 -1.5t-24 -3.5q4 -7 8.5 -9t9.5 -2z" />
<glyph unicode="p" horiz-adv-x="1207" d="M650 895q14 -128 -14 -236q-24 -87 -73 -157q-21 -30 -41.5 -51.5t-37.5 -35t-28 -20t-11 -7.5l-6 -3l-7 3q-45 32 -81.5 70.5t-62.5 85.5q-42 74 -59 166q-7 39 -8 72.5t0 58.5t3 39.5t2 16.5l3 16l14 -9q43 -25 86 -14q21 6 39 18.5t30.5 25.5t20 23.5t7.5 11.5 q1 2 1.5 6t1.5 8t2 9l15 -22q52 -77 117 -81q33 -3 68 15q6 4 14 0l5 -3v-6v0zM614 666q17 68 17 146q0 16 -0.5 32t-2.5 33q-17 -6 -33.5 -9.5t-32.5 -1.5q-71 4 -125 77q-2 -2 -4.5 -5.5t-6.5 -7.5q-9 -10 -23.5 -23t-33.5 -24q-60 -35 -121 -6q-2 -11 -3.5 -27t-1.5 -37 q0 -20 2 -46t7 -54q16 -86 56 -158q48 -85 132 -142q12 7 42.5 32t62.5 71q24 34 41 71t28 79zM576 821q5 -49 1.5 -90t-12.5 -74t-22 -58t-26 -43q-14 -20 -28 -34.5t-25 -23.5q-13 -11 -25 -17q-35 23 -59.5 50.5t-40.5 56t-24.5 56t-12.5 51.5q-5 26 -6 48.5t0 40 t2.5 27.5l1.5 10h2q32 -21 67 -9q16 5 28.5 14.5t21 18.5t13 16t4.5 8h1q19 -30 39.5 -43t39 -15.5t33.5 1.5t24 9h3v0z" />
<glyph unicode="q" horiz-adv-x="1312" d="M1253 872q0 -2 1.5 -6t2.5 -9t0 -9.5t-6 -6.5q-6 -3 -13 -3.5t-10 -0.5q-1 0 -7 -2q-3 -1 -5 -2h-4q-3 0 -7 2q0 -5 -2 -10t-8 -7q-2 0 -3 -0.5t-2 -0.5l-1 -1v-10l-2 -9h-2q-7 0 -19 -0.5t-17 3.5q-3 0 -5 -2l-1 -1h-2q-5 -2 -10 -5.5t-7 -6.5v-9t2 -16v-25.5v-28.5 t-0.5 -27t-1.5 -21q-2 -12 -3.5 -19t-2.5 -11q-2 -4 -2 -7l-2 -2h-2q-5 -2 -16.5 -2.5t-16.5 4.5v2q-2 2 -4.5 5t-2.5 9q-2 8 -2 10v3l-2 2q3 37 4.5 61t2.5 38t2 21t2 9q-2 0 -3.5 2t-3.5 4l-3 3q-2 1 -3 2t-2 1q0 2 -4 4.5t-6 2.5t-3 1q-2 0 -2.5 0.5t-1.5 0.5l-8 -2 q-1 0 -3 1q-2 0 -3 0.5t-2 0.5t-3 -0.5t-4 -0.5q-3 -1 -6 -1h-37q0 2 1 6q0 2 0.5 5t0.5 5q-6 -3 -17 -9.5t-14 -6.5h-25q1 -4 2.5 -12.5t3.5 -18.5q2 -11 4 -24q-2 0 -4 -1l-6 -3q0 -2 3 -14.5t7.5 -32t9.5 -44t11 -49.5q13 -60 29 -134q3 -5 4.5 -10t3.5 -7l2 -2 q0 -6 -4 -10l-73 -13l-34 150q-6 28 -12.5 55t-11.5 49t-8.5 35.5t-3.5 14.5h-17q-7 -1 -12 -1q-5 -1 -9.5 -1t-7.5 -2q-5 -2 -7.5 -6t-4.5 -7t-4 -5.5t-5 -4.5q-2 -2 -14.5 -3t-27 -1h-28t-17.5 2q-8 2 -17 6.5t-14 7.5q-11 -16 -11 -23l3 -7.5t1 -4.5h2l-6 -6q-1 1 -2 1 q-3 0 -4 -1q-2 -2 -6 -9.5t-9 -16.5t-8.5 -17t-3.5 -11v-13q2 -2 -2 -6t-13 -2q-3 1 -14 6.5t-23 12.5t-22 14t-11 10q0 2 1.5 6t7.5 15.5t18 32.5t33 57q0 5 -4 19.5t-21 19.5l-25 9q-8 2 -13.5 3t-11.5 1q-5 1 -13.5 2t-18 1.5t-18 0t-12.5 -1.5l-310 -110h-2q-1 0 -7 -1 t-13.5 -1.5t-15.5 0.5t-12 4q-4 4 -4 8v42v30.5t-2 23.5v29q0 6 -1 12t-1 11q-2 8 -1.5 15.5t7.5 9.5q1 1 12 1.5t25.5 1t30 1t25.5 0.5h219q4 1 12.5 3.5t17 4.5t15.5 4t9 4l12 9q4 2 7.5 3t5.5 3q3 3 23 6q6 0 8 1q2 0 4 1q3 2 14.5 14t21.5 22q5 5 17 3.5t18 -3.5 q3 0 4 1q1 0 2 1q1 0 3 -1q4 -2 5 -3h15l4 -7v-25h2v15h31v8h13h4v-8h11v8h12h4v-8h11v8h12h4v-8h13v8h12h4v-8h13v8h12h4v-8h13v8h12h5v-8h10v8h12h5v-8h10v8h12h5v-8h12h4v-15h221q6 5 15 13t12 14q0 4 1 7t1 6q2 6 4 10t8 6h5q5 2 10 2.5t10 -6.5q6 -9 9 -18q2 -4 2 -7 t2 -6q3 -6 5.5 -17t4.5 -22v-9v-10q2 -2 3 -5.5t3 -7.5h3q4 0 6 1q2 0 4 1l8 -2h25l2 -2v0zM771 743q0 8 -5.5 12.5t-11.5 4.5h-56q-6 0 -11.5 -4.5t-5.5 -12.5q0 -6 5.5 -10t11.5 -4h56q6 0 11.5 4t5.5 10zM373 820q0 15 -14 15h-27q-5 0 -9 -4t-4 -11q0 -5 4 -8.5t9 -3.5 h27q6 0 10 3.5t4 8.5zM265 789q0 8 -3.5 19t-6.5 19q-5 0 -16.5 2.5t-27.5 7.5q-7 3 -17.5 5t-21 3.5t-20 2t-14.5 1.5q0 -8 1 -21.5t1.5 -28t1.5 -27t1 -16.5q3 -3 13 -7t20 -4q7 1 19 5t24.5 9t24 10.5t17.5 9.5q4 4 4 10zM638 931v-7h243v7h-243v0z" />
<glyph unicode="r" horiz-adv-x="1271" d="M1234 893q1 -2 2 -5q1 -2 2 -4.5t1 -5.5q0 -4 -5 -12l-1 -2h-448v-6v-2h3h30v-28l5 -5q3 -3 3 -10q0 -2 -0.5 -2.5t-0.5 -1.5v-2q0 -5 -2 -5h-4h-19.5h-51h-98.5q-2 -1 -2 -4q1 0 2 -1l3 -3l-2 -6h-17l-2 2q-1 2 -5.5 12t-0.5 16q0 5 5 5h1q10 0 13 -3q6 0 14 4h-82 q-1 0 -10 -2.5t-19.5 -5.5t-20 -5.5t-10.5 -3.5v-29l-96 -11v31q-8 0 -9 -2q-2 -2 -7 -6t-13 -6.5t-19 -1.5t-25 9q-1 0 -2 -0.5t-3 -0.5q0 -5 -0.5 -13t-2.5 -16.5t-5 -15.5t-7 -9q-5 -3 -19 -2t-29.5 3.5t-28.5 5.5t-16 5t-12 13q-6 5 -12.5 10.5t-8.5 6.5h-55 q-3 -23 -4 -27t-3 -4q-1 -2 -4.5 -2t-14.5 2q-8 0 -17 0.5t-11 -0.5q-3 0 -8.5 -1t-12.5 -2q-6 -2 -14 -3t-10 -2h-2h-1q-1 0 -1.5 1.5t-0.5 6.5v16.5v32.5q2 19 2 38v27q0 4 8 7.5t38 2.5h11l1 1q1 1 1.5 1t1.5 1q2 1 4 3h100q3 -1 7 -4q7 -5 11 -12h114q1 4 3 10.5t2 10.5 v3h1q5 1 16.5 2t13.5 3q2 0 4 1q1 1 3 2h35v11h-13q-2 0 -10.5 -1.5t-20 -3t-23.5 -2t-21 1.5l-1 2v1q-1 12 -1 18.5v10.5t1 5l1 1h2l9 0.5t20.5 1.5t23 1t17.5 -1h16.5h19.5t18 0.5t12 0.5v7q-1 1 -1 2v3v4l35 2h1l4 -11q0 -1 -1 -2t-3 -1v-2h61q7 1 20.5 2.5l27 3t25 2 t14.5 -1.5l2 -1l1 -48h-3q-77 0 -82 5v-2q-3 2 -12 2.5t-20 -0.5v-10h695v-1v0zM391 799q10 0 10 10q0 9 -10 9h-24q-9 0 -9 -9q0 -10 9 -10h24v0z" />
<glyph unicode="s" horiz-adv-x="1253" d="M614 962q5 -1 6.5 -7t1.5 -10q5 -8 5 -16q0 -5 -1 -8.5t-2 -7.5v-3q0 -1 -0.5 -9.5t-1 -18t-1.5 -18t-1 -10.5v-4h-42q-1 -2 -1 -3t-2 -3l-1.5 -0.5t-8 -1t-19.5 -0.5h-37q-12 0 -23 0.5t-20 0.5h-19q-5 0 -10 -1q-11 -2 -21 -9q-11 -8 -18 -16.5t-8 -13.5 q-1 -8 -1 -14.5t1 -8.5q3 -8 0.5 -11t-4.5 -5v-1q-2 -2 -10.5 -4.5t-18 -5.5t-17.5 -5l-8 -2q-9 -2 -25 -1t-46 6q-14 2 -21.5 -0.5t-11.5 -5.5q-4 -4 -6 -8l-28 -96v-4v-12t2 -24q2 -4 2 -11q0 -18 -8 -26q-4 -4 -6.5 -4.5t-3.5 -0.5h-97h-1q0 1 -11 5q-5 2 -6.5 8t-1.5 12 v9q-20 1 -26.5 3.5t-8.5 4.5q-1 1 -1 3q-1 1 -1 3v6q-1 4 -1 9q0 2 -0.5 4t-0.5 4q0 14 3.5 28t3.5 16v1q1 1 9.5 20.5t18.5 42.5t18.5 42.5t10.5 21.5q2 8 2 10q0 9 -6 19q-4 8 -14.5 10t-19.5 4q-7 0 -11 2q-5 5 -5 10v1q0 7 3 10q4 5 11 5q2 1 3.5 1t3.5 1q4 2 12 11l2 3 q5 6 8.5 16t4.5 15q0 3 -2 11q-2 10 -2 14v3q2 6 5 7q5 3 10 1q3 -1 9.5 -2.5t8.5 -1.5l10 4q3 1 6.5 2.5t6.5 2.5q2 1 6 1h1v3v5v5h5q16 -1 19.5 -2t3.5 -3q2 -6 2 -12h13t21 1q12 0 28 1q25 0 38.5 -0.5t20 -0.5t8 -0.5t2.5 -0.5q2 -2 4 -6h268h2v1q0 2 3 5q1 2 2.5 2.5 t3.5 2.5q5 6 14.5 4.5t11.5 -2.5l2 -1l1 -2v0zM242 815q-2 -4 -2 -12q0 -10 3 -13l1 -1q2 -2 4 -3.5t7 -6.5l3 -1q6 -4 22.5 -8.5t35.5 -1.5q48 8 52 24q1 3 1 10q0 8 -4.5 16.5t-18.5 15.5h-26.5h-24.5t-19 -0.5t-9 -0.5l-3 -1q-5 -2 -12.5 -6t-9.5 -11zM1229 943 q4 -7 4 -16q0 -5 -0.5 -8.5t-0.5 -7.5q0 -1 -1 -1.5t-1 -1.5t-0.5 -9.5t-1 -18t-1 -18t-0.5 -10.5v-5h-43q0 -1 -2 -5q-1 0 -2.5 -0.5t-8 -1t-19.5 -0.5h-37q-12 0 -23 0.5t-20 0.5h-19q-5 0 -10 -1q-10 -2 -19 -9q-12 -8 -19 -16.5t-8 -13.5q-1 -8 -1 -14.5v-8.5 q5 -8 1.5 -11t-5.5 -5v-2q-2 -2 -10 -4t-18 -5q-11 -4 -25 -7q-9 -2 -25 -1.5t-45 5.5q-14 2 -21.5 0t-12.5 -5q-5 -4 -7 -8l-27 -96q0 -1 -0.5 -1.5t-0.5 -2.5q0 -4 1 -12l3 -24v-11q0 -17 -7 -27q-3 -3 -6.5 -3.5t-4.5 -0.5h-96h-1l-1 1q-1 0 -3 1q-2 0 -3.5 0.5l-4.5 1.5 q-8 5 -8 21q0 3 1 5t1 4q-21 1 -28 3t-9 5v3q-1 1 -1 3t-0.5 3t-0.5 3q-1 4 -1 9v7q0 14 3.5 28.5t3.5 15.5h1v1q1 2 9 21t18 42t18.5 42.5t10.5 22.5q2 6 2 10q0 8 -7 19q-4 8 -14.5 10t-18.5 4q-8 0 -12 2q-5 3 -5 10v1q0 7 4 10q4 4 10 4q2 2 3.5 2t3.5 1q4 2 12 11l3 3 q5 6 8.5 16t3.5 15q0 1 -2 11t-2 14v2q2 7 6 8q4 3 10 1q3 -1 9 -2.5t8 -1.5q2 1 4.5 1.5t5.5 2.5q4 1 7.5 2t5.5 2q3 2 6 2h2v3v4v6h4q17 -1 20 -2.5t4 -3.5t1 -4.5t1 -6.5h33q12 0 28 1h39t20.5 -0.5t8 -0.5h1.5q5 -3 5 -6h267h2v1q0 2 1.5 3t2.5 2q2 1 2.5 1.5t2.5 3.5 q6 5 15 4t11 -2l2 -1l2 -2q5 -2 6 -7.5t2 -9.5zM849 813q-2 -8 -2 -12q0 -10 3 -13v-1h1q1 -3 11 -10l2 -1q7 -5 23.5 -9t36.5 -1q47 6 50 24q2 4 2 10q0 8 -4.5 16.5t-18.5 15.5h-26.5h-24.5t-19 -0.5t-9 -0.5t-1 -0.5t-1 -0.5h-1q-5 -2 -12.5 -6t-9.5 -11z" />
<glyph unicode="t" horiz-adv-x="1402" d="M1311 829q2 -3 3.5 -11.5t-3.5 -20.5v-2h-2q-1 0 -12 -1t-24.5 -1.5t-25.5 -0.5t-15 3q-2 0 -3 1q-1 0 -2 1h-99q-4 -2 -9.5 -3t-8.5 -3q-2 -2 -10 -3.5t-10 -1.5q-1 0 -6 5h-2q-1 -1 -1 -3q-1 -2 -1 -6v-1q-1 -3 -2.5 -9t-4.5 -12t-8 -10t-13 -4h-244q-5 0 -9 -4v-2v-7 v-7q0 -8 -1 -16.5t-6 -15.5q-7 -5 -18 -5q-10 1 -22 2t-23 2.5t-19 3t-11 2.5l-10.5 -7t-7.5 -19v-13l-2 -1q-2 -2 -7 -8t-5 -11q0 -4 1 -6q0 -2 1 -4l3 -5h-3q-2 -1 -7.5 -8.5t-5.5 -21.5v-6l2 -4h-7q-4 1 -14 3t-21.5 5t-21 7.5t-11.5 10.5l-2 2q2 33 8.5 64t32.5 54 q1 3 2 6.5t1 6.5q0 6 -10 12q-5 2 -18 2t-30 -6q-40 -15 -54 -58l-2 -1q-12 -8 -18 -8v-2q0 -6 0.5 -19.5t1.5 -29.5t2 -33.5t2 -31.5v-2v-2q-1 0 -7 -4.5t-18 -10t-29.5 -9.5t-40.5 -3h-2q-3 51 -5 91q-2 35 -3 64t-1 33q-23 -4 -42.5 -7.5t-23.5 -5.5q0 -1 -1 -3.5 t-1 -4.5q0 -11 -5 -11q-2 -1 -13 -3t-16 -4h-2q-2 2 -4 5q-2 2 -3 4.5t-2 4.5q-5 -3 -17 -7.5t-28.5 -8.5t-35 -7t-37.5 -1l-2 1l-2 2q-14 44 -19 76t-5 53q0 40 9.5 53.5t13.5 15.5q1 0 7 9.5t12 18.5v2h115v-2q4 -8 11.5 -17t11.5 -11q3 0 15.5 7.5t22.5 17.5h2 q29 -2 59 -3t54.5 -1.5t42 0t21.5 2.5l3.5 10.5t4.5 15t3.5 14t2.5 8.5v2q1 2 3 4t8 3.5t18 3t33 3.5q87 5 287 -9q58 -1 93 -2t53 -1.5t24 -1t7 -0.5t6 0.5t10 -6.5q11 -13 11 -44q0 -10 -0.5 -22t-3.5 -26q-1 -4 -1 -7q-1 -4 -1 -9q2 0 5 -0.5t5 -0.5q3 -1 6 -1l16 -3 q0 -1 1 -2q0 -1 0.5 -1.5t0.5 -1.5h86q3 1 6.5 1.5t5.5 1.5l6 2q3 1 14 1.5t24 1t24.5 0t14.5 -0.5l4 -2v-3v0zM1037 892q0 10 -6 15.5t-15 5.5h-393q-20 0 -20 -21v-20q0 -20 20 -20h393q9 0 15 5.5t6 14.5v20v0z" />
<glyph unicode="u" horiz-adv-x="1116" d="M870 938q2 -5 2.5 -12t0.5 -16q0 -14 -1 -28.5t-1 -19.5l-1 -2l-4 -4q-1 -1 -1 -6v-4l-1 -5l-6 3l1 -1q-1 0 -6 0.5t-24 -0.5q-1 -8 -4 -14t-4 -7l-1 -3h-139l-5.5 -2.5t-12 -5.5t-12.5 -6.5t-8 -4.5q2 -6 2 -17v-14.5t-2 -19.5q-2 -14 -11.5 -21t-22.5 -9t-28 -1.5 t-29 1.5q-11 1 -19.5 1.5t-15.5 -0.5h-1q-20 2 -26 -0.5t-8 -6.5l-2 -1q-5 -5 -5 -24v-5q0 -9 -2.5 -16.5t-5.5 -14.5l-1 -3q-2 -5 -5 -18t-7 -27q-4 -17 -5.5 -24.5t-3.5 -10.5l3 -3q2 -2 3.5 -4.5t1.5 -5.5l-1 -2q-1 -5 -6 -8t-9 -5h-1h-1q-2 0 -19 -0.5t-37 -2.5 q-59 -3 -66 -3q-11 0 -24 25h-1v2v7q0 21 5.5 49.5t13.5 57t16.5 54.5t14.5 42v3q2 6 2 9q0 2 -0.5 2.5t-0.5 1.5q-1 1 -1 2h-1v1q-1 4 -5 6q-2 1 -3 1q-4 1 -8 3q-9 3 -25 13q-11 6 -14.5 14t-3.5 16t1 10t5.5 22t9.5 39q4 17 12 23.5t13 9.5v10l3 1q18 5 35 -3t21 -11h296 q1 0 2 -1l2 -2h155h1l2 1q4 4 8 14v2h2q1 0 3.5 0.5t6.5 -0.5q8 -1 14 -21zM621 796q0 9 -8 9h-109q-8 0 -8 -9v-39q0 -9 8 -9h109q8 0 8 9v39z" />
<glyph unicode="v" horiz-adv-x="1425" d="M1376 898v-18v-4h-5h-53q-2 0 -27.5 -0.5t-56.5 -1t-60 -1t-39 -0.5q0 -7 -4 -11q-12 -12 -21 -12q-5 0 -12 6.5t-11 9.5q-2 0 -5.5 0.5t-7.5 2.5l-10 4q-2 1 -10 1.5t-20 0.5t-27 -0.5t-29 -1.5q0 -2 -2 -6q-1 -3 -1 -5l-4 -2q-2 -1 -5 -1q0 -1 -0.5 -4.5t-0.5 -7.5 q-1 -4 -1 -10h-5q-22 0 -48.5 -0.5t-50 -1t-40 -1t-19.5 -0.5q-2 -1 -7.5 -1.5t-12 -1.5t-13.5 -2t-10 -2h-2l-3 7q-1 6 -1 12q-1 5 -1 10v8q-3 -1 -12 -2.5t-19.5 -3.5t-19.5 -3.5t-11 -1.5q0 -4 -1 -7t-1 -5q0 -28 8.5 -61.5t19 -63t19 -49t8.5 -20.5l2 -3l-4 -2 q-3 -1 -12 -5q-8 -4 -22.5 -11t-39.5 -20h-2h-2q-9 12 -19.5 41.5t-19.5 61.5t-15.5 60.5t-9.5 37.5q-5 -4 -14 -7q-2 0 -2.5 -1t-2.5 -1q-3 -5 -9 -5q-26 -7 -42 -0.5t-20 9.5q-1 -1 -3 -2l-10 -5q-17 -38 -20 -62.5t-3 -35.5v-5v-4q0 -2 -1 -2.5t-1 -2.5q-9 0 -62 28l-2 2 v2q6 14 12.5 30.5t12 31t9 25t4.5 12.5q0 3 -2 5t-2 4q-1 1 -3 4l-4.5 4.5t-4.5 5.5q-2 1 -15 1t-30.5 -0.5t-38 -1.5t-37.5 -2l-46 -2q-43 0 -130 -78l-5 -4q-4 -6 -11 -9q-7 -9 -9.5 -11.5t-4.5 -2.5q-5 0 -8 7.5t-3 12.5q0 3 -1 17t-2.5 32t-3.5 37t-5 31q-5 12 3 23 q5 7 14 7h11h254h6t5 2v2q2 2 2.5 3.5t2.5 3.5q4 3 11 3q9 0 12 2t6.5 2t6.5 2q8 2 14 5t9 7q4 3 4.5 8.5t2.5 16.5v5q0 10 5 13q4 3 11 3h5l2 -3l11 -11q0 -3 14 2h2h5q4 -2 5.5 -9t3.5 -14q16 2 35 2t22 -2q2 -1 4 -1q2 -1 6 -1h139q0 5 -2 9l-2 5h22h3v-5q0 -2 1 -3 q0 -1 1 -1h25h7h304q0 2 -0.5 4.5t-0.5 6.5q-1 4 -1 9l7 14l23 2h2v-27v-12l-1 -1q-1 -1 -2 -1.5t-2 -1.5q5 -5 18 -12t28 -7q7 -1 22.5 -1.5t34.5 -0.5t39.5 0.5t37.5 0.5t28.5 0.5t13.5 0.5q3 0 10 1.5t15.5 2.5t16.5 1.5t11 -2.5q5 0 5 -5v-14zM582 827q0 8 -4.5 12 t-9.5 4h-39q-5 0 -9.5 -4t-4.5 -12q0 -7 4.5 -11.5t9.5 -4.5h39q5 0 9.5 4.5t4.5 11.5zM104 864q1 -8 3 -19.5t3.5 -23.5t2.5 -23.5t2 -18.5q5 4 14.5 11.5t19.5 16.5q21 15 41.5 30.5t36.5 26.5h-123z" />
<glyph unicode="w" horiz-adv-x="1471" d="M1423 867q2 -5 2.5 -10t0.5 -9q0 -5 -2 -11q-1 -3 -1 -5q-1 -1 -3 -2t-9 -1.5t-21.5 -1t-39.5 0.5h-2l-1 1q-1 0 -2 0.5t-2 0.5h-173l2 -2l-4 -14l-14 -7l-16 -2v18h-12l-25 -11h-18q-1 -1 -4 -3.5t-6 -5.5q-4 -4 -8 -7q-7 0 -29 -0.5t-50.5 -1.5t-60.5 -2t-59 -2 t-45 -1.5t-19 0.5q-3 0 -5 5t-4 9q-2 0 -13.5 -1.5t-13.5 -1.5q-6 -3 -10 -7q-9 -7 -9 -9v-9.5t1 -18.5l2 -26l-10 -7v-5q0 -4 1 -14t4.5 -28t10 -46t16.5 -67l3 -14q1 0 2 -1v-1q0 -2 -2 -5q-2 -2 -5 -2t-14 -2q-10 -4 -31.5 -8t-57.5 -15h-2q-7 7 -14 34t-13 58.5 t-10.5 58.5t-5.5 34q-2 0 -7 0.5t-17 0.5h-32t-52 -1q-17 -25 -27 -42.5t-15 -29t-6.5 -17.5t-1.5 -9v-5h2l-4 -11q-3 -7 -12 -7q-9 -2 -23 1t-27 8t-23.5 10t-12.5 8v3q0 3 7.5 17.5t35.5 55.5q16 22 30 41t18 23v2q0 10 -7 16.5t-15 10.5q-10 4 -21 7h-3q0 8 -1 15 q-1 6 -1.5 11t-1.5 6h-12q0 -1 -0.5 -4.5t-1.5 -8.5l-2 -12h-60q0 -1 -6 -32l-3 -2h-2q-16 9 -36 2.5t-38 -17.5t-31 -22.5t-16 -13.5q0 -4 -2 -4q-3 0 -3 4v10v4q0 5 -1 9.5t-1 6.5q-2 -3 -13 -17t-23 -30l-32 -42v-2q-2 0 -3.5 -1t-3.5 -1q-2 1 -4 3l-1 1q-4 9 -7.5 28.5 t-6 43.5t-4.5 49.5t-3.5 47t-2.5 36.5t-1 17q1 2 2 5q2 6 5 8q2 4 8.5 1t11.5 -5h300q2 0 6.5 3.5t6.5 3.5q0 13 7 20q5 2 10 2h8q0 1 2 6t4 11q3 7 6 15q0 2 9 5q1 9 4 15.5t6 10.5l8 8q1 0 20 -1.5t46.5 -4.5t59.5 -5.5t60 -5.5t47.5 -4.5t22.5 -1.5q11 0 13.5 -8t2.5 -10 q0 -12 1 -21q0 -8 0.5 -14.5t0.5 -7.5h3l6 2q7 -1 12 -1q5 -1 8.5 -1h5.5q1 1 5 9q2 4 4 7l262 -7q1 -2 3 -4q1 -2 4 -5q3 3 8.5 11.5t12.5 18t13.5 19t11.5 15.5q3 3 7 6t9 3q5 -2 9.5 -6t4.5 -6q1 -24 3 -43q2 -17 3 -31t3 -15h185l4 3h71h2v0zM592 720q8 0 14.5 6.5 t6.5 14.5t-6.5 14.5t-14.5 6.5h-43q-9 0 -15 -6.5t-6 -14.5t6 -14.5t15 -6.5h43v0zM688 905q14 0 14 14q0 5 -3.5 9.5t-10.5 4.5h-155q-7 0 -11.5 -4.5t-4.5 -9.5q0 -14 16 -14h155v0z" />
<glyph unicode="x" horiz-adv-x="1338" d="M1248 838q2 -7 4 -10t2 -8t-2 -8.5t-4 -5.5h-3q0 -2 -1.5 -3t-8 -1.5t-21 -0.5t-41.5 1q-2 -2 -2.5 -4t-1.5 -4q-1 -3 -2 -4h-3q-5 2 -15 2.5t-12 0.5h-3l-1 1q-2 -1 -2.5 -3t-2.5 -4l-1 -3l-360 -42l-12 3v1q0 14 -4 20q-2 -2 -6 -4t-6 -4q0 -5 2.5 -15.5t5.5 -21.5v-2 q0 -3 -6 -12v-2q0 -23 8.5 -54t21 -64.5t27 -66t27.5 -58t21.5 -42l8.5 -16.5l3 -4l-67 -39l-2 4q-14 15 -28 41.5t-27 59t-24.5 66.5t-20.5 63.5t-15 51.5t-8 29h-2q-3 0 -17 -4.5t-35 -12.5q-6 -23 -13 -37t-13.5 -21.5t-11 -10.5t-5.5 -4q-1 0 -8 -2t-17.5 -3t-23 0.5 t-24.5 7.5q-18 7 -28 7t-14 -1q0 -2 -2.5 -7.5t-8.5 -17.5t-15.5 -32.5t-24.5 -53.5q2 -2 3 -4t1 -5v-2q-3 -6 -10 -12q-2 0 -4.5 -0.5t-8.5 1.5t-17.5 8.5t-30.5 19.5q-9 5 -17.5 11t-15.5 11q-8 5 -15 11l-2 3l2 3q19 31 37 59q15 23 30 47t23 35q1 2 1 6v7q0 17 -10 26.5 t-15 11.5q-16 0 -22.5 3.5t-10.5 6.5h-60q-4 -12 -15 -14t-17 -2h-2q-7 0 -10 10q-2 5 -2 11.5t-2 20.5v4q0 3 -2 9q-7 -7 -14 -24t-14 -37.5t-12.5 -41.5t-8.5 -35q-7 -23 -8 -26.5t-3 -4.5q-5 -2 -11 1.5t-18 19.5l-2 2l2 4q6 8 9.5 36t5 62.5t1.5 69v55.5v2q1 2 8 7.5 t13 8.5q5 4 26 -1t42 -11q2 4 6 11t8.5 14t8.5 12.5t5 6.5q0 1 1.5 2t8.5 2t21 1.5t40 0.5l7 -4h4.5t7.5 2q0 20 12 29q7 7 15 8.5t13 1.5l2 6q1 2 2 5l49 -21q-2 -6 -5 -11q-2 -5 -4 -8.5t-4 -5.5l2 -1q1 -1 2 -1l1 -1q0 -1 2 -3h4.5t4.5 1q3 0 6 1h96h3q0 3 1 4l2 2h8 l4 -4h22q0 2 1 2h1l8 6q1 -1 2 -3t4 -5h1h165q1 0 5.5 -0.5t22.5 -0.5h53t97 1q13 13 23 9q8 0 13 -4t8 -7h132l2 -2h6q1 3 1 12v18v16v12v6q1 2 6 3t10 1q6 0 13 -1q8 -2 12 -23t4 -44q3 -12 3 -23q0 -9 -1.5 -16.5t-1.5 -10.5q0 -2 1 -4q0 -2 0.5 -4t0.5 -4h1l5 4h12 q1 -1 3 -2t2.5 -2t1.5 -1h48v-2v0zM466 647q0 -7 6 -13t14 -6h73q8 0 14 6t6 13v14q0 9 -6 15t-14 6h-73q-8 0 -14 -6t-6 -15v-14z" />
<glyph unicode="y" horiz-adv-x="1224" d="M918 904q1 -7 1.5 -13.5t0.5 -13.5q0 -18 -1.5 -31t-1.5 -14l-1 -3l-16 -2q-6 -1 -11.5 -2t-7.5 -1q-2 -7 -8 -9.5t-11 -2.5q-2 0 -14.5 -0.5t-26.5 -1.5q-20 -2 -37.5 -3t-19.5 -1q-4 0 -6.5 -1t-7.5 -6l-3 -2q-2 -1 -4.5 -8t-5.5 -17.5t-6 -23t-6 -24.5l-1 -1v-1 q-1 0 -6.5 -4.5t-17.5 -9.5q-6 -2 -23 -4.5t-38 -4t-42.5 -1t-36.5 3.5q-13 3 -21 0t-13 -7t-7 -8.5l-2 -4.5q-11 -44 -20 -79q-8 -30 -14.5 -55t-6.5 -26q1 -2 2.5 -6.5t7.5 -14.5q3 -4 1 -8q-1 -2 -4 -4t-13 -3.5t-30 -2t-56 1.5q-16 0 -32.5 1t-30 2t-23 2t-11.5 1 q-7 3 -8.5 11.5t-1.5 14.5v2q-1 1 -1.5 2t-2.5 3v2q-2 4 -2 14q0 24 10.5 58.5t23.5 66t24 54.5l11 23q2 4 2 14t-3 22q-2 4 -8 8t-13 7.5t-13.5 6t-9.5 3.5q-6 1 -7.5 2.5t-2.5 6.5q0 1 -0.5 1.5t-0.5 2.5q0 5 1.5 13t6.5 12q2 4 8 19.5t10 29.5q-2 2 -6 5.5t-12 9.5h-1v1 q-1 2 -3 5t-2 8t1 6q5 5 12 4.5t9 -0.5h1v-1q4 0 13 3l2 6q3 16 13 21t18 5v2q0 5 1.5 8t3.5 5q9 7 21 6t14 -2l3 -1v-7q0 -3 0.5 -5t0.5 -4h181l2 -2q2 -2 3 -2h83q2 0 2 4v2l6 2h189q2 1 2 3t1 4q2 6 9.5 5t15.5 -4l3 -1q4 -1 5.5 -3t3.5 -4q0 -2 3 -2q5 -3 7 -14t3 -49z M709 766q0 18 -13 30h-129q-3 -4 -11.5 -15t-8.5 -25v-1q0 -17 17 -31q22 -2 44 -2.5t39.5 0t29.5 2t15 3.5q4 3 10.5 13.5t6.5 24.5v1v0z" />
<glyph unicode="z" horiz-adv-x="1411" d="M1373 806q7 -25 6 -32t-6 -7q-2 -1 -17.5 -1t-33.5 0.5t-34 1.5t-18 2h-234q0 -3 -7 -3v-9h31l11 -12v-33h-15q-3 1 -5 3q-2 1 -3.5 2t-2.5 1q-2 0 -5 -0.5t-8 -0.5q-5 -1 -11 -1h-36h-14l-58 -4q-22 -2 -41 -3t-20 -1q-2 -5 -8.5 -13.5t-18.5 -8.5t-26 17q-5 0 -9 2.5 t-6 2.5q2 -11 2 -17.5v-13.5q0 -9 -1 -14t-3 -7q-5 -2 -11 -0.5t-11 3.5q-3 1 -25.5 1h-53.5t-66.5 -0.5t-65.5 -0.5q-2 -3 -9 -3q-11 5 -11 36q0 4 1.5 7.5t1.5 8.5q-51 0 -79 -1t-42 -2q-17 -1 -22 -2q-2 0 -4 -0.5t-5 -5.5q-3 0 -3 -5t0.5 -9t2.5 -6q-1 -2 -3 -4 q-3 -3 -5 -3q2 -4 2.5 -8.5t0.5 -10.5q0 -12 -3.5 -20.5t-15.5 -12.5q-9 -5 -21.5 -6t-24 0t-19.5 2.5t-8 3.5q-2 1 -5 2q-6 2 -7 3q-1 -2 -6.5 -16.5t-12 -31.5t-11.5 -31t-5 -15q2 -2 3.5 -7.5t1.5 -7.5q0 -3 -3 -6q-2 -5 -9 -12t-29 0q-11 3 -23.5 7.5t-23.5 8.5 q-12 4 -25 10h-5l3 4q9 15 20 34t21 35.5t17 28.5t7 14q2 5 -1 14.5t-10 12.5l-9 5l-18 9t-15 4h-10q-14 -3 -22 -3.5t-13 -0.5q-2 3 -7.5 6t-7.5 3v4q-1 1 -8 11.5t-15 25.5t-14.5 33t-6.5 34q0 8 7 18v4v10.5t2 2.5q1 1 15.5 4.5t34 6.5t39 5.5t29.5 1.5v6q4 10 6.5 18 t7 13.5t12 8t19.5 1.5q11 -2 22.5 -4.5t21.5 -5.5l21 -7q2 -1 4 -4q2 -2 3.5 -6.5t1.5 -10.5v-9h112v9h60v-9q6 0 17.5 -0.5t23.5 -0.5t21.5 -0.5t10.5 -0.5q3 0 18 0.5t36.5 2t45.5 3.5t44 5q2 1 6 5q3 3 6.5 8.5t6.5 15.5q-8 7 -12 8.5t-7 3.5q-7 0 -9 4q-7 2 -16.5 4 t-16.5 4h-3q-4 3 -16 3l-14 3q-8 2 -10.5 3.5t-7.5 6.5v2h-14q-8 0 -12 -1t-7 1q-7 7 -8.5 16t12.5 32v2h2q17 -5 22.5 -8.5t8.5 -6.5h17l9 -4q2 -4 6 -4.5t6 -0.5l2 -2q3 0 5 -1.5t4 1.5q3 0 8 -1.5t10.5 -3.5t9.5 -4.5t5 -3.5q2 -1 4 -1q2 -1 5 -1h6q1 0 5 -1.5t8.5 -3.5 t8 -3.5t3.5 -2.5h2l4 -10t3.5 -11t1.5 -12q0 -5 -0.5 -9.5t-2.5 -9.5q-6 -18 -11.5 -23.5t-5.5 -9.5q-2 -1 -3 -1q-2 -1 -4 -1h187q1 -3 2 -5q2 -5 4 -6q13 -2 29 -6t31 -7t26.5 -5.5t14.5 -1.5q6 0 8 11q1 4 1 11l14 27v6.5t1 11.5q1 7 2 15h23v-77q-2 -6 -2 -5v-2 q0 -2 6 -2q2 -2 25.5 -2t57.5 0.5t73 1t72 0.5q12 1 23 1h18t14 -1h15.5t15.5 2h21t5 -2zM337 636q6 0 11.5 6t5.5 15q0 7 -5.5 13t-11.5 6h-18q-10 0 -16 -6t-6 -13q0 -9 6 -15t16 -6h18v0z" />
<glyph unicode="&#xa6;" />
<glyph unicode="&#xae;" />
<glyph unicode="&#xc3;" />
<glyph unicode="&#xc4;" />
<glyph unicode="&#xd6;" horiz-adv-x="1129" />
<glyph unicode="&#xd7;" />
<glyph unicode="&#x2000;" horiz-adv-x="499" />
<glyph unicode="&#x2001;" horiz-adv-x="998" />
<glyph unicode="&#x2002;" horiz-adv-x="499" />
<glyph unicode="&#x2003;" horiz-adv-x="998" />
<glyph unicode="&#x2004;" horiz-adv-x="332" />
<glyph unicode="&#x2005;" horiz-adv-x="249" />
<glyph unicode="&#x2006;" horiz-adv-x="166" />
<glyph unicode="&#x2007;" horiz-adv-x="166" />
<glyph unicode="&#x2008;" horiz-adv-x="124" />
<glyph unicode="&#x2009;" horiz-adv-x="199" />
<glyph unicode="&#x200a;" horiz-adv-x="55" />
<glyph unicode="&#x201c;" />
<glyph unicode="&#x202f;" horiz-adv-x="199" />
<glyph unicode="&#x205f;" horiz-adv-x="249" />
<glyph unicode="&#xe000;" horiz-adv-x="970" d="M0 970h970v-970h-970v970z" />
</font>
</defs>
</svg>
